<svg width="354" height="332" viewBox="0 0 354 332" fill="none" xmlns="http://www.w3.org/2000/svg">
<g>
<g clip-path="url(#clip0_1644_4742)">
<rect x="12.1719" y="10.4474" width="323.411" height="301.128" rx="10.2383" fill="white"/>
<path d="M157.5 138.026C156.122 138.483 154.759 138.945 153.41 139.412C149.054 140.964 144.755 142.646 140.513 144.458C134.322 147.096 129.082 149.801 124.792 152.572C119.43 156.005 114.629 160.048 110.388 164.7C109.544 165.623 108.771 166.595 108.07 167.615C116.674 170.786 122.056 173.442 124.216 175.583C126.565 177.975 128.398 180.689 129.714 183.724C129.855 184.08 130.015 184.451 130.193 184.836C130.231 184.933 130.283 185.039 130.349 185.155C131.499 186.403 132.382 187.443 132.999 188.274C134.071 189.704 134.84 191.122 135.307 192.528C135.754 193.981 135.967 195.844 135.946 198.118C135.901 201.86 135.878 203.77 135.878 203.846C135.92 205.43 136.354 208.337 137.178 212.567C137.389 213.663 137.567 214.696 137.711 215.667C137.67 217.019 137.015 220.77 135.747 226.918C135.775 227.034 135.793 227.164 135.801 227.308L136.819 235.478C137.068 235.557 137.312 235.651 137.551 235.759C139.226 236.389 141.017 237.332 142.926 238.587C144.033 239.327 145.679 240.532 147.862 242.203C145.594 241.386 143.227 241.387 140.76 242.209C138.294 243.02 136.403 244.427 135.088 246.43C137.459 244.505 140.362 243.241 143.796 242.64C146.816 242.122 150.048 242.147 153.49 242.717C156.012 243.096 159.131 243.845 162.847 244.964C167.625 246.42 170.57 247.316 171.681 247.652C171.958 247.722 172.131 247.762 172.198 247.772C175.676 248.659 180.89 249.73 187.841 250.985C189.024 250.824 190.194 251.468 191.352 252.918L181.022 277.607C181.012 277.607 180.998 277.607 180.978 277.607C180.767 277.576 180.552 277.541 180.331 277.5C179.593 277.34 178.929 277.017 178.338 276.531C178.271 276.483 178.228 276.43 178.21 276.372C176.081 277.033 173.686 277.423 171.025 277.542C168.488 277.672 165.032 277.548 160.657 277.171C160.225 277.138 159.807 277.105 159.404 277.073C152.84 276.579 147.63 276.132 143.773 275.731C137.555 275.126 131.963 274.411 126.996 273.587C122.308 272.794 118.504 271.813 115.586 270.644C114.4 270.182 113.286 269.663 112.244 269.087C111.705 288.667 111.112 299.063 110.467 300.276C110.076 300.992 109.599 304.231 109.036 309.993L228.878 311.12C228.957 309.32 229.008 307.997 229.03 307.149C229.048 305.307 228.913 302.767 228.627 299.531C228.206 295.199 227.803 291.131 227.416 287.328C227.309 286.511 227.196 285.723 227.078 284.964L227.089 283.798C227.203 284.941 227.312 286.118 227.416 287.328C227.803 291.131 228.206 295.199 228.627 299.531C228.913 302.767 229.048 305.307 229.03 307.149C229.008 307.997 228.957 309.32 228.878 311.12L254.315 311.359C254.303 305.563 254.277 302.133 254.239 301.067C254.079 297.707 253.903 294.496 253.71 291.433C253.468 287.611 253.228 284.054 252.99 280.76C252.413 273.702 251.772 267.78 251.068 262.995C253.23 258.812 253.116 256.158 250.725 255.032C249.919 216.18 249.317 195.903 248.92 194.201C247.635 187.875 246.638 183.178 245.927 180.11C243.296 168.858 239.32 160.708 233.999 155.658C231.343 153.177 227.911 150.937 223.705 148.94C221.181 147.727 217.267 146.183 211.965 144.31C211.926 144.3 211.883 144.29 211.835 144.28C211.519 144.191 211.222 144.078 210.945 143.941C210.247 143.694 209.591 143.472 208.978 143.274C208.098 142.949 207.279 142.644 206.523 142.359C205.422 141.005 204.664 139.448 204.248 137.688C204.016 136.794 203.781 135.309 203.541 133.234C195.687 131.999 189.794 131.142 185.861 130.664C178.782 129.734 172.257 129.217 166.284 129.112C165.167 133.487 162.239 136.458 157.5 138.026Z" fill="white"/>
<path d="M108.07 167.615C108.771 166.595 109.544 165.623 110.388 164.7C114.629 160.048 119.43 156.005 124.792 152.572C129.082 149.801 134.322 147.096 140.513 144.458C144.755 142.646 149.054 140.964 153.41 139.412C154.759 138.945 156.122 138.483 157.499 138.026C162.239 136.458 165.167 133.487 166.284 129.112C172.257 129.216 178.782 129.734 185.861 130.664C189.794 131.142 195.687 131.999 203.541 133.234C203.78 135.309 204.016 136.794 204.248 137.688C204.663 139.448 205.422 141.005 206.523 142.359C207.279 142.644 208.097 142.949 208.978 143.274C209.591 143.472 210.246 143.694 210.945 143.94C211.222 144.077 211.519 144.191 211.835 144.28C211.883 144.29 211.926 144.3 211.964 144.31C217.267 146.183 221.181 147.726 223.704 148.94C227.911 150.937 231.343 153.176 233.999 155.658C239.32 160.707 243.296 168.858 245.927 180.11C246.637 183.178 247.635 187.875 248.92 194.201C249.317 195.903 249.919 216.18 250.725 255.031C253.115 256.157 253.23 258.812 251.068 262.994C251.772 267.78 252.413 273.702 252.99 280.76C253.227 284.054 253.468 287.611 253.71 291.433C253.902 294.495 254.079 297.707 254.239 301.067C254.277 302.132 254.302 305.563 254.315 311.359M109.036 309.993C109.599 304.231 110.076 300.992 110.467 300.276C111.112 299.063 111.705 288.667 112.244 269.087M130.193 184.836C130.231 184.933 130.283 185.039 130.349 185.154M157.498 138.198C157.92 141.321 158.347 143.887 158.78 145.897C159.863 151.156 161.624 156.46 164.061 161.808C166.479 167.147 169.959 170.773 174.503 172.687C179.047 174.592 184.062 174.365 189.549 172.009C195.045 169.604 199.067 166.225 201.615 161.874C204.153 157.512 205.894 154.16 206.838 151.818C207.791 149.476 208.505 146.628 208.978 143.274M153.4 140.463C154.61 146.616 155.835 151.578 157.077 155.352C159.681 163.389 163.032 169.125 167.129 172.56C171.313 175.968 176.673 177.328 183.21 176.641C187.526 176.154 191.452 174.881 194.986 172.823C199.042 170.433 202.372 167.096 204.977 162.812C207.083 159.377 208.823 155.1 210.197 149.979C210.385 149.357 210.974 147.467 211.964 144.31M147.695 203.267C148.726 199.831 150.647 196.265 153.457 192.569C155.227 190.234 158.032 187.061 161.873 183.047M151.691 230.264C153.725 231.53 156.026 232.358 158.597 232.747C161.013 233.134 163.486 233.11 166.016 232.673C170.566 231.852 175.065 229.822 179.513 226.582M136.803 192.7C135.393 189.453 133.19 186.832 130.193 184.836M220.95 195.262C219.703 202.198 217.26 208.772 213.619 214.984C209.959 221.206 205.405 226.552 199.956 231.02C196.007 234.255 193.897 235.996 193.626 236.243C191.378 238.4 189.879 240.569 189.128 242.75M228.672 188.958C229.568 191.74 230.518 195.443 231.521 200.068C231.605 200.386 231.674 200.703 231.728 201.02C231.901 202.001 232.036 202.957 232.133 203.888C233.121 210.192 233.068 215.791 231.975 220.684C231.102 224.716 229.731 228.532 227.863 232.132C225.805 239.607 225.496 256.884 226.936 283.962C226.983 284.291 227.031 284.625 227.078 284.964L227.089 283.798C227.054 283.491 227.023 283.193 226.997 282.905M232.133 203.888C232.301 205.492 232.325 206.985 232.207 208.365M210.352 177.919C209.206 182.312 208.34 186.08 207.753 189.222M227.863 232.132C227.178 233.536 226.397 234.891 225.52 236.198M226.768 282.73C226.823 283.133 226.879 283.544 226.936 283.962M227.078 284.964C227.196 285.723 227.308 286.511 227.416 287.328C227.312 286.118 227.203 284.941 227.089 283.798M206.211 242.983C210.955 240.954 216 240.042 221.348 240.246M228.885 311.12C228.959 309.32 229.008 307.996 229.03 307.149C229.048 305.306 228.913 302.767 228.627 299.531C228.206 295.199 227.803 291.131 227.416 287.328M122.861 296.636C128.019 292.52 134.401 288.9 142.007 285.776C146.827 283.816 153.879 281.449 163.163 278.677M150.487 293.93C154.711 292.061 158.504 290.594 161.865 289.532M199.086 243.923C202.289 241.334 205.651 239.23 209.171 237.613" stroke="#808080" stroke-width="0.641402" stroke-linecap="round" stroke-linejoin="round"/>
<path d="M254.305 311.359L228.875 311.12L109.026 309.992M241.762 280.309C242.369 280.065 243.266 279.675 244.452 279.139C244.761 279.037 245.156 278.844 245.639 278.56C246.141 278.335 246.808 277.852 247.641 277.111C247.95 276.903 248.197 276.656 248.382 276.37C248.721 276.066 248.97 275.622 249.129 275.038" stroke="#808080" stroke-width="0.641402" stroke-linecap="round" stroke-linejoin="round"/>
<path d="M170.579 115.419C170.745 115.382 170.898 115.339 171.039 115.29C174.199 114.786 177.335 114.732 180.449 115.13C180.983 115.174 181.345 115.19 181.536 115.179C181.994 115.158 182.351 115.091 182.607 114.979C182.952 114.83 183.234 114.572 183.454 114.205C183.041 113.489 182.339 113.032 181.348 112.832C180.777 112.724 179.899 112.697 178.715 112.75C175.8 112.9 173.508 113.133 171.838 113.448C169.468 113.858 167.388 114.493 165.599 115.353C166.258 115.588 167.002 115.697 167.829 115.679C168.759 115.548 169.676 115.461 170.579 115.419Z" fill="white"/>
<path d="M159.056 121.525C159.102 122.009 159.149 122.429 159.197 122.785C159.653 123.006 160.076 123.283 160.467 123.617C160.67 123.734 160.827 123.888 160.94 124.079C160.987 124.499 160.938 125.001 160.792 125.584C160.607 126.358 160.144 127.542 159.404 129.137C159.026 130.125 158.843 131.306 158.855 132.679C158.822 133.505 158.861 134.738 158.973 136.379C159.068 138.491 158.964 140.772 158.661 143.222C158.538 144.216 158.368 145.327 158.152 146.555C158.154 146.569 158.154 146.582 158.152 146.593C158.123 146.936 158.063 147.297 157.97 147.678C158.044 147.895 158.151 148.105 158.289 148.31C158.363 148.552 158.462 148.814 158.587 149.095C159.036 149.989 159.531 150.858 160.07 151.702C160.245 151.983 160.427 152.258 160.615 152.527C162.007 154.676 163.63 156.675 165.483 158.523C168.496 161.437 171.986 163.707 175.953 165.333C179.907 166.972 183.99 167.837 188.2 167.928C190.401 167.948 192.439 167.732 194.313 167.28C195.703 166.949 196.986 166.466 198.163 165.828C198.739 165.478 199.277 165.095 199.777 164.68C201.456 163.298 202.867 161.41 204.009 159.019C204.452 158.006 204.908 156.764 205.38 155.294C205.471 155.142 205.561 154.99 205.652 154.839C206.442 153.359 207.155 151.942 207.791 150.587C208.531 149.031 209.174 147.581 209.721 146.239C211.352 141.957 212.287 137.923 212.526 134.137C212.504 133.768 212.501 133.381 212.518 132.974C212.018 133.325 211.475 133.657 210.886 133.969C208.828 135.056 206.756 135.513 204.671 135.341C202.65 135.131 200.716 134.452 198.869 133.303C197.642 132.526 196.664 131.659 195.936 130.701C195.945 130.891 195.95 131.082 195.95 131.274C195.882 130.978 195.802 130.678 195.71 130.375C195.785 130.485 195.86 130.594 195.936 130.701C196.664 131.659 197.642 132.526 198.869 133.303C200.716 134.452 202.65 135.131 204.671 135.341C206.756 135.513 208.828 135.056 210.886 133.969C211.475 133.657 212.018 133.325 212.518 132.974C213.824 132.071 214.948 130.982 215.888 129.707C217.938 126.84 219.252 123.121 219.829 118.55C220.059 118.425 220.245 118.319 220.386 118.231C220.526 118.169 220.679 118.107 220.845 118.045C220.837 116.214 220.708 114.421 220.457 112.664C216.821 112.375 213.234 112.342 209.694 112.563C207.658 112.696 205.62 112.912 203.581 113.211C202.04 113.412 200.791 113.661 199.834 113.957C198.456 114.389 197.337 114.983 196.477 115.737C195.837 116.227 195.098 116.989 194.261 118.024C193.965 118.428 193.681 118.787 193.411 119.103C193.157 119.232 192.87 119.337 192.55 119.419C192.5 119.432 192.449 119.444 192.396 119.455C191.49 119.739 190.568 119.731 189.629 119.429C188.792 119.244 187.956 118.848 187.122 118.243C186.742 117.985 186.345 117.651 185.929 117.24C181.334 116.078 176.637 115.64 171.838 115.925C171.379 115.959 170.895 116.005 170.386 116.064C169.482 116.106 168.565 116.193 167.635 116.324C165.304 116.645 163.022 117.139 160.789 117.804C160.061 118.09 159.359 118.325 158.683 118.509C158.776 119.438 158.9 120.443 159.056 121.525ZM201.271 115.325C202.087 115.167 203.24 115.032 204.73 114.919L209.81 114.528L211.394 114.486C212.222 114.43 212.87 114.417 213.341 114.447C214.04 114.479 214.637 114.656 215.13 114.978C215.838 115.405 216.36 116.109 216.694 117.091C216.731 117.18 216.768 117.301 216.805 117.454C216.946 118.663 216.967 119.814 216.868 120.906C216.684 122.888 216.209 124.663 215.444 126.232C214.691 127.839 213.705 129.21 212.485 130.342C212.357 130.43 212.21 130.549 212.043 130.7C210.568 131.945 208.945 132.756 207.173 133.133C205.312 133.51 203.475 133.327 201.662 132.586C199.837 131.882 198.429 130.75 197.439 129.19C196.712 127.988 196.242 126.573 196.028 124.943C195.897 124.001 195.844 122.901 195.868 121.643C195.894 121.58 195.914 121.523 195.927 121.472L195.947 121.415C195.947 121.402 195.953 121.389 195.966 121.377C196.035 120.844 196.154 120.387 196.323 120.007C196.743 118.587 197.396 117.488 198.281 116.708C199.05 116.079 200.047 115.618 201.271 115.325ZM163.768 123.705C163.759 123.337 163.75 122.974 163.74 122.618C163.786 121.792 164.015 121.089 164.428 120.508C165.216 119.257 166.693 118.419 168.86 117.995C170.199 117.689 171.759 117.501 173.541 117.428C174.063 117.433 174.68 117.433 175.392 117.427C175.837 117.444 176.327 117.448 176.862 117.441C177.269 117.444 177.708 117.455 178.178 117.472C179.641 117.498 180.804 117.598 181.668 117.772C182.861 118.05 183.836 118.53 184.593 119.21C185.287 119.853 185.819 120.754 186.19 121.914C186.387 122.666 186.581 123.647 186.773 124.856C186.734 124.958 186.714 125.034 186.714 125.085C186.685 125.415 186.657 125.751 186.628 126.094C186.393 128.025 185.83 129.799 184.937 131.418C183.954 133.049 182.657 134.371 181.044 135.386C179.355 136.463 177.561 137.063 175.665 137.185C173.755 137.319 171.926 136.933 170.179 136.027C168.381 135.158 167.044 133.919 166.168 132.309C165.455 131.069 164.916 129.475 164.553 127.527C164.516 127.386 164.505 127.234 164.519 127.069C164.036 125.666 163.786 124.545 163.768 123.705ZM178.207 148.917L177.998 148.839C178.125 148.853 178.246 148.86 178.36 148.861C181.965 147.103 185.532 145.922 189.062 145.32C189.658 145.397 190.218 145.434 190.74 145.431C191.808 145.433 192.739 145.276 193.531 144.961C194.68 144.489 195.491 144.217 195.962 144.145C196.37 144.073 197.444 144.172 199.185 144.443C200.214 144.592 201.065 144.695 201.739 144.753C200.882 146.537 200.132 147.903 199.487 148.85C198.39 150.467 197.133 151.587 195.714 152.209C194.335 152.806 192.939 153.111 191.526 153.123C190.139 153.161 188.032 152.62 185.206 151.5L178.207 148.917ZM178.36 148.861C181.324 148.977 184.263 148.967 187.177 148.83C188.885 148.75 190.584 148.626 192.276 148.458C192.608 148.423 192.92 148.394 193.212 148.372C194.539 148.003 196.129 147.389 197.982 146.529C199.847 145.682 201.1 145.09 201.739 144.753C201.065 144.695 200.214 144.592 199.185 144.443C197.444 144.172 196.37 144.073 195.962 144.145C195.491 144.217 194.68 144.489 193.531 144.961C192.739 145.276 191.808 145.433 190.74 145.431C190.218 145.434 189.658 145.397 189.062 145.32C185.532 145.922 181.965 147.103 178.36 148.861ZM178.36 148.861C178.334 148.899 178.283 148.918 178.207 148.917L185.206 151.5C188.032 152.62 190.139 153.161 191.526 153.123C192.939 153.111 194.335 152.806 195.714 152.209C197.133 151.587 198.39 150.467 199.487 148.85C200.132 147.903 200.882 146.537 201.739 144.753C201.1 145.09 199.847 145.682 197.982 146.529C196.129 147.389 194.539 148.003 193.212 148.372C192.92 148.394 192.608 148.423 192.276 148.458C190.584 148.626 188.885 148.75 187.177 148.83C184.263 148.967 181.324 148.977 178.36 148.861ZM164.428 120.508C164.015 121.089 163.786 121.792 163.74 122.618C163.934 123.624 164.194 125.108 164.519 127.069C164.505 127.234 164.516 127.386 164.553 127.527C164.916 129.475 165.455 131.069 166.168 132.309C167.044 133.919 168.381 135.158 170.179 136.027C171.926 136.933 173.755 137.319 175.665 137.185C177.561 137.063 179.355 136.463 181.044 135.386C182.657 134.371 183.954 133.049 184.937 131.418C185.83 129.799 186.393 128.025 186.628 126.094C186.657 125.751 186.685 125.415 186.714 125.085C186.714 125.034 186.734 124.958 186.773 124.856C186.581 123.647 186.387 122.666 186.19 121.914C185.819 120.754 185.287 119.853 184.593 119.21C183.836 118.53 182.861 118.05 181.668 117.772C180.804 117.598 179.641 117.498 178.178 117.472C177.708 117.455 177.269 117.444 176.862 117.441C176.327 117.448 175.837 117.444 175.392 117.427C174.68 117.433 174.063 117.433 173.541 117.428C171.759 117.501 170.199 117.689 168.86 117.995C166.693 118.419 165.216 119.257 164.428 120.508ZM169.521 122.844C169.995 122.417 170.514 122.015 171.078 121.638C171.576 121.389 172.113 121.191 172.686 121.043C172.697 121.04 172.703 121.033 172.706 121.025C173.087 120.899 173.476 120.794 173.873 120.711C174.383 120.614 174.898 120.568 175.42 120.573C175.904 120.565 176.406 120.602 176.927 120.683C177.003 120.722 177.073 120.729 177.136 120.704C177.149 120.707 177.162 120.707 177.175 120.704C178.075 120.922 178.931 121.222 179.742 121.606C180.046 121.774 180.464 122.032 180.995 122.38C181.121 122.458 181.235 122.535 181.336 122.612C181.451 122.613 181.565 122.614 181.68 122.615L181.678 122.806C181.867 122.948 182.051 123.045 182.228 123.097C182.227 123.199 182.239 123.326 182.263 123.479L182.185 123.707C182.07 123.731 181.993 123.731 181.956 123.705L181.559 125.322L181.67 123.588C181.518 123.523 181.404 123.477 181.328 123.451C181.188 123.463 180.998 123.429 180.757 123.35C180.516 123.272 180.319 123.238 180.166 123.25L180.185 123.288C180.044 123.35 179.916 123.4 179.802 123.437C179.291 123.623 178.787 123.79 178.289 123.937C178.149 123.974 178.002 124.011 177.849 124.048C177.658 124.084 177.48 124.12 177.314 124.157C176.473 124.314 175.626 124.383 174.774 124.362C174.698 124.336 174.634 124.329 174.583 124.341C174.443 124.327 174.316 124.32 174.202 124.318C173.858 124.29 173.528 124.261 173.21 124.233C172.968 124.205 172.714 124.171 172.448 124.13C171.647 123.97 170.88 123.747 170.145 123.46C169.841 123.318 169.549 123.188 169.27 123.071C169.335 122.982 169.418 122.907 169.521 122.844ZM172.706 121.025C172.657 121.174 172.617 121.339 172.587 121.519C172.465 122.23 172.6 122.784 172.991 123.182C173.344 123.541 173.819 123.724 174.417 123.729C174.875 123.734 175.404 123.643 176.004 123.458C176.285 123.258 176.51 123.05 176.677 122.835C176.87 122.621 177 122.336 177.067 121.981C177.198 121.537 177.246 121.188 177.211 120.933C177.204 120.856 177.192 120.78 177.175 120.704C177.162 120.707 177.149 120.707 177.136 120.704C177.073 120.729 177.003 120.722 176.927 120.683C176.406 120.602 175.904 120.565 175.42 120.573C174.898 120.568 174.383 120.614 173.873 120.711C173.476 120.794 173.087 120.899 172.706 121.025ZM169.521 122.844C169.418 122.907 169.335 122.982 169.27 123.071C169.549 123.188 169.841 123.318 170.145 123.46C170.88 123.747 171.647 123.97 172.448 124.13C172.714 124.171 172.968 124.205 173.21 124.233C173.528 124.261 173.858 124.29 174.202 124.318C174.316 124.32 174.443 124.327 174.583 124.341C174.634 124.329 174.698 124.336 174.774 124.362C175.626 124.383 176.473 124.314 177.314 124.157C177.48 124.12 177.658 124.084 177.849 124.048C178.002 124.011 178.149 123.974 178.289 123.937C178.787 123.79 179.291 123.623 179.802 123.437C179.916 123.4 180.044 123.35 180.185 123.288L180.166 123.25C180.319 123.238 180.516 123.272 180.757 123.35C180.998 123.429 181.188 123.463 181.328 123.451C181.404 123.477 181.518 123.523 181.67 123.588C181.747 123.601 181.842 123.64 181.956 123.705C181.993 123.731 182.07 123.731 182.185 123.707L182.263 123.479C182.239 123.326 182.227 123.199 182.228 123.097C182.051 123.045 181.867 122.948 181.678 122.806C181.577 122.742 181.463 122.677 181.336 122.612C181.235 122.535 181.121 122.458 180.995 122.38C180.464 122.032 180.046 121.774 179.742 121.606C178.931 121.222 178.075 120.922 177.175 120.704C177.192 120.78 177.204 120.856 177.211 120.933C177.246 121.188 177.198 121.537 177.067 121.981C177 122.336 176.87 122.621 176.677 122.835C176.51 123.05 176.285 123.258 176.004 123.458C175.404 123.643 174.875 123.734 174.417 123.729C173.819 123.724 173.344 123.541 172.991 123.182C172.6 122.784 172.465 122.23 172.587 121.519C172.617 121.339 172.657 121.174 172.706 121.025C172.703 121.033 172.697 121.04 172.686 121.043C172.113 121.191 171.576 121.389 171.078 121.638C170.514 122.015 169.995 122.417 169.521 122.844ZM204.73 114.919C203.24 115.032 202.087 115.167 201.271 115.325C200.047 115.618 199.05 116.079 198.281 116.708C197.396 117.488 196.743 118.587 196.323 120.007C196.154 120.387 196.035 120.844 195.966 121.377C195.979 121.364 196.005 121.352 196.043 121.339C196.325 121.088 196.666 120.748 197.064 120.319C197.372 120.017 197.636 119.753 197.854 119.526C198.11 119.338 198.296 119.168 198.412 119.016C199.091 118.527 199.826 118.165 200.617 117.931C200.949 117.807 201.268 117.721 201.574 117.673C202.07 117.627 202.567 117.612 203.063 117.63C203.877 117.637 204.607 117.816 205.252 118.165C205.633 118.334 206.063 118.567 206.544 118.864C206.492 118.952 206.446 119.041 206.407 119.13C206.097 119.686 205.8 120.128 205.517 120.456C205.44 120.532 205.376 120.62 205.324 120.721C205.208 120.835 205.093 120.948 204.977 121.061C204.874 121.162 204.772 121.25 204.669 121.325C204.413 121.514 204.151 121.651 203.883 121.737C203.538 121.912 203.174 122.023 202.792 122.07C202.525 122.081 202.258 122.072 201.991 122.044C201.686 122.015 201.361 121.987 201.018 121.958C200.84 121.944 200.669 121.93 200.503 121.915C200.351 121.901 200.198 121.887 200.046 121.873C199.664 121.831 199.321 121.803 199.016 121.787C198.711 121.759 198.444 121.756 198.214 121.779C198.138 121.766 198.056 121.765 197.966 121.777C197.89 121.789 197.839 121.801 197.813 121.814C197.431 121.848 197.221 121.878 197.183 121.903C196.864 121.964 196.591 121.942 196.363 121.838C196.172 121.811 196.007 121.746 195.868 121.643C195.844 122.901 195.897 124.001 196.028 124.943C196.242 126.573 196.712 127.988 197.439 129.19C198.429 130.75 199.837 131.882 201.662 132.586C203.475 133.327 205.312 133.51 207.173 133.133C208.945 132.756 210.568 131.945 212.043 130.7C212.21 130.549 212.357 130.43 212.485 130.342C212.25 126.908 211.495 123.392 210.218 119.795C210.084 117.848 209.948 116.093 209.81 114.528L204.73 114.919ZM215.13 114.978C214.637 114.656 214.04 114.479 213.341 114.447C212.87 114.417 212.222 114.43 211.394 114.486L209.81 114.528C209.948 116.093 210.084 117.848 210.218 119.795C211.495 123.392 212.25 126.908 212.485 130.342C213.705 129.21 214.691 127.839 215.444 126.232C216.209 124.663 216.684 122.888 216.868 120.906C216.967 119.814 216.946 118.663 216.805 117.454C216.768 117.301 216.731 117.18 216.694 117.091C216.36 116.109 215.838 115.405 215.13 114.978ZM195.966 121.377C195.953 121.389 195.947 121.402 195.947 121.415L195.927 121.472C195.966 121.421 196.004 121.377 196.043 121.339C196.005 121.352 195.979 121.364 195.966 121.377ZM174.097 64.3836C171.415 64.1041 168.702 64.4154 165.958 65.3176C163.661 66.0588 161.246 67.2501 158.711 68.8916C157.201 69.8436 154.991 71.4183 152.082 73.6156C149.776 75.3483 148.084 76.7053 147.006 77.6868C145.21 79.2335 143.733 80.7515 142.574 82.2407C141.17 84.0835 140.096 85.974 139.352 87.912C138.738 89.6479 138.448 91.3614 138.483 93.0525C138.315 93.3179 138.147 93.596 137.979 93.8868C136.456 96.2243 134.65 98.235 132.56 99.9188C131.945 100.396 130.99 101.112 129.696 102.066C128.62 102.895 127.823 103.745 127.306 104.618C126.723 105.693 126.361 106.948 126.221 108.383C126.186 109.336 126.275 110.697 126.488 112.466C126.581 113.357 126.663 114.102 126.734 114.7C126.499 115.32 126.219 115.947 125.895 116.58C125.753 116.858 124.284 119.476 121.489 124.433C119.782 127.391 118.7 130.197 118.242 132.85C117.677 136.086 118.122 138.862 119.576 141.176L123.238 145.463C124.647 147.167 125.326 148.737 125.274 150.173C125.254 150.949 124.86 152.28 124.092 154.167C123.415 155.8 123.212 157.102 123.482 158.07C123.666 158.86 124.242 159.762 125.213 160.775C126.359 161.956 127.076 162.814 127.364 163.351C127.851 164.334 128.024 165.556 127.883 167.017C127.775 167.69 127.47 168.971 126.969 170.86C126.599 172.319 126.491 173.633 126.646 174.804C126.886 176.269 127.525 177.298 128.563 177.893C129.145 178.267 129.963 178.51 131.018 178.621C131.616 178.678 132.512 178.743 133.707 178.818C134.52 178.94 135.497 179.255 136.637 179.761C137.283 180.059 138.246 180.501 139.526 181.085C141.617 181.893 143.347 181.992 144.714 181.382C144.874 181.968 144.944 182.604 144.925 183.291C144.906 185.274 144.267 186.92 143.008 188.23C144.182 187.886 145.25 187.311 146.212 186.506C147.148 185.714 147.882 184.768 148.414 183.667C148.908 182.54 149.161 181.36 149.172 180.127C149.159 178.855 148.903 177.664 148.404 176.554C148.883 177.029 149.661 178.237 150.737 180.18C151.6 181.739 152.532 182.707 153.534 183.085C154.699 183.63 156.055 183.529 157.602 182.78C159.251 181.957 160.349 180.823 160.897 179.379C161.146 178.581 161.192 177.786 161.034 176.997C160.925 176.398 160.682 175.881 160.304 175.445C160.235 176.055 159.988 176.618 159.563 177.135C159.126 177.614 158.608 177.946 158.008 178.131C157.001 178.389 155.997 178.252 154.997 177.722C154.49 177.475 154.041 177.147 153.651 176.737C153.452 176.277 153.297 175.793 153.187 175.283C152.648 173.142 152.755 171.173 153.51 169.375C153.835 168.666 154.358 167.851 155.079 166.929C155.272 166.652 155.543 166.311 155.89 165.907C156.174 165.529 156.521 165.087 156.933 164.582C158.545 162.335 159.631 159.796 160.192 156.966C160.379 156.065 160.501 155.189 160.56 154.338C160.429 153.434 160.265 152.556 160.07 151.702C159.531 150.858 159.036 149.989 158.587 149.095C158.462 148.814 158.363 148.552 158.289 148.31C158.151 148.105 158.044 147.895 157.97 147.678C158.063 147.297 158.123 146.936 158.152 146.593C158.154 146.582 158.154 146.569 158.152 146.555C158.368 145.327 158.538 144.216 158.661 143.222C158.964 140.772 159.068 138.491 158.973 136.379C158.861 134.738 158.822 133.505 158.855 132.679C158.843 131.306 159.026 130.125 159.404 129.137C160.144 127.542 160.607 126.358 160.792 125.584C160.938 125.001 160.987 124.499 160.94 124.079C160.827 123.888 160.67 123.734 160.467 123.617C160.076 123.283 159.653 123.006 159.197 122.785C159.149 122.429 159.102 122.009 159.056 121.525C158.9 120.443 158.776 119.438 158.683 118.509C159.359 118.325 160.061 118.09 160.789 117.804C160.815 117.728 160.854 117.64 160.906 117.538C160.952 116.7 161.053 116.084 161.21 115.691C161.302 115.336 161.56 114.983 161.983 114.631L163.098 113.783C163.619 113.212 163.919 112.458 163.997 111.523C164.008 111.493 164.015 111.461 164.017 111.427C164.137 110.895 164.107 110.023 163.927 108.814C163.838 107.529 163.808 106.595 163.839 106.01C163.899 105.044 164.167 104.259 164.644 103.653C164.888 103.388 165.266 103.061 165.779 102.672C166.509 102.183 166.919 101.901 167.008 101.826C167.918 101.11 168.583 100.105 169.002 98.8124C169.381 97.7481 169.552 96.523 169.514 95.1369C169.546 94.438 169.462 93.2232 169.262 91.4924C169.23 90.8183 169.191 90.2204 169.145 89.6988C170.558 86.9026 172.534 84.5439 175.071 82.6227C176.249 81.7948 177.451 81.1069 178.678 80.5591C180.997 80.2249 182.678 80.0373 183.722 79.9963C186 79.9033 188.313 80.1412 190.662 80.7099C192.578 81.1729 194.404 81.8321 196.139 82.6874C197.504 83.73 198.816 84.8865 200.076 86.1569C201.814 88.1183 203.411 90.0212 204.87 91.8655C206.315 93.7606 207.336 96.1856 207.931 99.1405C208.565 102.121 209.002 105.062 209.242 107.963C209.332 109.184 209.483 110.717 209.694 112.563C213.234 112.342 216.821 112.375 220.457 112.664C220.708 114.421 220.837 116.214 220.845 118.045C220.679 118.107 220.526 118.169 220.386 118.231C220.245 118.319 220.059 118.425 219.829 118.55C219.252 123.121 217.938 126.84 215.888 129.707C214.948 130.982 213.824 132.071 212.518 132.974C212.501 133.381 212.504 133.768 212.526 134.137C212.287 137.923 211.352 141.957 209.721 146.239C209.174 147.581 208.531 149.031 207.791 150.587C207.69 151.82 207.592 152.817 207.496 153.578C207.463 154.405 207.442 155.212 207.435 156C207.52 156.382 207.581 156.713 207.616 156.993C207.69 157.324 207.77 157.566 207.858 157.72C208.007 158.026 208.341 158.36 208.86 158.721C209.112 158.952 209.313 159.176 209.464 159.394L209.942 159.284L211.835 158.863L215.374 158.019L216.79 157.651C216.066 158.852 215.522 159.864 215.158 160.687C216.908 161.339 218.06 161.935 218.615 162.474C218.867 162.731 219.106 163.032 219.331 163.377C219.948 162.722 220.711 162.087 221.62 161.472C221.71 161.397 221.806 161.322 221.909 161.246C222.459 160.883 223.687 160.183 225.593 159.145C227.177 158.385 228.412 157.704 229.295 157.102C230.55 156.211 231.501 155.228 232.147 154.154C232.973 152.979 233.335 151.641 233.235 150.14C233.148 148.589 232.554 147.445 231.454 146.71C231.138 146.466 230.581 146.213 229.782 145.951C229.541 145.872 229.274 145.781 228.983 145.676C228.703 145.61 228.399 145.531 228.069 145.439C226.609 145.056 225.597 144.519 225.031 143.828C224.427 143.046 224.227 142.066 224.428 140.885C224.629 139.832 225.096 138.902 225.829 138.095C226.265 137.654 226.849 137.145 227.58 136.567L225.797 129.285L232.109 127.8L234.079 127.342L234.213 127.324C234.116 126.814 234.102 126.223 234.172 125.55C234.288 124.026 234.341 123.174 234.33 122.996C234.29 121.839 233.862 120.666 233.046 119.476C232.532 118.695 231.638 117.651 230.365 116.342C229.042 115.033 228.142 114.02 227.665 113.304C226.773 112.088 226.301 110.907 226.248 109.763C226.215 109.19 226.347 107.971 226.645 106.105C226.94 104.532 226.9 103.311 226.527 102.443C226.315 101.958 225.863 101.305 225.171 100.485C224.517 99.6652 224.084 99.0192 223.872 98.5468C223.7 97.9096 223.645 97.0255 223.707 95.8946C223.756 94.662 223.714 93.7908 223.578 93.281C223.212 91.6249 221.966 90.2466 219.839 89.146C219.181 88.7584 218.148 88.2592 216.742 87.6485C215.565 87.0145 214.687 86.3261 214.109 85.5834C213.794 85.199 213.468 84.6747 213.131 84.0105C212.932 83.5764 212.664 82.9891 212.327 82.2486C211.74 81.0989 210.968 79.9157 210.013 78.699C209.309 77.8152 208.358 76.7575 207.161 75.5258C201.099 69.3794 195.231 65.6757 189.555 64.4146C188.82 64.1407 188.052 63.9364 187.252 63.8018C185.08 63.3618 182.918 63.3542 180.763 63.7789C179.948 63.9364 179.379 64.1536 179.059 64.4302C178.905 64.5559 178.603 64.909 178.152 65.4896C176.91 64.9058 175.559 64.5371 174.097 64.3836ZM169.262 91.4924C169.462 93.2232 169.546 94.438 169.514 95.1369C169.552 96.523 169.381 97.7481 169.002 98.8124C168.583 100.105 167.918 101.11 167.008 101.826C166.919 101.901 166.509 102.183 165.779 102.672C165.266 103.061 164.888 103.388 164.644 103.653C164.167 104.259 163.899 105.044 163.839 106.01C163.808 106.595 163.838 107.529 163.927 108.814C164.107 110.023 164.137 110.895 164.017 111.427C164.015 111.461 164.008 111.493 163.997 111.523C163.919 112.458 163.619 113.212 163.098 113.783L161.983 114.631C161.56 114.983 161.302 115.336 161.21 115.691C161.053 116.084 160.952 116.7 160.906 117.538C160.854 117.64 160.815 117.728 160.789 117.804C163.022 117.139 165.304 116.645 167.635 116.324C168.565 116.193 169.482 116.106 170.386 116.064C170.895 116.005 171.379 115.959 171.838 115.925C176.637 115.64 181.334 116.078 185.929 117.24C186.345 117.651 186.742 117.985 187.122 118.243C187.956 118.848 188.792 119.244 189.629 119.429C190.568 119.731 191.49 119.739 192.396 119.455C192.449 119.444 192.5 119.432 192.55 119.419C192.87 119.337 193.157 119.232 193.411 119.103C193.681 118.787 193.965 118.428 194.261 118.024C195.098 116.989 195.837 116.227 196.477 115.737C197.337 114.983 198.456 114.389 199.834 113.957C200.791 113.661 202.04 113.412 203.581 113.211C205.62 112.912 207.658 112.696 209.694 112.563C209.483 110.717 209.332 109.184 209.242 107.963C209.002 105.062 208.565 102.121 207.931 99.1405C207.336 96.1856 206.315 93.7606 204.87 91.8655C203.411 90.0212 201.814 88.1183 200.076 86.1569C198.816 84.8865 197.504 83.73 196.139 82.6874C194.404 81.8321 192.578 81.1729 190.662 80.7099C188.313 80.1412 186 79.9033 183.722 79.9963C182.678 80.0373 180.997 80.2249 178.678 80.5591C177.451 81.1069 176.249 81.7948 175.071 82.6227C172.534 84.5439 170.558 86.9026 169.145 89.6988C169.191 90.2204 169.23 90.8183 169.262 91.4924ZM195.71 130.375C195.802 130.678 195.882 130.978 195.95 131.274C195.95 131.082 195.945 130.891 195.936 130.701C195.86 130.594 195.785 130.485 195.71 130.375ZM215.158 160.687C215.132 160.75 215.106 160.801 215.08 160.839C214.768 161.599 214.525 162.378 214.352 163.178C214.06 164.459 214.035 165.762 214.277 167.086C214.663 169.365 215.755 170.958 217.553 171.865C216.839 170.701 216.616 169.352 216.885 167.816C217.128 166.369 217.744 165.104 218.734 164.02C218.914 163.792 219.113 163.578 219.331 163.377C219.106 163.032 218.867 162.731 218.615 162.474C218.06 161.935 216.908 161.339 215.158 160.687ZM207.858 157.72C207.77 157.566 207.69 157.324 207.616 156.993C207.581 156.713 207.52 156.382 207.435 156C207.435 157.385 207.492 158.664 207.609 159.834L209.464 159.394C209.313 159.176 209.112 158.952 208.86 158.721C208.341 158.36 208.007 158.026 207.858 157.72ZM224.428 140.885C224.227 142.066 224.427 143.046 225.031 143.828C225.597 144.519 226.609 145.056 228.069 145.439C228.399 145.531 228.703 145.61 228.983 145.676C229.274 145.781 229.541 145.872 229.782 145.951L227.58 136.567C226.849 137.145 226.265 137.654 225.829 138.095C225.096 138.902 224.629 139.832 224.428 140.885ZM160.56 154.338C160.501 155.189 160.379 156.065 160.192 156.966C159.631 159.796 158.545 162.335 156.933 164.582C156.521 165.087 156.174 165.529 155.89 165.907L159.83 164.972C160.402 162.397 160.703 160.098 160.735 158.077C160.772 156.819 160.714 155.573 160.56 154.338Z" fill="white"/>
<path d="M178.152 65.4818C176.91 64.8981 175.559 64.5294 174.097 64.3758C171.415 64.0963 168.702 64.4077 165.958 65.3099C163.661 66.0511 161.245 67.2424 158.711 68.8839C157.201 69.8359 154.991 71.4105 152.082 73.6079C149.776 75.3405 148.084 76.6976 147.006 77.679C145.21 79.2258 143.733 80.7438 142.574 82.233C141.169 84.0758 140.096 85.9662 139.352 87.9043C138.738 89.6401 138.448 91.3536 138.483 93.0447C139.648 90.9327 140.471 88.7093 140.951 86.3747M156.073 73.4166C154.512 74.3808 153.207 75.7351 152.16 77.4796C151.09 79.0078 150.297 80.7801 149.782 82.7966C149.31 84.2668 148.898 86.1444 148.546 88.4294C148.356 89.6988 148.077 91.5904 147.71 94.1041C147.44 95.8177 147.089 97.2891 146.657 98.5182C146.159 100.09 145.516 101.457 144.729 102.619C143.839 103.945 142.767 104.99 141.513 105.754C140.156 106.631 138.74 107.057 137.264 107.03M158.582 74.489C157.069 75.6698 155.821 77.2153 154.836 79.1257C153.865 80.8455 153.18 82.7459 152.778 84.827C152.38 86.6157 152.158 88.6032 152.112 90.7893C152.084 92.4163 152.186 94.4322 152.417 96.8371M158.948 80.2513C157.98 81.7041 157.233 83.2798 156.708 84.9784C156.183 86.6769 155.925 88.4161 155.934 90.196M179.52 76.2115C178.849 75.8365 178.089 75.5687 177.238 75.4082C176.475 75.312 175.705 75.3683 174.927 75.5771C174.162 75.7479 173.44 76.0589 172.762 76.5102C172.095 76.987 171.562 77.5541 171.162 78.2114M181.12 70.4486C179.666 69.4815 178.171 68.8127 176.635 68.4423C174.934 68.0322 173.356 68.0746 171.901 68.5694C170.331 69.114 168.883 70.2127 167.557 71.8656C166.719 73.0019 165.897 74.507 165.091 76.3808C165.052 76.4059 165.027 76.4247 165.014 76.4373C164.975 76.5132 164.943 76.5829 164.917 76.6462C163.642 78.2614 162.728 80.0898 162.174 82.1313C161.492 84.2861 161.307 86.4073 161.618 88.4951C161.685 89.5382 162.007 91.1112 162.585 93.2143C163.177 95.2157 163.513 96.7508 163.592 97.8194C163.804 99.5884 163.661 101.202 163.164 102.659C162.589 104.332 161.649 105.537 160.344 106.275M169.885 65.8426C167.918 66.6123 166.152 67.7716 164.585 69.3206C162.993 70.8311 161.762 72.5548 160.891 74.4916M172.409 81.5411C171.373 82.0907 170.576 82.9604 170.018 84.1501C169.499 85.2513 169.195 86.4688 169.106 87.8028C169.063 88.3236 169.076 88.953 169.145 89.691C170.558 86.8948 172.533 84.5361 175.071 82.6149C176.249 81.787 177.451 81.0991 178.678 80.5513C180.997 80.2172 182.678 80.0296 183.721 79.9885C184.657 79.3108 185.705 78.7423 186.867 78.2828C188.221 77.7235 189.611 77.4061 191.037 77.3305C192.5 77.268 193.917 77.4339 195.288 77.8281C196.709 78.2229 197.988 78.8515 199.125 79.7139M171.407 78.4425C168.966 80.9748 166.992 83.8801 165.486 87.1585M138.483 93.0447C138.315 93.3101 138.147 93.5882 137.979 93.879C136.456 96.2165 134.65 98.2272 132.56 99.9111C131.945 100.388 130.99 101.104 129.696 102.058C128.62 102.887 127.823 103.738 127.306 104.61C126.723 105.685 126.361 106.94 126.221 108.375C126.186 109.328 126.275 110.689 126.488 112.459C126.581 113.349 126.663 114.094 126.734 114.692C127.646 112.374 128.08 110.217 128.035 108.221M138.483 93.0447C138.505 93.4645 138.501 93.8522 138.472 94.2078M126.734 114.692C126.815 115.544 126.841 116.161 126.812 116.542C126.836 118.055 126.651 119.376 126.259 120.504C125.855 121.529 125.145 122.629 124.129 123.801M126.734 114.692C126.499 115.313 126.219 115.939 125.895 116.572C125.753 116.85 124.284 119.468 121.489 124.425C119.782 127.384 118.7 130.189 118.242 132.842C117.677 136.078 118.122 138.854 119.576 141.169L123.238 145.455C124.647 147.16 125.326 148.73 125.274 150.166C125.254 150.941 124.86 152.272 124.091 154.159C123.415 155.793 123.211 157.094 123.482 158.062C123.666 158.852 124.242 159.754 125.213 160.767C126.359 161.948 127.076 162.806 127.364 163.343C127.851 164.326 128.024 165.548 127.883 167.009C127.775 167.682 127.47 168.963 126.969 170.852C126.599 172.311 126.491 173.626 126.646 174.797C126.886 176.261 127.525 177.29 128.563 177.885C129.145 178.259 129.963 178.502 131.018 178.613C131.616 178.67 132.512 178.736 133.707 178.81C134.52 178.932 135.497 179.247 136.637 179.753C137.283 180.052 138.246 180.493 139.526 181.077C141.617 181.885 143.347 181.984 144.714 181.374C144.445 180.214 143.907 179.18 143.102 178.269C142.409 177.513 141.013 176.514 138.912 175.274C136.925 174.137 135.587 173.056 134.897 172.033M140.137 112.015C138.591 112.674 137.32 113.921 136.323 115.755C135.611 117.083 134.971 118.844 134.403 121.038C133.833 123.537 133.313 125.337 132.845 126.439C132.076 128.351 131.039 129.772 129.732 130.7C129.066 131.139 128.178 131.575 127.067 132.01C126.812 132.109 126.518 132.227 126.186 132.364M140.263 94.587C137.34 99.67 135.254 103.623 134.006 106.446C132.004 110.991 130.825 115.226 130.47 119.151M169.145 89.691C169.191 90.2127 169.23 90.8105 169.262 91.4846C169.462 93.2154 169.546 94.4302 169.514 95.1291C169.552 96.5152 169.381 97.7403 169.002 98.8046C168.583 100.097 167.918 101.102 167.008 101.818C166.918 101.893 166.509 102.175 165.779 102.664C165.266 103.054 164.888 103.381 164.644 103.645C164.167 104.251 163.899 105.037 163.839 106.002C163.808 106.587 163.837 107.521 163.927 108.806C164.107 110.016 164.137 110.887 164.017 111.42C164.015 111.454 164.011 111.489 164.007 111.524C163.922 112.453 163.619 113.204 163.098 113.775L161.983 114.623C161.56 114.975 161.302 115.329 161.21 115.684C161.053 116.076 160.952 116.692 160.906 117.531C160.854 117.632 160.815 117.72 160.789 117.796C163.022 117.131 165.304 116.638 167.635 116.316C168.565 116.185 169.482 116.098 170.386 116.056C170.895 115.997 171.379 115.951 171.838 115.917C176.637 115.632 181.334 116.07 185.928 117.232C186.344 117.643 186.742 117.977 187.121 118.235C187.955 118.84 188.791 119.236 189.629 119.422C190.568 119.723 191.49 119.731 192.396 119.448C192.449 119.436 192.5 119.424 192.549 119.411C192.87 119.329 193.157 119.224 193.411 119.095C193.681 118.78 193.964 118.42 194.261 118.016C195.098 116.981 195.836 116.219 196.477 115.729C197.337 114.975 198.455 114.381 199.834 113.949C200.791 113.653 202.04 113.404 203.581 113.203C205.62 112.904 207.657 112.688 209.694 112.555C209.483 110.709 209.332 109.176 209.241 107.955C209.001 105.054 208.565 102.113 207.931 99.1327C207.336 96.1778 206.315 93.7528 204.87 91.8577C203.411 90.0134 201.813 88.1105 200.076 86.1491C198.816 84.8787 197.503 83.7222 196.139 82.6797C194.404 81.8243 192.578 81.1651 190.661 80.7022C188.313 80.1334 186 79.8955 183.721 79.9885M149.037 103.193C147.82 105.419 147.271 108.287 147.391 111.797C147.408 112.674 147.534 114.138 147.77 116.187C147.93 118.108 148.011 119.589 148.014 120.632M154.047 102.096C154.011 103.202 154.145 105.269 154.447 108.298C154.728 110.919 154.765 112.998 154.56 114.534M144.701 111.715C144.164 116.083 144.243 120.488 144.939 124.932C145.56 129.323 146.767 133.536 148.561 137.57C149.52 139.766 150.111 141.176 150.334 141.801C150.866 143.421 151.037 144.884 150.846 146.192C150.761 147.157 150.439 148.197 149.882 149.31C149.635 149.893 149.11 150.86 148.309 152.213C146.822 154.767 146.058 156.8 146.018 158.313M160.789 117.796C160.061 118.082 159.359 118.317 158.683 118.501C158.776 119.43 158.9 120.436 159.056 121.518C159.102 122.001 159.149 122.421 159.196 122.777C159.652 122.998 160.076 123.275 160.467 123.609C160.67 123.726 160.827 123.88 160.94 124.071C161.343 124.469 161.683 124.924 161.958 125.435C162.245 126.022 162.524 126.743 162.796 127.598C162.846 127.738 163.061 128.49 163.443 129.854C163.936 131.511 164.458 132.883 165.007 133.968C165.795 135.4 166.752 136.515 167.877 137.313C169.292 138.293 171.227 138.89 173.681 139.103C175.766 139.225 177.53 139.025 178.973 138.505C180.365 137.933 181.786 137.018 183.235 135.761C183.248 135.748 183.248 135.723 183.236 135.685C185.033 134.011 186.476 132.047 187.566 129.795C188.553 127.668 189.171 125.526 189.42 123.367C189.486 123.126 189.514 122.866 189.504 122.586M163.74 122.61C163.786 121.785 164.015 121.081 164.428 120.5C165.216 119.249 166.693 118.411 168.86 117.987C170.199 117.682 171.759 117.493 173.541 117.421C174.063 117.425 174.68 117.425 175.392 117.419C175.837 117.436 176.327 117.44 176.862 117.433C177.269 117.437 177.707 117.447 178.178 117.464C179.641 117.491 180.804 117.591 181.668 117.764C182.861 118.042 183.836 118.522 184.593 119.203C185.287 119.845 185.819 120.746 186.19 121.906C186.386 122.658 186.581 123.639 186.773 124.848C186.734 124.95 186.714 125.026 186.713 125.077C186.685 125.407 186.656 125.744 186.628 126.087C186.393 128.017 185.829 129.791 184.936 131.41C183.954 133.041 182.657 134.363 181.044 135.378C179.354 136.455 177.561 137.055 175.664 137.177C173.755 137.312 171.926 136.926 170.179 136.019C168.38 135.151 167.044 133.911 166.168 132.301C165.455 131.061 164.916 129.467 164.553 127.519C164.516 127.379 164.505 127.226 164.519 127.061M168.967 122.793C169.171 122.808 169.355 122.822 169.52 122.836C169.995 122.409 170.514 122.007 171.078 121.631C171.576 121.381 172.112 121.183 172.686 121.036C172.697 121.032 172.706 121.029 172.715 121.026C173.09 120.894 173.476 120.786 173.873 120.704C174.382 120.607 174.898 120.561 175.42 120.566C175.903 120.557 176.406 120.594 176.926 120.675C177.002 120.714 177.072 120.721 177.136 120.696C177.149 120.699 177.162 120.702 177.174 120.706C178.074 120.917 178.93 121.214 179.742 121.598C180.046 121.766 180.463 122.024 180.995 122.372C181.121 122.45 181.235 122.527 181.336 122.604C181.45 122.605 181.565 122.607 181.679 122.608C182.112 122.637 182.525 122.705 182.918 122.81M181.328 123.443C181.404 123.469 181.518 123.515 181.67 123.58M180.756 123.343C180.997 123.421 181.188 123.455 181.328 123.443M180.166 123.242C180.318 123.23 180.515 123.264 180.756 123.343M180.166 123.242L180.184 123.28C180.044 123.342 179.916 123.392 179.801 123.429C179.291 123.615 178.787 123.782 178.289 123.93C178.149 123.966 178.002 124.003 177.849 124.04C177.658 124.076 177.479 124.113 177.314 124.149C176.472 124.307 175.626 124.375 174.773 124.354C174.697 124.328 174.634 124.321 174.583 124.333C174.443 124.319 174.316 124.312 174.201 124.311C173.858 124.282 173.528 124.253 173.21 124.225C172.968 124.197 172.714 124.163 172.447 124.123C171.647 123.962 170.88 123.739 170.144 123.453C169.84 123.31 169.549 123.18 169.27 123.063C169.335 122.975 169.418 122.899 169.52 122.836M172.715 121.026C172.66 121.169 172.617 121.331 172.586 121.511C172.465 122.222 172.6 122.776 172.991 123.174C173.344 123.533 173.819 123.716 174.417 123.722C174.875 123.726 175.404 123.635 176.003 123.45C176.285 123.25 176.51 123.042 176.677 122.828C176.87 122.613 177 122.328 177.067 121.973C177.198 121.529 177.246 121.18 177.21 120.926C177.204 120.848 177.192 120.775 177.174 120.706M181.729 121.369C180.911 120.471 179.867 119.819 178.599 119.413C178.028 119.23 177.437 119.129 176.827 119.11C176.344 119.055 175.873 119.076 175.414 119.173C175.261 119.197 175.114 119.221 174.974 119.246C173.803 119.349 172.616 119.713 171.414 120.337C171.172 120.437 170.916 120.549 170.648 120.673C169.894 121.035 169.056 121.504 168.134 122.08M152.334 99.5632C150.697 104.557 150.101 109.744 150.547 115.126C150.851 118.651 151.57 122.013 152.704 125.214C153.322 126.961 154.063 128.659 154.927 130.308M160.94 124.071C160.987 124.491 160.938 124.993 160.792 125.577C160.607 126.35 160.144 127.535 159.404 129.129C159.026 130.117 158.843 131.298 158.855 132.671C158.822 133.497 158.861 134.731 158.973 136.372C159.068 138.483 158.964 140.764 158.661 143.214C158.538 144.209 158.371 145.323 158.162 146.556C158.157 146.564 158.154 146.574 158.152 146.585C158.123 146.928 158.063 147.29 157.97 147.67C158.044 147.887 158.15 148.098 158.288 148.302C158.362 148.545 158.462 148.806 158.586 149.087C159.036 149.981 159.53 150.85 160.07 151.694C160.245 151.976 160.427 152.251 160.615 152.519C162.007 154.668 163.63 156.667 165.483 158.515C168.496 161.429 171.986 163.699 175.953 165.326C179.907 166.965 183.989 167.829 188.2 167.92C190.401 167.94 192.438 167.724 194.313 167.272C195.703 166.941 196.986 166.458 198.163 165.82C198.738 165.47 199.276 165.087 199.776 164.672C201.456 163.29 202.867 161.403 204.009 159.011C204.451 157.998 204.908 156.756 205.38 155.286C205.471 155.134 205.561 154.983 205.652 154.831C206.442 153.351 207.155 151.934 207.791 150.58C208.531 149.023 209.174 147.573 209.721 146.231C211.352 141.949 212.287 137.916 212.526 134.129C212.504 133.761 212.501 133.373 212.518 132.966C212.018 133.317 211.474 133.649 210.886 133.961C208.827 135.048 206.756 135.505 204.671 135.333C202.65 135.123 200.716 134.444 198.869 133.295C197.642 132.518 196.667 131.651 195.945 130.694C195.948 130.884 195.95 131.074 195.949 131.266C196.215 132.442 196.287 133.568 196.166 134.643M148.899 121.899C148.166 124.091 148.25 126.698 149.15 129.719C149.409 130.548 149.868 131.798 150.527 133.47C151.109 135.128 151.537 136.378 151.809 137.219C152.414 139.119 152.802 141.208 152.971 143.485C153.17 145.33 153.258 147.441 153.236 149.818M145.039 132.56C144.221 134.294 143.682 136.151 143.422 138.132C143.213 140.088 143.302 142.04 143.691 143.989C143.925 144.881 144.268 146.289 144.72 148.213C144.947 149.829 144.718 151.149 144.034 152.173C143.205 153.729 141.415 154.71 138.663 155.116C137.949 155.249 136.866 155.417 135.414 155.619C134.203 155.824 133.201 156.145 132.409 156.583C132.243 156.632 132.102 156.694 131.987 156.769M146.985 144.783C147.019 146.664 147.006 148.05 146.946 148.939C146.817 150.464 146.531 151.796 146.088 152.936C145.579 154.291 144.831 155.422 143.842 156.328C142.688 157.321 141.442 157.863 140.106 157.952C139.723 158.037 139.132 158.044 138.331 157.973C137.531 157.826 136.971 157.77 136.653 157.805C135.978 157.824 135.379 157.952 134.855 158.188C134.293 158.463 133.895 158.853 133.661 159.36C133.466 159.803 133.429 160.374 133.55 161.075C133.729 162.271 133.813 162.87 133.8 162.869C133.822 163.2 133.787 163.55 133.695 163.917M154.641 150.614C155.789 151.59 156.547 152.843 156.915 154.372C157.256 155.901 157.153 157.375 156.606 158.794C156.294 159.515 155.661 160.501 154.708 161.75C153.793 163 153.173 163.986 152.848 164.708C152.575 165.264 152.346 165.955 152.16 166.78C151.962 167.566 151.827 168.448 151.754 169.427C151.589 172.069 151.913 174.106 152.727 175.538C152.99 175.985 153.298 176.382 153.651 176.729C153.452 176.269 153.297 175.785 153.187 175.275C152.648 173.134 152.755 171.165 153.51 169.367C153.835 168.658 154.358 167.843 155.079 166.922C155.272 166.644 155.543 166.303 155.89 165.9C156.174 165.521 156.521 165.079 156.933 164.575C158.545 162.327 159.631 159.788 160.192 156.958C160.378 156.058 160.501 155.182 160.56 154.33C160.629 153.734 160.648 153.13 160.615 152.519M134.989 129.758C135.064 131.297 135.077 132.536 135.03 133.477C134.954 134.798 134.708 136.003 134.29 137.093C133.846 138.296 133.182 139.301 132.296 140.106C131.308 141.025 130.241 141.555 129.094 141.697C128.725 141.77 128.508 141.812 128.444 141.824M141.563 118.626C140.514 120.676 139.948 123.283 139.868 126.448C139.85 128.303 139.958 131.082 140.19 134.784C140.251 136.437 140.168 137.847 139.94 139.015C139.634 140.512 139.075 141.746 138.264 142.717C137.57 143.474 136.495 144.195 135.038 144.88C134.22 145.228 133.025 145.783 131.453 146.543C130.891 146.843 130.347 147.2 129.821 147.615M136.809 147.318C136.176 148.329 135.243 149.446 134.01 150.667C133.368 151.322 132.43 152.229 131.198 153.387M160.304 175.437C160.682 175.873 160.925 176.39 161.034 176.989C161.192 177.779 161.146 178.573 160.897 179.371C160.349 180.815 159.251 181.949 157.602 182.773C156.055 183.521 154.699 183.622 153.534 183.078C152.532 182.7 151.6 181.731 150.737 180.172C149.661 178.229 148.883 177.021 148.404 176.546C148.903 177.657 149.159 178.848 149.172 180.119C149.161 181.352 148.908 182.532 148.414 183.659C147.882 184.76 147.148 185.706 146.211 186.498C145.25 187.303 144.182 187.878 143.008 188.223C144.267 186.912 144.906 185.266 144.925 183.283C144.944 182.596 144.874 181.96 144.714 181.374C145.021 181.224 145.309 181.036 145.578 180.81M153.651 176.729C154.041 177.139 154.49 177.468 154.996 177.714C155.997 178.245 157 178.381 158.008 178.124C158.608 177.939 159.126 177.607 159.563 177.128C159.988 176.61 160.235 176.047 160.304 175.437C160.153 175.258 160.008 175.104 159.87 174.976M145.361 163.322C145.168 164.858 144.291 166.757 142.731 169.017M178.152 65.4818C178.602 64.9013 178.905 64.5482 179.059 64.4225C179.379 64.1458 179.947 63.9287 180.763 63.7711C182.917 63.3464 185.08 63.3541 187.252 63.794C188.052 63.9287 188.82 64.1329 189.555 64.4068C195.23 65.6679 201.099 69.3717 207.161 75.5181C208.358 76.7497 209.309 77.8075 210.013 78.6913C210.968 79.908 211.74 81.0911 212.327 82.2408C212.663 82.9813 212.931 83.5686 213.131 84.0027C213.468 84.667 213.794 85.1912 214.108 85.5756C214.687 86.3184 215.564 87.0067 216.742 87.6407C218.148 88.2515 219.18 88.7506 219.838 89.1382C221.965 90.2388 223.212 91.6171 223.578 93.2732C223.713 93.783 223.756 94.6542 223.706 95.8869C223.645 97.0177 223.7 97.9018 223.872 98.539C224.084 99.0114 224.517 99.6574 225.171 100.477C225.863 101.297 226.315 101.95 226.526 102.435C226.9 103.303 226.939 104.524 226.645 106.097C226.347 107.963 226.215 109.182 226.248 109.755C226.3 110.899 226.773 112.08 227.665 113.296C228.141 114.012 229.042 115.025 230.365 116.334C231.638 117.643 232.531 118.687 233.046 119.468C233.861 120.658 234.289 121.831 234.329 122.988C234.34 123.167 234.288 124.018 234.172 125.542C234.102 126.215 234.115 126.807 234.212 127.316M234.079 127.334C234.019 128.287 233.8 129.238 233.422 130.188C232.835 131.708 231.952 132.996 230.771 134.053C230.322 134.456 229.495 135.096 228.291 135.975C228.009 136.188 227.772 136.383 227.579 136.559M229.781 145.943C230.58 146.205 231.138 146.458 231.454 146.702C232.554 147.437 233.147 148.581 233.234 150.132C233.335 151.633 232.972 152.971 232.147 154.146C231.501 155.22 230.55 156.203 229.295 157.094C228.411 157.696 227.177 158.377 225.592 159.137M220.471 165.973C221.031 164.529 221.414 163.026 221.62 161.465M219.725 164.097C219.912 164.493 220.161 165.118 220.471 165.973M219.331 163.369C219.456 163.586 219.588 163.829 219.725 164.097M214.854 160.562C214.955 160.601 215.056 160.64 215.158 160.679M211.835 158.855C212.453 159.484 213.459 160.053 214.854 160.562M210.047 160.269C209.961 159.963 209.926 159.632 209.942 159.276M210.156 160.861C210.144 160.772 210.108 160.574 210.047 160.269M209.999 161.298C210.115 161.197 210.167 161.052 210.156 160.861M209.752 161.162C209.828 161.265 209.91 161.31 209.999 161.298M209.679 160.895C209.678 160.996 209.702 161.086 209.752 161.162M209.682 160.551C209.668 160.691 209.667 160.805 209.679 160.895M209.742 160.247L209.682 160.551M209.464 159.386C209.665 159.68 209.757 159.967 209.742 160.247M207.07 154.215C207.216 154.903 207.337 155.495 207.435 155.992M181.378 67.4C180.406 66.5773 179.331 65.9379 178.152 65.4818M186.804 66.7455C185.694 67.0402 184.722 67.5713 183.888 68.3389C182.977 69.1694 182.357 70.1234 182.029 71.2009M192.11 68.7214C190.987 69.0414 190.151 69.3195 189.602 69.5559C188.607 69.8771 187.796 70.219 187.169 70.5818C186.464 71.0837 186.008 71.5307 185.801 71.9228C185.671 72.2013 185.585 72.5628 185.543 73.0073C185.529 73.1598 185.525 73.5284 185.532 74.1132M190.331 73.2621C191.974 73.0361 193.285 72.9658 194.264 73.0512C195.713 73.2047 196.822 73.6919 197.59 74.5127C197.917 74.8717 198.3 75.4792 198.737 76.3351C199.148 77.2415 199.498 77.8868 199.787 78.2709C200.227 78.8725 200.953 79.4705 201.965 80.0648C203.143 80.6225 203.992 81.0628 204.51 81.3854C205.749 82.2234 207.256 83.7123 209.029 85.852C210.865 88.1321 212.327 89.6587 213.414 90.4316C213.742 90.6763 214.792 91.3091 216.564 92.33C217.906 93.08 218.903 93.8394 219.558 94.6083C220.69 95.9538 221.364 98.0196 221.58 100.806C221.648 101.62 221.726 102.803 221.814 104.355C221.941 105.729 222.14 106.888 222.411 107.831M181.678 122.798C181.576 122.734 181.462 122.669 181.336 122.604M181.67 123.58C181.746 123.593 181.841 123.632 181.955 123.697C181.993 123.723 182.07 123.724 182.184 123.699L182.263 123.471C182.239 123.318 182.227 123.191 182.228 123.089C182.051 123.037 181.867 122.94 181.678 122.798M180.874 122.962C180.67 123.049 180.434 123.143 180.166 123.242M196.028 124.936C195.897 123.994 195.844 122.893 195.868 121.635M197.438 129.182C196.712 127.98 196.242 126.565 196.028 124.936M201.662 132.578C199.837 131.874 198.429 130.742 197.438 129.182M207.172 133.126C205.311 133.502 203.475 133.32 201.662 132.578M212.043 130.692C210.568 131.937 208.945 132.748 207.172 133.126M212.485 130.334C212.357 130.422 212.21 130.541 212.043 130.692M210.218 119.787C211.494 123.384 212.25 126.9 212.485 130.334M209.809 114.52C209.947 116.085 210.083 117.841 210.218 119.787M209.809 114.52L204.729 114.911C203.24 115.024 202.087 115.159 201.271 115.317C200.047 115.61 199.05 116.071 198.281 116.7C197.396 117.48 196.743 118.58 196.322 119.999C196.154 120.379 196.035 120.836 195.966 121.369C195.979 121.356 196.004 121.344 196.043 121.332M195.868 121.635C195.894 121.572 195.914 121.515 195.927 121.464L195.947 121.407C195.947 121.394 195.953 121.382 195.966 121.369M193.796 122.817C193.339 122.724 192.881 122.707 192.422 122.766C191.593 123.012 190.592 123.213 189.42 123.367M196.043 121.332C196.004 121.369 195.966 121.414 195.927 121.464M205.673 124.149C204.99 125.033 203.816 125.435 202.15 125.355C201.196 125.359 200.332 125.211 199.559 124.912C198.709 124.586 198.021 124.103 197.492 123.462M208.09 90.3625C209.434 92.2439 210.654 93.711 211.751 94.7637C212.571 95.4706 213.177 96.0293 213.567 96.4398C214.286 97.1076 214.86 97.6787 215.288 98.1531C217.262 100.676 218.048 104.3 217.647 109.026M211.648 103.649C211.684 103.891 211.836 104.687 212.103 106.037C212.272 107.017 212.494 107.788 212.768 108.35C213.178 109.397 213.73 110.279 214.423 110.998M209.809 114.52L211.394 114.478C212.221 114.422 212.87 114.409 213.341 114.439C214.04 114.471 214.637 114.648 215.13 114.971C215.838 115.397 216.359 116.101 216.694 117.083C216.731 117.172 216.768 117.293 216.805 117.446C216.946 118.655 216.967 119.806 216.868 120.898C216.684 122.88 216.209 124.655 215.444 126.224C214.691 127.832 213.704 129.202 212.485 130.334M209.694 112.555C213.233 112.334 216.821 112.368 220.457 112.656C220.707 114.413 220.837 116.206 220.845 118.037C220.679 118.099 220.526 118.161 220.385 118.224C220.245 118.311 220.059 118.418 219.829 118.542C219.252 123.114 217.938 126.832 215.888 129.699C214.947 130.974 213.824 132.063 212.518 132.966M225.593 116.442C226.421 119.081 227.153 121.04 227.79 122.317C228.801 124.424 230.013 126.075 231.426 127.271C231.742 127.503 231.97 127.676 232.109 127.792M234.018 125.636C234.102 126.209 234.122 126.775 234.079 127.334M232.073 121.404C233.168 122.647 233.817 124.058 234.018 125.636M228.184 119.002C229.681 119.36 230.978 120.16 232.073 121.404M227.579 136.559C226.849 137.137 226.265 137.647 225.828 138.087C225.096 138.894 224.629 139.824 224.428 140.877C224.226 142.058 224.427 143.039 225.03 143.82C225.596 144.512 226.609 145.049 228.069 145.431C228.399 145.523 228.703 145.602 228.982 145.668C229.274 145.773 229.54 145.864 229.781 145.943M223.185 135.088C222.313 137.114 221.694 138.76 221.325 140.028C220.862 141.931 220.738 143.633 220.953 145.135C221.084 146.128 221.397 147.262 221.894 148.538C222.18 149.253 222.66 150.344 223.333 151.813C223.842 153.114 224.175 154.281 224.331 155.312C224.354 155.477 224.378 155.649 224.402 155.827M218.498 128.198C219.14 130.213 218.946 132.626 217.914 135.439C217.653 136.212 217.139 137.421 216.373 139.066C215.709 140.675 215.22 141.89 214.907 142.714C213.926 145.501 213.556 148.396 213.795 151.399C213.976 153.727 214.503 155.931 215.374 158.012M215.158 160.679C216.907 161.331 218.06 161.927 218.614 162.466C218.866 162.723 219.105 163.024 219.331 163.369M221.62 161.465C221.649 161.071 221.672 160.683 221.688 160.302C221.796 158.294 221.579 156.366 221.036 154.518M207.435 155.992C207.52 156.374 207.58 156.705 207.616 156.985C207.689 157.316 207.77 157.559 207.857 157.712C208.007 158.019 208.341 158.352 208.859 158.713C209.112 158.944 209.313 159.169 209.464 159.386M209.942 159.276C209.97 159.01 210.042 158.731 210.16 158.439M210.158 152.566C210.256 152.923 210.399 153.928 210.587 155.583C210.716 156.805 211 157.735 211.439 158.375C211.552 158.541 211.684 158.701 211.835 158.855M195.945 130.694C195.863 130.586 195.785 130.477 195.71 130.367C195.802 130.67 195.882 130.97 195.949 131.266M192.616 124.465C193.895 126.473 194.809 128.07 195.358 129.258C195.468 129.678 195.585 130.048 195.71 130.367M198.824 134.001C199.011 134.447 199.121 134.925 199.154 135.434C199.24 135.829 199.231 136.134 199.127 136.349C199.061 136.615 198.874 136.842 198.567 137.03C198.413 137.143 198.145 137.274 197.762 137.423C197.468 137.496 197.245 137.558 197.092 137.607C196.897 138 196.556 138.41 196.069 138.837C195.573 139.224 194.985 139.527 194.305 139.745L194.285 139.755C193.584 139.926 192.89 139.983 192.204 139.926C191.009 139.788 189.931 139.377 188.971 138.694C188.755 138.705 188.513 138.722 188.245 138.745L187.022 138.943C186.563 139.015 185.914 139.11 185.073 139.23C185.035 139.191 184.972 139.159 184.883 139.132C184.428 138.759 184.125 138.515 183.974 138.399C183.646 138.053 183.427 137.625 183.318 137.115C183.144 136.669 183.116 136.217 183.235 135.761M197.31 136.732C197.282 137.037 197.209 137.329 197.092 137.607M201.869 137.023C201.982 137.126 202.523 137.773 203.492 138.964C204.12 139.746 204.533 140.468 204.731 141.131C205.079 141.998 205.121 142.952 204.857 143.992M181.558 125.314C181.094 126.035 180.522 126.633 179.843 127.11C179.189 127.637 178.441 128.025 177.599 128.271C176.846 128.518 176.044 128.631 175.191 128.611C174.326 128.602 173.507 128.487 172.733 128.263M179.803 139.523C179.604 140.373 179.041 141.366 178.114 142.501C177.084 143.826 176.42 144.78 176.122 145.362C175.757 146.248 175.589 147.168 175.619 148.122C175.66 149.114 175.951 150.039 176.49 150.895M188.971 138.694C188.807 138.553 188.643 138.418 188.479 138.289M178.207 148.909L177.998 148.831L176.895 148.42M178.36 148.853C178.334 148.891 178.283 148.91 178.207 148.909M178.36 148.853C178.245 148.852 178.125 148.845 177.998 148.831M203.037 144.681C202.706 144.703 202.28 144.712 201.758 144.707L201.739 144.745C200.882 146.529 200.131 147.895 199.486 148.842C198.39 150.459 197.132 151.579 195.714 152.201C194.335 152.798 192.939 153.103 191.526 153.115C190.139 153.153 188.032 152.612 185.205 151.492L178.207 148.909C178.105 148.934 177.952 148.964 177.748 149M194.492 148.204C194.072 148.251 193.645 148.304 193.212 148.364C192.919 148.387 192.607 148.415 192.276 148.45C190.584 148.618 188.884 148.742 187.177 148.822C184.263 148.959 181.324 148.969 178.36 148.853C181.964 147.095 185.531 145.914 189.061 145.312C189.658 145.39 190.221 145.427 190.749 145.423C191.811 145.425 192.738 145.268 193.53 144.954C194.68 144.481 195.49 144.209 195.962 144.137C196.37 144.065 197.444 144.164 199.184 144.435C200.213 144.584 201.065 144.688 201.739 144.745C201.099 145.082 199.847 145.674 197.981 146.521C196.129 147.381 194.539 147.995 193.212 148.364M202.868 144.393C202.537 144.453 202.167 144.558 201.758 144.707C201.823 144.555 201.875 144.428 201.914 144.327M163.74 122.61C163.749 122.967 163.759 123.329 163.768 123.698C163.786 124.537 164.036 125.658 164.519 127.061C164.194 125.1 163.934 123.617 163.74 122.61Z" stroke="#808080" stroke-width="0.6414" stroke-linecap="round" stroke-linejoin="round"/>
<path d="M172.522 114.303C175.673 113.839 178.815 113.837 181.949 114.297C182.438 114.339 182.783 114.372 182.982 114.396C183.436 114.394 183.82 114.335 184.134 114.218C184.452 114.062 184.709 113.796 184.904 113.419C184.526 112.718 183.853 112.253 182.883 112.024C182.304 111.922 181.424 111.876 180.244 111.884C177.303 111.981 174.997 112.162 173.324 112.427C170.963 112.82 168.892 113.419 167.11 114.225C167.695 114.481 169.353 114.524 172.084 114.353C172.164 114.363 172.254 114.358 172.354 114.337C172.418 114.337 172.475 114.325 172.522 114.303Z" stroke="#808080" stroke-width="0.641388" stroke-linecap="round" stroke-linejoin="round"/>
<path d="M205.823 110.084C205.003 109.888 204.096 109.834 203.101 109.921C202.268 109.975 201.377 110.158 200.428 110.469C199.831 110.657 198.972 110.963 197.851 111.387C197.492 111.473 197.242 111.551 197.1 111.619C196.849 111.722 196.652 111.872 196.511 112.07C196.336 112.353 196.262 112.627 196.291 112.893C196.312 113.058 196.336 113.176 196.364 113.248C196.963 113.255 197.585 113.218 198.231 113.138C198.914 113.05 199.854 112.883 201.05 112.638C204.304 111.919 206.668 111.415 208.141 111.126C207.47 110.641 206.697 110.293 205.823 110.084Z" stroke="#808080" stroke-width="0.641389" stroke-linecap="round" stroke-linejoin="round"/>
<path d="M197.377 118.942C198.841 117.481 200.369 116.689 201.961 116.564C203.158 116.448 204.606 116.633 206.307 117.119M197.875 120.816C199.321 121.236 200.822 121.282 202.377 120.953C203.933 120.638 205.3 119.996 206.48 119.028M196.446 120.516C198.149 120.698 199.849 120.631 201.544 120.316C203.264 119.989 204.879 119.432 206.388 118.646C206.618 118.546 206.944 118.384 207.366 118.159C207.762 117.959 208.107 117.81 208.4 117.711" stroke="#808080" stroke-width="0.6414" stroke-linecap="round" stroke-linejoin="round"/>
<path d="M107.455 168.581C107.09 169.543 106.782 170.538 106.53 171.566C105.103 173.103 103.957 174.574 103.092 175.976C101.554 178.454 100.724 180.887 100.599 183.276C100.552 184.229 100.618 185.373 100.796 186.71C100.891 187.461 101.052 188.587 101.279 190.09C101.531 193.054 101.365 195.856 100.781 198.494C101.089 203.557 99.9652 210.112 97.4085 218.161C96.7011 220.328 95.6528 223.573 94.2635 227.895C93.3308 231.013 92.6555 233.823 92.2376 236.323C92.1693 236.818 92.1074 237.314 92.0519 237.809C90.545 249.223 91.1944 258.637 94.0001 266.049C94.8321 268.218 95.6113 269.923 96.3376 271.163C97.3895 272.952 98.6173 274.299 100.021 275.202C102.297 276.685 105.073 277.118 108.349 276.501C111.025 276.017 113.803 274.893 116.682 273.128C124.257 268.597 131.444 261.984 138.243 253.289C140.458 250.475 142.96 246.939 145.748 242.681C143.035 242.96 140.833 243.048 139.142 242.943C138.427 242.898 137.741 242.816 137.083 242.695C135.093 242.361 133.376 241.709 131.93 240.739C130.678 239.927 129.442 238.72 128.223 237.119C125.985 234.289 124.404 231.248 123.481 227.998C122.877 225.857 122.604 223.775 122.662 221.755C122.443 222.007 122.211 222.278 121.967 222.568C122.2 222.1 122.434 221.619 122.667 221.125C123.808 218.886 125.286 216.593 127.102 214.245C127.705 213.461 128.426 212.578 129.265 211.596C129.966 210.77 130.75 209.875 131.618 208.91C131.272 202.325 130.43 195.776 129.093 189.264C127.401 181.1 124.969 173.188 121.797 165.531C120.727 162.966 119.645 160.96 118.552 159.513C118.173 159.008 117.777 158.546 117.363 158.129C117.285 158.186 117.202 158.243 117.113 158.298C114.874 159.65 113.421 160.577 112.755 161.079C110.422 162.939 108.655 165.439 107.455 168.581ZM174.326 103.727C166.998 103.658 160.708 106.198 155.456 111.348C150.217 116.486 147.563 122.716 147.494 130.037C147.425 137.359 149.962 143.644 155.103 148.892C158.481 152.331 162.326 154.655 166.641 155.865L166.165 161.791C168.092 162.61 169.953 163.537 171.75 164.571L172.548 156.817C172.968 156.834 173.394 156.844 173.826 156.848C181.154 156.917 187.444 154.383 192.696 149.246C197.935 144.095 200.59 137.859 200.658 130.538C200.727 123.216 198.191 116.937 193.049 111.702C187.895 106.454 181.654 103.796 174.326 103.727ZM158.725 114.888C163.065 110.632 168.269 108.532 174.338 108.589C180.419 108.647 185.589 110.844 189.848 115.181C194.108 119.518 196.209 124.724 196.152 130.8C196.095 136.864 193.896 142.023 189.556 146.28C185.215 150.548 180.005 152.654 173.924 152.597C167.855 152.54 162.692 150.336 158.432 145.987C154.173 141.65 152.071 136.45 152.128 130.386C152.185 124.31 154.384 119.144 158.725 114.888Z" fill="white"/>
<path d="M117.408 158.13C117.324 158.181 117.237 158.234 117.149 158.289C114.909 159.641 113.457 160.568 112.79 161.071C110.457 162.93 108.691 165.431 107.491 168.572C107.125 169.535 106.817 170.53 106.566 171.557C106.089 173.523 105.841 175.599 105.82 177.786M145.783 242.672C142.995 246.93 140.493 250.466 138.278 253.28C131.479 261.975 124.292 268.588 116.717 273.119C113.838 274.884 111.06 276.009 108.384 276.492C105.108 277.11 102.333 276.677 100.056 275.193C98.6527 274.29 97.4249 272.944 96.373 271.154C95.6467 269.914 94.8676 268.21 94.0355 266.041C91.2299 258.628 90.5805 249.215 92.0873 237.8C92.1429 237.305 92.2048 236.81 92.2731 236.315C92.691 233.814 93.3663 231.005 94.299 227.886C95.6882 223.564 96.7366 220.32 97.444 218.152C100.001 210.104 101.125 203.548 100.816 198.486C101.401 195.847 101.567 193.045 101.315 190.081C101.087 188.579 100.926 187.452 100.831 186.701C100.653 185.365 100.588 184.22 100.635 183.267C100.759 180.878 101.59 178.445 103.127 175.968C103.993 174.565 105.139 173.095 106.566 171.557M134.469 205.82C133.448 206.915 132.51 207.942 131.654 208.901M136.125 204.214C135.754 204.516 135.201 205.051 134.469 205.82M144.725 192.816C139.274 200.201 136.407 204.001 136.125 204.214M121.205 155.181C120.361 156.08 119.095 157.063 117.408 158.13M175.174 181.699C175.339 181.739 175.504 181.778 175.669 181.818M157.491 223.437C160.148 218.652 160.677 215.171 159.078 212.992M153.126 230.918C153.382 230.717 154.836 228.223 157.491 223.437M153.126 230.918C152.833 231.405 152.542 231.886 152.254 232.359C149.948 236.158 147.79 239.596 145.783 242.672M133.435 254.932C134.922 250.792 136.149 246.713 137.118 242.696M131.856 258.368C132.335 257.572 132.861 256.426 133.435 254.932M129.275 260.937C130.26 260.413 131.12 259.556 131.856 258.368M129.3 211.587C129.165 213.343 129.443 215.577 130.134 218.288C130.829 220.999 132.095 223.344 133.933 225.322C135.769 227.297 137.843 228.992 140.154 230.405C142.465 231.823 144.701 232.505 146.862 232.452C149.025 232.396 150.822 232.365 152.254 232.359M131.654 208.901C130.786 209.866 130.001 210.762 129.3 211.587C128.461 212.569 127.74 213.452 127.138 214.236C125.322 216.584 123.844 218.877 122.703 221.117C122.469 221.61 122.236 222.091 122.002 222.559C122.247 222.269 122.478 221.998 122.697 221.746M137.118 242.696C137.208 242.338 137.294 241.979 137.377 241.621M121.238 216.526C119.547 216.472 117.661 216.753 115.581 217.369C114.318 217.764 112.505 218.447 110.142 219.416M124.446 214.383C123.782 213.258 122.627 212.281 120.981 211.452C116.855 209.125 112.452 207.863 107.772 207.666M122.002 222.559C121.539 223.076 121 223.631 120.384 224.222C119.78 224.801 118.856 225.657 117.611 226.79C116.263 228.099 115.054 229.48 113.984 230.932C112.025 233.608 110.554 236.531 109.57 239.7M113.984 230.932C113.524 231.169 112.994 231.393 112.394 231.603C111.411 231.963 110.671 232.229 110.173 232.402C108.195 233.057 106.675 233.666 105.614 234.228C104.015 235.116 102.834 236.172 102.072 237.398M122.12 230.322C122.406 232.346 122.278 234.525 121.734 236.859C121.297 238.711 120.558 240.795 119.519 243.112C118.921 244.466 117.992 246.472 116.733 249.13C115.668 251.485 114.923 253.55 114.499 255.326C114.156 256.657 113.893 258.225 113.711 260.028C113.668 260.549 113.551 262.137 113.361 264.792M113.124 180.333C115.39 191.097 119.025 201.581 124.031 211.785" stroke="#808080" stroke-width="0.6414" stroke-linecap="round" stroke-linejoin="round"/>
<path d="M166.631 155.857L166.156 161.783M166.631 155.857C162.317 154.647 158.471 152.322 155.094 148.884C149.952 143.636 147.416 137.351 147.485 130.029C147.553 122.707 150.207 116.478 155.447 111.34C160.699 106.19 166.989 103.649 174.316 103.718C181.644 103.787 187.885 106.446 193.04 111.694C198.181 116.929 200.718 123.207 200.649 130.529C200.58 137.851 197.926 144.087 192.686 149.237C187.434 154.375 181.145 156.909 173.817 156.84C173.384 156.836 172.958 156.826 172.538 156.809L171.74 164.562M172.538 156.809C170.466 156.713 168.496 156.396 166.631 155.857M196.142 130.792C196.085 136.855 193.887 142.015 189.546 146.271C185.206 150.54 179.995 152.646 173.914 152.589C167.846 152.531 162.682 150.328 158.422 145.978C154.163 141.641 152.062 136.441 152.119 130.378C152.176 124.302 154.375 119.136 158.715 114.88C163.055 110.624 168.26 108.524 174.328 108.581C180.409 108.638 185.579 110.835 189.839 115.172C194.098 119.509 196.2 124.716 196.142 130.792Z" stroke="#808080" stroke-width="0.6414" stroke-linecap="round" stroke-linejoin="round"/>
<path d="M191.89 141.86C191.679 141.683 191.464 141.516 191.246 141.359L191.491 141.647C191.516 141.673 191.592 141.711 191.719 141.763C191.779 141.794 191.829 141.826 191.871 141.86L191.89 141.86ZM194.56 121.787C193.91 121.908 193.209 122.016 192.457 122.11C192.139 124.891 191.343 127.655 190.07 130.402C188.669 133.3 186.807 135.831 184.483 137.996C184.508 138.034 184.508 138.066 184.483 138.091C184.337 138.675 184.376 139.254 184.6 139.828C184.746 140.49 185.027 141.046 185.443 141.495C185.632 141.636 186.024 141.951 186.617 142.44C186.731 142.467 186.814 142.505 186.864 142.557C187.947 142.402 188.782 142.276 189.368 142.18L190.954 141.928C191.293 141.906 191.599 141.883 191.871 141.86C191.829 141.826 191.779 141.794 191.719 141.763C191.592 141.711 191.516 141.673 191.491 141.647L191.246 141.359C191.464 141.516 191.679 141.683 191.89 141.86L191.871 141.86C191.908 141.885 191.94 141.911 191.966 141.937C192.004 141.963 192.11 142.104 192.286 142.36C192.354 142.439 192.461 142.542 192.608 142.668C195.007 139.175 196.228 135.182 196.27 130.689C196.3 127.473 195.73 124.506 194.56 121.787ZM164.692 140.079C163.252 139.061 162.025 137.626 161.011 135.773C160.299 134.38 159.623 132.613 158.981 130.472C158.489 128.713 158.212 127.744 158.15 127.565C157.804 126.469 157.443 125.544 157.069 124.79C156.719 124.126 156.285 123.537 155.769 123.024C155.827 123.571 155.764 124.219 155.579 124.967C155.34 125.956 154.741 127.482 153.78 129.546C153.297 130.812 153.06 132.329 153.069 134.096C153.05 134.783 153.067 135.685 153.12 136.805C154.093 140.157 155.904 143.181 158.55 145.875C162.809 150.225 167.973 152.428 174.042 152.486C180.123 152.543 185.333 150.437 189.674 146.168C190.798 145.066 191.776 143.899 192.608 142.668C192.461 142.542 192.354 142.439 192.286 142.36C192.11 142.104 192.004 141.963 191.966 141.937C191.94 141.911 191.908 141.885 191.871 141.86C191.599 141.883 191.293 141.906 190.954 141.928L189.368 142.18C188.782 142.276 187.947 142.402 186.864 142.557C186.814 142.505 186.731 142.467 186.617 142.44C186.024 141.951 185.632 141.636 185.443 141.495C185.027 141.046 184.746 140.49 184.6 139.828C184.376 139.254 184.337 138.675 184.483 138.091C182.622 139.714 180.792 140.891 178.991 141.625C177.14 142.294 174.867 142.552 172.171 142.399C169.018 142.116 166.525 141.342 164.692 140.079ZM174.57 108.479C173.411 108.583 172.399 108.707 171.532 108.851C168.69 109.32 166.177 110.021 163.993 110.954C163.852 111.029 163.712 111.104 163.571 111.179C164.37 111.491 166.488 111.543 169.925 111.334C170.014 111.335 170.122 111.323 170.249 111.299C170.351 111.3 170.428 111.281 170.479 111.244C174.543 110.659 178.589 110.659 182.617 111.244C183.252 111.3 183.704 111.343 183.97 111.371C184.39 111.375 184.766 111.34 185.097 111.267C181.959 109.458 178.45 108.528 174.57 108.479ZM174.57 108.479C174.532 108.479 174.494 108.478 174.455 108.478C170.613 108.442 167.126 109.267 163.993 110.954C166.177 110.021 168.69 109.32 171.532 108.851C172.399 108.707 173.411 108.583 174.57 108.479ZM167.927 112.688C168.589 112.618 169.213 112.56 169.799 112.515C175.986 112.154 182.043 112.719 187.97 114.212C188.5 114.738 189.011 115.168 189.504 115.504C190.111 115.942 190.718 116.297 191.326 116.57C190.899 116.057 190.445 115.557 189.966 115.069C188.454 113.53 186.831 112.262 185.097 111.267C184.766 111.34 184.39 111.375 183.97 111.371C183.704 111.343 183.252 111.3 182.617 111.244C178.589 110.659 174.543 110.659 170.479 111.244C170.428 111.281 170.351 111.3 170.249 111.299C170.122 111.323 170.014 111.335 169.925 111.334C166.488 111.543 164.37 111.491 163.571 111.179C162.266 111.917 161.024 112.808 159.844 113.852C161.348 113.523 162.865 113.251 164.393 113.036C165.591 112.87 166.769 112.754 167.927 112.688ZM155.769 123.024C155.618 122.781 155.41 122.582 155.144 122.427C154.804 122.131 154.431 121.867 154.026 121.634C152.869 124.28 152.275 127.16 152.246 130.275C152.225 132.576 152.516 134.752 153.12 136.805C153.067 135.685 153.05 134.783 153.069 134.096C153.06 132.329 153.297 130.812 153.78 129.546C154.741 127.482 155.34 125.956 155.579 124.967C155.764 124.219 155.827 123.571 155.769 123.024ZM155.144 122.427C155.41 122.582 155.618 122.781 155.769 123.024C156.285 123.537 156.719 124.126 157.069 124.79C157.443 125.544 157.804 126.469 158.15 127.565C158.212 127.744 158.489 128.713 158.981 130.472C159.623 132.613 160.299 134.38 161.011 135.773C162.025 137.626 163.252 139.061 164.692 140.079C166.525 141.342 169.018 142.116 172.171 142.399C174.867 142.552 177.14 142.294 178.991 141.625C180.792 140.891 182.622 139.714 184.483 138.091C184.508 138.066 184.508 138.034 184.483 137.996C186.807 135.831 188.669 133.3 190.07 130.402C191.343 127.655 192.139 124.891 192.457 122.11C193.209 122.016 193.91 121.908 194.56 121.787C193.75 119.936 192.672 118.197 191.326 116.57C190.718 116.297 190.111 115.942 189.504 115.504C189.011 115.168 188.5 114.738 187.97 114.212C182.043 112.719 175.986 112.154 169.799 112.515C169.213 112.56 168.589 112.618 167.927 112.688C166.769 112.754 165.591 112.87 164.393 113.036C162.865 113.251 161.348 113.523 159.844 113.852C159.51 114.141 159.176 114.449 158.842 114.777C156.736 116.842 155.131 119.128 154.026 121.634C154.431 121.867 154.804 122.131 155.144 122.427ZM171.995 114.462C172.669 114.468 173.464 114.463 174.38 114.446C174.952 114.477 175.582 114.483 176.269 114.464C176.804 114.469 177.37 114.487 177.967 114.518C179.863 114.548 181.363 114.677 182.468 114.903C184.004 115.261 185.264 115.877 186.248 116.751C187.144 117.573 187.826 118.736 188.295 120.24C188.554 121.209 188.803 122.47 189.042 124.023C189.003 124.15 188.983 124.251 188.982 124.328C188.94 124.747 188.898 125.179 188.856 125.623C188.552 128.112 187.831 130.4 186.692 132.487C185.425 134.585 183.749 136.286 181.663 137.588C179.487 138.979 177.177 139.751 174.732 139.906C172.275 140.087 169.92 139.594 167.666 138.429C165.348 137.301 163.627 135.702 162.501 133.632C161.575 132.034 160.881 129.981 160.422 127.472C160.372 127.294 160.355 127.097 160.37 126.881C159.751 125.07 159.427 123.624 159.399 122.543C159.391 122.072 159.383 121.608 159.374 121.151C159.435 120.083 159.73 119.171 160.259 118.413C161.279 116.808 163.185 115.733 165.976 115.187C167.697 114.796 169.704 114.555 171.995 114.462ZM174.38 114.446C173.464 114.463 172.669 114.468 171.995 114.462C169.704 114.555 167.697 114.796 165.976 115.187C163.185 115.733 161.279 116.808 160.259 118.413C159.73 119.171 159.435 120.083 159.374 121.151C159.616 122.437 159.948 124.347 160.37 126.881C160.355 127.097 160.372 127.294 160.422 127.472C160.881 129.981 161.575 132.034 162.501 133.632C163.627 135.702 165.348 137.301 167.666 138.429C169.92 139.594 172.275 140.087 174.732 139.906C177.177 139.751 179.487 138.979 181.663 137.588C183.749 136.286 185.425 134.585 186.692 132.487C187.831 130.4 188.552 128.112 188.856 125.623C188.898 125.179 188.94 124.747 188.982 124.328C188.983 124.251 189.003 124.15 189.042 124.023C188.803 122.47 188.554 121.209 188.295 120.24C187.826 118.736 187.144 117.573 186.248 116.751C185.264 115.877 184.004 115.261 182.468 114.903C181.363 114.677 179.863 114.548 177.967 114.518C177.37 114.487 176.804 114.469 176.269 114.464C175.582 114.483 174.952 114.477 174.38 114.446ZM166.814 121.43C167.43 120.877 168.103 120.362 168.833 119.886C169.426 119.585 170.058 119.336 170.729 119.141C170.79 119.131 170.848 119.119 170.901 119.104C171.399 118.931 171.909 118.79 172.432 118.68C173.082 118.559 173.744 118.502 174.418 118.508C175.042 118.501 175.69 118.545 176.364 118.641C176.435 118.677 176.498 118.69 176.554 118.681C176.582 118.689 176.607 118.689 176.631 118.681C177.811 118.947 178.934 119.332 179.998 119.838C180.39 120.058 180.928 120.387 181.61 120.826C181.775 120.929 181.92 121.032 182.046 121.135C182.186 121.136 182.333 121.138 182.485 121.139L182.483 121.387C182.723 121.567 182.957 121.69 183.186 121.756C183.185 121.883 183.202 122.049 183.238 122.252L183.14 122.537C182.987 122.574 182.885 122.573 182.835 122.535L182.338 124.627L182.474 122.398C182.284 122.307 182.138 122.248 182.036 122.222C181.858 122.233 181.61 122.186 181.293 122.081C180.989 121.977 180.735 121.936 180.531 121.96L180.569 121.998C180.377 122.086 180.211 122.154 180.071 122.203C179.407 122.439 178.756 122.649 178.118 122.833C177.94 122.883 177.748 122.932 177.544 122.981C177.302 123.029 177.073 123.078 176.856 123.127C175.773 123.333 174.684 123.418 173.59 123.382C173.554 123.373 173.516 123.366 173.476 123.362C173.474 123.362 173.468 123.362 173.457 123.362C173.425 123.361 173.394 123.36 173.361 123.361L173.342 123.361C173.325 123.359 173.306 123.359 173.285 123.36L173.17 123.359C173.054 123.345 172.946 123.338 172.846 123.337C172.401 123.294 171.975 123.259 171.569 123.229C171.264 123.188 170.94 123.141 170.597 123.087C169.568 122.886 168.578 122.597 167.628 122.22C167.235 122.038 166.861 121.876 166.506 121.733C166.584 121.619 166.686 121.518 166.814 121.43ZM174.418 118.508C173.744 118.502 173.082 118.559 172.432 118.68C171.909 118.79 171.399 118.931 170.901 119.104C170.848 119.119 170.79 119.131 170.729 119.141C170.713 119.186 170.693 119.231 170.671 119.274C170.412 119.716 170.306 120.192 170.352 120.701C170.398 121.21 170.572 121.669 170.873 122.079C171.175 122.501 171.553 122.81 172.01 123.005C172.368 123.183 172.755 123.301 173.17 123.359L173.285 123.36C173.306 123.359 173.325 123.359 173.342 123.361L173.361 123.361C173.399 123.355 173.437 123.355 173.476 123.362C173.982 123.362 174.46 123.272 174.91 123.089C175.484 122.891 175.92 122.578 176.216 122.148C176.59 121.63 176.756 120.869 176.715 119.865C176.719 119.436 176.665 119.041 176.554 118.681C176.498 118.69 176.435 118.677 176.364 118.641C175.69 118.545 175.042 118.501 174.418 118.508ZM166.814 121.43C166.686 121.518 166.584 121.619 166.506 121.733C166.861 121.876 167.235 122.038 167.628 122.22C168.578 122.597 169.568 122.886 170.597 123.087C170.94 123.141 171.264 123.188 171.569 123.229C171.975 123.259 172.401 123.294 172.846 123.337C172.946 123.338 173.054 123.345 173.17 123.359C172.755 123.301 172.368 123.183 172.01 123.005C171.553 122.81 171.175 122.501 170.873 122.079C170.572 121.669 170.398 121.21 170.352 120.701C170.306 120.192 170.412 119.716 170.671 119.274C170.693 119.231 170.713 119.186 170.729 119.141C170.058 119.336 169.426 119.585 168.833 119.886C168.103 120.362 167.43 120.877 166.814 121.43ZM173.476 123.362C173.516 123.366 173.554 123.373 173.59 123.382C174.684 123.418 175.773 123.333 176.856 123.127C177.073 123.078 177.302 123.029 177.544 122.981C177.748 122.932 177.94 122.883 178.118 122.833C178.756 122.649 179.407 122.439 180.071 122.203C180.211 122.154 180.377 122.086 180.569 121.998L180.531 121.96C180.735 121.936 180.989 121.977 181.293 122.081C181.61 122.186 181.858 122.233 182.036 122.222C182.138 122.248 182.284 122.307 182.474 122.398C182.575 122.411 182.696 122.457 182.835 122.535C182.885 122.573 182.987 122.574 183.14 122.537L183.238 122.252C183.202 122.049 183.185 121.883 183.186 121.756C182.957 121.69 182.723 121.567 182.483 121.387C182.357 121.297 182.211 121.213 182.046 121.135C181.92 121.032 181.775 120.929 181.61 120.826C180.928 120.387 180.39 120.058 179.998 119.838C178.934 119.332 177.811 118.947 176.631 118.681C176.607 118.689 176.582 118.689 176.554 118.681C176.665 119.041 176.719 119.436 176.715 119.865C176.756 120.869 176.59 121.63 176.216 122.148C175.92 122.578 175.484 122.891 174.91 123.089C174.46 123.272 173.982 123.362 173.476 123.362ZM173.457 123.362C173.468 123.362 173.474 123.362 173.476 123.362C173.437 123.355 173.399 123.355 173.361 123.361C173.394 123.36 173.425 123.361 173.457 123.362Z" fill="white"/>
<path d="M154.018 121.626C154.423 121.859 154.796 122.123 155.137 122.419C155.402 122.574 155.61 122.773 155.761 123.016M154.018 121.626C152.861 124.272 152.268 127.153 152.238 130.267C152.217 132.568 152.508 134.744 153.112 136.797M154.018 121.626C155.123 119.12 156.729 116.834 158.835 114.769C159.169 114.441 159.502 114.133 159.836 113.844M155.761 123.016C156.278 123.529 156.711 124.118 157.061 124.782C157.436 125.536 157.796 126.461 158.142 127.558C158.204 127.736 158.481 128.705 158.973 130.464C159.615 132.606 160.292 134.373 161.004 135.765C162.017 137.618 163.244 139.053 164.685 140.071C166.517 141.334 169.01 142.108 172.163 142.392C174.859 142.544 177.132 142.286 178.983 141.617C180.784 140.884 182.615 139.706 184.475 138.083M155.761 123.016C155.819 123.563 155.756 124.211 155.571 124.959C155.332 125.948 154.733 127.475 153.772 129.538C153.289 130.804 153.052 132.321 153.061 134.089C153.042 134.775 153.059 135.678 153.112 136.797M184.475 138.083C184.5 138.058 184.501 138.026 184.476 137.988C186.799 135.823 188.661 133.292 190.062 130.394C191.335 127.647 192.131 124.883 192.449 122.102M184.475 138.083C184.329 138.667 184.368 139.246 184.592 139.82C184.738 140.482 185.019 141.038 185.435 141.487C185.625 141.628 186.016 141.944 186.609 142.432C186.724 142.459 186.806 142.498 186.856 142.549C187.939 142.394 188.774 142.268 189.36 142.172L190.946 141.92C191.285 141.898 191.594 141.876 191.873 141.852M192.449 122.102C192.541 121.798 192.576 121.462 192.554 121.093M192.449 122.102C193.201 122.008 193.902 121.9 194.552 121.779M192.609 142.67C191.771 143.894 190.79 145.058 189.666 146.16C185.325 150.429 180.115 152.535 174.034 152.478C167.965 152.421 162.802 150.217 158.542 145.868C155.896 143.173 154.086 140.149 153.112 136.797M192.609 142.67C195.002 139.17 196.22 135.174 196.262 130.681C196.292 127.465 195.722 124.498 194.552 121.779M192.609 142.67C192.652 142.71 192.7 142.751 192.751 142.795M192.609 142.67C192.457 142.537 192.346 142.431 192.278 142.352C192.102 142.096 191.996 141.955 191.958 141.929C191.932 141.903 191.903 141.877 191.873 141.852M159.836 113.844C161.016 112.8 162.259 111.909 163.563 111.171M159.836 113.844C161.34 113.515 162.857 113.243 164.385 113.028C165.583 112.862 166.761 112.746 167.919 112.68C168.582 112.61 169.206 112.553 169.791 112.507C175.978 112.146 182.035 112.711 187.963 114.204C188.492 114.73 189.003 115.161 189.496 115.496C190.103 115.934 190.71 116.289 191.318 116.562M163.563 111.171C163.538 111.171 163.519 111.164 163.506 111.151C163.66 111.077 163.819 111.008 163.985 110.946M163.563 111.171C163.704 111.096 163.845 111.021 163.985 110.946M163.563 111.171C164.362 111.484 166.48 111.535 169.917 111.326C170.006 111.327 170.114 111.315 170.242 111.291C170.343 111.292 170.42 111.274 170.471 111.236C174.535 110.651 178.581 110.651 182.609 111.236C183.244 111.293 183.696 111.335 183.963 111.363C184.382 111.367 184.758 111.332 185.089 111.259M163.985 110.946C167.118 109.259 170.606 108.434 174.448 108.47C174.486 108.471 174.524 108.471 174.562 108.471M163.985 110.946C166.17 110.013 168.683 109.312 171.524 108.843C172.391 108.699 173.403 108.575 174.562 108.471M174.562 108.471C178.442 108.521 181.951 109.45 185.089 111.259M185.089 111.259C186.823 112.254 188.446 113.522 189.958 115.062C190.437 115.549 190.891 116.049 191.318 116.562M191.318 116.562C192.664 118.189 193.742 119.928 194.552 121.779M160.362 126.873C160.347 127.089 160.365 127.286 160.414 127.464C160.874 129.973 161.567 132.026 162.493 133.624C163.619 135.694 165.34 137.293 167.658 138.421C169.912 139.586 172.267 140.079 174.725 139.899C177.169 139.744 179.479 138.971 181.655 137.58C183.741 136.278 185.417 134.577 186.684 132.479C187.823 130.392 188.544 128.104 188.848 125.615C188.89 125.171 188.932 124.739 188.974 124.32C188.975 124.244 188.995 124.142 189.034 124.015C188.795 122.462 188.546 121.201 188.288 120.233C187.818 118.728 187.136 117.565 186.24 116.743C185.256 115.869 183.996 115.253 182.46 114.896C181.355 114.669 179.855 114.541 177.96 114.51C177.362 114.479 176.796 114.461 176.262 114.456C175.574 114.475 174.945 114.469 174.372 114.438C173.456 114.455 172.661 114.46 171.987 114.454C169.696 114.547 167.69 114.788 165.968 115.179C163.177 115.725 161.271 116.8 160.251 118.405C159.722 119.163 159.427 120.075 159.366 121.143M160.362 126.873C159.941 124.339 159.609 122.429 159.366 121.143M160.362 126.873C159.743 125.062 159.419 123.616 159.391 122.535C159.383 122.065 159.375 121.601 159.366 121.143M166.101 121.378C166.368 121.393 166.603 121.408 166.807 121.423M166.807 121.423C167.422 120.869 168.095 120.354 168.825 119.878C169.418 119.577 170.053 119.332 170.731 119.143M166.807 121.423C166.678 121.51 166.576 121.611 166.498 121.725C166.853 121.868 167.227 122.03 167.62 122.212C168.57 122.59 169.56 122.879 170.589 123.079C170.932 123.133 171.256 123.181 171.561 123.222C171.968 123.251 172.393 123.287 172.838 123.329C172.938 123.33 173.046 123.337 173.163 123.351M170.731 119.143C170.786 119.126 170.84 119.111 170.893 119.096C171.391 118.923 171.901 118.782 172.424 118.672C173.074 118.551 173.736 118.494 174.411 118.5C175.034 118.493 175.682 118.538 176.356 118.633C176.427 118.669 176.49 118.686 176.546 118.682M170.731 119.143C170.708 119.182 170.685 119.223 170.663 119.266C170.404 119.708 170.298 120.184 170.344 120.693C170.39 121.202 170.564 121.661 170.865 122.071C171.167 122.493 171.546 122.802 172.002 122.997C172.36 123.175 172.747 123.293 173.163 123.351M176.546 118.682C176.574 118.684 176.6 118.681 176.623 118.674C177.803 118.939 178.926 119.325 179.99 119.83C180.382 120.05 180.92 120.379 181.603 120.818C181.767 120.921 181.912 121.024 182.039 121.127M176.546 118.682C176.657 119.036 176.711 119.428 176.707 119.857C176.748 120.861 176.582 121.623 176.208 122.14C175.912 122.57 175.476 122.883 174.902 123.081C174.452 123.264 173.977 123.355 173.477 123.354M182.039 121.127C182.179 121.129 182.325 121.13 182.478 121.131C183.037 121.175 183.57 121.262 184.078 121.394M182.039 121.127C182.203 121.205 182.349 121.289 182.475 121.379C182.715 121.559 182.949 121.682 183.178 121.748C183.177 121.875 183.194 122.041 183.23 122.244L183.132 122.53C182.979 122.566 182.878 122.565 182.827 122.527C182.688 122.449 182.567 122.403 182.466 122.39C182.276 122.299 182.13 122.24 182.028 122.214C181.85 122.225 181.603 122.178 181.285 122.074C180.981 121.969 180.727 121.929 180.523 121.952M180.523 121.952L180.561 121.991C180.369 122.078 180.203 122.146 180.063 122.196C179.399 122.431 178.748 122.641 178.11 122.826C177.932 122.875 177.74 122.924 177.536 122.973C177.294 123.021 177.065 123.07 176.848 123.119C175.765 123.325 174.676 123.41 173.582 123.374C173.547 123.365 173.512 123.358 173.477 123.354M180.523 121.952C180.868 121.815 181.175 121.691 181.443 121.579M173.477 123.354C173.469 123.354 173.46 123.354 173.449 123.354C173.418 123.353 173.386 123.352 173.353 123.353M173.477 123.354C173.432 123.348 173.391 123.347 173.353 123.353M173.353 123.353L173.334 123.353C173.317 123.351 173.301 123.351 173.287 123.352L173.163 123.351M182.55 119.53C181.492 118.376 180.145 117.537 178.509 117.013C177.773 116.778 177.011 116.65 176.222 116.629C175.599 116.56 174.995 116.586 174.408 116.708C174.204 116.731 174.013 116.761 173.835 116.798C172.332 116.936 170.808 117.405 169.261 118.204C168.941 118.328 168.609 118.471 168.264 118.633C167.293 119.107 166.212 119.713 165.022 120.452M182.33 124.62C181.724 125.542 180.985 126.31 180.114 126.925C179.268 127.604 178.302 128.103 177.218 128.423C176.248 128.745 175.216 128.894 174.122 128.871C173.003 128.861 171.948 128.711 170.958 128.422M191.238 141.351C191.456 141.508 191.671 141.675 191.882 141.853L191.873 141.852M191.238 141.351L191.483 141.639C191.508 141.665 191.584 141.704 191.711 141.756C191.771 141.786 191.825 141.818 191.873 141.852M191.238 141.351C191.235 141.346 191.232 141.343 191.228 141.341C191.08 141.127 190.894 140.951 190.67 140.811M180.059 142.924C179.807 144.014 179.082 145.292 177.885 146.755C176.559 148.471 175.701 149.703 175.312 150.449" stroke="#808080" stroke-width="0.6414" stroke-linecap="round" stroke-linejoin="round"/>
<path d="M164.699 160.557C163.962 160.486 163.159 160.6 162.291 160.897C161.283 161.256 160.106 161.912 158.761 162.866C156.622 164.409 154.726 165.828 153.072 167.122C152.098 167.888 151.393 168.485 150.956 168.913C150.224 169.631 149.683 170.351 149.333 171.072C149.138 171.439 148.687 172.769 147.978 175.064C147.899 175.33 147.814 175.59 147.723 175.843C146.809 176.966 146.114 177.824 145.638 178.417C144.802 179.375 144.27 180.432 144.043 181.586C143.844 182.411 143.543 186.699 143.139 194.449C143.11 194.843 143.094 195.244 143.09 195.65C142.937 195.712 142.79 195.781 142.649 195.856C141.221 200.254 140.795 204.248 141.372 207.838C141.795 210.283 142.715 212.472 144.135 214.405C145.642 216.466 147.474 217.888 149.629 218.671C150.439 218.986 151.232 219.172 152.01 219.227C152.188 219.204 152.481 219.2 152.888 219.216C152.94 219.22 152.991 219.221 153.04 219.218C153.072 219.221 153.104 219.222 153.136 219.219C153.523 218.625 153.925 217.771 154.343 216.656C154.46 216.352 154.578 216.067 154.695 215.801C154.784 215.802 154.879 215.803 154.981 215.804C155.248 215.806 155.528 215.796 155.821 215.774C156.126 215.751 156.426 215.722 156.719 215.687C157.19 215.615 157.636 215.524 158.057 215.413C158.644 215.228 159.168 214.972 159.629 214.646C160.411 214.094 161.093 213.281 161.675 212.205C162.386 210.979 162.895 209.674 163.201 208.292C163.951 208.261 164.951 208.187 166.199 208.072C166.925 208.002 167.492 207.919 167.9 207.821C168.537 207.662 169.061 207.425 169.471 207.111C170.265 206.572 170.846 205.707 171.213 204.515C171.593 203.349 171.685 202.339 171.49 201.486C171.37 200.709 171.058 200.083 170.553 199.608C171.532 199.706 172.341 199.555 172.981 199.154C173.608 198.779 174.092 198.122 174.431 197.185C174.523 196.893 174.734 196.05 175.066 194.654C175.357 193.411 175.524 192.599 175.566 192.218C175.61 191.583 175.532 191.023 175.333 190.538C176.038 190.023 176.648 189.406 177.164 188.687C177.912 187.638 178.361 186.505 178.513 185.286C178.69 184.042 178.536 182.82 178.051 181.62C177.528 180.408 176.761 179.453 175.75 178.757C175.257 178.409 174.687 178.112 174.04 177.864C173.762 177.747 173.463 177.649 173.146 177.57C172.512 177.386 171.566 177.186 170.308 176.971C169.419 176.835 167.793 176.579 165.43 176.2C164.401 176.025 163.22 175.824 161.886 175.595C160.818 175.483 159.738 175.308 158.646 175.069C158.545 175.055 158.443 175.035 158.342 175.009C159.612 175.211 160.793 175.407 161.886 175.595C163.22 175.824 164.401 176.025 165.43 176.2C167.793 176.579 169.419 176.835 170.308 176.971C171.566 177.186 172.512 177.386 173.146 177.57C173.463 177.649 173.762 177.747 174.04 177.864C174.054 177.813 174.079 177.788 174.117 177.789C175.029 176.894 175.711 176.113 176.162 175.443C176.639 174.774 177.043 173.792 177.373 172.499C177.494 171.864 177.563 171.287 177.58 170.766C177.628 169.787 177.502 168.991 177.202 168.378C176.99 167.944 176.67 167.509 176.241 167.073C176.039 166.893 175.61 166.539 174.953 166.012C173.942 165.278 172.887 164.588 171.786 163.942C171.621 163.851 171.469 163.761 171.33 163.67C169.85 162.817 168.317 162.053 166.733 161.377C166.062 161.078 165.384 160.805 164.699 160.557ZM152.888 219.216C152.481 219.2 152.188 219.204 152.01 219.227C152.356 219.254 152.7 219.25 153.04 219.218C152.991 219.221 152.94 219.22 152.888 219.216ZM173.764 162.568C173.037 162.828 172.377 163.286 171.786 163.942C172.887 164.588 173.942 165.278 174.953 166.012C175.61 166.539 176.039 166.893 176.241 167.073C176.67 167.509 176.99 167.944 177.202 168.378C177.502 168.991 177.628 169.787 177.58 170.766C177.736 170.513 177.872 170.247 177.989 169.968C178.469 168.918 178.728 167.84 178.763 166.734C178.842 165.184 178.465 163.998 177.633 163.177C177.166 162.702 176.558 162.423 175.809 162.339C175.123 162.231 174.441 162.307 173.764 162.568Z" fill="white"/>
<path d="M152.002 219.219C152.348 219.246 152.692 219.246 153.032 219.219M149.621 218.663C150.431 218.978 151.224 219.164 152.002 219.219M144.127 214.397C145.634 216.458 147.466 217.88 149.621 218.663M141.364 207.83C141.787 210.275 142.708 212.464 144.127 214.397M142.641 195.848C141.213 200.246 140.787 204.24 141.364 207.83M143.082 195.642C142.929 195.704 142.782 195.773 142.641 195.848M143.082 195.642C143.086 195.236 143.102 194.835 143.132 194.441C143.535 186.691 143.836 182.403 144.035 181.578C144.262 180.424 144.794 179.367 145.63 178.409C146.106 177.816 146.801 176.958 147.715 175.835C147.806 175.582 147.892 175.322 147.97 175.056C148.679 172.761 149.131 171.431 149.325 171.064C149.675 170.343 150.216 169.623 150.948 168.905C151.385 168.477 152.09 167.88 153.064 167.114C154.718 165.82 156.614 164.401 158.753 162.858C160.098 161.904 161.275 161.248 162.283 160.889C163.151 160.592 163.954 160.478 164.691 160.549C165.376 160.797 166.054 161.07 166.726 161.369C168.31 162.045 169.842 162.809 171.322 163.662C171.461 163.753 171.613 163.843 171.778 163.934C172.369 163.278 173.029 162.82 173.756 162.56C174.433 162.299 175.115 162.223 175.801 162.331C176.55 162.415 177.159 162.694 177.625 163.169C178.457 163.99 178.834 165.176 178.756 166.726C178.72 167.832 178.461 168.91 177.981 169.96C177.864 170.239 177.728 170.505 177.573 170.758C177.555 171.279 177.486 171.856 177.365 172.491C177.035 173.784 176.632 174.766 176.154 175.435C175.703 176.105 175.021 176.886 174.109 177.78C174.071 177.78 174.046 177.805 174.032 177.856C174.679 178.104 175.249 178.401 175.742 178.749C176.753 179.445 177.52 180.4 178.043 181.612C178.528 182.812 178.682 184.034 178.505 185.278C178.353 186.497 177.904 187.63 177.156 188.678C176.64 189.398 176.03 190.015 175.325 190.53C175.524 191.015 175.602 191.575 175.558 192.21C175.516 192.591 175.349 193.403 175.058 194.646C174.727 196.042 174.515 196.885 174.423 197.177C174.084 198.114 173.6 198.771 172.973 199.146C172.333 199.547 171.524 199.698 170.545 199.6C171.05 200.075 171.362 200.701 171.482 201.478C171.677 202.331 171.585 203.341 171.205 204.507C170.838 205.699 170.257 206.564 169.463 207.103C169.053 207.417 168.529 207.654 167.892 207.813C167.484 207.911 166.917 207.994 166.191 208.064C164.943 208.179 163.944 208.252 163.193 208.284C162.887 209.666 162.378 210.971 161.667 212.197C161.085 213.273 160.403 214.086 159.621 214.638C159.16 214.964 158.636 215.22 158.049 215.405C157.628 215.516 157.182 215.607 156.711 215.679C156.418 215.714 156.118 215.743 155.813 215.765C155.52 215.788 155.24 215.798 154.973 215.796C154.871 215.795 154.776 215.794 154.687 215.793C154.57 216.059 154.452 216.344 154.335 216.648C153.917 217.763 153.515 218.617 153.128 219.211C153.096 219.214 153.064 219.217 153.032 219.219C153.355 219.238 153.616 219.237 153.815 219.217C154.159 219.182 154.426 219.121 154.618 219.034C155.102 218.95 155.791 218.785 156.684 218.539M161.878 175.587C163.212 175.816 164.393 176.017 165.422 176.192C165.36 176.039 165.304 175.886 165.255 175.733C165.131 175.351 165.027 174.917 164.942 174.433C164.894 174.191 164.858 173.931 164.835 173.651C164.633 172.174 164.407 171.149 164.158 170.574M165.422 176.192C167.785 176.57 169.411 176.827 170.3 176.963C171.558 177.178 172.504 177.378 173.138 177.562C173.456 177.641 173.754 177.739 174.032 177.856M154.007 172.443C154.633 173.529 155.872 174.335 157.724 174.861C157.877 174.901 158.048 174.941 158.239 174.981L158.334 175.001C159.604 175.203 160.786 175.399 161.878 175.587C160.81 175.475 159.73 175.3 158.639 175.061C158.537 175.047 158.435 175.027 158.334 175.001M146.793 180.479C145.971 181.361 145.672 182.712 145.897 184.533C145.968 185.004 146.089 185.704 146.258 186.634C146.366 187.423 146.372 188.116 146.277 188.712C146.236 188.979 146.085 189.562 145.822 190.462C145.586 191.159 145.479 191.743 145.5 192.214C145.533 192.722 145.731 193.385 146.092 194.202C146.516 195.134 146.757 195.804 146.817 196.211C146.864 196.682 146.833 197.229 146.726 197.85C146.686 198.028 146.566 198.567 146.367 199.468C146.086 200.864 146.217 201.888 146.758 202.542M156.467 184.746C158.365 185.883 160.991 186.728 164.344 187.28C169.464 188.117 172.233 188.594 172.652 188.712C173.781 189.054 174.559 189.468 174.987 189.955C175.113 190.121 175.226 190.313 175.325 190.53M170.545 199.6C170.329 199.573 170.113 199.539 169.897 199.499C168.64 199.321 164.388 198.214 157.142 196.175M171.778 163.934C172.879 164.58 173.935 165.27 174.945 166.004C175.602 166.531 176.031 166.885 176.233 167.065C176.662 167.501 176.982 167.936 177.194 168.37C177.494 168.983 177.62 169.779 177.573 170.758M163.193 208.284C162.989 208.294 162.798 208.299 162.62 208.297C161.271 208.323 160.063 208.222 158.997 207.996C157.765 207.73 156.662 207.288 155.689 206.668C154.613 205.997 153.661 205.778 152.832 206.012M154.687 215.793C153.58 215.783 152.487 215.613 151.409 215.285C149.658 214.786 148.101 213.958 146.738 212.801M152.002 219.219C152.18 219.195 152.473 219.192 152.88 219.208C152.932 219.212 152.983 219.216 153.032 219.219M142.546 205.992C142.723 202.078 142.901 198.628 143.082 195.642" stroke="#808080" stroke-width="0.6414" stroke-linecap="round" stroke-linejoin="round"/>
</g>
</g>
<defs>
<clipPath id="clip0_1644_4742">
<rect x="12.1719" y="10.4474" width="323.411" height="301.128" rx="10.2383" fill="white"/>
</clipPath>
</defs>
</svg>
