<svg width="355" height="332" viewBox="0 0 355 332" fill="none" xmlns="http://www.w3.org/2000/svg">
<g>
<g clip-path="url(#clip0_1644_34)">
<rect x="12.1719" y="10.4474" width="324.013" height="301.128" rx="10.2383" fill="#FEFEFE"/>
<g clip-path="url(#clip1_1644_34)">
<path d="M164.409 75.7443C163.969 75.1871 163.667 74.8504 163.505 74.7343C163.203 74.4557 162.669 74.2351 161.904 74.0726C159.792 73.6315 157.658 73.6083 155.5 74.003C154.712 74.1423 153.958 74.328 153.238 74.5602C147.67 75.7443 141.859 79.2966 135.803 85.2171C134.62 86.4012 133.669 87.4227 132.95 88.2818C131.998 89.4659 131.233 90.6268 130.653 91.7644C130.305 92.5074 130.038 93.0762 129.852 93.4709C129.528 94.121 129.203 94.6434 128.878 95.0381C128.298 95.7578 127.416 96.4079 126.233 96.9884C124.864 97.592 123.844 98.0564 123.171 98.3814C121.059 99.4726 119.818 100.819 119.447 102.421C119.331 102.932 119.296 103.803 119.343 105.033C119.389 106.148 119.308 106.995 119.099 107.576C118.89 108.063 118.449 108.702 117.777 109.491C117.104 110.304 116.663 110.942 116.454 111.406C116.083 112.242 116.025 113.415 116.28 114.924C116.559 116.805 116.675 118.023 116.628 118.581C116.535 119.742 116.06 120.902 115.201 122.063C114.714 122.737 113.809 123.723 112.487 125.024C111.211 126.301 110.318 127.299 109.807 128.019C108.972 129.18 108.531 130.34 108.485 131.501C108.462 131.687 108.52 132.523 108.659 134.009C108.728 135.03 108.624 135.831 108.346 136.412C108.114 136.946 107.673 137.468 107.023 137.979C106.258 138.513 105.701 138.919 105.353 139.198C104.286 140.057 103.497 141.16 102.986 142.506C102.476 143.807 102.325 145.13 102.534 146.477C102.627 146.987 102.789 147.765 103.021 148.81C103.184 149.692 103.16 150.435 102.952 151.039C102.766 151.619 102.198 152.42 101.246 153.442C100.365 154.394 99.8775 155.218 99.7847 155.915C99.6919 156.541 99.8079 157.192 100.133 157.865C100.342 158.283 100.748 158.863 101.351 159.606C102 160.442 102.43 161.034 102.638 161.382C103.033 162.079 103.242 162.741 103.265 163.367C103.265 164.087 102.975 164.888 102.395 165.77C101.652 166.746 101.119 167.477 100.794 167.965C100.075 169.125 99.6919 170.402 99.6455 171.795C101.223 171.679 102.812 171.586 104.413 171.517C108.728 171.331 112.348 171.528 115.271 172.109C117.942 172.63 120.251 173.506 122.196 174.738C122.241 174.765 122.288 174.794 122.335 174.825C122.382 174.849 122.428 174.872 122.475 174.895C122.521 174.291 122.66 173.676 122.892 173.049C123.171 172.306 123.611 171.436 124.215 170.437C125.189 168.812 125.688 167.988 125.711 167.965C127.126 165.411 127.973 162.648 128.252 159.676C128.53 156.727 128.205 153.871 127.277 151.109C126.999 150.296 126.523 149.1 125.85 147.521C125.154 145.896 124.679 144.7 124.424 143.934C123.449 141.125 123.298 138.745 123.971 136.795M143.633 89.5007C144.77 88.6649 146.035 88.0496 147.427 87.6549C148.795 87.2834 150.188 87.1325 151.603 87.2022C152.995 87.3182 154.364 87.6549 155.709 88.2121C156.8 88.6765 157.82 89.2569 158.772 89.9534C159.792 89.9999 161.428 90.2088 163.679 90.5803C164.885 91.1143 166.057 91.8108 167.193 92.6699C169.606 94.5737 171.509 96.9013 172.901 99.6526C172.95 98.9355 172.962 98.326 172.935 97.8242C172.889 96.524 172.622 95.3399 172.135 94.2719C171.601 93.0878 170.847 92.2055 169.873 91.6251M152.368 83.232C150.768 82.9766 149.48 82.8953 148.505 82.9882C147.09 83.1275 146 83.5918 145.234 84.3812C144.886 84.7527 144.503 85.3448 144.086 86.1574C143.645 87.0629 143.285 87.6897 143.007 88.038C142.543 88.6184 141.812 89.1873 140.815 89.7445C139.678 90.3017 138.843 90.7428 138.309 91.0679C137.102 91.8341 135.618 93.2736 133.854 95.3864C132.045 97.5688 130.595 99.0431 129.504 99.8093C129.203 100.018 128.147 100.622 126.338 101.62C125.038 102.34 124.064 103.06 123.414 103.78C122.277 105.08 121.581 107.123 121.326 109.909C121.257 110.675 121.164 111.824 121.048 113.357C120.909 114.703 120.688 115.829 120.387 116.735M155.883 76.8936C156.974 77.1954 157.936 77.741 158.772 78.5304C159.63 79.343 160.222 80.2833 160.546 81.3513M150.733 78.7742C151.777 79.076 152.589 79.343 153.169 79.5752C154.074 79.9234 154.851 80.2949 155.5 80.6896C156.196 81.154 156.637 81.5951 156.823 82.013C156.962 82.2916 157.043 82.6399 157.066 83.0578C157.066 83.2203 157.066 83.5918 157.066 84.1723M162.913 86.2967C163.586 85.9252 164.317 85.6814 165.105 85.5653C165.894 85.4724 166.66 85.5189 167.402 85.7046C168.168 85.8904 168.875 86.2154 169.525 86.6798C170.175 87.1441 170.697 87.7129 171.091 88.3863M158.772 89.9534C156.498 89.8374 154.213 90.0463 151.916 90.5803C150.037 90.9982 148.25 91.6135 146.557 92.4261C145.165 93.4013 143.865 94.5273 142.659 95.8043C140.873 97.6849 139.272 99.5307 137.857 101.342C136.418 103.176 135.374 105.532 134.724 108.411C134.075 111.314 133.599 114.204 133.298 117.083C133.182 118.244 133.031 119.753 132.845 121.611C134.817 121.75 136.789 121.982 138.761 122.307C140.293 122.539 141.522 122.806 142.45 123.108C143.773 123.549 144.875 124.13 145.756 124.849C146.383 125.36 147.09 126.126 147.879 127.148C148.181 127.543 148.447 127.891 148.679 128.193C148.958 128.379 149.283 128.518 149.654 128.611C150.559 128.889 151.475 128.901 152.403 128.646C153.238 128.437 154.062 128.042 154.874 127.461C155.245 127.183 155.64 126.858 156.057 126.486C160.558 125.418 165.175 125.058 169.908 125.407C170.372 125.453 170.836 125.5 171.3 125.546C171.161 125.523 171.021 125.5 170.882 125.476C167.797 124.919 164.723 124.803 161.66 125.128C161.103 125.175 160.732 125.198 160.546 125.198C160.152 125.175 159.816 125.105 159.537 124.989C159.189 124.826 158.922 124.571 158.737 124.223V124.188C159.131 123.514 159.816 123.073 160.79 122.864C161.37 122.748 162.228 122.737 163.365 122.83C166.242 123.038 168.481 123.294 170.082 123.596C172.425 124.06 174.455 124.722 176.172 125.581C176.265 125.627 176.346 125.674 176.416 125.72M161.242 77.6249C162.194 76.8355 163.249 76.2086 164.409 75.7443C165.639 75.2335 166.985 74.9085 168.446 74.7691C171.068 74.5138 173.713 74.8504 176.381 75.7791C178.608 76.5453 180.963 77.741 183.445 79.3662C184.93 80.3414 187.076 81.9318 189.883 84.1374C192.111 85.902 193.746 87.2486 194.79 88.1773C196.53 89.7329 197.969 91.2536 199.105 92.7396C200.451 94.5505 201.46 96.4195 202.133 98.3466C202.736 100.065 203.015 101.76 202.968 103.431C203.108 103.687 203.258 103.954 203.421 104.232C204.836 106.577 206.576 108.586 208.641 110.257C209.244 110.722 210.172 111.43 211.425 112.382C212.469 113.217 213.234 114.065 213.722 114.924C214.302 115.969 214.626 117.199 214.696 118.616C214.742 119.567 214.65 120.902 214.418 122.621C214.163 124.594 214.023 125.941 214 126.66C213.954 128.146 214.128 129.435 214.522 130.526C214.94 131.664 215.694 132.825 216.784 134.009C216.947 134.171 217.967 135.158 219.847 136.969C221.03 138.107 221.923 139.198 222.526 140.243C222.828 140.777 223.071 141.288 223.257 141.775C224.046 142.797 224.661 144.039 225.101 145.501C225.426 146.5 225.879 148.044 226.459 150.133C227.085 151.875 227.92 153.175 228.964 154.034C229.568 154.522 230.426 154.997 231.54 155.462C233.164 156.135 234.08 156.53 234.289 156.646C235.263 157.134 236.04 157.784 236.62 158.596C237.27 159.502 237.49 160.407 237.282 161.313C237.166 161.823 236.899 162.381 236.481 162.984C235.971 163.658 235.588 164.157 235.333 164.482C234.428 165.712 234.173 166.722 234.567 167.512C234.962 168.185 235.82 168.649 237.142 168.905C239.161 169.323 240.344 169.578 240.692 169.671C241.991 170.066 243.001 170.635 243.72 171.377C244.346 172.028 244.833 172.921 245.181 174.059C245.39 174.756 245.587 175.789 245.773 177.159L247.443 189.801C247.699 191.658 247.849 192.877 247.896 193.457C248.035 194.85 248.105 196.081 248.105 197.149C248.105 200.005 247.664 203.151 246.782 206.587C246.573 207.469 246.283 208.514 245.912 209.721C253.824 212.461 265.041 216.745 279.564 222.572C294.065 228.377 306.535 238.163 316.975 251.931C317.323 252.14 317.671 252.36 318.019 252.593L318.106 252.645C319.007 253.186 319.918 253.738 320.838 254.299M326.127 261.299C324.712 258.583 322.752 256.203 320.246 254.16M328.529 271.677C328.575 267.939 327.775 264.48 326.127 261.299M328.494 272.269C328.517 272.06 328.529 271.863 328.529 271.677M325.362 283.1C327.287 279.78 328.331 276.17 328.494 272.269M317.532 291.215C320.849 289.033 323.459 286.328 325.362 283.1M316.14 292.086C316.604 291.807 317.068 291.517 317.532 291.215M307.474 295.15C310.537 294.64 313.425 293.618 316.14 292.086M307.335 295.185C307.381 295.185 307.428 295.174 307.474 295.15M307.335 295.185L302.741 310.404L295.016 310.021L276.78 309.116M264.774 309.534L276.78 309.29M204.43 309.534H264.774M104.309 307.688L204.43 309.534M72.6751 307.34L104.309 307.688M63.4182 307.235L72.6751 307.34M60.4253 295.15C61.3301 299.19 62.3278 303.218 63.4182 307.235M59.9381 295.255C60.0773 295.208 60.2397 295.174 60.4253 295.15M48.4539 294.349C52.2124 295.557 56.0405 295.859 59.9381 295.255M38.7794 288.29C41.3314 291.099 44.5563 293.119 48.4539 294.349M35.195 282.891C36.1694 284.935 37.3642 286.734 38.7794 288.29M33.1417 276.692C33.5825 278.875 34.2669 280.941 35.195 282.891M34.7773 260.568C32.5501 265.815 32.0049 271.19 33.1417 276.692M42.5727 250.642C39.1854 252.964 36.587 256.273 34.7773 260.568M33.2461 247.543C36.8654 250.538 39.9742 251.571 42.5727 250.642M29.3485 243.781C30.3693 244.966 31.6685 246.219 33.2461 247.543M26.5644 239.219C27.1676 240.752 28.0956 242.272 29.3485 243.781M27.156 226.194C25.3464 231.209 25.1492 235.551 26.5644 239.219M35.8562 211.776C31.8657 216.373 28.9657 221.179 27.156 226.194M49.1152 200.074C44.2663 203.232 39.8466 207.133 35.8562 211.776M49.1152 200.074C48.6976 199.773 48.2567 199.459 47.7927 199.134C47.4911 198.902 47.2823 198.716 47.1663 198.577C46.9575 198.345 46.8183 198.113 46.7487 197.88C46.5631 197.3 46.7255 196.627 47.2359 195.86C47.9551 194.908 48.4888 194.2 48.8368 193.736C49.4864 192.877 49.8924 192.111 50.0548 191.437C50.194 190.88 50.2288 190.195 50.1592 189.383C50.0432 188.477 49.962 187.792 49.9156 187.328V187.293C50.426 185.9 51.1336 184.635 52.0384 183.497C53.3376 181.872 54.8804 180.711 56.6669 180.014C57.3165 179.782 58.0705 179.585 58.9289 179.422C59.4625 179.33 60.2629 179.225 61.3301 179.109C62.119 178.993 63.0586 178.877 64.149 178.761C64.6826 178.412 65.1814 178.018 65.6454 177.577C66.9214 176.485 67.9306 175.185 68.6731 173.676C69.0675 172.887 69.6127 171.644 70.3087 169.95C71.0047 168.533 71.8283 167.535 72.7795 166.955C73.3595 166.583 74.0323 166.362 74.798 166.293C74.914 166.27 75.0184 166.258 75.1112 166.258C75.262 166.239 75.4128 166.228 75.5636 166.223C75.61 166.223 75.6448 166.223 75.668 166.223C75.9928 166.223 76.3176 166.246 76.6424 166.293C76.7816 166.339 76.886 166.386 76.9556 166.432C77.1644 166.525 77.3616 166.699 77.5472 166.955C77.64 167.094 77.756 167.326 77.8952 167.651C78.2896 168.557 78.6144 169.613 78.8696 170.82C79.032 171.54 79.2176 172.643 79.4264 174.129C79.4496 174.315 79.4728 174.465 79.496 174.582C86.0849 173.212 92.8014 172.283 99.6455 171.795M172.518 76.2319C174.42 77.0213 176.137 78.1821 177.668 79.7145C179.2 81.2236 180.383 82.9417 181.218 84.8688M161.451 80.62C162.89 79.6681 164.351 79.0296 165.836 78.7045C167.507 78.333 169.049 78.3911 170.465 78.8787C172.042 79.4359 173.446 80.5387 174.675 82.1872C175.534 83.3248 176.334 84.8108 177.077 86.6449C177.077 86.6682 177.088 86.703 177.112 86.7494C177.154 86.8046 177.195 86.8626 177.233 86.9235C178.447 88.525 179.323 90.3244 179.861 92.3216C180.464 94.4344 180.615 96.5356 180.313 98.6252C180.197 99.6468 179.849 101.179 179.269 103.222C178.689 105.219 178.341 106.74 178.225 107.785C177.993 109.479 178.109 111.047 178.573 112.486C179.107 114.135 180.012 115.342 181.288 116.108M185.986 83.8937C187.47 84.8688 188.735 86.2154 189.779 87.9335C190.73 89.4427 191.473 91.184 192.006 93.1575C192.424 94.6202 192.795 96.4776 193.12 98.7297C193.282 99.9834 193.526 101.852 193.851 104.337C194.129 106.008 194.454 107.459 194.825 108.69C195.289 110.222 195.904 111.557 196.669 112.695C197.528 113.995 198.572 115.052 199.801 115.864C201.124 116.723 202.493 117.164 203.908 117.188M183.48 84.9036C184.942 86.0877 186.16 87.6201 187.134 89.5007C188.016 91.1956 188.654 93.0646 189.048 95.1077C189.373 96.8723 189.535 98.8342 189.535 100.993C189.535 102.595 189.431 104.581 189.222 106.949M316.975 251.931C314.864 250.7 312.59 249.772 310.154 249.145C306.929 248.309 303.519 248.007 299.923 248.239C296.976 248.402 293.983 248.924 290.944 249.806M320.246 254.16C319.991 253.974 319.724 253.777 319.446 253.568C319.011 253.241 318.564 252.934 318.106 252.645M289.622 250.642C286.606 252.709 284.216 255.576 282.453 259.244C282.221 259.662 282.012 260.103 281.826 260.568C279.599 265.815 279.054 271.19 280.191 276.692C280.632 278.875 281.316 280.941 282.244 282.891C283.218 284.935 284.413 286.734 285.828 288.29C288.38 291.099 291.605 293.119 295.503 294.349C296.64 294.721 297.8 294.999 298.983 295.185C301.605 295.65 304.273 295.673 306.987 295.255C307.103 295.232 307.219 295.208 307.335 295.185M273.753 257.921C275.168 256.389 276.386 255.135 277.407 254.16C278.775 252.836 280.098 251.699 281.374 250.747C284.483 248.402 287.615 246.939 290.77 246.359M270.273 282.125C273.59 283.588 276.769 285.979 279.808 289.3C281.78 291.459 284.251 294.721 287.22 299.086M271.456 290.693C272.616 290.948 273.729 291.366 274.797 291.946C275.887 292.527 276.85 293.235 277.685 294.071C278.195 294.558 278.822 295.266 279.564 296.195C280.423 297.286 281.026 298.018 281.374 298.389C281.629 298.668 282 299.063 282.488 299.573C282.928 300.038 283.276 300.456 283.532 300.827C283.833 301.291 284.042 301.791 284.158 302.325C284.274 302.882 284.239 303.404 284.054 303.892M298.983 295.185L295.016 310.021M272.117 288.15C275.272 289.868 278.184 291.97 280.852 294.454C283.543 296.938 285.852 299.701 287.777 302.743M223.257 141.775C223.535 142.588 223.651 143.389 223.605 144.178M218.768 139.442C220.229 139.302 221.563 139.894 222.77 141.218C222.932 141.404 223.095 141.589 223.257 141.775M201.054 122.029C202.539 122.702 203.757 123.944 204.708 125.755C205.404 127.055 205.996 128.796 206.483 130.979C207.04 133.44 207.527 135.216 207.945 136.307C208.71 138.211 209.731 139.627 211.007 140.556C211.634 141.021 212.492 141.462 213.582 141.88C214.186 142.112 215.091 142.46 216.297 142.924C217.295 143.365 218.118 143.911 218.768 144.561C219.533 145.304 219.974 146.117 220.09 146.999C220.16 147.463 220.102 148.276 219.916 149.437C219.777 150.458 219.8 151.248 219.986 151.805C220.287 152.687 221.018 153.419 222.178 153.999C222.851 154.324 223.907 154.754 225.345 155.288C227.503 156.309 229.243 158.167 230.565 160.86C231.447 162.671 232.27 165.248 233.036 168.591M200.602 96.8142C201.043 99.1128 201.831 101.318 202.968 103.431C202.945 103.803 202.922 104.163 202.899 104.511M201.159 104.894C203.966 109.932 205.961 113.856 207.144 116.665C209.047 121.146 210.149 125.325 210.45 129.203M183.028 90.5107C183.956 91.9734 184.663 93.5406 185.15 95.2122C185.638 96.9071 185.87 98.6136 185.846 100.332M172.901 99.6526C172.865 100.187 172.807 100.785 172.727 101.446C172.541 103.141 172.448 104.337 172.448 105.033C172.402 106.38 172.553 107.587 172.901 108.655C173.318 109.909 173.956 110.896 174.815 111.615C174.884 111.685 175.29 111.975 176.033 112.486C176.52 112.834 176.88 113.159 177.112 113.461C177.576 114.065 177.842 114.843 177.912 115.795C177.935 116.352 177.877 117.257 177.738 118.511C177.576 119.695 177.529 120.577 177.599 121.158C177.668 122.087 177.97 122.841 178.504 123.422L179.548 124.292C179.965 124.641 180.232 124.989 180.348 125.337C180.464 125.685 180.557 126.277 180.626 127.113C180.65 127.229 180.673 127.334 180.696 127.427C181.392 127.659 182.088 127.903 182.784 128.158C182.668 129.04 182.517 130.015 182.332 131.083C182.262 131.548 182.216 131.966 182.192 132.337C181.752 132.523 181.334 132.778 180.94 133.103C180.754 133.243 180.592 133.394 180.452 133.556C180.406 133.997 180.452 134.485 180.592 135.019C180.777 135.808 181.206 136.981 181.879 138.536C182.227 139.511 182.401 140.684 182.401 142.054C182.401 142.866 182.343 144.085 182.227 145.71C182.111 147.777 182.181 150.006 182.436 152.397C182.575 153.721 182.784 155.183 183.062 156.785C183.178 157.528 183.306 158.294 183.445 159.084C183.77 160.755 183.956 161.963 184.002 162.706C184.025 163.008 184.048 163.298 184.072 163.576C184.095 164.598 184.014 165.515 183.828 166.328C183.712 166.815 183.503 167.535 183.202 168.487C182.993 169.323 182.935 170.042 183.028 170.646C183.167 171.459 183.584 172.225 184.28 172.945C184.327 172.991 184.362 173.038 184.385 173.084C184.826 173.502 185.522 174.048 186.473 174.721C187.517 175.487 188.248 176.091 188.665 176.532C189.361 177.252 189.756 178.018 189.849 178.83C189.872 179.039 189.907 179.353 189.953 179.771C189.999 180.119 190.104 180.386 190.266 180.572C190.545 180.92 190.974 181.071 191.554 181.024C191.948 180.955 192.459 180.792 193.085 180.537C194.454 179.933 195.892 179.573 197.4 179.457C198.908 179.341 200.381 179.457 201.82 179.805C202.377 179.945 203.27 180.223 204.5 180.641C205.683 181.059 206.588 181.338 207.214 181.477C208.768 181.849 210.102 181.849 211.216 181.477C210.497 181.407 209.789 181.431 209.093 181.547M171.3 125.546C172.205 125.616 173.109 125.72 174.014 125.859C174.849 125.883 175.569 125.79 176.172 125.581M176.938 136.447C177.239 134.52 177.506 133.057 177.738 132.059M187.517 112.068C187.54 113.159 187.378 115.203 187.03 118.198C186.728 120.752 186.67 122.783 186.856 124.292M189.257 109.561C190.788 114.529 191.287 119.672 190.753 124.989C190.22 130.306 188.723 135.251 186.264 139.825M174.014 125.859C176.288 126.231 178.515 126.753 180.696 127.427M192.319 131.571C192.992 133.753 192.865 136.319 191.937 139.268C191.681 140.103 191.229 141.334 190.579 142.959C189.953 144.584 189.501 145.815 189.222 146.651C188.642 148.485 188.236 150.516 188.004 152.745C187.795 154.556 187.679 156.634 187.656 158.979M160.164 130.631C160.929 129.725 161.938 129.098 163.191 128.75C164.351 128.402 165.558 128.344 166.811 128.576C167.924 128.762 169.073 129.145 170.256 129.725C171.161 130.143 172.216 130.747 173.423 131.536M160.929 132.198C161.138 132.314 161.358 132.418 161.59 132.511L161.625 132.546C163.273 133.266 165.024 133.626 166.88 133.626C168.829 133.626 170.639 133.231 172.309 132.442C171.775 131.931 171.184 131.478 170.534 131.083C170.047 130.805 169.537 130.584 169.003 130.422C169.003 130.491 169.003 130.561 169.003 130.631C168.957 131.188 168.864 131.617 168.725 131.919C168.446 132.523 167.924 132.918 167.159 133.103C166.486 133.243 165.848 133.127 165.245 132.755C164.92 132.616 164.688 132.43 164.549 132.198C164.409 131.942 164.34 131.641 164.34 131.292C164.317 130.874 164.398 130.491 164.583 130.143C164.583 130.12 164.595 130.097 164.618 130.073C163.713 130.213 162.855 130.48 162.043 130.874C161.788 131.014 161.382 131.258 160.825 131.606C160.314 131.931 159.908 132.163 159.607 132.302C159.607 132.418 159.607 132.546 159.607 132.685C159.607 132.709 159.63 132.778 159.676 132.894C159.746 132.918 159.827 132.918 159.92 132.894C160.152 132.801 160.349 132.743 160.512 132.72C160.628 132.674 160.802 132.627 161.034 132.581C161.289 132.534 161.474 132.511 161.59 132.511M164.618 130.073C164.688 130.05 164.769 130.027 164.862 130.004C165.859 129.864 166.834 129.888 167.785 130.073C168.203 130.166 168.609 130.282 169.003 130.422M160.198 134.531C160.662 135.228 161.219 135.82 161.869 136.307C162.542 136.818 163.261 137.201 164.027 137.457C164.792 137.712 165.604 137.84 166.463 137.84C167.298 137.84 168.098 137.724 168.864 137.491M180.452 133.556C180.081 133.951 179.756 134.403 179.478 134.914C179.153 135.471 178.852 136.168 178.573 137.004C178.55 137.12 178.341 137.851 177.947 139.198C177.46 140.823 176.914 142.181 176.311 143.273C175.522 144.666 174.571 145.734 173.457 146.477C172.065 147.429 170.175 147.986 167.785 148.148C165.743 148.241 164.003 148.021 162.565 147.487C161.213 146.936 159.85 146.013 158.476 144.718C158.534 145.194 158.493 145.664 158.354 146.128C158.215 146.57 157.983 146.953 157.658 147.278C157.519 147.417 157.217 147.672 156.753 148.044C156.684 148.067 156.626 148.102 156.579 148.148C155.767 148.009 155.141 147.905 154.7 147.835L153.482 147.626C153.204 147.603 152.96 147.579 152.751 147.556C151.8 148.206 150.744 148.589 149.584 148.706C148.911 148.729 148.239 148.647 147.566 148.462C146.893 148.253 146.301 147.939 145.791 147.521C145.327 147.15 145.002 146.767 144.817 146.372C144.654 146.303 144.445 146.233 144.19 146.163C143.819 146.001 143.541 145.861 143.355 145.745C143.077 145.583 142.891 145.374 142.798 145.118C142.729 144.886 142.729 144.584 142.798 144.213C142.868 143.679 142.972 143.203 143.111 142.785M172.309 132.442C172.495 132.604 172.669 132.767 172.831 132.929M196.53 121.68C196.994 125.976 196.878 130.282 196.182 134.601C195.486 138.943 194.245 143.075 192.459 146.999C191.484 149.158 190.881 150.54 190.649 151.143C190.092 152.722 189.883 154.15 190.023 155.427C190.115 156.379 190.417 157.412 190.927 158.527C191.183 159.084 191.705 160.047 192.493 161.417C193.932 163.925 194.639 165.921 194.616 167.407M135.525 160.372C135.85 161.556 136.151 162.624 136.43 163.576C136.894 165.062 137.335 166.281 137.752 167.233C138.819 169.671 140.165 171.563 141.789 172.91C142.276 173.305 142.798 173.676 143.355 174.024C144.469 174.674 145.721 175.185 147.113 175.557C148.923 176.044 150.918 176.288 153.099 176.288C157.229 176.242 161.242 175.441 165.14 173.885C169.061 172.329 172.518 170.147 175.511 167.338C178.318 164.691 180.615 161.638 182.401 158.178C182.517 157.923 182.633 157.668 182.749 157.412C182.865 157.203 182.97 156.994 183.062 156.785M205.857 139.511C205.741 141.044 205.706 142.263 205.752 143.168C205.822 144.492 206.042 145.676 206.414 146.72C206.854 147.905 207.504 148.914 208.362 149.75C209.29 150.656 210.334 151.19 211.494 151.352C211.866 151.422 212.074 151.457 212.121 151.457C212.376 151.503 212.585 151.585 212.747 151.701C212.933 151.817 213.084 152.014 213.2 152.293C213.246 152.409 213.339 152.664 213.478 153.059C213.872 154.266 214.476 155.404 215.288 156.472M199.488 128.506C200.532 130.549 201.066 133.115 201.089 136.203C201.089 138.014 200.938 140.73 200.637 144.352C200.567 146.001 200.637 147.394 200.845 148.531C201.124 150.017 201.657 151.236 202.446 152.188C203.119 152.954 204.152 153.686 205.544 154.382C206.332 154.754 207.504 155.311 209.058 156.054C211.402 157.377 213.188 159.316 214.418 161.87C215.647 164.424 216.042 167.036 215.601 169.706M193.816 154.138C193.769 155.949 193.781 157.296 193.851 158.178C193.943 159.687 194.199 161.011 194.616 162.148C195.103 163.472 195.846 164.586 196.843 165.492C197.911 166.49 199.094 167.047 200.393 167.163C200.787 167.21 201.367 167.198 202.133 167.129C202.922 167.059 203.49 167.036 203.838 167.059C204.488 167.082 205.056 167.21 205.544 167.442C206.124 167.721 206.518 168.115 206.727 168.626C206.889 169.067 206.912 169.636 206.796 170.333C206.611 171.494 206.518 172.086 206.518 172.109C206.495 172.875 206.704 173.699 207.144 174.582C207.4 175.092 207.887 175.847 208.606 176.845C208.768 177.054 209.232 177.658 209.998 178.656M195.939 142.123C196.727 143.841 197.226 145.676 197.435 147.626C197.621 149.553 197.493 151.457 197.052 153.337C196.843 154.243 196.507 155.624 196.043 157.482C195.788 159.084 195.962 160.396 196.565 161.417C197.423 162.973 199.187 163.971 201.855 164.412C202.551 164.528 203.606 164.691 205.022 164.9C206.228 165.132 207.226 165.457 208.014 165.875C209.267 166.548 210.23 167.558 210.903 168.905C211.297 169.671 211.541 170.46 211.634 171.273C211.68 171.691 212.295 172.736 213.478 174.407C216.633 174.988 219.359 175.719 221.656 176.601C225.855 178.227 230.739 182.534 236.307 189.522C238.836 192.68 241.295 199.169 243.685 208.99C244.033 210.406 244.369 211.892 244.694 213.448C245.158 212.078 245.564 210.836 245.912 209.721M203.804 156.716C204.407 157.76 205.3 158.886 206.483 160.094C207.156 160.767 208.2 161.765 209.615 163.089C210.822 164.25 211.761 165.364 212.434 166.432C213.292 167.756 213.803 169.079 213.965 170.402M216.332 155.497C217.84 155.984 219.139 156.808 220.229 157.969C221.366 159.153 222.097 160.488 222.422 161.974C222.491 162.346 222.596 163.379 222.735 165.074C222.828 166.351 223.06 167.338 223.431 168.034C224.034 169.241 225.217 170.251 226.981 171.064C228.002 171.528 229.568 172.155 231.679 172.945C234.764 174.384 237.131 176.892 238.778 180.467C240.263 183.718 240.924 187.258 240.762 191.089M192.459 113.217C193.595 115.423 194.071 118.244 193.885 121.68C193.862 122.539 193.735 123.99 193.503 126.034C193.317 127.891 193.213 129.342 193.189 130.387M221.447 169.288C221.378 169.706 221.447 170.147 221.656 170.611C221.819 171.006 222.074 171.377 222.422 171.726C222.7 172.028 223.048 172.318 223.466 172.596C223.698 172.759 224.081 173.003 224.614 173.328C226.006 174.164 227.155 174.918 228.059 175.591C229.289 176.497 230.322 177.414 231.157 178.343C232.131 179.434 232.92 180.572 233.523 181.756C234.15 183.056 234.521 184.379 234.637 185.726M213.478 174.407C213.107 174.338 212.724 174.28 212.33 174.233C212.306 174.303 212.295 174.396 212.295 174.512C212.248 175.719 212.411 176.903 212.782 178.064C213.153 179.225 213.698 180.293 214.418 181.268C214.766 181.733 214.859 182.069 214.696 182.278C214.487 182.51 214.105 182.487 213.548 182.208C212.875 181.837 212.156 181.605 211.39 181.512C211.32 181.489 211.262 181.477 211.216 181.477C211.587 181.361 211.924 181.199 212.225 180.99M188.248 160.93C188.665 161.858 188.932 162.833 189.048 163.855C189.164 164.9 189.118 165.91 188.909 166.885C188.561 168.394 188.387 169.172 188.387 169.218C188.248 170.124 188.352 170.867 188.7 171.447C189.071 172.028 189.64 172.411 190.405 172.596C191.101 172.782 191.832 172.782 192.598 172.596C192.899 172.527 193.352 172.399 193.955 172.213C194.489 172.097 194.941 172.097 195.312 172.213C195.475 172.794 195.173 173.63 194.407 174.721C193.665 175.812 193.387 176.648 193.572 177.228C194.199 177.484 194.848 177.623 195.521 177.646C196.194 177.646 196.843 177.53 197.47 177.298M197.818 170.054C197.934 170.751 198.108 171.772 198.34 173.119C198.386 173.444 198.444 173.688 198.514 173.85C198.607 174.106 198.734 174.291 198.897 174.407C199.175 174.593 199.569 174.663 200.08 174.616C200.637 174.616 201.263 174.593 201.959 174.547C202.469 174.523 202.818 174.616 203.003 174.825C203.166 174.988 203.247 175.278 203.247 175.696C203.27 176.601 203.166 177.472 202.934 178.308C202.91 178.563 202.899 178.749 202.899 178.865C202.899 179.074 202.945 179.237 203.038 179.353C203.154 179.492 203.398 179.585 203.769 179.631C204.65 179.747 205.567 179.771 206.518 179.701M143.355 174.024C142.473 175.441 141.627 176.915 140.815 178.447C140.861 178.842 140.931 179.237 141.023 179.631C141.395 181.187 142.009 183.009 142.868 185.099C143.494 186.608 144.086 187.804 144.643 188.686C145.455 189.94 146.359 190.903 147.357 191.577C149.561 193.039 152.612 193.411 156.51 192.691C160.175 191.995 163.644 190.695 166.915 188.791C169.212 187.467 171.938 185.656 175.093 183.358C178.086 179.852 181.183 176.427 184.385 173.084M191.206 208.92C191.623 213.889 191.995 217.697 192.319 220.343C192.853 224.546 193.537 228.307 194.373 231.627C194.535 232.277 194.941 233.728 195.591 235.98C196.101 237.791 196.472 239.254 196.704 240.369C197.099 242.04 197.632 244.559 198.305 247.926C199.001 250.782 199.952 253.092 201.159 254.856M201.541 205.124C200.265 210.882 199.616 217.348 199.593 224.523C199.569 229.352 199.894 235.911 200.567 244.199C201.356 253.881 201.82 260.452 201.959 263.911C202.214 271.294 201.936 277.83 201.124 283.518C200.961 284.679 200.706 286.455 200.358 288.847C200.08 290.913 199.929 292.689 199.906 294.175C199.883 297.263 201.391 302.383 204.43 309.534M244.694 213.448C245.019 214.934 245.344 216.489 245.669 218.114C247.641 228.934 248.719 238.639 248.905 247.229C252.431 248.947 255.865 250.932 259.206 253.185C266.236 257.921 272.384 263.551 277.65 270.075C277.905 270.4 278.195 270.76 278.52 271.155M253.36 229.607C253.916 228.864 254.322 228.353 254.578 228.075C255.065 227.518 255.54 227.065 256.004 226.717C256.19 226.577 256.712 226.252 257.57 225.741C258.545 225.184 259.566 224.476 260.633 223.617M140.71 126.73C140.246 126.637 139.771 126.602 139.283 126.626C138.471 126.626 137.741 126.788 137.091 127.113C136.697 127.299 136.267 127.519 135.803 127.775C136.151 128.448 136.476 128.982 136.778 129.377C137.265 130.004 137.799 130.433 138.379 130.665C139.051 130.991 139.991 131.072 141.197 130.909C142.729 130.747 143.726 130.7 144.19 130.77C144.654 130.863 144.909 130.909 144.956 130.909C145.257 130.956 145.513 130.944 145.721 130.874C145.907 130.851 146.069 130.782 146.209 130.665C146.209 130.619 146.209 130.561 146.209 130.491C145.93 130.236 145.559 129.864 145.095 129.377C144.793 129.075 144.527 128.808 144.295 128.576M146.035 133.939C146.174 133.01 146.232 131.919 146.209 130.665M144.608 138.083C145.327 136.946 145.803 135.564 146.035 133.939M140.397 141.392C142.23 140.719 143.633 139.616 144.608 138.083M135.003 141.81C136.813 142.181 138.611 142.042 140.397 141.392M130.235 139.337C131.674 140.591 133.263 141.415 135.003 141.81M129.852 138.989C129.968 139.105 130.096 139.221 130.235 139.337M126.964 134.949C127.683 136.505 128.646 137.851 129.852 138.989M125.676 129.69C125.816 131.594 126.245 133.347 126.964 134.949M125.746 126.277C125.607 127.438 125.584 128.576 125.676 129.69M125.885 125.929C125.839 126.022 125.792 126.138 125.746 126.277M127.451 123.874C126.755 124.292 126.233 124.977 125.885 125.929M129.226 123.352C128.53 123.398 127.938 123.572 127.451 123.874M131.14 123.422C130.305 123.352 129.667 123.329 129.226 123.352M132.671 123.526L131.14 123.422M132.671 123.526L137.648 123.944C139.109 124.06 140.235 124.211 141.023 124.397C142.23 124.699 143.204 125.175 143.947 125.825C144.805 126.591 145.443 127.67 145.861 129.063C145.977 129.458 146.093 129.923 146.209 130.457V130.491M135.212 126.208C136.488 125.488 137.903 125.186 139.457 125.302C141.035 125.395 142.404 125.894 143.564 126.8M134.724 99.8093C133.356 101.62 132.126 103.037 131.036 104.058C130.247 104.755 129.644 105.289 129.226 105.66C128.507 106.287 127.938 106.856 127.521 107.367C125.549 109.781 124.737 113.31 125.085 117.954M132.845 121.611C129.342 121.332 125.816 121.309 122.266 121.541C121.964 123.236 121.825 124.989 121.848 126.8C121.987 126.846 122.127 126.916 122.266 127.009C122.405 127.078 122.579 127.171 122.788 127.287C123.275 131.792 124.516 135.46 126.512 138.292C127.44 139.593 128.518 140.695 129.748 141.601C130.235 141.949 130.757 142.274 131.314 142.576C133.309 143.691 135.351 144.178 137.439 144.039C139.411 143.876 141.302 143.238 143.111 142.123C144.48 141.264 145.547 140.312 146.313 139.268C146.429 138.919 146.557 138.559 146.696 138.188C147.206 137.027 148.099 135.472 149.375 133.521M131.036 112.8C130.989 113.008 130.827 113.786 130.548 115.133C130.34 116.085 130.119 116.851 129.887 117.431C129.47 118.43 128.901 119.289 128.182 120.009M129.748 141.601C129.748 141.972 129.748 142.332 129.748 142.681C129.887 146.442 130.746 150.424 132.323 154.626C132.834 155.973 133.448 157.424 134.168 158.979C134.84 160.419 135.594 161.951 136.43 163.576M132.671 123.526C132.509 125.058 132.346 126.777 132.184 128.68C130.885 132.186 130.108 135.622 129.852 138.989M117.15 125.198C116.292 127.752 115.549 129.655 114.923 130.909C113.902 132.952 112.696 134.554 111.304 135.715C110.886 136.04 110.608 136.261 110.468 136.377C110.167 136.656 109.935 136.934 109.772 137.213C109.564 137.584 109.436 138.083 109.39 138.71C109.366 139.059 109.343 139.581 109.32 140.278C109.227 140.904 108.821 142.065 108.102 143.76C107.476 145.176 107.22 146.337 107.336 147.243C107.406 147.614 107.592 148.195 107.893 148.984C108.172 149.727 108.334 150.319 108.38 150.76C108.45 151.619 108.195 152.502 107.615 153.407C107.22 154.011 106.571 154.754 105.666 155.636M114.227 145.188C114.807 146.349 115.016 147.696 114.853 149.228C114.714 150.551 114.32 151.91 113.67 153.303C113.345 153.976 112.649 155.218 111.582 157.029C110.7 158.561 110.074 159.804 109.703 160.755C109.146 162.195 108.879 163.6 108.902 164.969C108.949 166.502 109.39 167.79 110.225 168.835M119.238 143.551C120.073 145.525 120.653 147.138 120.978 148.392C121.442 150.249 121.558 151.933 121.326 153.442C121.187 154.417 120.862 155.52 120.352 156.75C120.05 157.47 119.563 158.538 118.89 159.954C118.38 161.208 118.032 162.334 117.846 163.333C117.637 164.586 117.672 165.736 117.951 166.78M134.168 158.979C134.237 160.187 134.295 161.15 134.342 161.87C134.434 164.331 134.365 166.537 134.133 168.487C133.878 170.809 133.367 172.956 132.602 174.93C131.766 177.112 130.653 178.993 129.261 180.572C128.124 181.872 126.709 183.068 125.015 184.159C124.69 184.368 124.354 184.577 124.006 184.786C123.89 185.923 123.762 187.2 123.623 188.617C123.159 193.121 122.092 198.577 120.421 204.985C119.47 208.723 118.322 211.788 116.976 214.179C116.071 215.758 115.051 217.116 113.914 218.254C113.891 218.277 113.856 218.312 113.809 218.358C112.742 219.682 111.35 220.761 109.633 221.597C109.54 221.644 109.448 221.69 109.355 221.736C108.984 222.108 108.566 222.456 108.102 222.781C106.919 223.617 105.573 224.209 104.065 224.557C103.207 224.766 102.267 224.906 101.246 224.975C100.945 225.532 100.655 226.09 100.376 226.647C98.0331 231.592 96.9775 237.234 97.2095 243.573C97.3255 247.636 97.9635 251.768 99.1235 255.971C99.4715 255.692 99.8195 255.437 100.168 255.205M140.119 145.71C140.049 145.803 139.527 146.442 138.553 147.626C137.926 148.392 137.497 149.077 137.265 149.681C136.917 150.563 136.87 151.503 137.126 152.502M148.262 131.884C148.703 131.768 149.155 131.757 149.619 131.85C150.408 132.082 151.382 132.291 152.542 132.476C152.496 132.244 152.473 132 152.473 131.745M158.476 144.718C158.458 144.7 158.441 144.682 158.424 144.666C156.707 142.994 155.326 141.032 154.282 138.78C153.354 136.737 152.774 134.636 152.542 132.476M136.604 133.034C137.277 133.893 138.425 134.311 140.049 134.287C140.977 134.264 141.824 134.113 142.589 133.835C143.448 133.533 144.132 133.08 144.643 132.476M146.313 139.268C145.803 140.73 145.617 142.112 145.756 143.412M144.643 145.501C144.643 145.78 144.701 146.07 144.817 146.372M139.979 152.85C140.026 152.989 140.084 153.128 140.153 153.268C140.849 153.245 141.696 153.163 142.694 153.024C144.387 152.792 145.443 152.711 145.861 152.78C146.301 152.85 147.09 153.128 148.227 153.616C149.364 154.08 150.826 154.22 152.612 154.034C156.046 154.684 159.514 155.891 163.017 157.656C163.133 157.656 163.249 157.656 163.365 157.656L164.549 157.273M138.901 153.198C139.225 153.245 139.631 153.268 140.119 153.268C139.747 153.128 139.399 153.024 139.075 152.954M140.119 153.268H140.153C140.757 153.639 141.975 154.255 143.807 155.114C145.64 155.996 147.195 156.611 148.471 156.959C148.753 156.994 149.037 157.028 149.323 157.064C153.825 157.568 158.389 157.765 163.017 157.656C163.064 157.679 163.122 157.691 163.191 157.691L163.365 157.656M147.218 156.785C147.635 156.855 148.053 156.913 148.471 156.959M140.153 153.268C140.965 155.079 141.685 156.449 142.311 157.377C143.355 158.956 144.561 160.059 145.93 160.686C147.276 161.313 148.656 161.649 150.072 161.696C151.464 161.742 153.54 161.243 156.301 160.198L163.191 157.691C163.307 157.737 163.447 157.784 163.609 157.83M161.73 148.531C161.938 149.344 162.484 150.319 163.365 151.457C164.363 152.78 164.989 153.721 165.245 154.278C165.616 155.16 165.778 156.077 165.732 157.029C165.662 158.004 165.372 158.886 164.862 159.676M152.751 147.556C152.937 147.417 153.111 147.278 153.273 147.138M134.864 128.297C135.188 128.112 135.502 127.937 135.803 127.775M96.8963 177.263C94.7155 177.286 92.639 177.751 90.667 178.656C90.2726 178.865 90.087 179.086 90.1102 179.318C90.1334 179.55 90.3654 179.713 90.8062 179.805C91.2934 179.898 91.8386 179.945 92.4418 179.945C92.813 179.945 93.3582 179.922 94.0774 179.875C96.4903 179.759 98.3811 179.608 99.7499 179.422C101.861 179.144 103.717 178.726 105.318 178.169C105.805 177.96 106.002 177.727 105.91 177.472C105.863 177.24 105.62 177.101 105.179 177.054C102.604 176.915 100.086 177.205 97.6271 177.925M77.234 180.92C76.9324 180.665 76.6656 180.398 76.4336 180.119C75.7608 179.283 75.378 178.401 75.2852 177.472C75.1228 177.495 74.9604 177.507 74.798 177.507C73.9395 177.577 73.1855 177.495 72.5359 177.263C71.9791 177.101 71.5035 176.834 71.1091 176.462C70.3667 176.694 69.7055 177.008 69.1255 177.402C68.3367 177.913 67.6754 178.61 67.1418 179.492C66.817 180.049 66.5502 180.641 66.3414 181.268C67.4318 181.338 68.2787 181.489 68.8819 181.721C69.0907 181.791 69.3343 181.918 69.6127 182.104C69.6591 181.756 69.8099 181.431 70.0651 181.129C70.1811 181.013 70.3319 180.885 70.5175 180.746C70.6335 180.653 70.7959 180.525 71.0047 180.363L71.5963 180.014C72.2459 179.597 72.8839 179.376 73.5103 179.353C73.6495 181.373 73.8351 183.369 74.0671 185.343C74.2991 187.432 74.5891 189.51 74.9371 191.577C75.0532 192.366 75.1808 193.156 75.32 193.945C75.5288 195.036 75.7492 196.139 75.9812 197.253C76.4684 199.598 77.0136 201.932 77.6168 204.254C77.8024 204.927 77.9764 205.589 78.1388 206.239C78.7188 208.305 79.3568 210.36 80.0528 212.403C80.54 213.889 80.9809 215.05 81.3753 215.886C82.0017 217.116 82.7093 218.126 83.4981 218.915C84.5421 219.96 85.9341 220.784 87.6742 221.388C87.8134 221.435 87.9526 221.481 88.0918 221.527C89.3214 221.899 91.0962 222.247 93.4162 222.572C95.8291 222.92 97.6619 223.129 98.9147 223.199C100.933 223.362 102.754 223.338 104.378 223.129C106.188 222.897 107.847 222.433 109.355 221.736M86.7693 176.706C84.9133 177.077 83.1501 177.716 81.4797 178.621C80.8068 178.97 80.4472 179.376 80.4008 179.84C80.4008 180.189 80.5864 180.49 80.9576 180.746C81.2592 180.932 81.6537 181.059 82.1409 181.129C84.5769 181.57 87.3261 181.756 90.3886 181.686C92.3374 181.64 95.1099 181.442 98.7059 181.094M100.655 182.278C102.07 182.046 103.439 181.953 104.761 182M88.405 177.159C91.1426 176.392 93.915 175.893 96.7223 175.661M71.1091 176.462C70.9467 176.3 70.7843 176.125 70.6219 175.94C70.1115 175.243 69.9143 174.523 70.0303 173.78M79.496 174.582C79.496 174.744 79.496 174.849 79.496 174.895C79.5192 175.197 79.4844 175.452 79.3916 175.661C79.1132 176.334 78.3592 176.822 77.1296 177.124C76.4336 177.286 75.8188 177.402 75.2852 177.472M54.4396 190.079L55.0661 190.149L63.9402 191.472C64.9842 191.635 65.9238 191.739 66.759 191.786C66.8286 191.786 66.8982 191.786 66.9678 191.786C67.6638 191.809 68.8471 191.751 70.5175 191.612C70.6335 191.612 70.7495 191.612 70.8655 191.612C71.8399 191.542 73.1971 191.53 74.9371 191.577M55.0661 190.149C55.0893 190.172 55.1241 190.195 55.1705 190.219C55.4953 190.451 55.9709 190.706 56.5973 190.985C60.6805 192.749 64.8682 194.212 69.1603 195.373C68.8123 195.141 68.5107 194.897 68.2554 194.641C67.6754 194.015 67.1766 193.063 66.759 191.786M57.2237 180.815L66.0978 181.268C66.1906 181.268 66.2718 181.268 66.3414 181.268M69.4039 183.81C69.4039 184.112 69.4039 184.507 69.4039 184.995C69.4271 185.645 69.4387 186.097 69.4387 186.353C69.3459 187.514 69.0791 188.396 68.6383 189M70.3435 184.577C70.4827 185.204 70.5639 185.68 70.5871 186.005C70.6335 186.562 70.5755 187.038 70.4131 187.432C70.3203 187.665 70.1695 187.932 69.9607 188.233C69.6591 188.651 69.4735 188.907 69.4039 189M69.6127 182.104C70.2159 182.452 70.9583 183.009 71.8399 183.776C72.6519 184.519 73.3943 185.041 74.0671 185.343M70.8655 191.612C70.9119 191.728 70.9815 191.844 71.0743 191.96C71.3991 192.424 71.8167 192.807 72.3271 193.109C72.7447 193.365 73.1739 193.562 73.6147 193.701C74.0787 193.84 74.6239 193.922 75.2504 193.945C75.2736 193.945 75.2968 193.945 75.32 193.945M69.1603 195.373C69.2804 195.449 69.4022 195.524 69.5257 195.599C69.8747 195.784 70.2517 195.952 70.6567 196.104C71.8863 196.615 73.1739 196.963 74.5195 197.149C75.0068 197.195 75.494 197.23 75.9812 197.253M64.149 178.761C65.2162 178.621 66.4226 178.47 67.7682 178.308M68.7775 197.497C68.8935 198.821 68.9399 199.784 68.9167 200.388C68.8007 201.526 68.5107 202.443 68.0466 203.139M69.3691 199.03C69.4851 200.608 69.2995 202.129 68.8123 203.592M49.1152 200.074C49.324 200.214 49.5212 200.341 49.7068 200.457C49.8228 201.038 49.904 201.676 49.9504 202.373C49.9968 203.302 49.9852 204.718 49.9156 206.622C49.9156 207.156 49.9968 207.55 50.1592 207.806C50.2984 207.992 50.6 208.201 51.064 208.433C51.3424 208.572 51.6324 208.7 51.934 208.816C52.2356 208.955 52.5372 209.094 52.8388 209.234C53.0476 209.721 53.2332 210.128 53.3956 210.453C53.906 211.381 54.5324 212.043 55.2749 212.438C55.7853 212.74 56.3885 212.925 57.0845 212.995C57.5949 213.041 58.2561 213.053 59.0681 213.03C62.4786 212.867 65.6918 212.531 68.7079 212.02C69.4735 211.904 70.0767 211.788 70.5175 211.672C71.1671 211.509 71.7355 211.312 72.2227 211.08C72.5707 210.894 72.9071 210.673 73.2319 210.418C73.3943 210.325 73.5451 210.209 73.6843 210.07C74.0787 209.721 74.4616 209.315 74.8328 208.851C75.0648 208.595 75.2968 208.305 75.5288 207.98C74.8328 208.375 74.1715 208.723 73.5451 209.025C71.5499 209.953 69.4387 210.534 67.2114 210.766C66.3298 210.72 65.4134 210.65 64.4622 210.557C63.1166 210.395 61.1677 210.093 58.6157 209.652C57.2933 209.443 56.2957 209.245 55.6229 209.06C54.5092 208.804 53.3724 208.421 52.2124 207.91M67.6638 205.716C67.6638 206.134 67.6522 206.761 67.629 207.597C67.5826 208.293 67.4666 208.885 67.281 209.373M68.3599 206.482C68.3599 207.225 68.2322 207.934 67.977 208.607M75.5288 207.98C75.6912 207.887 75.842 207.783 75.9812 207.667C76.422 207.411 76.8744 207.133 77.3384 206.831C77.5936 206.645 77.8604 206.448 78.1388 206.239M50.89 199.796C56.4349 202.001 62.119 203.766 67.9423 205.089C71.1903 205.205 74.4151 204.927 77.6168 204.254M51.934 208.816C50.426 213.134 49.5328 217.453 49.2544 221.771C48.9992 225.881 49.324 229.781 50.2288 233.473C55.0777 231.546 59.4625 228.713 63.3834 224.975C67.7914 220.773 71.0743 215.92 73.2319 210.418M32.4109 244.095C34.5917 243.909 37.2366 244.025 40.3454 244.443C42.1087 244.675 44.7419 245.082 48.2451 245.662C51.2844 246.057 53.964 246.103 56.2841 245.801C59.1841 245.43 61.6434 244.524 63.6618 243.085C64.9842 242.133 66.2138 240.856 67.3506 239.254C68.093 238.209 68.8471 236.932 69.6127 235.423C69.7519 235.145 69.8911 234.854 70.0303 234.553C72.0719 230.234 73.5915 225.718 74.5892 221.005C75.5404 216.594 76.0044 212.148 75.9812 207.667M77.93 224.871C79.9948 224.453 81.6305 224.244 82.8369 224.244C84.6465 224.244 86.1429 224.65 87.3261 225.463C87.6277 225.672 88.0338 225.997 88.5442 226.438V226.473C89.0546 226.914 89.4606 227.227 89.7622 227.413C90.5278 227.947 91.4442 228.295 92.5114 228.458C93.4626 228.597 94.4603 228.574 95.5043 228.388C96.3627 228.226 97.3023 227.947 98.3231 227.552C98.8335 227.343 99.5179 227.042 100.376 226.647M87.6742 221.388C87.883 221.644 88.0802 221.876 88.2658 222.085C89.0778 222.967 89.9246 223.605 90.8062 224C91.4326 224.279 92.1634 224.488 92.9986 224.627C93.5322 224.72 94.2979 224.801 95.2955 224.871C97.2443 224.987 98.7059 225.045 99.6803 225.045C100.237 225.022 100.759 224.998 101.246 224.975M69.6127 235.423C71.4687 234.866 73.1391 234.227 74.624 233.508C76.364 232.672 78.9044 231.209 82.2453 229.12C84.5421 227.796 86.6417 226.902 88.5442 226.438M130.409 167.024C130.456 167.79 130.444 168.452 130.374 169.009C130.282 169.729 130.096 170.344 129.818 170.855C129.655 171.157 129.226 171.726 128.53 172.562C127.95 173.235 127.59 173.827 127.451 174.338C127.358 174.756 127.358 175.174 127.451 175.591C127.544 176.033 127.73 176.404 128.008 176.706M124.076 162.497C124.215 163.472 123.994 164.528 123.414 165.666C122.973 166.502 122.277 167.349 121.326 168.208C120.7 168.742 120.294 169.149 120.108 169.427M103.056 175.522C106.49 174.779 109.912 174.663 113.322 175.174C114.459 175.336 115.306 175.591 115.863 175.94C116.512 176.334 116.825 176.799 116.802 177.333C116.733 177.96 116.164 178.436 115.097 178.761C113.844 179.132 112.429 179.446 110.851 179.701C109.807 179.887 108.369 180.096 106.536 180.328M122.475 174.895C124.099 176.056 124.806 177.507 124.598 179.248C124.458 180.432 124.261 182.278 124.006 184.786M140.815 178.447C137.868 183.927 135.293 190.114 133.089 197.01C131.094 203.325 128.82 212.496 126.268 224.523C125.085 230.002 124.493 234.367 124.493 237.617C124.493 241.332 125.131 244.571 126.407 247.334C126.825 247.125 127.277 246.986 127.764 246.916C128.275 246.869 129.064 246.927 130.131 247.09C131.592 247.276 132.706 247.543 133.472 247.891C133.82 248.03 134.133 248.204 134.411 248.413C140.351 234.738 147.45 221.632 155.709 209.094C161.648 200.063 168.11 191.484 175.093 183.358M142.52 264.259C147.647 264.84 153.389 264.561 159.746 263.424C163.69 262.704 169.339 261.311 176.694 259.244M121.431 264.05C119.969 264.538 117.916 264.782 115.271 264.782C112.209 264.759 110.132 264.851 109.042 265.06M126.303 253.08C125.816 253.893 125.537 254.833 125.468 255.901C125.212 258.455 125.874 261.392 127.451 264.712C127.822 265.502 128.17 266.152 128.495 266.662C128.936 267.312 129.412 267.858 129.922 268.299C130.479 268.787 131.117 269.123 131.836 269.309C132.578 269.518 133.286 269.507 133.959 269.274C134.887 268.949 135.594 268.253 136.082 267.185C136.522 266.326 136.778 265.304 136.847 264.12C136.963 262.007 136.639 259.929 135.873 257.886C135.13 255.889 134.052 254.137 132.636 252.627C132.59 252.743 132.544 252.848 132.497 252.941M132.636 252.627C132.613 252.604 132.59 252.581 132.567 252.558C131.708 251.675 130.896 251.165 130.131 251.025C129.644 250.933 129.145 250.979 128.634 251.165C128.565 251.188 128.507 251.211 128.46 251.234C128.043 251.397 127.648 251.641 127.277 251.966C126.952 252.268 126.628 252.639 126.303 253.08V253.045C126.86 252.093 127.579 251.49 128.46 251.234M126.303 253.08C126.28 253.08 126.268 253.092 126.268 253.115C126.059 253.394 125.769 253.823 125.398 254.404M109.946 245.035C112.475 246.66 115.213 248.228 118.159 249.737M131.036 278.817C131.221 279.954 131.302 281.081 131.279 282.195C131.279 282.775 131.198 283.217 131.036 283.518M127.521 275.09C126.848 276.692 125.978 278.167 124.911 279.513M123.031 268.926C121.315 271.016 119.308 272.85 117.011 274.429M99.1235 255.971C99.8659 258.78 100.84 261.624 102.047 264.503C103.949 269.007 107.232 275.311 111.895 283.414C113.496 286.177 114.923 288.719 116.176 291.041C116.385 292.225 116.419 293.525 116.28 294.941C116.171 295.761 116.026 296.539 115.845 297.275C115.796 297.474 115.744 297.671 115.689 297.867C115.294 298.424 114.772 298.97 114.123 299.504C113.496 299.991 112.673 300.514 111.652 301.071C111.072 301.373 110.19 301.814 109.007 302.394C108.032 302.928 107.232 303.462 106.606 303.996C105.817 304.67 105.214 305.436 104.796 306.295C104.564 306.759 104.402 307.224 104.309 307.688M142.659 274.255C144.19 276.135 146.383 277.482 149.236 278.294C151.44 278.898 154.132 279.212 157.31 279.235C166.474 279.304 175.371 277.923 184.002 275.09M143.216 270.145C144.608 271.329 146.22 272.084 148.053 272.409C153.366 273.291 158.644 273.268 163.887 272.339M137.543 278.364C138.309 279.548 139.318 280.755 140.571 281.986C141.36 282.752 142.555 283.797 144.155 285.12M85.5513 234.97C87.2913 235.528 88.8806 236.41 90.319 237.617C91.7574 238.778 92.9174 240.16 93.799 241.762M71.5267 246.533C72.8955 246.626 74.1947 246.904 75.4244 247.369C76.7004 247.833 77.8256 248.483 78.8 249.319C80.4472 250.735 81.7697 252.697 82.7673 255.205C83.4169 256.83 84.0549 259.175 84.6813 262.239M76.6772 239.846C79.2988 240.31 81.6769 241.448 83.8113 243.259C85.9457 245.07 87.4538 247.241 88.3354 249.772M50.2288 233.473C50.4144 234.309 50.6348 235.133 50.89 235.946C52.05 239.521 53.7088 241.715 55.8665 242.528C57.0729 242.992 58.3721 243.015 59.7641 242.597C61.0865 242.226 62.2582 241.564 63.279 240.612C64.1606 239.753 64.961 238.674 65.6802 237.373C66.1906 236.468 66.759 235.249 67.3854 233.717C70.1695 226.705 72.2691 218.823 73.6843 210.07M80.9229 272.269C81.1085 272.06 81.294 271.863 81.4797 271.677C81.5261 267.939 80.7257 264.48 79.0784 261.299C77.524 258.304 75.2968 255.727 72.3967 253.568C69.6359 251.525 66.5386 250.05 63.105 249.145C59.8801 248.309 56.4697 248.007 52.8736 248.239C49.9272 248.402 46.9343 248.924 43.8951 249.806C43.5681 249.999 43.2491 250.19 42.9381 250.381C42.8801 250.486 42.8163 250.549 42.7467 250.573C42.7467 250.666 42.7235 250.77 42.6771 250.886C42.5843 251.118 42.4335 251.292 42.2247 251.408M42.1203 255.483C43.7211 254.137 45.4843 253.208 47.4099 252.697M60.2165 294.315C60.2861 294.593 60.3557 294.872 60.4253 295.15C63.4878 294.64 66.3762 293.618 69.0907 292.086C69.5547 291.807 70.0187 291.517 70.4827 291.215C73.8003 289.033 76.4104 286.328 78.3128 283.1C80.2384 279.78 81.2824 276.17 81.4448 272.269C81.468 272.06 81.4797 271.863 81.4797 271.677C86.8853 265.85 92.7666 260.614 99.1235 255.971M81.2012 286.444C82.8949 284.401 85.1337 282.474 87.9177 280.663C89.6578 279.525 92.2794 278.051 95.7827 276.24M77.0252 305.807C78.2548 304.043 79.67 302.441 81.2709 301.001C82.8949 299.562 84.6465 298.331 86.5257 297.31C89.4026 295.754 92.2562 294.14 95.0867 292.469M84.2637 304.101C86.5373 302.986 89.0082 301.558 91.6762 299.817C93.1378 298.842 95.4927 297.205 98.7407 294.907M74.4847 302.081C76.6656 299.434 79.148 297.089 81.9321 295.046C84.7161 293.003 87.6974 291.343 90.8758 290.066M73.9627 299.121C75.8884 296.358 78.6144 293.804 82.1409 291.459C84.3913 289.973 87.7437 288.15 92.1982 285.991M85.4121 277.319C88.2194 275.74 90.8526 274.359 93.3118 273.175M69.0907 292.086C70.1579 297.217 71.3527 302.301 72.6751 307.34M106.432 252.349C110.585 254.717 114.958 256.342 119.551 257.224M106.188 257.503C109.854 258.734 113.693 259.894 117.707 260.986M263.695 248.344C263.811 247.02 264.38 245.732 265.4 244.478C266.189 243.503 267.28 242.516 268.672 241.518C273.242 238.128 277.801 235.969 282.348 235.04M254.647 237.478C255.25 236.108 255.761 235.087 256.178 234.413C256.851 233.322 257.594 232.486 258.406 231.906C260.122 230.745 261.851 229.77 263.591 228.98M255.761 245.906C256.155 244.466 256.921 243.073 258.058 241.727C258.962 240.659 260.157 239.544 261.642 238.383C265.957 235.04 270.621 232.463 275.632 230.652M256.387 261.647C257.71 262.065 258.881 262.657 259.902 263.424C260.552 263.911 261.375 264.712 262.373 265.827C263.44 266.987 264.264 267.8 264.844 268.264M267.106 254.369C267.802 252.442 268.915 250.665 270.447 249.04C271.908 247.531 273.613 246.277 275.562 245.279C278.973 243.491 283.056 242.528 287.812 242.388M248.905 247.229C248.928 249.389 248.905 251.478 248.835 253.498C249.903 259.929 251.26 266.314 252.907 272.653C253.696 275.74 254.496 278.457 255.308 280.802C256.306 283.658 258.023 287.883 260.459 293.479C262.06 297.519 263.498 302.87 264.774 309.534M204.987 263.981C207.168 265.072 209.464 265.885 211.877 266.419C214.29 266.929 216.715 267.138 219.151 267.046C223.141 266.906 226.957 267.185 230.6 267.881C234.521 268.624 238.128 269.843 241.423 271.538M270.795 294.315C273.068 295.499 275.005 296.834 276.606 298.32C278.462 300.038 279.82 301.907 280.678 303.927M256.944 267.672C259.705 269.182 262.326 270.795 264.809 272.513M203.282 281.498C208.896 283.959 214.731 285.817 220.786 287.071C226.818 288.348 232.908 288.986 239.056 288.986M200.985 292.086C203.56 293.897 206.785 295.22 210.659 296.056C213.118 296.567 216.657 296.985 221.273 297.31M205.056 276.483C206.24 277.389 207.608 277.853 209.163 277.876C214.847 277.946 221.378 277.877 228.756 277.668M269.646 298.494C270.76 299.399 271.943 300.514 273.196 301.837C273.869 302.534 274.971 303.729 276.502 305.424C276.873 305.842 277.128 306.179 277.267 306.434C277.476 306.829 277.546 307.2 277.476 307.549M270.273 308.802L276.78 309.116M140.884 257.782C150.837 256.435 160.755 254.287 170.639 251.339M139.562 252.767C150.28 249.214 160.709 244.884 170.847 239.776M43.8951 249.806C43.5007 249.923 43.1063 250.039 42.7119 250.155C42.7351 250.271 42.7467 250.387 42.7467 250.503C42.8101 250.463 42.8739 250.423 42.9381 250.381M45.4611 248.971C44.9275 249.226 44.4055 249.505 43.8951 249.806M170.847 88.63C173.214 91.1608 175.093 94.0397 176.485 97.267M287.186 257.538C285.214 259.906 283.984 262.599 283.497 265.618C283.01 268.45 283.184 271.399 284.019 274.464C284.784 277.296 286.06 280.001 287.847 282.578C290.213 286.084 292.928 288.417 295.99 289.578C298.148 290.414 300.549 290.681 303.194 290.379C305.491 290.101 307.857 289.404 310.293 288.29C312.381 287.361 314.214 286.27 315.792 285.016C317.555 283.6 318.935 282.021 319.933 280.28C320.838 278.654 321.453 276.867 321.777 274.916C322.079 273.059 322.079 271.167 321.777 269.24C321.197 265.502 319.608 262.123 317.01 259.105C314.411 256.087 311.291 254.032 307.648 252.941C304.841 252.059 301.871 251.815 298.739 252.209C295.747 252.581 292.881 253.498 290.144 254.961C289.819 255.123 289.494 255.297 289.169 255.483C288.473 256.087 287.812 256.772 287.186 257.538ZM176.938 136.447C176.914 136.609 176.891 136.76 176.868 136.899C176.497 138.826 175.963 140.382 175.267 141.566C174.339 143.122 172.993 144.329 171.23 145.188C169.49 146.047 167.692 146.395 165.836 146.233C164.003 146.094 162.275 145.49 160.651 144.422C159.073 143.377 157.809 142.042 156.858 140.417C155.953 138.838 155.408 137.097 155.222 135.193C155.199 134.868 155.176 134.543 155.152 134.218C155.152 134.148 155.152 134.078 155.152 134.009C155.315 132.778 155.512 131.803 155.744 131.083C156.115 129.969 156.649 129.087 157.345 128.437C158.087 127.786 159.062 127.334 160.268 127.078C161.08 126.916 162.205 126.835 163.644 126.835C165.639 126.811 167.159 126.823 168.203 126.869C169.919 126.939 171.439 127.136 172.761 127.461C174.896 127.926 176.346 128.773 177.112 130.004C177.46 130.584 177.668 131.269 177.738 132.059C177.738 132.407 177.726 132.778 177.703 133.173C177.634 133.986 177.378 135.077 176.938 136.447ZM135.942 119.138C136.778 119.022 137.671 119.045 138.622 119.208C139.411 119.324 140.269 119.567 141.197 119.939C141.754 120.148 142.578 120.496 143.668 120.984C143.993 121.123 144.225 121.239 144.364 121.332C144.596 121.495 144.782 121.669 144.921 121.854C145.06 122.087 145.107 122.342 145.06 122.621C145.037 122.783 144.991 122.911 144.921 123.004C144.364 122.957 143.773 122.876 143.146 122.76C142.473 122.621 141.569 122.365 140.432 121.994C137.277 121.042 135.003 120.357 133.611 119.939C134.307 119.544 135.084 119.277 135.942 119.138ZM140.71 126.73C140.571 126.8 140.432 126.881 140.293 126.974C140.037 127.183 139.852 127.427 139.736 127.705C139.62 128.007 139.573 128.332 139.597 128.68C139.62 128.982 139.724 129.261 139.91 129.516C140.211 130.004 140.699 130.317 141.371 130.457C141.789 130.549 142.195 130.538 142.589 130.422C142.891 130.352 143.181 130.201 143.459 129.969C143.715 129.76 143.923 129.505 144.086 129.203C144.179 129.017 144.248 128.808 144.295 128.576C144.086 128.39 143.9 128.228 143.738 128.088C143.111 127.601 142.404 127.229 141.615 126.974C141.313 126.858 141.012 126.777 140.71 126.73ZM77.234 180.92C77.7212 181.361 78.278 181.744 78.9044 182.069C79.7628 182.464 80.7604 182.777 81.8973 183.009C82.6397 183.149 83.6721 183.265 84.9945 183.358C90.5162 183.752 96.0147 183.764 101.49 183.393C107.012 183.021 112.429 182.243 117.742 181.059C118.484 180.897 119.018 180.757 119.343 180.641C119.923 180.432 120.41 180.189 120.804 179.91C121.245 179.562 121.581 179.144 121.813 178.656C122.045 178.122 122.103 177.6 121.987 177.089C121.755 176.23 120.943 175.499 119.551 174.895C118.299 174.384 117.011 173.989 115.689 173.711C110.352 173.409 105.051 173.432 99.7847 173.78C95.7479 174.059 91.7342 174.535 87.7437 175.208C85.6093 175.58 83.7881 175.963 82.2801 176.358C80.9345 176.729 79.6932 177.147 78.5564 177.611C78.2548 177.89 77.9532 178.192 77.6516 178.517C77.4196 178.726 77.2804 178.923 77.234 179.109C77.1412 179.295 77.0948 179.585 77.0948 179.98C77.118 180.351 77.1644 180.665 77.234 180.92ZM76.4336 171.134C77.5472 172.666 78.3244 173.757 78.7652 174.407C77.8836 174.616 77.2572 174.756 76.886 174.825C76.6308 174.872 76.3524 174.907 76.0508 174.93C75.726 174.953 75.2388 175.011 74.5892 175.104C74.2179 175.127 73.9395 175.185 73.7539 175.278C73.5683 175.371 73.4291 175.406 73.3363 175.383C73.2435 175.383 73.1159 175.313 72.9535 175.174C72.4431 174.663 72.0487 174.106 71.7703 173.502C71.9791 172.991 72.3271 172.538 72.8143 172.144C73.2551 171.795 73.7771 171.528 74.3803 171.343C75.0161 171.145 75.6599 171.07 76.3118 171.116C76.3547 171.124 76.3952 171.13 76.4336 171.134ZM42.1203 255.483C41.4242 256.087 40.763 256.772 40.1366 257.538C38.1646 259.906 36.935 262.599 36.4478 265.618C35.9606 268.45 36.1346 271.399 36.9698 274.464C37.7354 277.296 39.0114 280.001 40.7978 282.578C43.1643 286.084 45.8787 288.417 48.9412 289.578C51.0988 290.414 53.5 290.681 56.1449 290.379C58.4417 290.101 60.8081 289.404 63.2442 288.29C65.3322 287.361 67.165 286.27 68.7427 285.016C70.5059 283.6 71.8863 282.021 72.8839 280.28C73.7887 278.654 74.4035 276.867 74.7283 274.916C75.03 273.059 75.03 271.167 74.7283 269.24C74.1483 265.502 72.5591 262.123 69.9607 259.105C67.3622 256.087 64.2418 254.032 60.5993 252.941C57.7921 252.059 54.8224 251.815 51.6904 252.209C48.6976 252.581 45.8323 253.498 43.0947 254.961C42.7699 255.123 42.4451 255.297 42.1203 255.483ZM42.7467 250.503C42.7467 250.526 42.7467 250.549 42.7467 250.573C42.7003 250.596 42.6423 250.619 42.5727 250.642C42.6423 250.596 42.7003 250.549 42.7467 250.503Z" stroke="black" stroke-width="0.266665" stroke-linecap="round" stroke-linejoin="round"/>
</g>
</g>
</g>
<defs>

<clipPath id="clip0_1644_34">
<rect x="12.1719" y="10.4474" width="324.013" height="301.128" rx="10.2383" fill="white"/>
</clipPath>
<clipPath id="clip1_1644_34">
<rect width="478.93" height="269.598" fill="white" transform="translate(-27.5781 41.7646)"/>
</clipPath>
</defs>
</svg>
