<svg width="604" height="556" viewBox="0 0 604 556" fill="none" xmlns="http://www.w3.org/2000/svg">
<g clip-path="url(#clip0_1972_1147)">
<path d="M415.242 161.776C416.533 161.98 417.609 162.224 418.479 162.505C418.688 162.578 418.886 162.653 419.071 162.728C418.922 163.022 418.723 163.258 418.477 163.446L418.462 163.458L418.448 163.47C417.834 163.99 417.013 164.217 415.886 164.057C415.159 163.887 414.721 163.686 414.487 163.501C414.228 163.253 413.955 162.742 413.744 161.84C414.332 161.754 414.829 161.736 415.242 161.776ZM455.498 157.741C455.706 157.763 455.929 157.799 456.167 157.849L456.226 157.86L456.286 157.864C457.024 157.898 457.743 157.987 458.443 158.13L458.363 158.304C458.13 158.744 457.737 159.098 457.111 159.346L457.091 159.355L457.07 159.364C456.485 159.638 455.911 159.743 455.336 159.697L455.297 159.694L455.257 159.694C454.288 159.717 453.557 159.427 452.99 158.857C452.796 158.615 452.619 158.354 452.459 158.071C453.345 157.855 454.356 157.743 455.498 157.741Z" stroke="#D9C5A9" stroke-width="1.5"/>
<path d="M338.078 245.846C338.257 245.674 338.442 245.524 338.631 245.396C345.57 239.189 353.962 234.15 363.807 230.281M363.807 230.281C363.476 229.058 363.099 227.499 362.675 225.605C362.597 225.083 362.49 224.617 362.356 224.207C361.818 221.846 361.217 220.037 360.552 218.78C360.458 218.403 359.827 217.244 358.658 215.304C357.893 213.875 357.366 212.639 357.076 211.596C356.941 211.185 356.828 210.711 356.736 210.173M363.807 230.281C364.042 231.289 364.249 232.066 364.428 232.613C365.316 235.142 366.659 237.174 368.456 238.708C370.419 240.495 372.531 241.254 374.792 240.986C374.976 240.917 375.802 240.744 377.27 240.468C378.296 240.206 379.166 240.111 379.878 240.184C380.869 240.418 382.075 241.334 383.499 242.933C384.985 244.495 386.216 245.392 387.192 245.624C387.899 245.755 388.758 245.762 389.769 245.645C391.272 245.461 392.147 245.381 392.394 245.407C393.293 245.381 394.359 245.593 395.592 246.042C396.875 246.57 397.868 246.921 398.57 247.095C399.928 247.616 401.449 247.904 403.133 247.958C404.141 248.017 405.722 248.01 407.875 247.936M356.736 210.173C355.267 209.303 354.076 208.521 353.162 207.825C352.481 207.3 351.858 206.708 351.294 206.048C350.882 205.624 350.501 205.182 350.151 204.72C349.256 203.41 348.669 202.043 348.388 200.619C348.119 199.079 348.299 197.68 348.927 196.422C349.323 195.714 350.138 194.71 351.373 193.412C352.458 192.143 353.196 191.036 353.586 190.092C353.904 189.287 354.006 188.284 353.894 187.083M356.736 210.173C356.645 209.341 356.695 208.488 356.888 207.611C357.148 206.36 357.657 205.406 358.415 204.75C358.588 204.635 358.746 204.526 358.889 204.424M353.894 187.083C353.848 186.814 353.789 186.529 353.717 186.228C353.568 185.523 353.434 184.9 353.313 184.359C353.152 183.49 353.016 182.801 352.907 182.29C352.41 179.67 352.428 177.05 352.961 174.432C353.514 171.889 354.562 169.544 356.105 167.396C357.206 165.966 358.037 164.884 358.597 164.148C359.516 162.92 360.083 161.759 360.297 160.665C360.446 159.784 360.476 158.561 360.386 156.995C360.231 155.203 360.202 153.981 360.298 153.33C360.398 152.062 360.842 150.661 361.631 149.126C361.713 148.9 361.829 148.699 361.979 148.523C363.168 146.53 364.048 145.034 364.621 144.035C365.533 142.293 366.05 140.62 366.17 139.017C366.248 137.674 365.682 136.096 364.471 134.283C364.346 132.919 364.428 131.474 364.716 129.947C365.183 127.101 366.258 124.348 367.941 121.685C369.067 119.73 370.852 117.438 373.295 114.809C376.974 110.735 378.93 108.564 379.163 108.294C380.304 106.766 382.666 103.497 386.25 98.4885C389.035 94.3823 391.504 91.2275 393.654 89.0242C396.224 86.4526 399.082 84.2995 402.228 82.5651C405.126 80.9522 408.254 79.6786 411.612 78.7442C417.11 77.2942 422.469 76.9829 427.689 77.8102C429.193 78.052 430.694 78.389 432.193 78.8213M353.894 187.083C354.581 186.831 355.281 186.594 355.994 186.373M432.193 78.8213C432.721 78.4053 433.293 77.9792 433.911 77.543C434.879 76.9811 435.884 76.4964 436.925 76.0888C438.125 75.7121 439.353 75.4852 440.61 75.4081C440.93 75.4408 441.238 75.443 441.535 75.4146C443.544 75.4584 445.867 76.0262 448.503 77.1181C451.45 78.4767 453.706 79.4122 455.27 79.9245C456.449 80.324 459.565 81.1859 464.617 82.51C468.436 83.5319 471.434 84.6827 473.611 85.9625C476.441 87.6029 478.99 89.9855 481.257 93.1102C481.711 93.7 482.168 94.3269 482.63 94.9908C483.378 96.154 484.208 97.59 485.121 99.2987C485.439 99.7864 485.85 100.291 486.355 100.813C488.811 103.531 491.677 105.755 494.953 107.485C497.9 108.711 500.025 109.7 501.33 110.45C503.681 111.747 505.349 113.254 506.334 114.97C507.096 116.429 507.536 118.236 507.654 120.392C507.653 121.405 507.546 123.384 507.334 126.329C507.181 128.825 507.182 130.756 507.337 132.123C507.635 134.092 508.334 135.668 509.432 136.853C510.464 137.972 512.075 138.959 514.266 139.814C516.885 140.933 518.555 141.699 519.277 142.111C520.938 143.264 522.169 144.8 522.973 146.718C523.248 147.186 523.454 147.685 523.591 148.213C523.86 149.18 524.008 150.678 524.036 152.708C524.086 155.092 523.967 158.201 523.678 162.033C521.908 161.515 519.835 160.95 517.458 160.34M432.193 78.8213C430.634 80.1304 429.437 81.7043 428.602 83.5428M517.458 160.34C517.468 160.385 517.483 160.453 517.504 160.543C517.691 161.297 518.301 162.086 519.334 162.911C520.559 163.859 521.321 164.597 521.62 165.127C522.256 165.662 522.801 166.298 523.255 167.035C523.289 167.126 523.303 167.208 523.296 167.281C523.962 168.377 524.315 169.603 524.353 170.958C524.33 171.176 524.262 171.991 524.147 173.404C524.066 173.616 524.029 173.84 524.034 174.075C523.996 174.732 524.034 175.294 524.148 175.761C524.278 176.215 524.577 176.811 525.046 177.549C525.504 178.389 525.827 178.965 526.015 179.278C526.34 180.266 526.454 181.739 526.357 183.697C525.734 182.458 524.859 181.385 523.732 180.477M517.458 160.34C517.297 159.472 517.481 158.536 518.01 157.533C518.162 157.196 518.421 156.745 518.787 156.181C519.201 155.577 519.448 155.11 519.525 154.78C519.761 154.349 519.937 153.919 520.054 153.49C520.363 152.333 520.405 151.14 520.177 149.912C520.038 148.973 519.786 148.132 519.421 147.39C518.972 146.757 518.472 146.184 517.921 145.673M517.458 160.34C514.292 159.4 510.549 158.415 506.231 157.386M523.732 180.477C524.934 183.243 525.687 186.301 525.991 189.651C526.543 194.891 525.993 200.129 524.341 205.365C524.025 206.155 523.712 206.989 523.401 207.868C522.325 210.636 521.046 212.797 519.565 214.349C518.613 215.323 517.58 216.077 516.468 216.61C515.165 217.137 513.939 217.342 512.79 217.225C512.083 217.094 511.038 216.825 509.654 216.42C508.35 215.949 507.325 215.697 506.579 215.665C505.322 215.595 504.179 215.919 503.151 216.636C502.82 216.999 502.526 217.431 502.269 217.934C501.261 219.74 501.081 221.498 501.729 223.209C502.127 224.205 502.949 225.441 504.194 226.92C505.664 228.495 506.61 229.663 507.032 230.426C507.671 231.651 508.013 232.971 508.06 234.386C508.175 235.852 507.903 237.212 507.246 238.466C506.777 239.608 506.054 240.569 505.077 241.351M523.732 180.477C523.224 179.265 522.616 178.101 521.907 176.986C521.374 176.3 520.705 175.585 519.9 174.842C518.73 173.636 517.26 172.347 515.489 170.977C512.432 168.682 510.217 166.774 508.844 165.253C506.686 162.786 505.395 160.245 504.972 157.632C504.91 157.229 504.86 156.784 504.822 156.295C504.808 155.427 504.858 154.426 504.974 153.293C505.175 151.331 505.31 149.861 505.381 148.885C505.729 145.19 504.998 142.494 503.188 140.796M505.077 241.351C510.72 244.233 516.236 247.418 521.626 250.906C536.074 260.225 545.218 272.563 549.056 287.92C549.084 287.937 549.094 287.975 549.089 288.033C550.62 291.744 551.554 295.826 551.893 300.281C552.173 304.011 552.044 308.212 551.508 312.886C551.242 315.341 551.03 320.577 550.872 328.594C551.726 345.834 550.243 364.869 546.424 385.699C542.141 409.199 534.716 431.378 524.148 452.238M505.077 241.351C504.965 241.442 504.847 241.518 504.724 241.579C503.555 242.517 502.32 243.095 501.019 243.315C500.012 243.535 498.088 243.522 495.248 243.276C492.886 243.093 491.048 243.316 489.734 243.946C488.303 244.724 487.279 245.971 486.663 247.685C486.087 249.432 486.15 251.12 486.851 252.749C487.247 253.611 487.781 254.356 488.452 254.983C489.017 255.496 489.6 255.901 490.201 256.197C491.731 257.044 493.367 257.365 495.107 257.161C495.753 257.021 496.24 256.932 496.567 256.892C497.194 256.794 497.682 256.844 498.029 257.041C498.589 257.172 499.005 257.486 499.277 257.984L499.268 258.071C498.133 259.541 496.704 260.731 494.98 261.642C492.726 262.557 490.481 262.805 488.246 262.385C485.984 261.949 484.051 260.796 482.449 258.929C481.764 258.154 481.187 257.332 480.718 256.461C480.15 255.258 479.815 254.005 479.713 252.702C479.573 250.911 480.132 247.744 481.39 243.203C482.525 239.28 482.772 236.222 482.129 234.026C481.662 232.554 480.685 230.971 479.198 229.277M505.077 241.351C504.979 241.311 504.887 241.272 504.803 241.234M524.148 452.238C524.543 451.824 524.904 451.383 525.231 450.917M524.148 452.238C520.125 456.806 514.355 459.843 506.838 461.351C500.911 462.552 493.314 462.832 484.047 462.194C464.151 460.88 446.72 459.098 431.755 456.849C414.273 454.195 399.411 450.649 387.167 446.211C384.353 444.705 382.868 443.775 382.713 443.421M470.052 91.8769C471.867 93.3841 473.269 94.6287 474.256 95.6108C475.746 97.1289 476.867 98.6019 477.618 100.03C478.286 101.537 478.825 103.384 479.234 105.57C479.467 106.886 479.814 108.801 480.278 111.316M473.331 88.2689C474.699 88.8346 475.929 89.6653 477.022 90.7609C478.048 91.791 478.886 93.0148 479.534 94.4321C480.499 96.4986 481.2 99.4192 481.637 103.194M426.843 89.9715C427.292 88.7397 428.087 87.7196 429.228 86.911C430.343 86.0704 431.577 85.4917 432.932 85.1749C434.136 84.9014 435.464 84.7729 436.918 84.7892C437.891 84.7566 439.259 84.8156 441.022 84.9664M427.35 84.5823C425.725 83.0798 423.515 82.4134 420.721 82.583C419.813 82.6957 418.606 82.8515 417.102 83.0501C415.23 83.3875 414.025 83.6094 413.485 83.7157M424.646 87.7423C423.914 87.1388 422.966 86.7115 421.801 86.4603C420.971 86.2432 419.903 86.2001 418.596 86.3309C416.491 86.3654 414.739 86.4654 413.341 86.6308C411.46 86.9231 409.782 87.3758 408.309 87.9888C405.707 89.1474 403.274 91.1603 401.012 94.0277C399.648 95.724 397.829 98.4972 395.555 102.347M423.213 93.5655C421.804 92.834 420.298 92.4011 418.695 92.2666C417.006 92.2555 415.454 92.5595 414.039 93.1784C411.639 94.0787 409.249 96.0445 406.867 99.0759C405.576 100.78 403.616 103.348 400.987 106.78C399.272 108.748 397.288 110.403 395.035 111.744C392.678 113.09 390.25 114.06 387.749 114.656M424.745 98.8547C424.55 98.1739 423.753 97.7694 422.356 97.6412C419.645 97.4229 417.387 97.5151 415.582 97.9181C413.032 98.4211 411.03 99.5381 409.574 101.269M424.645 101.774C422.395 101.647 420.634 101.761 419.363 102.116C417.334 102.701 415.867 103.689 414.96 105.08M422.213 106.372C421.408 106.055 420.435 106.007 419.296 106.228C418.315 106.48 417.36 106.904 416.432 107.499C415.37 108.257 413.959 109.699 412.199 111.825C410.571 113.802 409.042 115.173 407.612 115.938M444.325 86.0751C442.659 85.5523 440.99 85.4185 439.318 85.6734C437.533 85.8875 435.977 86.5141 434.651 87.5534C433.582 88.384 432.603 89.6203 431.715 91.2625C431.506 91.5789 431.298 92.0349 431.09 92.6304M431.09 92.6304C431.305 92.4027 431.534 92.1692 431.779 91.9299C433.776 90.2248 436.167 89.3311 438.953 89.2487C441.669 89.1299 444.081 89.8316 446.188 91.3541M431.09 92.6304C430.057 93.6849 429.485 94.7499 429.375 95.8254C429.342 96.1452 429.342 96.4388 429.373 96.7064M437.476 105.641C435.287 104.477 433.239 103.813 431.331 103.647M431.331 103.647C430.841 103.553 430.352 103.518 429.865 103.541C429.037 103.589 428.245 103.721 427.488 103.937C424.734 104.713 422.098 107.425 419.58 112.072M431.331 103.647C434.389 103.49 436.715 103.382 438.308 103.325C441.61 103.222 444.366 103.357 446.577 103.73C449.585 104.199 452.232 105.189 454.517 106.7C457.111 108.213 459.003 110.191 460.193 112.633C461.178 114.643 461.769 117.567 461.964 121.405C462.175 125.95 462.514 128.966 462.979 130.452C463.634 133.104 465.543 136.714 468.706 141.281C470.919 144.503 472.574 147.213 473.672 149.41M419.58 112.072C420.144 111.44 420.814 110.708 421.59 109.877M419.58 112.072C418.766 112.988 418.138 113.812 417.696 114.545C417.591 114.711 417.176 115.395 416.45 116.599C415.938 117.442 415.444 118.104 414.969 118.584C414.454 119.163 413.492 119.872 412.084 120.712C411.098 121.302 410.302 121.83 409.695 122.297M444.622 101.503C443.688 100.864 442.205 100.493 440.173 100.388C436.512 100.116 433.686 100.804 431.696 102.451M431.804 100.523C434.48 98.7851 437.388 97.7312 440.526 97.3618C441.65 97.1535 442.653 97.19 443.535 97.4711C444.022 97.5943 444.457 97.8664 444.84 98.2874C445.228 98.6648 445.446 99.1203 445.494 99.6539M445.53 94.1284C443.373 93.8052 441.198 93.8766 439.005 94.3426C436.805 94.8813 434.789 95.7621 432.96 96.9849M473.672 149.41C475.196 149.596 476.856 149.824 478.65 150.095C479.066 152.355 479.312 154.76 479.39 157.308C479.058 157.539 478.617 157.758 478.066 157.966C477.388 158.278 476.637 158.576 475.815 158.859M473.672 149.41C470.371 149.073 467.454 148.856 464.922 148.758C463.34 148.699 461.893 148.698 460.579 148.755C453.548 148.961 447.513 150.356 442.472 152.94C441.118 153.683 439.159 154.804 436.596 156.304C435.972 156.652 435.318 156.945 434.632 157.183C433.49 157.287 432.201 157.103 430.764 156.633C429.859 156.438 428.76 156.047 427.468 155.459C425.542 154.602 424.504 154.114 424.355 153.996C419.14 151.818 413.028 150.944 406.018 151.373C403.294 151.564 399.865 152.043 395.731 152.81M475.815 158.859C475.913 159.765 475.996 160.684 476.062 161.616C476.562 168.085 476.768 173.18 476.682 176.901C476.631 178.981 476.515 180.981 476.333 182.901C475.884 188.157 474.995 192.758 473.666 196.705C472.372 200.302 471.107 203.191 469.87 205.37M475.815 158.859C475.513 158.931 475.19 159.001 474.845 159.069C474.808 159.432 474.746 159.756 474.658 160.041C474.588 160.724 474.523 161.356 474.464 161.937C474.294 163.168 474.109 164.185 473.91 164.987C473.436 167.611 472.768 169.9 471.907 171.853L471.848 172.001C471.256 173.336 470.55 174.563 469.73 175.684C469.418 176.151 469.08 176.586 468.715 176.99C468.63 177.099 468.538 177.214 468.437 177.336C468.256 177.523 468.053 177.715 467.827 177.912C466.967 178.852 466.051 179.618 465.079 180.209C464.078 180.664 463.061 181.052 462.029 181.373C458.829 182.338 455.596 182.558 452.328 182.033C450.794 181.803 449.343 181.405 447.975 180.84C447.001 180.446 446.094 179.979 445.253 179.438M469.87 205.37C469.416 208.232 469.181 210.535 469.164 212.281C469.165 215.864 469.933 218.843 471.469 221.218C472.173 222.376 474.097 224.402 477.24 227.293C477.978 227.985 478.63 228.646 479.198 229.277M469.87 205.37C469.229 206.465 468.265 207.849 466.977 209.524C465.677 211.168 461.822 214.666 455.411 220.017C449.002 225.354 442.335 228.116 435.408 228.304M479.198 229.277C479.194 231.612 479.139 233.449 479.031 234.789C478.874 238.342 478.541 241.458 478.032 244.137C477.146 248.629 476.015 251.935 474.637 254.055C473.264 256.133 471.609 258.012 469.674 259.694C467.743 261.332 462.857 262.625 455.016 263.571C451.24 263.992 447.743 263.987 444.524 263.556M450.5 85.1863C452.604 85.8859 453.889 86.3257 454.355 86.5055C455.784 87.0481 456.966 87.6315 457.902 88.2558C459.182 88.9594 460.221 89.8587 461.021 90.9537C461.841 92.1243 462.365 93.3306 462.591 94.5726M450.55 99.5759C454.1 100.071 457.185 101.524 459.804 103.936C461.061 105.151 462.125 106.53 462.996 108.073C463.735 109.617 464.282 111.237 464.638 112.933M462.598 96.0053C461.782 95.6574 460.881 94.978 459.897 93.9669L457.576 91.4387M464.935 94.9224C468.056 97.6058 469.98 101.856 470.708 107.672C470.875 109.202 471.091 111.544 471.357 114.699C471.701 117.51 472.163 119.819 472.743 121.626C473.606 124.108 474.87 126.117 476.536 127.653C478.321 129.451 480.343 130.443 482.602 130.63C483.626 130.676 485.372 130.414 487.84 129.844C490.034 129.378 491.793 129.278 493.117 129.546C494.701 129.869 496.049 130.697 497.162 132.03C498.304 133.366 498.983 134.918 499.199 136.688C499.409 138.222 499.268 139.823 498.774 141.491C498.241 143.11 497.454 144.623 496.414 146.03C495.955 146.644 495.209 147.544 494.176 148.731C493.355 149.866 492.827 150.928 492.594 151.917C492.274 153.471 492.654 154.927 493.735 156.285C494.286 157.076 494.926 157.641 495.656 157.98C496.24 158.304 496.899 158.466 497.634 158.468M435.861 81.1126C440.297 79.98 444.795 79.7496 449.356 80.4214C453.991 81.086 458.285 82.5604 462.24 84.8443M457.35 94.081C459.052 95.5473 460.426 97.2738 461.472 99.2605M462.939 105.182C461.605 103.709 460.404 102.382 459.334 101.201M466.066 114.269C465.888 119.317 467.092 123.853 469.679 127.877C470.881 129.924 472.41 131.71 474.267 133.236C476.122 134.792 478.149 135.953 480.348 136.722M395.731 152.81C393.359 153.155 390.803 153.65 388.062 154.295C387.988 155.742 387.896 157.575 387.787 159.796C388.49 160.103 389.229 160.494 390.003 160.97C390.532 161.259 390.847 161.556 390.948 161.86C391.204 163.237 391.402 164.395 391.541 165.335C392.011 167.497 392.543 169.409 393.137 171.071C393.611 172.47 394.158 173.731 394.779 174.851C395.022 175.346 395.269 175.805 395.52 176.227M395.731 152.81C396.687 150.5 398.128 148.341 400.052 146.335C400.521 145.913 400.874 145.553 401.111 145.254C401.503 144.868 401.759 144.446 401.879 143.988C402.008 143.444 401.923 142.693 401.624 141.738C401.597 141.573 401.546 141.421 401.472 141.281C401.029 139.724 400.768 138.25 400.69 136.862M395.52 176.227C395.584 176.321 395.625 176.421 395.644 176.526C395.955 176.925 396.26 177.323 396.557 177.721C397.521 178.935 398.597 179.985 399.785 180.87C401.828 182.298 404.158 183.226 406.774 183.655C409.373 184.112 411.964 183.995 414.548 183.304C417.012 182.631 419.314 181.53 421.454 180.001C421.913 179.681 422.358 179.352 422.79 179.014M395.52 176.227C395.509 176.328 395.498 176.445 395.484 176.576C395.56 179.285 395.607 181.265 395.626 182.516C395.973 187.75 396.687 192.339 397.768 196.282C397.862 196.659 397.97 197.044 398.091 197.439C398.494 198.669 398.901 199.871 399.31 201.044L399.717 201.372C399.792 201.644 399.883 201.903 399.99 202.148C402.019 206.6 405.117 211.014 409.284 215.39M422.79 179.014C423.988 178.211 424.893 177.415 425.503 176.626C426.146 175.796 426.685 174.904 427.121 173.95C427.503 173.372 427.814 172.699 428.055 171.93C428.21 171.418 428.335 170.916 428.429 170.427C428.622 169.83 428.781 169.207 428.906 168.559C429.088 167.785 429.216 167.041 429.288 166.329C429.451 165.318 429.575 164.604 429.662 164.187C429.867 163.473 430.185 162.882 430.615 162.412C431.224 161.916 432.015 161.652 432.988 161.619C434.078 161.598 435.261 161.814 436.537 162.268C436.869 164.05 437.181 165.601 437.472 166.923C437.587 167.523 437.726 168.11 437.887 168.684C437.999 168.886 438.062 169.128 438.078 169.408C438.163 169.579 438.224 169.776 438.26 170C439.221 172.815 440.508 175.105 442.12 176.871C442.968 177.78 443.92 178.604 444.976 179.343C445.107 179.357 445.199 179.388 445.253 179.438M422.79 179.014C421.941 179.838 421.433 180.924 421.266 182.273C421.172 183.482 421.401 184.622 421.953 185.691C421.993 185.725 422.011 185.763 422.007 185.807C422.356 186.562 422.86 187.091 423.52 187.393C424.145 187.751 424.884 187.922 425.738 187.907C426.642 187.837 427.494 187.697 428.294 187.485M445.253 179.438C445.633 180.035 445.925 180.623 446.131 181.202C446.446 181.851 446.635 182.377 446.697 182.78C446.898 183.402 446.869 184.045 446.61 184.709C446.403 185.437 446.047 185.973 445.542 186.318C445.032 186.56 444.406 186.716 443.664 186.787C442.689 186.981 441.615 187.136 440.442 187.251M467.671 132.43C468.582 134.3 469.994 136.008 471.908 137.555C473.398 138.794 475.32 139.974 477.674 141.096C478.875 141.718 479.701 142.185 480.155 142.495C481.054 143.042 481.702 143.674 482.099 144.39C482.672 145.256 482.965 146.27 482.979 147.432C483.084 148.265 483.035 149.398 482.83 150.831M409.695 122.297C409.294 123.636 409.09 124.981 409.085 126.331C409.08 126.669 409.09 127.213 409.116 127.965C409.107 128.625 409.005 129.128 408.807 129.475C408.532 129.873 408.129 130.214 407.601 130.497C407.302 130.687 406.8 130.929 406.094 131.224C404.25 132.152 402.728 133.531 401.527 135.361C401.242 135.846 400.963 136.346 400.69 136.862M409.695 122.297C409.508 122.409 409.363 122.527 409.263 122.649C409.209 122.746 408.579 123.585 407.374 125.165C406.613 126.145 405.831 126.821 405.029 127.194M400.69 136.862C400.117 138.154 399.777 139.537 399.671 141.009C399.45 141.442 399.225 141.845 398.996 142.218C397.777 144.076 396.146 145.657 394.103 146.96C391.749 148.423 389.148 149.354 386.3 149.754C385.033 149.932 383.111 150.184 380.536 150.508C378.381 150.89 376.74 151.633 375.613 152.736L375.556 152.863M414.959 110.917C414.832 113.739 412.922 116.613 409.228 119.539C405.834 122.408 401.917 124.71 397.478 126.445C392.48 128.328 389.957 129.289 389.909 129.328C387.156 130.529 385.171 132.118 383.955 134.094M412.836 161.233C412.354 161.345 411.849 161.47 411.321 161.607C409.916 162.124 408.282 162.934 406.421 164.036M412.836 161.233C412.883 161.341 412.909 161.454 412.911 161.571C413.14 162.784 413.496 163.614 413.98 164.06C414.346 164.361 414.931 164.605 415.735 164.79C417.038 164.982 418.099 164.73 418.92 164.036C419.462 163.621 419.822 163.049 419.999 162.318M412.836 161.233C413.812 161.025 414.642 160.955 415.326 161.025C416.656 161.235 417.784 161.489 418.709 161.789C419.191 161.956 419.621 162.132 419.999 162.318M406.421 164.036C407.74 164.934 409.225 165.578 410.875 165.967C413.033 166.423 415.2 166.35 417.378 165.751C418.563 165.372 419.209 165.159 419.317 165.112C420.07 164.792 420.718 164.704 421.262 164.848C421.683 164.891 421.982 164.922 422.156 164.939C422.526 164.918 422.825 164.868 423.053 164.789C423.276 164.621 423.456 164.375 423.592 164.051C422.285 163.462 421.117 162.88 420.089 162.305L419.999 162.318M406.421 164.036C406.316 164.055 406.19 164.137 406.043 164.284M395.46 172.498C395.812 173.224 396.184 173.894 396.577 174.507C396.917 175.07 397.271 175.627 397.641 176.179C397.735 176.262 397.859 176.348 398.011 176.437C398.217 176.723 398.452 177.018 398.714 177.324C400.029 178.692 401.454 179.778 402.988 180.581C405.897 182.17 409.118 182.654 412.65 182.031C416.164 181.436 419.091 179.899 421.431 177.421C422.882 176.028 424.005 174.38 424.802 172.479C424.985 171.984 425.198 171.484 425.44 170.98C425.574 170.392 425.735 169.748 425.924 169.047C425.949 168.947 425.986 168.804 426.034 168.618C426.447 166.736 426.567 164.913 426.395 163.148C426.392 162.751 426.313 162.368 426.16 162C425.88 160.283 425.063 158.782 423.71 157.498C422.092 155.938 420.155 154.896 417.902 154.371C416.112 154.056 414.213 153.87 412.206 153.811C410.296 153.807 407.899 153.885 405.017 154.046C402.301 154.165 400.441 154.393 399.436 154.731C398.39 155.05 397.277 155.509 396.099 156.108C395.686 156.271 395.317 156.498 394.994 156.788M395.46 172.498C395.479 171.31 395.49 170.048 395.494 168.712C395.478 163.982 395.311 160.007 394.994 156.788M395.46 172.498C395.15 171.937 394.899 171.302 394.707 170.593C393.883 168.305 393.425 166.166 393.335 164.174C393.317 162.337 393.328 161.075 393.369 160.389C393.467 159.723 393.643 159 393.9 158.218C394.089 157.665 394.453 157.188 394.994 156.788M422.724 166.495C422.19 167.263 421.447 167.995 420.494 168.691C419.844 169.153 418.941 169.721 417.785 170.396C416.347 171.233 415.152 171.779 414.201 172.034C412.268 172.542 410.024 172.283 407.468 171.258M423.613 161.255C421.292 159.52 418.541 158.688 415.359 158.76C412.253 158.809 409.373 159.741 406.719 161.555M440.442 187.251C440.009 187.75 439.423 188.167 438.683 188.503C437.569 189.05 436.266 189.357 434.775 189.425C433.329 189.483 432.027 189.35 430.87 189.026C429.824 188.625 428.965 188.112 428.294 187.485M440.442 187.251C440.864 186.721 441.173 186.136 441.371 185.495M428.294 187.485C428.123 187.291 427.967 187.092 427.826 186.886M420.84 187.516C419.998 189.001 419.066 190.206 418.046 191.129C416.801 192.383 416.104 193.09 415.956 193.251C415.655 193.602 415.417 193.923 415.24 194.213C414.855 194.82 414.62 195.391 414.536 195.925M451.387 157.596C451.191 157.649 450.994 157.703 450.798 157.756C450.003 158.057 449.122 158.62 448.156 159.446C447.891 159.742 447.558 160.053 447.157 160.38C445.44 162.084 444.392 163.13 444.014 163.517C444.119 163.792 444.25 164.084 444.41 164.394C444.59 164.354 444.741 164.245 444.862 164.066C445.006 163.949 445.148 163.86 445.286 163.801C445.617 163.438 446.052 163.204 446.592 163.098C446.837 163.152 447.312 163.171 448.019 163.155C450.866 163.05 453.359 162.673 455.497 162.025C457.985 161.266 459.944 159.998 461.375 158.22M451.387 157.596C451.658 158.255 452.002 158.841 452.42 159.354C453.151 160.104 454.099 160.465 455.263 160.437C455.977 160.496 456.681 160.362 457.376 160.036C458.142 159.733 458.689 159.268 459.018 158.64C459.183 158.319 459.3 157.964 459.369 157.575M451.387 157.596C452.56 157.187 453.941 156.983 455.528 156.984C455.775 157.009 456.035 157.05 456.309 157.108C457.362 157.157 458.382 157.312 459.369 157.575M461.375 158.22C460.708 157.991 460.039 157.775 459.369 157.575M461.375 158.22C461.787 158.365 462.118 158.502 462.369 158.63M461.825 156.196C460.848 155.831 459.857 155.532 458.852 155.297C457.106 154.986 455.203 155.056 453.144 155.507C450.089 156.061 447.491 157.33 445.348 159.314M445.841 165.488C446.615 165.964 447.393 166.403 448.175 166.806C449.232 167.252 450.373 167.589 451.599 167.817C453.688 168.221 455.735 168.181 457.739 167.695C458.955 167.452 459.953 167.026 460.736 166.416M454.832 187.51C455.775 188.635 456.435 189.444 456.811 189.937C457.211 190.477 457.52 190.979 457.737 191.442C457.985 191.893 458.171 192.301 458.295 192.666C458.815 194.335 458.783 195.947 458.198 197.502M485.628 113.537C486.378 115.537 487.195 117.104 488.079 118.237C489.2 119.776 490.625 120.715 492.354 121.053M477.066 108.873C477.234 109.536 477.476 111.044 477.794 113.397C478.112 115.324 478.424 116.802 478.73 117.832C479.508 119.85 480.752 121.556 482.461 122.95C484.224 124.393 486.16 125.288 488.271 125.636M487.966 133.359C489.048 133.411 490.01 133.854 490.85 134.689C491.621 135.487 492.151 136.415 492.439 137.473C492.911 139.327 492.617 141.412 491.558 143.727C491.185 144.496 490.677 145.443 490.033 146.567C489.192 148.038 488.66 149.004 488.436 149.466C488.028 150.29 487.752 150.908 487.607 151.319C487.408 152.121 487.334 152.841 487.387 153.478C487.526 154.417 488.018 155.275 488.865 156.052C489.55 156.68 490.403 157.178 491.423 157.547M501.889 160.401C502.4 162.157 503.323 163.911 504.658 165.662C505.716 166.96 507.148 168.399 508.956 169.979C510.967 171.726 512.447 173.06 513.397 173.979C514.067 174.606 514.67 175.181 515.204 175.706C516.124 176.622 516.894 177.501 517.514 178.343C518.793 180.06 519.694 181.885 520.217 183.818C520.823 185.936 520.9 187.919 520.446 189.767C520.102 190.833 519.481 192.092 518.583 193.542C518.129 194.391 517.438 195.62 516.509 197.229C515.712 198.704 515.226 200.079 515.052 201.353C514.888 202.952 515.2 204.284 515.988 205.348M496.05 163.615C496.84 164.944 497.207 166.377 497.153 167.913C497.098 169.464 496.661 170.859 495.844 172.097C495.25 173.02 494.079 174.266 492.332 175.835C490.559 177.358 489.422 178.636 488.92 179.672C488.754 179.993 488.573 180.327 488.376 180.674C487.933 181.847 487.769 183.16 487.886 184.611C488.012 186.254 488.489 187.984 489.317 189.801M483.31 162.093C483.906 164.165 483.739 166.447 482.809 168.936C482.315 170.457 481.292 172.489 479.739 175.033M490.242 169.542C488.205 172.065 486.601 174.897 485.427 178.037C485.048 179.159 484.734 180.294 484.484 181.443C484.043 183.454 483.849 185.498 483.901 187.574C483.932 190.866 484.56 194.066 485.786 197.172C487.058 200.254 488.78 202.963 490.951 205.3C493.039 207.731 495.142 208.937 497.26 208.919M481.424 186.792C481.559 187.922 481.621 189.543 481.61 191.657C481.681 193.838 481.73 195.451 481.755 196.496C482.262 200.307 483.508 203.137 485.494 204.985M500.089 186.21C499.788 187.134 499.473 187.778 499.142 188.14C498.817 188.445 498.386 188.636 497.849 188.713C497.309 188.819 496.813 188.783 496.361 188.605C495.554 188.449 494.841 188.163 494.222 187.747C493.512 187.073 493.118 186.401 493.039 185.732M503.008 193.448C503.01 194.006 502.893 194.501 502.658 194.932C502.437 195.365 502.115 195.713 501.691 195.979C501.043 196.573 500.128 196.972 498.946 197.174C497.176 197.522 495.796 197.366 494.805 196.707C493.488 195.94 492.676 194.683 492.37 192.933C492.165 191.767 492.234 190.158 492.576 188.108M508.234 187.395C508.889 188.608 509.12 190.012 508.928 191.608C508.789 192.959 508.369 194.341 507.666 195.752C506.404 198.325 504.75 200.131 502.704 201.171C501.01 201.923 499.05 202.053 496.822 201.561C495.308 201.274 493.446 200.518 491.234 199.293M505.68 172.486C507.26 173.851 508.599 175.266 509.699 176.729C510.186 177.425 510.645 178.111 511.076 178.786C512.701 181.288 513.553 183.812 513.63 186.361C513.825 188.334 513.585 190.468 512.909 192.764C512.541 194.209 511.823 196.28 510.754 198.976M520.816 196.281C519.439 197.536 518.616 199.331 518.348 201.668C518.193 203.18 518.445 205.173 519.103 207.649M510.666 206.082C509.887 207.808 508.672 209.057 507.021 209.828C505.409 210.648 503.702 210.884 501.9 210.539M500.713 231.432C501.638 232.011 502.22 233.224 502.457 235.069C502.607 235.907 502.627 236.643 502.518 237.278C502.281 238.017 501.733 238.703 500.875 239.335C500.253 239.668 499.483 239.942 498.564 240.156M490.984 211.229C491.546 211.918 492.612 212.842 494.184 214.001C495.774 215.118 496.843 216.094 497.39 216.928C498.195 217.965 498.766 219.279 499.103 220.87C499.389 221.957 499.594 223.395 499.72 225.185M478.288 199.358C478.053 202.667 478.494 205.826 479.612 208.833C480.894 212.107 482.806 214.681 485.348 216.557C486.052 217.143 488.372 218.452 492.309 220.484C495.227 221.987 497.212 223.555 498.265 225.19M476.56 208.719C476.72 211.32 477.583 213.802 479.149 216.165C480.55 218.276 482.418 220.2 484.754 221.937C486.659 223.277 488.069 224.295 488.983 224.99C490.637 226.202 491.891 227.38 492.743 228.525C493.925 229.909 494.651 231.503 494.922 233.307C495.228 235.204 494.865 236.812 493.834 238.131M444.524 263.556C444.126 264 443.748 264.467 443.389 264.959C443.296 265.288 443.198 265.608 443.092 265.92C443.001 266.234 442.905 266.525 442.804 266.794C442.163 268.608 441.538 270.27 440.928 271.779C440.687 272.415 440.458 273.001 440.242 273.537C440.106 273.861 439.952 274.213 439.781 274.592C438.121 278.607 436.355 282.23 434.482 285.461C434.061 286.269 433.638 287.034 433.211 287.754M444.524 263.556C444.578 263.458 444.654 263.363 444.752 263.27C445.779 261.995 446.876 260.822 448.043 259.752C448.465 259.369 448.878 258.986 449.285 258.601C449.293 258.954 449.364 259.27 449.497 259.548C449.585 259.689 449.717 259.835 449.893 259.985C450.256 260.316 450.674 260.395 451.147 260.223C451.58 260.165 451.967 259.969 452.309 259.637C452.853 255.904 452.862 253.078 452.338 251.159C452.099 250.195 451.722 249.349 451.209 248.621C451.003 248.335 450.762 248.105 450.486 247.93C450.215 247.711 449.915 247.549 449.588 247.442M486.661 228.939C487.686 229.836 488.31 231.141 488.532 232.853C488.689 233.618 488.676 234.24 488.495 234.721C488.297 235.362 487.99 235.925 487.573 236.411C487.163 236.825 486.665 237.17 486.078 237.448M484.4 247.608C483.986 248.784 483.693 249.709 483.521 250.382C483.23 251.365 483.135 252.295 483.236 253.172C483.306 254.075 483.586 254.926 484.077 255.725C484.074 255.754 484.088 255.77 484.117 255.773C484.618 256.618 485.303 257.18 486.171 257.459M503.615 206.705L502.04 207.667M424.821 226.428C420.695 224.23 417.57 222.383 415.445 220.888C414.237 220.06 413.37 219.34 412.844 218.728C412.508 218.429 412.155 218.143 411.786 217.871C410.916 217.033 410.082 216.206 409.284 215.39M424.821 226.428C425.464 225.598 426.092 224.774 426.705 223.956C430.273 219.665 433.267 216.689 435.685 215.027C437.345 213.889 440.129 212.742 444.039 211.585C446.227 210.884 448.063 210.249 449.546 209.681C450.095 211.353 450.076 212.981 449.488 214.565C448.938 216.066 447.913 217.54 446.413 218.987C444.983 220.324 443.103 221.968 440.772 223.918C439 225.44 437.593 226.625 436.551 227.473C436.535 227.486 436.132 227.768 435.341 228.319C435.371 228.307 435.394 228.302 435.408 228.304M424.821 226.428C423.719 227.858 421.895 230.396 419.347 234.041M435.408 228.304C435.568 228.32 435.513 228.432 435.242 228.639C432.459 231.277 430.241 233.929 428.587 236.594M428.587 236.594C428.803 236.352 428.971 236.141 429.093 235.963C431.79 233.727 433.721 232.229 434.887 231.466C436.287 230.42 437.403 229.712 438.234 229.341C439.495 228.648 440.636 228.419 441.655 228.656C443.292 228.882 444.718 230.1 445.933 232.309C446.17 233.009 446.419 234.018 446.681 235.338C446.92 236.449 447.147 237.757 447.36 239.262M428.587 236.594C427.901 237.126 427.386 237.492 427.042 237.692C426.151 238.217 425.406 238.384 424.809 238.19M447.36 239.262C447.504 239.438 447.625 239.685 447.725 240.004C447.776 240.23 447.847 240.464 447.94 240.709C448.415 242.241 448.852 243.937 449.249 245.799C449.347 246.132 449.414 246.484 449.45 246.855C449.489 247.05 449.535 247.245 449.588 247.442M447.36 239.262C447.149 238.741 446.973 238.378 446.832 238.173C446.378 237.73 445.59 237.532 444.468 237.578C443.234 237.717 441.645 238.531 439.7 240.021C439.574 240.096 439.472 240.166 439.391 240.232C438.647 240.758 437.929 241.308 437.239 241.884C435.535 243.164 433.898 244.516 432.327 245.942M449.588 247.442C449.486 247.431 449.37 247.42 449.239 247.406C448.947 247.391 448.613 247.423 448.237 247.502C447.841 247.638 447.442 247.883 447.038 248.238C446.752 248.444 446.448 248.692 446.124 248.982C445.757 249.268 445.376 249.545 444.981 249.813C444.452 250.243 443.936 250.697 443.431 251.174C442.56 251.937 441.712 252.753 440.888 253.624C440.272 254.192 439.694 254.809 439.156 255.473C438.943 255.686 438.712 255.934 438.463 256.217M409.284 215.39C409.089 216.295 408.939 217.11 408.836 217.834C408.784 218.049 408.748 218.258 408.728 218.461C408.476 219.919 408.375 220.834 408.425 221.206M392.992 185C392.828 189.477 393.474 193.802 394.928 197.974C395.511 199.605 396.187 201.187 396.956 202.719C397.375 203.511 397.826 204.27 398.311 204.995C400.677 208.732 401.998 210.827 402.275 211.281C403.54 213.716 404.132 215.98 404.05 218.071C404.035 218.51 403.796 219.69 403.336 221.611C403.289 221.782 403.239 221.976 403.188 222.191C402.768 223.998 402.69 225.407 402.954 226.418M408.425 221.206C408.441 221.193 408.478 221.189 408.536 221.195C410.652 221.059 412.784 220.969 414.935 220.924M408.425 221.206C408.483 221.932 408.528 222.788 408.559 223.775C408.442 225.643 408.534 227.04 408.836 227.967C409.041 228.839 409.507 229.746 410.233 230.687C410.495 231.007 411.209 231.785 412.376 233.02M412.376 233.02C412.923 230.83 413.364 228.745 413.698 226.767C413.733 226.712 413.756 226.634 413.766 226.532C413.866 225.984 414.004 225.639 414.181 225.495C414.4 225.224 414.64 225.101 414.902 225.128C415.819 224.928 416.696 225.113 417.534 225.684C418.225 226.254 418.771 227.022 419.172 227.988C419.401 228.628 419.59 229.367 419.739 230.205C419.883 230.954 419.981 231.793 420.033 232.724C418.341 235.047 416.698 237.383 415.106 239.732C413.955 241.362 412.845 243.025 411.775 244.722C411.496 245.149 411.216 245.583 410.936 246.024M412.376 233.02C412.125 233.891 411.87 234.804 411.61 235.762C410.984 238.004 410.274 240.354 409.479 242.813C409.401 242.996 409.323 243.187 409.244 243.384C409.063 243.865 408.888 244.42 408.721 245.049C408.43 245.886 408.148 246.848 407.875 247.936M394.35 208.379C394.901 209.889 395.245 212.2 395.382 215.313C395.451 218.521 395.672 220.886 396.046 222.408C396.043 222.437 396.053 222.482 396.076 222.543C396.21 223.1 396.838 224.581 397.958 226.987C398.797 228.703 399.27 230.19 399.376 231.449M407.875 247.936C407.492 249.38 407.082 251.02 406.645 252.855C406.634 252.957 406.625 253.051 406.616 253.138C406.334 254.167 406.057 255.079 405.785 255.873C405.733 256.955 405.498 258.252 405.079 259.766C404.929 260.367 404.702 261.152 404.397 262.119C404.236 262.69 404.084 263.248 403.94 263.791C403.553 265.279 403.21 267.123 402.911 269.325C402.818 269.947 402.693 270.742 402.535 271.71C402.416 272.593 402.284 273.667 402.14 274.929C402.084 275.188 402.057 275.45 402.06 275.714C401.719 277.471 401.341 279.297 400.927 281.194M405.578 240.432C404.425 240.784 403.185 240.988 401.856 241.043M455.525 292.017C455.486 293.261 455.622 294.656 455.935 296.2C456.041 296.74 456.379 298.111 456.947 300.313C457.641 302.866 458.349 304.789 459.069 306.081M408.669 369.349C410.518 368.084 412.819 367.211 415.572 366.729C417.381 366.429 419.891 366.245 423.101 366.177C431.127 366.013 437.717 366.239 442.871 366.854C450.049 367.661 456.346 369.31 461.764 371.803M474.728 371.344C475.362 371.188 475.974 371.023 476.565 370.848C479.933 369.812 483.215 368.04 486.41 365.533C489.479 363.115 492.574 359.936 495.696 355.996C498.41 352.588 500.493 349.467 501.943 346.634C503.769 343.002 504.821 339.468 505.099 336.03C505.491 332.913 505.915 329.777 506.369 326.622M506.369 326.622C506.257 326.713 506.146 326.79 506.037 326.852C506.189 326.369 506.358 325.872 506.542 325.362M506.369 326.622C506.412 326.201 506.47 325.781 506.542 325.362M506.369 326.622C510.002 323.865 514.043 321.855 518.492 320.592C523.219 319.21 527.925 318.817 532.611 319.414M506.542 325.362C508.353 312.389 510.497 299.178 512.974 285.73M506.542 325.362C509.172 317.319 512.68 309.6 517.065 302.207C522.09 293.733 528.075 286.01 535.018 279.039M494.273 292.277C486.724 298.129 479.397 304.532 472.294 311.486C470.566 313.145 469.47 314.597 469.005 315.842C468.856 316.15 468.83 316.478 468.927 316.825M498.521 364.149C497.473 367.934 496.271 371.284 494.915 374.2C493.838 376.689 493.202 378.24 493.007 378.851C492.398 380.639 492.153 382.244 492.272 383.666M512.437 328.079C510.839 337.388 513 347.581 518.922 358.657C519.971 360.614 521.585 363.518 523.763 367.368C525.534 370.751 526.762 373.762 527.447 376.402C528.379 379.787 528.535 383.077 527.915 386.274C527.237 389.744 525.706 392.503 523.321 394.55M490.133 389.924C490.001 390.645 489.843 392.332 489.66 394.986C489.52 397.072 489.269 398.742 488.905 399.998C488.765 400.512 488.522 401.309 488.176 402.39C488.06 402.804 487.982 403.208 487.942 403.6M487.942 403.6C488.348 403.509 488.752 403.44 489.154 403.393C490.562 403.273 492.139 403.368 493.886 403.679C494.851 403.866 496.405 404.267 498.546 404.882C498.805 404.938 499.065 404.986 499.325 405.028C504.212 406.247 510.287 408.131 517.551 410.68M487.942 403.6C486.715 403.812 485.586 404.225 484.553 404.84C483.054 405.7 481.971 406.808 481.303 408.164C477.261 408.603 472.23 408.801 466.209 408.758C459.448 408.625 454.39 408.571 451.037 408.595C443.345 408.66 436.639 409.355 430.919 410.68M376.792 403.011C379.324 403.401 381.824 404.105 384.291 405.121C384.674 405.263 385.04 405.418 385.39 405.586M385.39 405.586C387.655 406.581 389.787 407.79 391.787 409.213M385.39 405.586C384.123 407.923 383.168 410.645 382.527 413.752C382.16 415.623 381.78 418.478 381.388 422.314C380.857 427.503 380.653 431.44 380.776 434.125C380.943 437.667 381.589 440.765 382.713 443.421M391.787 409.213C392.181 409.239 392.604 409.275 393.054 409.321C399.524 409.718 403.225 409.817 404.156 409.618C407.331 409.033 410.854 408.504 414.723 408.033C415.852 407.914 416.829 407.837 417.656 407.804M391.787 409.213C392.458 409.693 393.119 410.201 393.769 410.738C393.864 410.821 393.966 410.897 394.076 410.967C395.563 412.235 396.682 413.077 397.434 413.491C398.879 414.3 400.228 414.548 401.48 414.235M417.656 407.804C418.669 407.673 419.975 407.836 421.574 408.293C423.502 408.842 424.793 409.151 425.447 409.217C426.083 409.326 427.042 409.425 428.327 409.512C429.46 409.642 430.324 410.032 430.919 410.68M417.656 407.804C418.082 407.804 418.462 407.821 418.797 407.855C420.298 407.979 421.526 408.398 422.482 409.113M430.919 410.68C427.635 411.46 424.669 412.442 422.021 413.625M382.713 443.421C378.72 444.672 374.193 445.333 369.13 445.403C366.305 445.437 362.781 445.261 358.559 444.873C358.225 443.253 357.942 441.638 357.71 440.028M405.254 85.7381C403.536 85.8709 401.86 86.309 400.226 87.0525C398.605 87.8121 397.199 88.8432 396.008 90.1459C394.818 91.4341 393.888 92.9177 393.217 94.5967C392.519 96.2436 392.152 97.9683 392.115 99.7708M409.12 107.655C407.383 109.122 405.639 111.015 403.888 113.332C402.7 114.9 401.184 117.072 399.342 119.851C397.318 122.977 394.358 125.48 390.463 127.358C387.108 128.983 383.25 130.138 378.889 130.823M387.288 107.736C386.46 108.944 385.337 110.217 383.922 111.556C383.106 112.353 381.806 113.425 380.023 114.77C379.345 115.361 378.763 115.875 378.278 116.31M378.278 116.31C381.222 115.685 384.109 114.615 386.939 113.098C390.357 111.141 393.259 108.699 395.645 105.771M378.278 116.31C377.254 117.13 376.553 117.734 376.175 118.121C374.799 119.361 373.668 120.582 372.781 121.783C371.784 123.194 371.073 124.686 370.648 126.258C370.158 128.028 370.106 129.69 370.491 131.242M378.278 116.31C377.547 116.411 376.816 116.52 376.084 116.636M399.606 131.288C398.477 133.42 396.669 135.151 394.182 136.483C391.933 137.634 389.416 138.397 386.629 138.773C385.024 138.947 382.44 139.064 378.878 139.126C375.478 139.175 372.903 139.352 371.152 139.658M393.448 140.858C393.618 141.066 393.661 141.283 393.58 141.51C393.553 141.772 393.449 141.996 393.268 142.183C392.93 142.472 392.492 142.735 391.953 142.974C390.86 143.317 389.427 143.751 387.654 144.275C386.911 144.493 386.13 144.736 385.309 145.004C382.73 145.93 380.583 146.886 378.866 147.87C377.753 148.549 376.927 149.221 376.389 149.886C375.671 150.87 375.393 151.862 375.556 152.863M375.556 152.863C374.735 153.704 374.181 154.741 373.893 155.975C373.582 157.294 373.684 158.524 374.199 159.663M383.43 122.189C381.737 123.661 379.441 125.416 376.544 127.455M376.328 158.25C375.137 159.832 373.524 160.952 371.487 161.611C369.719 162.091 367.752 162.286 365.586 162.197C364.257 162.252 363.382 162.405 362.96 162.655C362.002 163.116 361.401 163.891 361.157 164.982C360.934 165.723 360.807 166.753 360.775 168.071M360.004 170.217C359.038 171.338 358.367 172.649 357.993 174.153C357.632 175.673 357.622 177.14 357.962 178.556C358.099 179.231 358.548 180.517 359.309 182.416C359.413 182.691 359.503 182.957 359.58 183.215C360.082 184.485 360.347 185.555 360.376 186.424C360.502 187.494 360.337 188.528 359.883 189.524C359.441 190.536 358.808 191.411 357.983 192.149C357.698 192.355 357.297 192.681 356.781 193.128C356.24 193.528 355.883 193.932 355.709 194.34C355.104 195.233 354.967 196.57 355.299 198.351C355.681 200.505 356.004 202.095 356.267 203.12M384.709 155.186C384.775 157.704 384.129 160.142 382.771 162.5C381.422 164.77 379.659 166.558 377.483 167.863C375.268 169.12 372.837 169.76 370.189 169.783C367.53 169.775 365.116 169.095 362.947 167.743M376.767 144.682C376.131 145.439 375.573 146.08 375.093 146.603C374.57 147.27 374.168 147.816 373.89 148.243C372.902 149.566 372.264 150.918 371.976 152.299M385.838 166.778C385.932 168.168 385.735 169.514 385.25 170.815C384.72 172.112 383.96 173.224 382.969 174.151C381.76 175.334 379.601 176.479 376.489 177.586C373.361 178.72 371.217 179.852 370.058 180.982C369.975 181.076 369.878 181.169 369.765 181.26C368.363 182.762 367.535 184.601 367.284 186.778C367.05 189.06 367.422 191.242 368.4 193.324M381.976 183.433C379.923 184.677 378.457 185.798 377.576 186.795C376.067 188.329 375.209 189.894 375.002 191.488C374.801 192.451 374.839 193.373 375.116 194.253C375.322 195.258 375.801 196.034 376.554 196.581M386.158 188.024C385.761 188.6 385.204 189.381 384.486 190.365C383.785 191.321 383.242 192.11 382.855 192.731C381.764 194.632 381.28 196.425 381.401 198.112M386.562 195.071C386.716 196.584 386.696 198.073 386.502 199.536C386.41 200.437 386.252 201.339 386.027 202.241C385.803 203.143 385.498 204.037 385.114 204.923C384.578 206.278 383.889 207.559 383.046 208.765C382.747 209.102 381.986 210.074 380.764 211.682C379.752 212.812 379.027 213.795 378.588 214.632C377.392 216.844 376.965 219.224 377.308 221.77C377.503 223.171 377.901 224.452 378.502 225.615C379.018 226.608 379.653 227.51 380.408 228.321M365.841 190.75C364.234 191.525 363.132 192.955 362.537 195.038C362.168 196.351 362.049 198.167 362.179 200.486C362.292 201.82 362.484 202.963 362.754 203.916C362.9 204.356 363.042 204.767 363.179 205.148C363.879 206.644 364.924 207.706 366.315 208.333M362.487 207.391C362.214 207.906 362.094 208.503 362.128 209.182C362.136 209.389 362.172 209.613 362.235 209.854C362.391 210.634 362.709 211.408 363.188 212.176C363.525 212.769 364.02 213.458 364.674 214.245C365.494 215.283 366.034 215.963 366.296 216.283C367.997 218.616 368.762 221.271 368.59 224.249C368.546 224.671 368.373 225.938 368.069 228.051C368.045 228.284 368.022 228.509 368 228.727C367.859 229.961 367.863 230.997 368.013 231.834C368.27 233.197 368.924 234.424 369.973 235.515C371.087 236.554 372.352 237.19 373.768 237.423M384.099 219.16C383.775 221.036 383.585 222.463 383.53 223.441C383.521 223.808 383.53 224.154 383.556 224.479C383.592 225.702 383.733 226.774 383.977 227.695C384.881 230.489 387.007 232.917 390.352 234.977M375.334 228.353C375.354 230.896 375.77 232.715 376.584 233.812C377.192 234.623 378.015 235.265 379.054 235.738C379.766 236.105 380.768 236.442 382.059 236.75M390.921 230.277C390.925 231.966 391.438 233.553 392.462 235.038C393.435 236.592 394.682 237.696 396.202 238.35M325.658 410.054C324.738 410.283 323.524 410.518 322.015 410.761C319.864 411.099 318.259 411.632 317.2 412.361C315.348 413.655 314.095 416.207 313.441 420.017C312.969 423.347 312.918 427.152 313.288 431.434C313.348 431.999 313.414 432.651 313.485 433.393M313.485 433.393C314.096 431.443 314.798 429.68 315.591 428.101C316.861 425.309 318.434 423.149 320.309 421.622C321.401 420.721 322.587 420.115 323.868 419.805C325.285 419.451 326.608 419.454 327.835 419.814M313.485 433.393C313.761 435.727 314.222 438.902 314.87 442.919C315.104 444.22 315.271 445.03 315.371 445.349C315.634 446.228 315.971 446.952 316.383 447.523C317.451 449.013 319.005 449.913 321.045 450.224M321.045 450.224C320.698 449.161 320.604 447.852 320.763 446.297C321.004 443.222 321.503 439.991 322.261 436.603C322.791 434.146 323.576 432.368 324.614 431.27C325.535 430.307 326.819 429.675 328.467 429.373C329.518 429.158 331.019 429.061 332.971 429.085M321.045 450.224C321.478 450.298 321.952 450.332 322.467 450.326C323.464 450.354 324.586 450.234 325.833 449.965C326.133 449.907 326.568 449.82 327.138 449.702M357.71 440.028C356.573 440.514 355.079 440.824 353.228 440.958C350.792 441.208 348.863 441.319 347.441 441.291C345.318 441.207 343.463 440.811 341.874 440.106C340.843 439.56 340.075 439.165 339.571 438.923C338.656 438.521 337.825 438.319 337.076 438.315C335.887 438.297 334.695 438.748 333.499 439.668C331.905 440.739 330.533 442.302 329.382 444.358C328.611 445.718 327.863 447.5 327.138 449.702M357.71 440.028C357.178 436.317 356.922 432.568 356.942 428.781C356.973 424.305 357.371 419.911 358.135 415.598M327.138 449.702C327.062 449.87 326.99 450.076 326.921 450.318M461.138 151.918C456.194 152.118 451.779 152.827 447.892 154.045C445.181 154.839 443.084 155.873 441.602 157.146C440.73 157.909 440.043 158.808 439.54 159.843C438.929 160.941 438.667 162.06 438.756 163.2C438.78 163.261 438.788 163.32 438.782 163.379C438.937 164.452 439.197 165.506 439.561 166.542C439.697 167.085 439.882 167.647 440.116 168.229C440.277 168.671 440.452 169.115 440.641 169.56C441.111 170.431 441.62 171.342 442.169 172.294C443.919 175.307 445.916 177.406 448.161 178.59C449.777 179.313 451.266 179.773 452.627 179.971C453.207 180.045 453.745 180.1 454.241 180.136C456.056 180.072 458.08 179.816 460.316 179.369C461.59 179.118 462.862 178.609 464.131 177.843C465.073 177.249 465.986 176.52 466.867 175.655C467.242 175.297 467.599 174.9 467.937 174.465C468.363 173.892 468.799 173.298 469.244 172.682C470.003 171.438 470.574 170.094 470.956 168.65C471.009 168.42 471.074 168.214 471.152 168.031C471.632 166.068 471.964 164.186 472.148 162.383C472.197 161.904 472.244 161.439 472.291 160.988C472.26 160.853 472.27 160.685 472.32 160.485C472.38 158.317 471.975 156.315 471.104 154.479C469.709 153.323 467.848 152.552 465.521 152.168C464.189 151.973 462.728 151.89 461.138 151.918Z" stroke="#D9C5A9" stroke-width="1.5" stroke-linecap="round" stroke-linejoin="round"/>
<path d="M465.871 137.335C465.983 137.244 466.082 137.136 466.168 137.013M465.871 137.335C461.499 135.537 457.595 135.564 454.158 137.415C453.778 137.538 452.868 138.025 451.429 138.877C450.408 139.521 449.526 139.879 448.784 139.95C448.417 140.089 447.883 140.284 447.181 140.535C446.646 140.745 446.3 141.04 446.143 141.42C445.826 142.225 446.088 142.898 446.929 143.439C447.209 143.718 447.847 143.797 448.844 143.679C449.885 143.418 451.37 142.623 453.298 141.293C455.297 139.999 456.851 139.247 457.96 139.038C458.494 138.843 459.918 138.783 462.232 138.858C463.879 138.85 465.092 138.342 465.871 137.335Z" stroke="#BA945E" stroke-width="0.853435" stroke-linecap="round" stroke-linejoin="round"/>
<path d="M400.511 151.14C400.336 151.122 400.187 151.07 400.064 150.984M400.511 151.14C404.398 147.616 408.354 145.935 412.379 146.097C412.837 146.071 413.906 146.106 415.586 146.205C416.793 146.328 417.804 146.285 418.62 146.074C419.008 146.011 419.567 145.936 420.296 145.849C420.859 145.804 421.302 145.923 421.626 146.205C422.258 146.784 422.22 147.514 421.512 148.397C421.372 148.764 420.722 149.087 419.562 149.365C418.454 149.56 416.703 149.513 414.308 149.224C411.969 148.956 410.227 148.961 409.082 149.241C408.459 149.294 407.025 149.875 404.781 150.982C403.059 151.584 401.636 151.637 400.511 151.14Z" stroke="#BA945E" stroke-width="0.853435" stroke-linecap="round" stroke-linejoin="round"/>
<path d="M456.368 199.716C455.617 199.448 455.115 199.397 454.863 199.562C454.632 199.523 454.488 199.494 454.431 199.473C453.078 200.348 452.032 201.093 451.293 201.708C449.81 202.555 448.408 203.117 447.087 203.393C445.719 203.693 444.042 203.992 442.057 204.288C439.824 204.574 437.905 204.797 436.302 204.956C434.531 205.171 433.276 205.373 432.537 205.562C431.673 205.533 430.632 205.647 429.415 205.904C428.023 206.011 426.393 205.852 424.527 205.426C422.385 204.811 420.796 204.546 419.758 204.631C418.951 204.768 418.293 204.951 417.785 205.178C418.073 204.943 418.4 204.763 418.765 204.639L418.809 204.644L418.857 204.605C423.784 201.128 428.298 198.953 432.398 198.08C434.911 198.073 437.888 197.702 441.329 196.967C446.617 197.096 450.983 197.902 454.429 199.385L454.484 199.391L454.525 199.417C454.57 199.26 454.683 199.308 454.863 199.562M454.429 199.385C454.397 199.372 454.397 199.402 454.431 199.473C449.403 199.209 443.664 199.636 437.216 200.754C432.227 201.257 426.408 202.549 419.758 204.631C419.366 204.474 419.066 204.465 418.857 204.605" stroke="#BA945E" stroke-width="0.853435" stroke-linecap="round" stroke-linejoin="round"/>
<path d="M401.502 277.552C400.389 279.964 398.684 283.417 396.388 287.911C396.37 287.939 396.358 287.982 396.352 288.04C396.831 288.676 397.396 289.329 398.048 289.998C399.409 291.488 401.26 293.079 403.6 294.772C403.681 294.839 403.771 294.893 403.87 294.932C407.154 297.309 410.7 299.573 414.506 301.725C414.573 301.79 414.67 301.844 414.798 301.887C415.83 302.433 416.874 303.002 417.93 303.595C418.157 303.677 418.332 303.761 418.456 303.847C418.576 303.536 418.687 303.239 418.789 302.956C419.392 301.519 419.931 300.12 420.409 298.759C420.517 298.565 420.585 298.403 420.612 298.274C421.755 297.304 422.921 296.321 424.11 295.327C424.944 294.648 425.818 293.996 426.735 293.37C429.347 291.39 431.865 289.041 434.289 286.322M424.557 305.616C423.987 305.587 423.346 305.536 422.633 305.463C422.146 305.34 421.645 305.208 421.13 305.067C420.485 304.766 419.594 304.359 418.456 303.847M338.596 246.649C324.737 271.534 317.297 285.731 316.277 289.239C316.399 291.072 316.518 293.214 316.635 295.664C316.925 300.877 317.116 304.113 317.208 305.371C317.408 310.458 317.288 316.011 316.849 322.032C316.584 325.206 316.258 327.743 315.873 329.642C315.394 332.031 314.43 335.28 312.981 339.391C312.596 340.571 312.242 341.658 311.92 342.653C311.658 343.346 311.44 344.043 311.265 344.745C311.164 345.014 311.052 345.318 310.929 345.658C310.501 346.833 310.113 347.968 309.766 349.063C308.049 354.645 307.353 360.235 307.677 365.834C307.854 367.834 307.915 369.324 307.859 370.302C307.808 371.09 307.685 371.936 307.489 372.841C307.472 373.016 307.289 373.724 306.942 374.966C306.928 375.097 306.905 375.256 306.871 375.444C306.318 377.972 306.041 380.043 306.037 381.659C305.996 383.358 306.319 384.72 307.008 385.745C309.497 389.142 312.23 392.953 315.208 397.179C315.257 397.272 315.312 397.388 315.371 397.526C316.649 399.11 317.921 400.826 319.187 402.674C319.871 403.463 320.525 404.323 321.15 405.254C324.425 409.01 328.256 412.082 332.641 414.469C334.101 415.279 335.636 416.001 337.247 416.636C341.025 418.064 344.858 418.801 348.748 418.846C351.876 418.872 355.07 418.457 358.332 417.601C359.042 417.41 359.738 417.216 360.419 417.022C366.497 415.073 371.943 411.973 376.757 407.721C378.597 403.944 380.603 399.78 382.773 395.229C383.132 394.444 383.498 393.673 383.869 392.918L395.712 367.629C399.53 359.604 402.448 353.125 404.466 348.192C404.507 348.078 404.556 347.958 404.613 347.832C405.74 346.728 406.749 345.341 407.64 343.67C408.267 342.427 409.024 340.698 409.911 338.483C411.717 334.042 413.374 330.268 414.882 327.162C415.322 326.311 415.734 325.516 416.118 324.777C418.591 319.846 421.234 315.629 424.046 312.128C425.478 310.336 426.397 309.182 426.803 308.665C426.863 308.51 426.96 308.351 427.094 308.188C427.42 307.59 427.462 306.889 427.221 306.086C427.087 305.808 426.894 305.473 426.64 305.08C426.558 304.88 426.431 304.684 426.26 304.49C426.107 304.254 425.927 304.008 425.718 303.752C424.011 301.756 422.31 299.93 420.612 298.274M398.103 282.778C397.421 282.547 396.701 282.326 395.944 282.117C395.557 282.018 395.159 282.029 394.75 282.149C394.21 282.255 393.633 282.725 393.019 283.558L392.492 284.187C392.019 284.932 391.536 285.705 391.042 286.506C389.453 289.119 387.88 291.712 386.324 294.284C386.201 294.477 386.088 294.649 385.984 294.8C383.552 298.898 381.168 302.958 378.832 306.978C376.269 311.489 373.769 315.962 371.332 320.397C371.132 320.773 370.932 321.142 370.734 321.504M396.352 288.04C396.3 287.976 396.276 287.922 396.281 287.878C396.192 287.737 396.079 287.549 395.942 287.315C395.215 286.081 394.71 284.773 394.425 283.393M392.675 290.374C391.876 292.01 391.061 293.66 390.229 295.322C386.408 302.95 382.133 310.406 377.406 317.692C376.683 318.866 376.092 319.768 375.631 320.396C374.946 321.34 374.26 322.092 373.57 322.653M397.283 294.898C396.768 295.477 396.235 296.09 395.684 296.739C395.204 297.409 394.7 298.099 394.171 298.809C393.574 299.761 392.653 301.231 391.406 303.218C383.882 315.725 379.062 323.779 376.945 327.381M404.018 301.247C401.698 305.548 399.308 309.732 396.85 313.798C392.606 320.81 388.175 327.494 383.558 333.851M422.155 309.71C418.569 315.173 415.408 320.798 412.671 326.583C411.433 329.203 410.275 331.904 409.197 334.687C408.143 337.384 407.385 339.187 406.925 340.094C405.929 342.078 404.867 343.621 403.74 344.725M418.308 305.726C414.38 311.801 410.7 318.261 407.267 325.106C406.853 325.989 406.418 326.869 405.961 327.748C403.978 332.054 402.652 334.811 401.985 336.021C400.364 339.086 398.617 341.514 396.743 343.305M402.725 347.331L397.508 345.96C396.234 345.625 395.265 345.261 394.6 344.87C393.604 344.401 392.899 343.749 392.485 342.914C392.413 342.613 392.23 342.168 391.938 341.58C391.777 341.138 391.565 340.771 391.301 340.48C390.877 340.172 390.108 340.145 388.995 340.398C388.02 340.592 387.331 340.647 386.928 340.561C386.812 340.549 386.718 340.525 386.649 340.489C386.051 340.296 385.46 339.611 384.875 338.435C384.279 337.214 383.71 336.532 383.166 336.388C383.009 336.343 382.535 336.309 381.744 336.287C381.175 336.39 380.792 336.255 380.595 335.883C380.377 335.714 380.222 335.147 380.129 334.183C380.084 333.327 379.914 332.832 379.619 332.699C379.399 332.412 379.034 332.316 378.525 332.411C377.861 332.431 377.5 332.439 377.442 332.433C376.915 332.276 376.441 331.735 376.021 330.811C375.33 329.522 374.937 328.836 374.843 328.752C374.535 328.457 374.073 328.16 373.457 327.862C372.742 327.378 372.263 327.035 372.019 326.834C371.499 326.457 371.188 325.978 371.086 325.395C370.9 324.627 370.999 323.947 371.382 323.354M411.305 305.01C404.019 317.203 397.015 328.287 390.293 338.262M342.008 249.068C349.091 255.255 354.381 263.388 357.877 273.467C360.743 281.514 362.548 291.098 363.293 302.217M371.363 296.368C372.024 294.218 373.129 291.959 374.679 289.591C375.689 288.05 377.206 286.009 379.229 283.47M365.809 300.888C367.749 292.261 368.951 285.68 369.414 281.145C370.198 273.765 369.846 267.216 368.359 261.498M333.445 291.655C331.748 291.144 330.049 291.021 328.346 291.288C326.462 291.609 324.818 292.374 323.417 293.581M340.455 309.333C339.848 308.801 338.972 308.029 337.827 307.016C336.816 305.973 335.955 305.194 335.244 304.681C333.001 303.042 330.779 302.206 328.578 302.171C327.338 302.089 326.096 302.307 324.852 302.826C323.559 303.399 322.455 304.211 321.539 305.263M333.023 315.622C331.451 314.904 330.235 314.434 329.376 314.214C328.035 313.813 326.775 313.559 325.596 313.453C324.487 313.37 323.581 313.468 322.876 313.748C321.774 314.326 321.085 315.1 320.809 316.07M352.407 345.954C347.021 347.607 341.724 350.046 336.515 353.273C334.37 354.567 332.262 355.996 330.191 357.561C326.903 359.971 323.775 362.684 320.806 365.7M371.332 320.397C370.204 320.796 369.068 321.407 367.926 322.23C367.509 322.569 367.112 322.933 366.735 323.32C366.738 324.289 366.757 325.253 366.792 326.211M366.735 323.32C365.599 324.364 364.538 325.54 363.552 326.849C362.604 328.074 361.677 329.529 360.77 331.213C360.619 331.535 360.453 331.871 360.27 332.219C359.49 333.814 358.652 335.755 357.757 338.042C356.246 341.897 354.818 346.017 353.474 350.403C352.559 353.173 351.69 356.065 350.867 359.08C349.482 364.152 348.413 369.072 347.661 373.842M353.474 350.403C352.496 351.199 351.567 352.095 350.686 353.092C349.691 354.341 348.549 355.957 347.258 357.94C346.94 358.466 346.573 359.038 346.157 359.656C343.875 360.274 341.597 361.356 339.323 362.9C338.733 363.207 338.121 363.438 337.488 363.594C334.946 365.61 332.813 367.059 331.092 367.941C327.899 372.725 325.204 375.732 323.006 376.961C321.516 377.734 320.267 377.738 319.257 376.974M368.6 296.878C367.144 305.658 366.522 314.472 366.735 323.32M315.208 397.179C315.052 397.412 314.88 397.652 314.694 397.897" stroke="#BA945E" stroke-width="0.853435" stroke-linecap="round" stroke-linejoin="round"/>
</g>
<defs>
<clipPath id="clip0_1972_1147">
<rect width="840.324" height="472.353" fill="white" transform="translate(48.0314) rotate(5.83624)"/>
</clipPath>
</defs>
</svg>
