<svg width="355" height="332" viewBox="0 0 355 332" fill="none" xmlns="http://www.w3.org/2000/svg">
<g>
<g clip-path="url(#clip0_1644_1211)">
<g clip-path="url(#clip1_1644_1211)">
<rect width="621.41" height="349.807" transform="translate(-125.211 -8.22253)" fill="white"/>
<path d="M186.946 330.393C186.644 328.806 185.97 326.966 184.923 324.871C183.672 322.528 182.771 320.763 182.221 319.575C181.487 318.021 180.959 316.99 180.635 316.482C179.923 315.381 179.114 314.62 178.208 314.199C180.98 315.181 183.499 316.66 185.765 318.636C188.03 320.601 189.843 322.884 191.202 325.486C191.44 325.961 191.634 326.307 191.785 326.523C192.044 326.879 192.335 327.128 192.659 327.268M141.797 293.826C145.961 300.8 151.102 306.835 157.219 311.931C158.395 312.925 160.693 314.701 164.113 317.259C167.047 319.451 169.307 321.276 170.893 322.733C175.985 327.354 179.044 332.175 180.069 337.195" stroke="#656565" stroke-width="0.275099" stroke-linecap="round" stroke-linejoin="round"/>
<path d="M106.639 138.08L98.9687 109.092C96.5197 102.689 94.8529 99.3965 93.9683 99.2129C93.0728 99.051 92.4633 98.9268 92.1397 98.8405L92.0264 98.7919C91.5409 99.3857 91.2982 100.19 91.2982 101.205C91.2766 101.896 91.406 102.873 91.6865 104.136C92.6899 108.304 94.1409 114.328 96.0396 122.209C96.9027 122.361 97.6849 122.728 98.3861 123.311C99.3247 124.066 100.242 125.573 101.137 127.829C102.054 130.55 102.491 133.243 102.448 135.91C102.416 137.195 102.248 138.237 101.946 139.036C102.378 138.906 102.799 138.787 103.209 138.68C104.417 138.507 105.323 138.366 105.927 138.258C106.165 138.194 106.402 138.134 106.639 138.08ZM106.639 138.08C106.681 138.08 106.719 138.08 106.752 138.08C107.465 137.476 108.139 136.72 108.775 135.813C109.994 133.805 110.955 132.088 111.656 130.663C112.368 129.216 113.42 127.915 114.811 126.76C115.977 125.767 117.287 125.249 118.744 125.206M118.97 128.153C118.355 130.787 117.266 133.778 115.701 137.125C113.479 141.735 112.19 144.666 111.834 145.919C111.672 146.491 111.343 147.333 110.847 148.445C111.386 149.373 111.704 150.442 111.801 151.652C111.974 153.433 111.634 155.09 110.782 156.623C110.469 157.206 110.118 157.768 109.73 158.308C109.255 165.142 108.765 171.933 108.257 178.681C107.761 184.802 107.249 190.87 106.72 196.883C106.289 201.418 105.841 205.926 105.377 210.406C105.28 211.302 105.188 212.204 105.102 213.111C108.565 211.966 113.679 209.569 120.443 205.92C123.162 203.696 124.683 202.584 125.006 202.584C125.33 202.573 127.202 201.456 130.622 199.232C134.042 196.986 140.159 194.778 148.973 192.608C157.776 190.438 163.521 188.775 166.207 187.62C168.894 186.443 170.625 183.987 171.402 180.251C176.386 179.874 181.84 179.793 187.762 180.009C191.064 180.106 196.005 180.359 202.586 180.77C202.855 182.476 203.103 183.696 203.33 184.43C203.729 185.855 204.42 187.091 205.401 188.138C206.038 188.322 206.728 188.511 207.473 188.705C207.991 188.824 208.546 188.959 209.14 189.11C209.377 189.207 209.625 189.277 209.884 189.321C209.927 189.321 209.965 189.326 209.997 189.337C232.502 201.569 244.067 211.561 244.693 219.313C245.728 220.274 246.203 225.219 246.117 234.148C247.293 249.403 247.325 264.178 246.214 278.473C248.253 279.228 248.442 281.431 246.78 285.08C247.546 289.01 248.296 293.885 249.03 299.704C249.332 302.435 249.655 305.383 250 308.546C250.27 311.073 250.529 313.729 250.777 316.514C250.842 317.399 250.766 325.443 250.551 340.644M132.952 341.357C135.897 322.074 136.048 297.21 133.405 266.764C133.157 266.008 132.936 265.306 132.742 264.658C131.339 259.94 130.503 255.616 130.233 251.686C129.996 248.167 130.152 244.712 130.703 241.322C130.562 240.188 130.417 239.044 130.266 237.889C130.233 237.802 130.206 237.117 130.185 235.832C115.847 244.609 106.521 250.078 102.205 252.237C95.7645 255.422 90.7803 256.653 87.2525 255.93C83.7355 255.163 80.7795 253.479 78.3845 250.877C75.9679 248.221 74.5222 245.052 74.0476 241.37C73.5513 237.689 73.26 234.126 73.1737 230.682C73.1198 228.587 73.2924 225.537 73.6915 221.532C74.943 207.756 76.1081 197.369 77.187 190.373C77.9637 185.342 78.8646 180.565 79.8895 176.041C81.0654 170.697 82.4301 165.703 83.9836 161.061C83.8002 159.722 84.1886 158.065 85.1488 156.089C84.9762 155.819 84.809 155.544 84.6471 155.263C82.9318 151.992 81.0222 146.944 78.9185 140.121C77.9691 137.13 77.6509 134.831 77.9637 133.222C78.1471 132.034 78.6542 131.014 79.4849 130.161C80.0783 129.535 80.7471 129.141 81.4915 128.979C81.9015 127.791 82.6405 126.766 83.7085 125.902C85.0571 124.801 86.5351 124.207 88.1426 124.12C89.0272 124.185 89.6853 124.223 90.1168 124.234C90.8397 124.212 91.4222 124.077 91.8645 123.829C92.3824 123.57 92.9272 123.165 93.499 122.614C94.2002 122.172 95.0471 122.037 96.0396 122.209M125.362 140.267C125.6 140.256 125.837 140.256 126.074 140.267C125.945 141.184 125.74 142.161 125.46 143.198M110.102 151.425C109.962 153.714 109.838 156.008 109.73 158.308C108.231 160.143 106.062 161.692 103.225 162.955C98.2189 165.277 93.3479 165.973 88.6119 165.045C86.7455 164.656 85.4455 163.954 84.7119 162.939C84.3127 162.399 84.0699 161.773 83.9836 161.061C84.0915 160.694 84.2048 160.343 84.3235 160.008M91.638 126.258C93.1484 126.355 94.5347 127.467 95.7969 129.594C97.7604 133.125 98.5264 136.79 98.0948 140.591C98.3214 140.72 98.6019 140.801 98.9363 140.833C99.8857 140.045 100.889 139.446 101.946 139.036M80.1807 134.388C82.2521 134.852 84.4475 135.71 86.767 136.963C87.6085 138.572 88.3044 140.358 88.8546 142.323C89.1243 143.004 89.3401 143.484 89.5019 143.765C89.9334 144.261 90.3596 144.493 90.7803 144.461C91.2334 144.224 91.5679 143.932 91.7836 143.587C92.0318 143.133 92.2314 142.658 92.3824 142.161C92.76 140.618 92.5928 138.712 91.8807 136.445C91.5031 135.289 90.9853 134.399 90.3272 133.773C90.0575 133.459 89.545 133.017 88.7899 132.445C88.0347 131.937 87.4953 131.478 87.1716 131.068M93.2886 151.101C93.9899 148.11 95.0417 145.573 96.4442 143.489C96.5089 143.392 96.5899 143.3 96.6869 143.214C96.5791 143.225 96.4928 143.23 96.428 143.23C95.5865 143.371 94.7235 143.273 93.8388 142.939C93.2778 142.734 92.7923 142.475 92.3824 142.161M106.639 138.08L106.655 138.129C106.687 138.098 106.719 138.081 106.752 138.08M98.0948 140.591C98.0625 140.958 98.0085 141.352 97.933 141.773C98.2567 141.427 98.5911 141.114 98.9363 140.833M96.6869 143.214C97.0861 142.685 97.5015 142.205 97.933 141.773M82.5919 128.849C82.2036 128.828 81.8368 128.871 81.4915 128.979M110.847 148.445C110.264 149.676 109.487 151.241 108.516 153.141C105.83 155.938 103.705 157.806 102.14 158.745C100.77 159.533 98.9903 159.884 96.8002 159.797C96.66 159.808 96.5359 159.797 96.428 159.765C95.1118 160.337 93.8118 160.672 92.528 160.769C90.9314 160.866 89.5289 160.548 88.3206 159.814C87.2309 159.22 86.1737 157.978 85.1488 156.089M88.8708 168.365C88.8492 169.261 88.7143 170.524 88.4662 172.154C88.3044 173.277 88.3691 174.486 88.6604 175.782M105.199 164.3C104.368 168.834 104.293 173.622 104.972 178.664M96.428 159.765C96.2123 159.754 96.0181 159.738 95.8455 159.717M85.0193 165.433C84.4691 167.528 83.5197 171.452 82.1712 177.207M79.8895 176.041C81.5509 177.315 83.3471 178.394 85.2782 179.28C88.8384 181.007 92.4525 181.887 96.1206 181.92C99.9396 181.952 103.57 181.099 107.011 179.361C107.432 179.145 107.848 178.918 108.257 178.681M103.176 190.535C102.043 193.267 100.425 196.187 98.3214 199.296C97.1994 200.938 95.2089 203.631 92.35 207.378C91.1094 209.03 90.2355 210.239 89.7284 211.005C88.8006 212.376 88.0832 213.667 87.5762 214.876C86.7023 216.873 86.1899 218.968 86.0388 221.159C85.8986 223.373 86.1036 225.527 86.6538 227.621M104.875 210.617C105.037 210.541 105.204 210.471 105.377 210.406M105.102 213.111C104.983 214.169 104.865 215.227 104.746 216.285C105.372 216.35 106.003 216.565 106.639 216.933C107.362 217.364 108.02 217.974 108.613 218.763C109.369 219.756 109.946 220.857 110.345 222.066C110.733 223.265 110.917 224.501 110.895 225.775M104.066 216.285C104.293 216.263 104.519 216.263 104.746 216.285C104.174 221.467 103.57 226.612 102.933 231.718M94.3728 220.35C92.3123 223.859 90.667 227.599 89.4372 231.573C89.1675 232.523 88.7467 233.413 88.1749 234.245M125.573 225.467C128.626 231.481 130.163 234.936 130.185 235.832C130.39 235.702 130.595 235.573 130.8 235.443M132.952 232.82C131.916 235.605 131.167 238.439 130.703 241.322M99.3247 166.648C99.26 167.62 99.1737 172.273 99.0658 180.608M94.4861 167.927C93.6986 173.574 93.5961 178.054 94.1786 181.369M161.077 190.697C162.307 195.728 163.499 199.772 164.654 202.827C167.113 209.305 170.107 213.812 173.635 216.35C177.26 218.865 181.78 219.578 187.196 218.487C190.778 217.742 193.998 216.377 196.857 214.39C200.147 212.08 202.807 209.046 204.835 205.289C206.464 202.266 207.764 198.562 208.735 194.179C208.854 193.65 209.274 192.036 209.997 189.337M164.411 188.495C164.875 191.064 165.323 193.175 165.754 194.827C166.833 199.113 168.484 203.388 170.706 207.653C172.907 211.907 175.938 214.649 179.801 215.88C183.652 217.122 187.827 216.544 192.326 214.147C196.803 211.718 200.023 208.592 201.987 204.77C203.95 200.948 205.283 198.022 205.984 195.993C206.696 193.963 207.192 191.534 207.473 188.705M164.427 224.155C169.271 227.146 173.29 230.979 176.483 235.654M190.076 235.119C190.961 232.172 191.878 229.824 192.828 228.075C194.208 225.559 195.918 223.74 197.957 222.617M225.484 225.208C226.023 226.622 226.59 228.339 227.183 230.358C227.776 229.03 228.537 227.67 229.465 226.277C230.36 224.949 231.806 223.049 233.802 220.576M227.183 230.358C227.528 231.535 227.884 232.82 228.251 234.212C228.337 234.471 228.408 234.731 228.461 234.99C228.645 235.799 228.796 236.588 228.915 237.354C229.95 242.526 230.101 247.19 229.368 251.346C228.785 254.78 227.776 258.062 226.342 261.193C225.802 263.676 225.802 265.803 226.342 267.574C225.727 268.923 225.516 269.841 225.71 270.327C226.39 272.108 226.714 274.1 226.681 276.303C226.66 277.706 226.46 279.736 226.083 282.392C225.694 285.134 225.479 287.153 225.435 288.449C225.349 290.802 225.586 293.458 226.147 296.416C226.439 297.885 227.054 300.481 227.992 304.206C228.844 307.51 229.416 310.106 229.708 311.996C230.053 314.231 230.037 316.741 229.659 319.526C229.842 321.146 229.95 322.49 229.983 323.559C230.004 324.271 230.63 330.004 231.86 340.758M226.342 261.193C225.835 262.413 224.54 265.177 222.458 269.485M226.358 263.784C227.674 263.341 228.645 263.341 229.271 263.784C229.637 264.021 229.94 264.459 230.177 265.096C230.533 266.078 230.732 266.613 230.776 266.699C231.078 267.293 231.606 267.849 232.362 268.367C232.793 268.659 233.462 269.074 234.368 269.614C235.059 270.078 235.42 270.321 235.452 270.343C235.884 270.591 236.278 270.737 236.634 270.78C236.99 270.834 237.389 270.796 237.831 270.667C238.079 270.591 238.462 270.44 238.98 270.213M229.076 273.776C229.486 275.806 229.794 277.56 229.999 279.039C230.107 279.925 230.225 280.616 230.355 281.112C230.56 281.847 230.862 282.451 231.261 282.926C231.714 283.455 232.34 283.882 233.138 284.206C233.699 284.421 234.449 284.616 235.388 284.789C235.787 284.886 236.046 284.956 236.164 284.999C236.456 285.107 236.682 285.242 236.844 285.404M228.461 292.935C228.17 295.731 229.033 298.684 231.051 301.793C231.73 302.851 232.669 304.103 233.866 305.55C235.83 307.904 236.833 309.108 236.876 309.162C239.142 312.066 240.825 315.024 241.925 318.036C243.166 321.48 243.56 324.784 243.107 327.948M154.475 273.242C162.145 269.754 168.888 267.385 174.703 266.132C182.341 264.491 189.284 264.502 195.53 266.165C197.137 266.586 200.385 267.746 205.272 269.646C209.285 271.201 212.581 272.146 215.159 272.481M172.276 277.436C175.372 276.195 178.635 275.671 182.066 275.865C185.497 276.06 188.69 276.945 191.646 278.521M229.659 319.526C229.551 320.358 229.411 321.211 229.238 322.085M133.405 266.764C134.29 269.484 135.541 272.961 137.16 277.193M107.4 244.464C110.237 242.391 112.848 239.961 115.232 237.176" stroke="#656565" stroke-width="0.275099" stroke-linecap="round" stroke-linejoin="round"/>
<path d="M184.694 146.842C184.381 146.238 183.81 145.833 182.979 145.628C182.504 145.52 181.776 145.466 180.794 145.466C178.356 145.52 176.436 145.638 175.033 145.822C173.048 146.103 171.29 146.572 169.758 147.231C170.308 147.458 170.928 147.576 171.619 147.587C172.406 147.49 173.178 147.441 173.933 147.441C174.073 147.409 174.203 147.377 174.321 147.344C176.975 147.042 179.591 147.101 182.17 147.522C182.601 147.576 182.898 147.603 183.06 147.603C183.448 147.592 183.75 147.544 183.966 147.458C184.257 147.339 184.5 147.134 184.694 146.842Z" fill="white"/>
<path d="M209.318 188.188C209.135 188.75 208.962 189.333 208.8 189.937C208.779 190.412 208.806 190.898 208.881 191.395C209.119 193.165 209.858 194.466 211.098 195.298C211.098 195.222 211.104 195.147 211.115 195.071C211.115 194.974 211.12 194.882 211.131 194.796C210.926 194.18 210.856 193.516 210.92 192.804C210.888 192.707 210.861 192.615 210.839 192.528C210.775 192.334 210.467 191.616 209.917 190.375C209.539 189.522 209.34 188.793 209.318 188.188ZM202.813 179.621C202.705 179.816 202.597 180.01 202.489 180.204C203.137 182.687 203.487 184.334 203.541 185.144L205.111 184.836C204.776 183.745 204.01 182.007 202.813 179.621ZM196.453 120.413C195.029 119.647 193.535 119.047 191.971 118.616C190.029 118.054 188.103 117.773 186.193 117.773C185.33 117.763 183.922 117.871 181.97 118.097C180.923 118.497 179.909 119.02 178.927 119.668C176.748 121.201 175.017 123.112 173.733 125.401C173.765 125.844 173.787 126.346 173.798 126.907C173.905 128.354 173.932 129.363 173.878 129.936C173.857 131.091 173.679 132.111 173.344 132.997C172.945 134.065 172.357 134.88 171.581 135.442C171.505 135.496 171.149 135.717 170.512 136.106C170.07 136.408 169.746 136.673 169.542 136.899C169.132 137.385 168.883 138.028 168.797 138.827C168.743 139.323 168.738 140.117 168.781 141.207C168.889 142.211 168.889 142.935 168.781 143.377C168.673 144.187 168.387 144.835 167.923 145.321L167.001 145.985C166.645 146.255 166.418 146.541 166.321 146.843C166.17 147.145 166.068 147.653 166.014 148.365C165.96 148.462 165.927 148.538 165.917 148.592C167.783 148.106 169.687 147.772 171.629 147.588C170.939 147.577 170.318 147.458 169.768 147.232C171.3 146.573 173.059 146.103 175.044 145.823C176.446 145.639 178.366 145.52 180.805 145.466C181.786 145.466 182.515 145.52 182.989 145.628C183.82 145.834 184.392 146.238 184.705 146.843C184.51 147.135 184.268 147.34 183.976 147.458C183.761 147.545 183.459 147.593 183.07 147.604C182.908 147.604 182.612 147.577 182.18 147.523C179.602 147.102 176.986 147.043 174.332 147.345C174.213 147.377 174.083 147.41 173.943 147.442C174.364 147.399 174.768 147.377 175.157 147.377C179.159 147.291 183.059 147.809 186.857 148.932C187.202 149.288 187.52 149.58 187.812 149.807C188.502 150.325 189.182 150.681 189.851 150.876C190.627 151.145 191.399 151.178 192.165 150.973C192.488 150.919 192.774 150.822 193.022 150.681C193.249 150.433 193.492 150.147 193.751 149.823C194.473 149.013 195.11 148.409 195.66 148.009C196.426 147.404 197.381 146.951 198.524 146.649C199.334 146.433 200.385 146.26 201.68 146.13C203.406 145.936 205.111 145.828 206.794 145.807C206.686 144.23 206.616 142.935 206.583 141.92C206.476 139.491 206.206 137.024 205.774 134.519C205.364 132.036 204.588 129.984 203.444 128.365C202.29 126.789 201.022 125.147 199.641 123.442C198.627 122.319 197.564 121.309 196.453 120.413ZM219.449 167.605C218.79 168.252 218.359 169.019 218.154 169.904C217.96 170.865 218.1 171.68 218.575 172.35C219.006 172.954 219.832 173.435 221.051 173.791C221.331 173.877 221.59 173.958 221.827 174.034C222.054 174.131 222.264 174.218 222.458 174.293L220.905 166.374C220.279 166.827 219.794 167.238 219.449 167.605ZM215.047 151.086C215.241 150.989 215.397 150.902 215.516 150.827C215.646 150.795 215.775 150.751 215.905 150.697C215.969 149.175 215.921 147.674 215.759 146.195C212.749 145.861 209.761 145.731 206.794 145.807C205.111 145.828 203.406 145.936 201.68 146.13C200.385 146.26 199.334 146.433 198.524 146.649C197.381 146.951 196.426 147.404 195.66 148.009C195.11 148.409 194.473 149.013 193.751 149.823C193.492 150.147 193.249 150.433 193.022 150.681C192.774 150.822 192.488 150.919 192.165 150.973C191.399 151.178 190.627 151.145 189.851 150.876C189.182 150.681 188.502 150.325 187.812 149.807C187.52 149.58 187.202 149.288 186.857 148.932C183.059 147.809 179.159 147.291 175.157 147.377C174.768 147.377 174.364 147.399 173.943 147.442C173.188 147.442 172.417 147.491 171.629 147.588C169.687 147.772 167.783 148.106 165.917 148.592C165.28 148.797 164.681 148.965 164.12 149.094C164.174 149.882 164.244 150.724 164.331 151.62C164.363 152.031 164.39 152.387 164.412 152.689C164.778 152.873 165.118 153.11 165.431 153.402C165.604 153.51 165.733 153.645 165.82 153.807C165.841 154.163 165.782 154.579 165.642 155.054C165.447 155.712 165.027 156.695 164.379 158.001C164.034 158.811 163.845 159.788 163.813 160.932C163.748 161.623 163.737 162.66 163.781 164.042C163.791 165.802 163.629 167.702 163.295 169.742C163.166 170.563 162.998 171.486 162.793 172.512C162.739 172.803 162.675 173.1 162.599 173.402C162.642 173.586 162.723 173.769 162.842 173.953C162.896 174.158 162.971 174.379 163.068 174.617C163.403 175.373 163.775 176.112 164.185 176.836C164.325 177.084 164.471 177.316 164.622 177.532C165.712 179.378 167.006 181.106 168.506 182.714C170.922 185.23 173.754 187.233 177.002 188.723C180.249 190.213 183.631 191.071 187.148 191.298C188.971 191.384 190.665 191.271 192.229 190.958C193.405 190.709 194.484 190.337 195.466 189.84C195.973 189.581 196.442 189.284 196.874 188.949C198.309 187.848 199.539 186.31 200.563 184.334C200.973 183.524 201.4 182.509 201.842 181.289C201.907 181.17 201.982 181.046 202.068 180.917C202.209 180.679 202.349 180.442 202.489 180.204C202.597 180.01 202.705 179.816 202.813 179.621C202.845 179.567 202.878 179.513 202.91 179.459C203.288 178.768 203.649 178.093 203.994 177.435C204.663 176.161 205.251 174.962 205.758 173.84C207.247 170.352 208.148 167.027 208.461 163.864C208.461 163.551 208.471 163.232 208.493 162.908C209.604 162.196 210.575 161.316 211.406 160.268C213.207 157.936 214.421 154.876 215.047 151.086ZM185.659 150.503C186.231 151.075 186.652 151.847 186.922 152.819C187.062 153.445 187.191 154.271 187.31 155.297C187.278 155.372 187.261 155.437 187.261 155.491C187.229 155.761 187.191 156.036 187.148 156.317C186.911 157.947 186.377 159.41 185.546 160.706C184.683 162.034 183.566 163.103 182.196 163.912C180.761 164.754 179.251 165.202 177.665 165.256C176.058 165.289 174.537 164.9 173.102 164.09C171.645 163.302 170.566 162.217 169.865 160.835C169.326 159.777 168.937 158.433 168.7 156.803C168.678 156.695 168.673 156.571 168.684 156.43C168.328 155.243 168.161 154.303 168.182 153.612C168.182 153.289 168.188 152.975 168.198 152.673C168.263 151.993 168.473 151.415 168.829 150.94C169.52 149.936 170.771 149.294 172.584 149.013C173.738 148.797 175.054 148.689 176.532 148.689C176.953 148.7 177.466 148.716 178.07 148.738C178.437 148.759 178.836 148.781 179.267 148.803C179.623 148.824 180.001 148.846 180.4 148.867C181.608 148.943 182.568 149.062 183.281 149.224C184.284 149.504 185.077 149.931 185.659 150.503ZM179.235 175.006C179.343 175.038 179.44 175.06 179.526 175.07C182.601 173.699 185.611 172.819 188.556 172.431C190.034 172.701 191.275 172.647 192.278 172.269C193.26 171.912 193.939 171.713 194.317 171.67C194.662 171.637 195.568 171.756 197.036 172.026C197.866 172.188 198.573 172.307 199.156 172.382C198.379 173.84 197.705 174.957 197.133 175.734C196.173 177.03 195.088 177.921 193.88 178.407C192.715 178.871 191.544 179.081 190.368 179.038C189.203 179.038 187.466 178.515 185.158 177.467L179.397 175.087L179.235 175.006ZM208.169 147.426C208.849 147.394 209.383 147.41 209.771 147.475C210.354 147.518 210.839 147.685 211.228 147.977C211.821 148.355 212.237 148.954 212.474 149.774C212.495 149.85 212.528 149.947 212.571 150.066C212.646 151.07 212.625 152.042 212.506 152.981C212.28 154.611 211.837 156.074 211.179 157.37C210.478 158.665 209.604 159.772 208.558 160.69C208.45 160.765 208.32 160.862 208.169 160.981C206.907 161.996 205.532 162.622 204.043 162.86C202.478 163.108 200.952 162.903 199.463 162.244C197.963 161.586 196.825 160.587 196.049 159.248C195.477 158.233 195.132 157.04 195.013 155.669C194.927 154.881 194.921 153.963 194.997 152.916C195.007 152.862 195.024 152.808 195.045 152.754V152.706C195.153 152.252 195.272 151.874 195.401 151.572C195.8 150.384 196.388 149.483 197.165 148.867C197.812 148.371 198.654 148.02 199.69 147.815C200.38 147.696 201.346 147.615 202.586 147.572L206.842 147.426H208.169ZM201.114 149.774C201.232 149.774 201.351 149.785 201.47 149.807C202.009 149.871 202.495 150.028 202.926 150.276C203.239 150.449 203.59 150.665 203.978 150.924C203.654 151.475 203.352 151.907 203.072 152.22C203.018 152.295 202.953 152.371 202.878 152.446C202.5 152.824 202.095 153.094 201.664 153.256C201.383 153.375 201.076 153.445 200.741 153.467C200.537 153.477 200.31 153.467 200.062 153.434C199.803 153.413 199.539 153.375 199.269 153.321C198.611 153.224 198.061 153.159 197.618 153.127C197.349 153.083 197.122 153.067 196.939 153.078C196.885 153.067 196.82 153.067 196.744 153.078C196.68 153.089 196.631 153.1 196.599 153.11C196.275 153.121 196.092 153.137 196.049 153.159C195.8 153.191 195.585 153.164 195.401 153.078C195.239 153.035 195.105 152.981 194.997 152.916C194.921 153.963 194.927 154.881 195.013 155.669C195.132 157.04 195.477 158.233 196.049 159.248C196.825 160.587 197.963 161.586 199.463 162.244C200.952 162.903 202.478 163.108 204.043 162.86C205.532 162.622 206.907 161.996 208.169 160.981C208.32 160.862 208.45 160.765 208.558 160.69C208.461 157.818 207.943 154.854 207.004 151.799C206.961 150.19 206.907 148.732 206.842 147.426L202.586 147.572C201.346 147.615 200.38 147.696 199.69 147.815C198.654 148.02 197.812 148.371 197.165 148.867C196.388 149.483 195.8 150.384 195.401 151.572C195.272 151.874 195.153 152.252 195.045 152.706V152.754C195.283 152.549 195.601 152.241 196 151.831C196.28 151.583 196.518 151.372 196.712 151.199C196.82 151.135 196.912 151.07 196.987 151.005C197.063 150.929 197.133 150.859 197.198 150.795C197.769 150.417 198.39 150.141 199.059 149.969C199.339 149.861 199.614 149.796 199.884 149.774C200.294 149.742 200.704 149.742 201.114 149.774ZM209.771 147.475C209.383 147.41 208.849 147.394 208.169 147.426H206.842C206.907 148.732 206.961 150.19 207.004 151.799C207.943 154.854 208.461 157.818 208.558 160.69C209.604 159.772 210.478 158.665 211.179 157.37C211.837 156.074 212.28 154.611 212.506 152.981C212.625 152.042 212.646 151.07 212.571 150.066C212.528 149.947 212.495 149.85 212.474 149.774C212.237 148.954 211.821 148.355 211.228 147.977C210.839 147.685 210.354 147.518 209.771 147.475ZM194.317 171.67C193.939 171.713 193.26 171.912 192.278 172.269C191.275 172.647 190.034 172.701 188.556 172.431C185.611 172.819 182.601 173.699 179.526 175.07C183.453 175.362 187.326 175.394 191.145 175.168C191.404 175.135 191.658 175.119 191.906 175.119C193.028 174.86 194.371 174.396 195.935 173.726C197.521 173.089 198.595 172.641 199.156 172.382C198.573 172.307 197.866 172.188 197.036 172.026C195.568 171.756 194.662 171.637 194.317 171.67ZM179.526 175.07C179.505 175.081 179.461 175.087 179.397 175.087L185.158 177.467C187.466 178.515 189.203 179.038 190.368 179.038C191.544 179.081 192.715 178.871 193.88 178.407C195.088 177.921 196.173 177.03 197.133 175.734C197.705 174.957 198.379 173.84 199.156 172.382C198.595 172.641 197.521 173.089 195.935 173.726C194.371 174.396 193.028 174.86 191.906 175.119C191.658 175.119 191.404 175.135 191.145 175.168C187.326 175.394 183.453 175.362 179.526 175.07ZM182.795 153.969C182.698 153.947 182.552 153.904 182.358 153.839C182.142 153.785 181.975 153.753 181.856 153.742L181.873 153.774C181.754 153.828 181.641 153.872 181.533 153.904C180.972 154.077 180.427 154.217 179.898 154.325C179.057 154.476 178.199 154.53 177.325 154.487C177.261 154.465 177.201 154.455 177.147 154.455C176.781 154.433 176.403 154.395 176.015 154.341C175.13 154.201 174.283 153.953 173.474 153.596C173.237 153.477 173.005 153.359 172.778 153.24C173.242 152.819 173.76 152.446 174.332 152.123L174.008 151.297C174.245 151.21 174.461 151.124 174.655 151.037C175.68 150.562 176.678 150.293 177.649 150.228C177.768 150.217 177.892 150.206 178.021 150.195L178.07 148.738C177.466 148.716 176.953 148.7 176.532 148.689C175.054 148.689 173.738 148.797 172.584 149.013C170.771 149.294 169.52 149.936 168.829 150.94C168.473 151.415 168.263 151.993 168.198 152.673C168.328 153.526 168.49 154.778 168.684 156.43C168.673 156.571 168.678 156.695 168.7 156.803C168.937 158.433 169.326 159.777 169.865 160.835C170.566 162.217 171.645 163.302 173.102 164.09C174.537 164.9 176.058 165.289 177.665 165.256C179.251 165.202 180.761 164.754 182.196 163.912C183.566 163.103 184.683 162.034 185.546 160.706C186.377 159.41 186.911 157.947 187.148 156.317C187.191 156.036 187.229 155.761 187.261 155.491C187.261 155.437 187.278 155.372 187.31 155.297C187.191 154.271 187.062 153.445 186.922 152.819C186.652 151.847 186.231 151.075 185.659 150.503C185.077 149.931 184.284 149.504 183.281 149.224C182.568 149.062 181.608 148.943 180.4 148.867C180.001 148.846 179.623 148.824 179.267 148.803L179.203 150.163C179.699 150.206 180.19 150.319 180.675 150.503C181.711 150.87 182.563 151.442 183.232 152.22L183.151 153.434C183.291 153.531 183.426 153.618 183.556 153.693C183.556 153.769 183.566 153.872 183.588 154.001L183.523 154.179C183.426 154.201 183.361 154.201 183.329 154.179L182.973 155.54L183.086 154.066C182.968 154.023 182.871 153.99 182.795 153.969ZM161.159 187.492C160.803 187.902 160.506 188.264 160.269 188.577L163.57 187.913C164.131 185.786 164.46 183.875 164.557 182.18C164.622 181.143 164.611 180.096 164.525 179.038C164.46 179.772 164.331 180.507 164.137 181.241C163.586 183.584 162.594 185.667 161.159 187.492ZM171.856 104.947C169.925 105.498 167.875 106.41 165.706 107.684C164.433 108.429 162.545 109.681 160.042 111.441C158.068 112.812 156.617 113.887 155.689 114.664C154.136 115.906 152.852 117.12 151.838 118.308C150.608 119.819 149.653 121.374 148.973 122.972C148.412 124.397 148.11 125.811 148.067 127.215C147.938 127.431 147.798 127.658 147.647 127.895C146.298 129.795 144.734 131.42 142.954 132.77C142.414 133.137 141.589 133.698 140.478 134.454C139.561 135.113 138.87 135.804 138.406 136.527C137.888 137.38 137.559 138.411 137.419 139.62C137.354 140.419 137.381 141.558 137.5 143.037C137.532 143.771 137.57 144.398 137.613 144.916C137.387 145.423 137.133 145.947 136.853 146.487C136.734 146.692 135.423 148.813 132.92 152.851C131.399 155.27 130.412 157.575 129.959 159.766C129.376 162.455 129.657 164.787 130.8 166.763L133.713 170.471C134.835 171.929 135.353 173.251 135.267 174.439C135.235 175.097 134.857 176.199 134.134 177.743C133.519 179.092 133.314 180.177 133.519 180.998C133.638 181.656 134.091 182.423 134.878 183.297C135.785 184.323 136.351 185.063 136.578 185.516C136.955 186.358 137.047 187.389 136.853 188.609C136.766 189.16 136.486 190.213 136.011 191.767C135.655 192.976 135.526 194.078 135.623 195.071C135.763 196.28 136.259 197.155 137.112 197.695C137.576 198.018 138.25 198.24 139.135 198.359C139.631 198.423 140.381 198.51 141.384 198.618C142.053 198.736 142.851 199.033 143.779 199.508C144.308 199.767 145.09 200.162 146.125 200.691C147.852 201.436 149.297 201.576 150.462 201.112C150.559 201.608 150.592 202.143 150.559 202.715C150.484 204.367 149.896 205.727 148.795 206.796C149.799 206.526 150.71 206.073 151.53 205.436C152.339 204.799 152.987 204.027 153.472 203.12C153.904 202.213 154.152 201.241 154.217 200.205C154.249 199.157 154.082 198.159 153.715 197.209C154.071 197.619 154.67 198.65 155.511 200.302C156.18 201.641 156.925 202.488 157.744 202.844C158.705 203.33 159.843 203.276 161.159 202.683C162.551 202.056 163.5 201.149 164.007 199.962C164.244 199.314 164.309 198.65 164.201 197.97C164.126 197.473 163.937 197.041 163.635 196.674C163.559 197.171 163.333 197.624 162.955 198.035C162.588 198.434 162.141 198.704 161.612 198.844C160.792 199.017 159.967 198.861 159.136 198.375C158.726 198.159 158.37 197.873 158.068 197.516C157.906 197.117 157.793 196.717 157.728 196.318C157.318 194.526 157.464 192.885 158.165 191.395C158.456 190.801 158.92 190.132 159.557 189.387C159.74 189.16 159.978 188.89 160.269 188.577C160.506 188.264 160.803 187.902 161.159 187.492C162.594 185.667 163.586 183.584 164.137 181.241C164.331 180.507 164.46 179.772 164.525 179.038C164.449 178.304 164.336 177.57 164.185 176.836C163.775 176.112 163.403 175.373 163.068 174.617C162.971 174.379 162.896 174.158 162.842 173.953C162.723 173.769 162.642 173.586 162.599 173.402C162.675 173.1 162.739 172.803 162.793 172.512C162.998 171.486 163.166 170.563 163.295 169.742C163.629 167.702 163.791 165.802 163.781 164.042C163.737 162.66 163.748 161.623 163.813 160.932C163.845 159.788 164.034 158.811 164.379 158.001C165.027 156.695 165.447 155.712 165.642 155.054C165.782 154.579 165.841 154.163 165.82 153.807C165.733 153.645 165.604 153.51 165.431 153.402C165.118 153.11 164.778 152.873 164.412 152.689C164.39 152.387 164.363 152.031 164.331 151.62C164.244 150.724 164.174 149.882 164.12 149.094C164.681 148.965 165.28 148.797 165.917 148.592C165.927 148.538 165.96 148.462 166.014 148.365C166.068 147.653 166.17 147.145 166.321 146.843C166.418 146.541 166.645 146.255 167.001 145.985L167.923 145.321C168.387 144.835 168.673 144.187 168.781 143.377C168.889 142.935 168.889 142.211 168.781 141.207C168.738 140.117 168.743 139.323 168.797 138.827C168.883 138.028 169.132 137.385 169.542 136.899C169.746 136.673 170.07 136.408 170.512 136.106C171.149 135.717 171.505 135.496 171.581 135.442C172.357 134.88 172.945 134.065 173.344 132.997C173.679 132.111 173.857 131.091 173.878 129.936C173.932 129.363 173.905 128.354 173.798 126.907C173.787 126.346 173.765 125.844 173.733 125.401C175.017 123.112 176.748 121.201 178.927 119.668C179.909 119.02 180.923 118.497 181.97 118.097C183.922 117.871 185.33 117.763 186.193 117.773C188.103 117.773 190.029 118.054 191.971 118.616C193.535 119.047 195.029 119.647 196.453 120.413C197.564 121.309 198.627 122.319 199.641 123.442C201.022 125.147 202.29 126.789 203.444 128.365C204.588 129.984 205.364 132.036 205.774 134.519C206.206 137.024 206.476 139.491 206.583 141.92C206.616 142.935 206.686 144.23 206.794 145.807C209.761 145.731 212.749 145.861 215.759 146.195C215.921 147.674 215.969 149.175 215.905 150.697C215.775 150.751 215.646 150.795 215.516 150.827C215.397 150.902 215.241 150.989 215.047 151.086C214.421 154.876 213.207 157.936 211.406 160.268C210.575 161.316 209.604 162.196 208.493 162.908C208.471 163.232 208.461 163.551 208.461 163.864C208.148 167.027 207.247 170.352 205.758 173.84C205.251 174.962 204.663 176.161 203.994 177.435C203.649 178.093 203.288 178.768 202.91 179.459C202.878 179.513 202.845 179.567 202.813 179.621C204.01 182.007 204.776 183.745 205.111 184.836C205.37 185.678 205.596 186.639 205.79 187.719C206.308 190.688 206.983 192.734 207.813 193.856C208.105 192.518 208.434 191.211 208.8 189.937C208.962 189.333 209.135 188.75 209.318 188.188C209.34 188.793 209.539 189.522 209.917 190.375C210.467 191.616 210.775 192.334 210.839 192.528C210.861 192.615 210.888 192.707 210.92 192.804C211.082 193.462 211.152 194.126 211.131 194.796C211.12 194.882 211.115 194.974 211.115 195.071C211.104 195.147 211.098 195.222 211.098 195.298C211.012 196.097 210.802 196.852 210.467 197.565C211.805 196.053 212.792 194.904 213.429 194.115C214.486 192.809 215.371 191.595 216.083 190.472C217.183 188.669 217.965 186.92 218.429 185.225C218.472 185.203 218.515 185.176 218.558 185.144C219.907 184.561 220.948 184.032 221.682 183.557C222.771 182.866 223.602 182.083 224.174 181.208C224.886 180.247 225.231 179.141 225.21 177.888C225.177 176.582 224.719 175.599 223.834 174.941C223.575 174.747 223.117 174.531 222.458 174.293C222.264 174.218 222.054 174.131 221.827 174.034C221.59 173.958 221.331 173.877 221.051 173.791C219.832 173.435 219.006 172.954 218.575 172.35C218.1 171.68 217.96 170.865 218.154 169.904C218.359 169.019 218.79 168.252 219.449 167.605C219.794 167.238 220.279 166.827 220.905 166.374L219.691 160.252L224.999 159.232L226.634 158.892L226.747 158.876C226.671 158.455 226.677 157.958 226.763 157.386C226.936 156.123 227.017 155.421 227.006 155.28C227.017 154.309 226.693 153.316 226.035 152.301C225.636 151.642 224.918 150.735 223.883 149.58C222.814 148.446 222.097 147.572 221.73 146.956C221.04 145.931 220.689 144.943 220.678 143.993C220.668 143.496 220.813 142.465 221.115 140.9C221.407 139.604 221.412 138.594 221.132 137.871C220.98 137.461 220.63 136.894 220.08 136.171C219.551 135.48 219.211 134.934 219.06 134.535C218.931 134.006 218.909 133.261 218.995 132.3C219.071 131.274 219.066 130.551 218.979 130.13C218.72 128.737 217.728 127.544 216.002 126.551C215.462 126.216 214.615 125.768 213.461 125.207C212.49 124.635 211.778 124.041 211.325 123.425C211.077 123.08 210.823 122.632 210.564 122.081C210.413 121.703 210.214 121.196 209.966 120.559C209.512 119.576 208.914 118.567 208.169 117.531C207.597 116.775 206.832 115.862 205.871 114.794C201.017 109.471 196.248 106.189 191.566 104.947C190.962 104.72 190.32 104.532 189.64 104.38C187.86 103.938 186.064 103.868 184.251 104.17C183.572 104.267 183.092 104.424 182.811 104.64C182.693 104.737 182.428 105.017 182.018 105.482C181.004 104.974 179.898 104.629 178.701 104.445C176.446 104.11 174.164 104.278 171.856 104.947Z" fill="white"/>
<path d="M182.018 105.481C181.004 104.974 179.898 104.628 178.701 104.445C176.446 104.11 174.164 104.277 171.856 104.947C169.925 105.497 167.875 106.41 165.706 107.684C164.433 108.429 162.545 109.681 160.042 111.441C158.068 112.812 156.617 113.886 155.689 114.664C154.136 115.905 152.852 117.12 151.838 118.307C150.608 119.819 149.653 121.374 148.973 122.972C148.412 124.397 148.11 125.811 148.067 127.215C149.125 125.487 149.885 123.657 150.349 121.725M175.124 105.53C173.474 106.102 171.969 107.009 170.61 108.251C169.218 109.471 168.134 110.869 167.357 112.445M184.332 109.708C183.167 108.855 181.948 108.256 180.675 107.91C179.273 107.522 177.962 107.5 176.743 107.846C175.394 108.245 174.143 109.114 172.988 110.453C172.255 111.403 171.521 112.634 170.788 114.145C170.766 114.178 170.75 114.205 170.739 114.226C170.696 114.259 170.664 114.307 170.642 114.372C169.531 115.679 168.711 117.168 168.182 118.842C167.546 120.634 167.325 122.416 167.519 124.186C167.551 125.05 167.767 126.362 168.166 128.122C168.587 129.806 168.819 131.101 168.862 132.008C168.97 133.487 168.797 134.826 168.344 136.025C167.826 137.407 167.012 138.384 165.9 138.956M182.018 105.481C182.428 105.017 182.693 104.736 182.811 104.639C183.092 104.423 183.572 104.267 184.251 104.169C186.064 103.867 187.86 103.937 189.64 104.38C190.32 104.531 190.962 104.72 191.566 104.947C196.248 106.188 201.017 109.471 205.871 114.793C206.832 115.862 207.597 116.774 208.169 117.53C208.914 118.567 209.512 119.576 209.966 120.559C210.214 121.196 210.413 121.703 210.564 122.081C210.823 122.631 211.077 123.08 211.325 123.425C211.778 124.04 212.49 124.634 213.461 125.206C214.615 125.768 215.462 126.216 216.002 126.551C217.728 127.544 218.72 128.737 218.979 130.13C219.066 130.551 219.071 131.274 218.995 132.3C218.909 133.261 218.931 134.006 219.06 134.535C219.211 134.934 219.551 135.479 220.08 136.17C220.63 136.894 220.98 137.46 221.132 137.871C221.412 138.594 221.407 139.604 221.115 140.899C220.813 142.465 220.668 143.496 220.678 143.992C220.689 144.942 221.04 145.93 221.73 146.956C222.097 147.571 222.814 148.446 223.883 149.58C224.918 150.735 225.636 151.642 226.035 152.3C226.693 153.315 227.017 154.308 227.006 155.28C227.017 155.42 226.936 156.122 226.763 157.385C226.677 157.958 226.671 158.454 226.747 158.875M226.634 158.892C226.558 159.68 226.342 160.462 225.986 161.24C225.458 162.492 224.686 163.539 223.672 164.382C223.295 164.705 222.583 165.218 221.536 165.92C221.32 166.071 221.11 166.222 220.905 166.374M222.458 174.293C223.117 174.53 223.575 174.746 223.834 174.941C224.719 175.599 225.177 176.582 225.21 177.888C225.231 179.14 224.886 180.247 224.174 181.208C223.602 182.082 222.771 182.865 221.682 183.556C220.948 184.031 219.907 184.56 218.558 185.143M218.429 185.224C217.965 186.919 217.183 188.668 216.083 190.471C215.371 191.594 214.486 192.809 213.429 194.115C212.792 194.903 211.805 196.053 210.467 197.565C210.802 196.852 211.012 196.096 211.098 195.297M208.8 189.937C208.434 191.211 208.105 192.517 207.813 193.856C206.983 192.733 206.308 190.687 205.79 187.718C205.596 186.639 205.37 185.678 205.111 184.836M202.489 180.204C202.349 180.441 202.209 180.679 202.068 180.916C201.982 181.046 201.907 181.17 201.842 181.289C201.4 182.509 200.973 183.524 200.563 184.333C199.539 186.309 198.309 187.848 196.874 188.949C196.442 189.284 195.973 189.581 195.466 189.84C194.484 190.336 193.405 190.709 192.229 190.957C190.665 191.27 188.971 191.384 187.148 191.297C183.631 191.071 180.249 190.212 177.002 188.722C173.754 187.232 170.922 185.23 168.506 182.714C167.006 181.105 165.712 179.378 164.622 177.532C164.622 178.039 164.59 178.541 164.525 179.038M160.269 188.577C159.978 188.89 159.74 189.16 159.557 189.386C158.92 190.131 158.456 190.801 158.165 191.394C157.464 192.884 157.318 194.525 157.728 196.318C157.793 196.717 157.906 197.117 158.068 197.516C158.37 197.872 158.726 198.158 159.136 198.374C159.967 198.86 160.792 199.017 161.612 198.844C162.141 198.704 162.588 198.434 162.955 198.034C163.333 197.624 163.559 197.171 163.635 196.674C163.516 196.512 163.398 196.372 163.279 196.253M182.827 114.486C182.277 114.14 181.662 113.886 180.983 113.724C180.335 113.638 179.677 113.66 179.008 113.789C178.372 113.908 177.768 114.156 177.196 114.534C176.613 114.901 176.144 115.349 175.788 115.878M189.187 106.809C188.259 107.025 187.434 107.435 186.711 108.04C185.924 108.709 185.379 109.492 185.077 110.388M184.656 107.166C183.868 106.464 182.989 105.902 182.018 105.481M191.906 112.364C193.276 112.224 194.376 112.213 195.207 112.332C196.405 112.504 197.305 112.936 197.91 113.627C198.179 113.951 198.476 114.475 198.8 115.198C199.134 115.975 199.42 116.526 199.657 116.85C200.002 117.357 200.585 117.876 201.405 118.405C202.365 118.923 203.066 119.322 203.509 119.603C204.501 120.337 205.699 121.633 207.101 123.49C208.547 125.433 209.707 126.75 210.58 127.441C210.85 127.646 211.713 128.197 213.17 129.093C214.249 129.784 215.052 130.454 215.581 131.101C216.487 132.257 216.983 134.006 217.07 136.348C217.102 137.039 217.129 138.033 217.151 139.328C217.215 140.462 217.345 141.428 217.539 142.227M193.54 108.639C192.602 108.855 191.895 109.05 191.42 109.222C190.59 109.471 189.905 109.746 189.365 110.048C188.75 110.437 188.346 110.793 188.151 111.117C188.044 111.344 187.973 111.641 187.941 112.008C187.92 112.137 187.903 112.445 187.893 112.931M163.376 111.392C162.049 112.148 160.911 113.239 159.961 114.664C159.055 115.905 158.349 117.357 157.842 119.02C157.41 120.24 157 121.795 156.612 123.684C156.428 124.742 156.137 126.319 155.738 128.413C155.468 129.817 155.128 131.031 154.718 132.057C154.265 133.352 153.688 134.464 152.987 135.393C152.21 136.462 151.288 137.309 150.22 137.936C149.054 138.605 147.862 138.913 146.643 138.859M165.431 112.364C164.158 113.303 163.068 114.556 162.162 116.121C161.31 117.525 160.673 119.085 160.253 120.801C159.875 122.281 159.632 123.938 159.525 125.773C159.471 127.134 159.487 128.812 159.573 130.81M148.067 127.215C147.938 127.431 147.798 127.657 147.647 127.895C146.298 129.795 144.734 131.42 142.954 132.769C142.414 133.136 141.589 133.698 140.478 134.454C139.561 135.112 138.87 135.803 138.406 136.527C137.888 137.38 137.559 138.411 137.419 139.62C137.354 140.419 137.381 141.558 137.5 143.037C137.532 143.771 137.57 144.397 137.613 144.915C138.455 143.015 138.886 141.223 138.908 139.539M148.067 127.215C148.078 127.56 148.073 127.884 148.051 128.186M137.613 144.915C137.387 145.423 137.133 145.947 136.853 146.486C136.734 146.691 135.423 148.813 132.92 152.851C131.399 155.269 130.412 157.574 129.959 159.766C129.376 162.454 129.657 164.786 130.8 166.762L133.713 170.471C134.835 171.928 135.353 173.251 135.267 174.439C135.235 175.097 134.857 176.198 134.134 177.742C133.519 179.092 133.314 180.177 133.519 180.997C133.638 181.656 134.091 182.423 134.878 183.297C135.785 184.323 136.351 185.062 136.578 185.516C136.955 186.358 137.047 187.389 136.853 188.609C136.766 189.16 136.486 190.212 136.011 191.767C135.655 192.976 135.526 194.077 135.623 195.071C135.763 196.28 136.259 197.154 137.112 197.694C137.576 198.018 138.25 198.239 139.135 198.358C139.631 198.423 140.381 198.509 141.384 198.617C142.053 198.736 142.851 199.033 143.779 199.508C144.308 199.767 145.09 200.161 146.125 200.69C147.852 201.435 149.297 201.576 150.462 201.111C150.257 200.129 149.837 199.249 149.2 198.472C148.65 197.813 147.522 196.933 145.818 195.832C144.221 194.828 143.142 193.888 142.581 193.014M137.613 144.915C137.656 145.606 137.662 146.125 137.63 146.47C137.619 147.712 137.419 148.802 137.031 149.742C136.653 150.594 136.027 151.48 135.154 152.397M160.771 135.263C160.706 136.181 160.76 137.919 160.932 140.478C161.062 142.659 161.008 144.392 160.771 145.677M156.563 136.025C155.473 137.838 154.929 140.214 154.929 143.15C154.896 143.884 154.95 145.11 155.09 146.826C155.166 148.435 155.182 149.682 155.139 150.567M159.411 133.077C157.901 137.201 157.243 141.525 157.437 146.049C157.653 150.584 158.715 154.843 160.625 158.827M149.508 128.575C146.918 132.71 145.068 135.944 143.957 138.276C142.123 141.99 141.012 145.488 140.623 148.77M148.844 143.102C147.549 143.609 146.465 144.602 145.591 146.081C144.955 147.172 144.367 148.635 143.827 150.47C143.256 152.511 142.765 153.985 142.355 154.891C141.643 156.468 140.72 157.623 139.588 158.357C139.048 158.703 138.298 159.043 137.338 159.377C137.122 159.464 136.874 159.556 136.594 159.653M155.851 151.604C155.161 153.429 155.15 155.615 155.819 158.163C155.991 158.865 156.331 159.917 156.838 161.321C157.27 162.724 157.583 163.793 157.777 164.527C158.219 166.114 158.478 167.863 158.554 169.774C158.661 171.34 158.667 173.1 158.57 175.054M144.022 157.742C144.032 159.027 144.005 160.058 143.941 160.835C143.822 161.936 143.574 162.929 143.196 163.815C142.797 164.83 142.215 165.656 141.449 166.293C140.596 167.027 139.685 167.437 138.714 167.523C138.401 167.556 138.217 167.583 138.164 167.604M149.864 148.689C148.903 150.362 148.348 152.505 148.197 155.118C148.1 156.662 148.094 158.989 148.181 162.098C148.17 163.469 148.056 164.641 147.841 165.612C147.539 166.865 147.037 167.88 146.336 168.657C145.732 169.262 144.815 169.828 143.585 170.357C142.883 170.627 141.864 171.054 140.526 171.637C140.041 171.874 139.577 172.155 139.135 172.479M144.976 172.447C144.426 173.267 143.612 174.174 142.533 175.167C141.983 175.686 141.168 176.409 140.089 177.337M152.679 142.988C152.097 146.627 152.016 150.303 152.437 154.017C152.825 157.699 153.699 161.256 155.058 164.689C155.792 166.557 156.239 167.755 156.401 168.285C156.811 169.656 156.914 170.881 156.709 171.961C156.59 172.749 156.293 173.602 155.819 174.519C155.571 174.995 155.085 175.788 154.362 176.9C153.046 178.984 152.35 180.646 152.275 181.888M152.307 160.398C151.563 161.823 151.045 163.35 150.754 164.981C150.516 166.611 150.532 168.247 150.802 169.888C150.975 170.644 151.212 171.826 151.514 173.434C151.654 174.795 151.433 175.891 150.851 176.722C150.085 178.007 148.558 178.768 146.271 179.005C145.678 179.092 144.771 179.2 143.552 179.329C142.527 179.47 141.675 179.702 140.995 180.026C140.877 180.058 140.764 180.112 140.656 180.188M153.521 170.649C153.488 172.214 153.429 173.37 153.343 174.115C153.203 175.378 152.922 176.474 152.501 177.402C152.037 178.525 151.374 179.448 150.511 180.171C149.529 180.981 148.477 181.402 147.355 181.435C147.053 181.478 146.562 181.456 145.883 181.37C145.246 181.251 144.777 181.186 144.475 181.176C143.935 181.186 143.444 181.278 143.002 181.451C142.517 181.667 142.166 181.985 141.95 182.406C141.778 182.763 141.74 183.232 141.837 183.815C141.923 184.83 141.961 185.338 141.95 185.338C141.961 185.607 141.923 185.899 141.837 186.212M159.719 175.75C160.636 176.614 161.224 177.688 161.483 178.973C161.731 180.258 161.601 181.483 161.094 182.649C160.825 183.232 160.274 184.031 159.444 185.046C158.613 186.083 158.057 186.892 157.777 187.475C157.529 187.94 157.313 188.506 157.13 189.176C156.946 189.834 156.8 190.574 156.693 191.394C156.477 193.586 156.682 195.292 157.308 196.512C157.523 196.89 157.777 197.225 158.068 197.516M151.563 186.066C151.358 187.34 150.57 188.9 149.2 190.747M164.525 179.038C164.46 179.772 164.331 180.506 164.137 181.24C163.586 183.583 162.594 185.667 161.159 187.491C160.803 187.902 160.506 188.263 160.269 188.577M163.635 196.674C163.937 197.041 164.126 197.473 164.201 197.969C164.309 198.65 164.244 199.314 164.007 199.961C163.5 201.149 162.551 202.056 161.159 202.682C159.843 203.276 158.705 203.33 157.744 202.844C156.925 202.488 156.18 201.64 155.511 200.302C154.67 198.65 154.071 197.619 153.715 197.208C154.082 198.158 154.249 199.157 154.217 200.204C154.152 201.241 153.904 202.213 153.472 203.119C152.987 204.026 152.339 204.798 151.53 205.435C150.71 206.072 149.799 206.526 148.795 206.796C149.896 205.727 150.484 204.366 150.559 202.715C150.592 202.142 150.559 201.608 150.462 201.111C150.721 200.992 150.964 200.858 151.191 200.706M221.989 151.733C223.23 152.09 224.293 152.808 225.177 153.887C226.04 154.956 226.526 156.149 226.634 157.466C226.688 157.941 226.688 158.417 226.634 158.892M220.905 166.374C220.279 166.827 219.794 167.237 219.449 167.604C218.79 168.252 218.359 169.019 218.154 169.904C217.96 170.865 218.1 171.68 218.575 172.349C219.006 172.954 219.832 173.434 221.051 173.791C221.331 173.877 221.59 173.958 221.827 174.034C222.054 174.131 222.264 174.217 222.458 174.293M199.059 118.048C198.12 117.282 197.073 116.704 195.919 116.316C194.786 115.938 193.6 115.754 192.359 115.765C191.183 115.797 190.018 116.029 188.863 116.461C187.903 116.796 187.013 117.233 186.193 117.773C188.103 117.773 190.029 118.054 191.971 118.615C193.535 119.047 195.029 119.646 196.453 120.413C197.564 121.309 198.627 122.318 199.641 123.441C201.022 125.147 202.29 126.788 203.444 128.364C204.588 129.984 205.364 132.035 205.774 134.518C206.206 137.023 206.476 139.49 206.583 141.919C206.616 142.934 206.686 144.23 206.794 145.806C209.761 145.731 212.749 145.86 215.759 146.195C215.921 147.674 215.969 149.175 215.905 150.697C215.775 150.751 215.646 150.794 215.516 150.827C215.397 150.902 215.241 150.989 215.047 151.086C214.421 154.875 213.207 157.936 211.406 160.268C210.575 161.315 209.604 162.195 208.493 162.908C208.471 163.232 208.461 163.55 208.461 163.863C208.148 167.027 207.247 170.352 205.758 173.839C205.251 174.962 204.663 176.161 203.994 177.435C203.649 178.093 203.288 178.768 202.91 179.459C202.878 179.513 202.845 179.567 202.813 179.621C204.01 182.007 204.776 183.745 205.111 184.836M219.934 149.515C220.538 151.739 221.078 153.396 221.552 154.487C222.318 156.279 223.273 157.699 224.417 158.746C224.675 158.94 224.87 159.102 224.999 159.232M217.329 165.013C216.519 166.665 215.948 168.015 215.613 169.062C215.16 170.627 214.998 172.036 215.128 173.289C215.193 174.152 215.414 175.124 215.791 176.204C216.007 176.798 216.379 177.715 216.908 178.957C217.275 180.069 217.512 181.051 217.62 181.904C217.631 182.055 217.641 182.201 217.652 182.342M206.179 127.231C207.247 128.818 208.218 130.07 209.092 130.988C209.75 131.603 210.23 132.089 210.532 132.446C211.115 133.018 211.578 133.509 211.924 133.919C213.488 136.079 214.022 139.129 213.526 143.069M206.794 145.806C205.111 145.828 203.406 145.936 201.68 146.13C200.385 146.26 199.334 146.432 198.524 146.648C197.381 146.951 196.426 147.404 195.66 148.009C195.11 148.408 194.473 149.013 193.751 149.822C193.492 150.146 193.249 150.432 193.022 150.681C192.774 150.821 192.488 150.918 192.165 150.972C191.399 151.177 190.627 151.145 189.851 150.875C189.182 150.681 188.502 150.325 187.812 149.806C187.52 149.58 187.202 149.288 186.857 148.932C183.059 147.809 179.159 147.291 175.157 147.377C174.768 147.377 174.364 147.399 173.943 147.442C173.188 147.442 172.417 147.49 171.629 147.588C169.687 147.771 167.783 148.106 165.917 148.592C165.28 148.797 164.681 148.964 164.12 149.094C164.174 149.882 164.244 150.724 164.331 151.62C164.363 152.03 164.39 152.387 164.412 152.689C164.778 152.872 165.118 153.11 165.431 153.402C165.604 153.509 165.733 153.644 165.82 153.806C166.143 154.163 166.407 154.557 166.612 154.989C166.85 155.485 167.071 156.095 167.276 156.819C167.287 156.937 167.432 157.569 167.713 158.713C168.047 160.117 168.441 161.288 168.894 162.228C169.498 163.458 170.259 164.414 171.176 165.094C172.33 165.958 173.916 166.519 175.934 166.778C177.66 166.94 179.143 166.827 180.384 166.438C181.56 166.006 182.768 165.288 184.009 164.284C184.02 164.284 184.02 164.263 184.009 164.22C185.562 162.892 186.83 161.305 187.812 159.458C188.707 157.709 189.279 155.933 189.527 154.13C189.602 153.958 189.646 153.742 189.656 153.482M208.719 138.405C208.741 138.6 208.838 139.269 209.011 140.413C209.129 141.245 209.291 141.898 209.496 142.373C209.809 143.247 210.235 143.998 210.775 144.624M186.193 117.773C185.33 117.762 183.922 117.87 181.97 118.097C180.923 118.496 179.909 119.02 178.927 119.668C176.748 121.201 175.017 123.112 173.733 125.401C173.765 125.843 173.787 126.345 173.798 126.907C173.905 128.354 173.932 129.363 173.878 129.935C173.857 131.091 173.679 132.111 173.344 132.996C172.945 134.065 172.357 134.88 171.581 135.442C171.505 135.496 171.149 135.717 170.512 136.106C170.07 136.408 169.746 136.672 169.542 136.899C169.132 137.385 168.883 138.027 168.797 138.826C168.743 139.323 168.738 140.116 168.781 141.207C168.889 142.211 168.889 142.934 168.781 143.377C168.673 144.187 168.387 144.834 167.923 145.32L167.001 145.984C166.645 146.254 166.418 146.54 166.321 146.843C166.17 147.145 166.068 147.652 166.014 148.365C165.96 148.462 165.927 148.538 165.917 148.592M165.577 117.19C164.714 118.378 164.039 119.668 163.554 121.061C163.036 122.475 162.756 123.927 162.712 125.417M176.71 118.696C175.847 119.117 175.151 119.824 174.623 120.818C174.159 121.714 173.878 122.718 173.781 123.83C173.727 124.251 173.711 124.775 173.733 125.401M175.982 116.089C173.878 118.119 172.147 120.488 170.788 123.198M181.856 153.742C181.975 153.752 182.142 153.785 182.358 153.839C182.552 153.904 182.698 153.947 182.795 153.968C182.871 153.99 182.968 154.022 183.086 154.066C183.162 154.098 183.243 154.136 183.329 154.179C183.361 154.2 183.426 154.2 183.523 154.179L183.588 154.001C183.566 153.871 183.556 153.769 183.556 153.693C183.426 153.617 183.291 153.531 183.151 153.434C182.968 153.326 182.779 153.191 182.585 153.029C182.142 152.716 181.797 152.489 181.549 152.349C180.945 152.036 180.298 151.777 179.607 151.572M175.642 151.685C175.178 151.782 174.742 151.928 174.332 152.122C173.76 152.446 173.242 152.819 172.778 153.24C173.005 153.358 173.237 153.477 173.474 153.596C174.283 153.952 175.13 154.2 176.015 154.341C176.403 154.395 176.781 154.433 177.147 154.454C177.201 154.454 177.261 154.465 177.325 154.487C178.199 154.53 179.057 154.476 179.898 154.325C180.427 154.217 180.972 154.076 181.533 153.904C181.641 153.871 181.754 153.828 181.873 153.774L181.856 153.742C182.072 153.666 182.277 153.59 182.471 153.515M183.232 152.219C182.563 151.442 181.711 150.87 180.675 150.503C180.19 150.319 179.699 150.206 179.203 150.163C178.814 150.13 178.42 150.141 178.021 150.195C177.892 150.206 177.768 150.217 177.649 150.227C176.678 150.292 175.68 150.562 174.655 151.037C174.461 151.123 174.245 151.21 174.008 151.296M168.684 156.43C168.673 156.57 168.678 156.694 168.7 156.802C168.937 158.433 169.326 159.777 169.865 160.835C170.566 162.217 171.645 163.302 173.102 164.09C174.537 164.9 176.058 165.288 177.665 165.256C179.251 165.202 180.761 164.754 182.196 163.912C183.566 163.102 184.683 162.033 185.546 160.705C186.377 159.41 186.911 157.947 187.148 156.317C187.191 156.036 187.229 155.761 187.261 155.491C187.261 155.437 187.278 155.372 187.31 155.296C187.191 154.271 187.062 153.445 186.922 152.819C186.652 151.847 186.231 151.075 185.659 150.503C185.077 149.93 184.284 149.504 183.281 149.223C182.568 149.061 181.608 148.943 180.4 148.867C180.001 148.845 179.623 148.824 179.267 148.802C178.836 148.781 178.437 148.759 178.07 148.737C177.466 148.716 176.953 148.7 176.532 148.689C175.054 148.689 173.738 148.797 172.584 149.013C170.771 149.293 169.52 149.936 168.829 150.94C168.473 151.415 168.263 151.993 168.198 152.673C168.328 153.526 168.49 154.778 168.684 156.43ZM168.684 156.43C168.328 155.242 168.161 154.303 168.182 153.612C168.182 153.288 168.188 152.975 168.198 152.673M179.607 151.572C179.542 151.55 179.478 151.534 179.413 151.523C179.359 151.545 179.3 151.534 179.235 151.491C178.814 151.415 178.393 151.372 177.973 151.361C177.552 151.35 177.131 151.372 176.71 151.426C176.376 151.491 176.036 151.572 175.691 151.669C175.68 151.669 175.664 151.674 175.642 151.685M182.973 155.539C182.563 156.111 182.061 156.581 181.468 156.948C180.907 157.369 180.276 157.672 179.575 157.855C178.927 158.028 178.242 158.098 177.52 158.066C176.807 158.022 176.122 157.904 175.464 157.709M174.008 151.296C173.371 151.577 172.654 151.939 171.856 152.381M172.778 153.24C172.627 153.358 172.471 153.493 172.309 153.644M165.82 153.806C165.841 154.163 165.782 154.578 165.642 155.053C165.447 155.712 165.027 156.694 164.379 158.001C164.034 158.811 163.845 159.788 163.813 160.932C163.748 161.623 163.737 162.66 163.781 164.041C163.791 165.801 163.629 167.701 163.295 169.742C163.166 170.563 162.998 171.486 162.793 172.511C162.739 172.803 162.675 173.1 162.599 173.402C162.642 173.586 162.723 173.769 162.842 173.953C162.896 174.158 162.971 174.379 163.068 174.617C163.403 175.372 163.775 176.112 164.185 176.835C164.325 177.084 164.471 177.316 164.622 177.532M197.068 163.329C197.208 163.707 197.289 164.106 197.311 164.527C197.365 164.851 197.343 165.11 197.246 165.305C197.16 165.521 196.998 165.699 196.761 165.839C196.61 165.915 196.372 166.012 196.049 166.131C195.811 166.195 195.628 166.249 195.498 166.293C195.326 166.606 195.018 166.93 194.576 167.264C194.155 167.577 193.659 167.815 193.087 167.977C192.505 168.096 191.922 168.123 191.339 168.058C190.368 167.896 189.489 167.523 188.702 166.94C188.529 166.951 188.329 166.957 188.103 166.957L187.067 167.07C186.69 167.135 186.15 167.199 185.449 167.264C185.406 167.221 185.357 167.183 185.303 167.151C184.915 166.838 184.661 166.627 184.543 166.519C184.284 166.228 184.117 165.866 184.041 165.434C183.901 165.056 183.89 164.673 184.009 164.284M181.047 167.329C180.842 168.02 180.33 168.83 179.51 169.758C178.625 170.838 178.048 171.604 177.778 172.058C177.433 172.781 177.261 173.548 177.261 174.358C177.271 175.189 177.487 175.966 177.908 176.69M179.526 175.07C179.505 175.081 179.461 175.086 179.397 175.086L185.158 177.467C187.466 178.514 189.203 179.038 190.368 179.038C191.544 179.081 192.715 178.87 193.88 178.406C195.088 177.92 196.173 177.03 197.133 175.734C197.705 174.957 198.379 173.839 199.156 172.382C198.595 172.641 197.521 173.089 195.935 173.726C194.371 174.395 193.028 174.86 191.906 175.119C192.262 175.086 192.618 175.054 192.974 175.022M179.526 175.07C179.44 175.059 179.343 175.038 179.235 175.005L179.397 175.086C179.3 175.097 179.176 175.124 179.025 175.167M179.235 175.005L178.296 174.617M195.045 152.754V152.705C195.153 152.252 195.272 151.874 195.401 151.572C195.8 150.384 196.388 149.482 197.165 148.867C197.812 148.37 198.654 148.019 199.69 147.814C200.38 147.696 201.346 147.615 202.586 147.571L206.842 147.426H208.169C208.849 147.393 209.383 147.409 209.771 147.474C210.354 147.517 210.839 147.685 211.228 147.976C211.821 148.354 212.237 148.953 212.474 149.774C212.495 149.849 212.528 149.947 212.571 150.065C212.646 151.069 212.625 152.041 212.506 152.98C212.28 154.611 211.837 156.074 211.179 157.369C210.478 158.665 209.604 159.771 208.558 160.689C208.45 160.765 208.32 160.862 208.169 160.981C206.907 161.996 205.532 162.622 204.043 162.859C202.478 163.108 200.952 162.902 199.463 162.244C197.963 161.585 196.825 160.587 196.049 159.248C195.477 158.233 195.132 157.04 195.013 155.669C194.927 154.881 194.921 153.963 194.997 152.916C195.007 152.862 195.024 152.808 195.045 152.754ZM195.045 152.754C195.283 152.549 195.601 152.241 196 151.831C196.28 151.582 196.518 151.372 196.712 151.199C196.82 151.134 196.912 151.069 196.987 151.005C197.063 150.929 197.133 150.859 197.198 150.794C197.769 150.416 198.39 150.141 199.059 149.968C199.339 149.86 199.614 149.795 199.884 149.774C200.294 149.742 200.704 149.742 201.114 149.774C201.232 149.774 201.351 149.785 201.47 149.806C202.009 149.871 202.495 150.028 202.926 150.276C203.239 150.449 203.59 150.665 203.978 150.924C204.215 151.075 204.474 151.237 204.755 151.41M203.978 150.924C203.654 151.474 203.352 151.906 203.072 152.219C203.018 152.295 202.953 152.37 202.878 152.446C202.5 152.824 202.095 153.094 201.664 153.256C201.383 153.375 201.076 153.445 200.741 153.466C200.537 153.477 200.31 153.466 200.062 153.434C199.803 153.412 199.539 153.375 199.269 153.321C198.611 153.223 198.061 153.159 197.618 153.126C197.349 153.083 197.122 153.067 196.939 153.078C196.885 153.067 196.82 153.067 196.744 153.078C196.68 153.088 196.631 153.099 196.599 153.11C196.275 153.121 196.092 153.137 196.049 153.159C195.8 153.191 195.585 153.164 195.401 153.078C195.239 153.034 195.105 152.98 194.997 152.916M204.544 149.612C203.509 148.953 202.317 148.635 200.968 148.656C199.63 148.646 198.449 149.002 197.424 149.725M206.842 147.426C206.907 148.732 206.961 150.19 207.004 151.798C207.943 154.854 208.461 157.817 208.558 160.689M193.233 153.823C192.844 153.715 192.451 153.682 192.051 153.725C191.372 153.898 190.53 154.033 189.527 154.13M192.197 155.167C193.179 156.862 193.88 158.228 194.301 159.264C194.366 159.599 194.452 159.901 194.56 160.171C195.153 161.121 196.005 161.979 197.117 162.746C198.605 163.772 200.191 164.403 201.874 164.641C203.622 164.835 205.37 164.517 207.117 163.685C207.603 163.437 208.061 163.178 208.493 162.908M203.088 155.329C202.484 156.041 201.486 156.338 200.094 156.219C199.296 156.176 198.584 156.02 197.958 155.75C197.257 155.447 196.701 155.032 196.291 154.503M195.693 165.548C195.66 165.796 195.595 166.044 195.498 166.293M199.495 165.936C199.593 166.023 200.019 166.584 200.774 167.621C201.292 168.29 201.615 168.9 201.745 169.451C202.004 170.195 202.015 170.994 201.777 171.847M188.702 166.94C188.561 166.811 188.432 166.681 188.313 166.552M199.156 172.382C198.573 172.306 197.866 172.187 197.036 172.025C195.568 171.756 194.662 171.637 194.317 171.669C193.939 171.712 193.26 171.912 192.278 172.268C191.275 172.646 190.034 172.7 188.556 172.43C185.611 172.819 182.601 173.699 179.526 175.07C183.453 175.362 187.326 175.394 191.145 175.167C191.404 175.135 191.658 175.119 191.906 175.119M200.224 172.366C199.954 172.376 199.603 172.371 199.172 172.349L199.156 172.382C199.22 172.231 199.269 172.106 199.301 172.009M200.078 172.09C199.798 172.155 199.495 172.241 199.172 172.349M213.623 159.118C214.087 160.803 213.849 162.805 212.911 165.127C212.673 165.764 212.215 166.768 211.535 168.139C210.91 169.456 210.462 170.444 210.192 171.102C209.286 173.402 208.881 175.81 208.978 178.325C209.054 180.258 209.426 182.099 210.095 183.848M194.56 160.171C194.905 161.456 194.991 162.654 194.819 163.766M202.813 179.621C202.705 179.815 202.597 180.009 202.489 180.204M208.8 189.937C208.962 189.332 209.135 188.749 209.318 188.188C209.34 188.792 209.539 189.521 209.917 190.374C210.467 191.616 210.775 192.334 210.839 192.528C210.861 192.614 210.888 192.706 210.92 192.803C211.082 193.462 211.152 194.126 211.131 194.795C211.12 194.882 211.115 194.973 211.115 195.071C211.104 195.146 211.098 195.222 211.098 195.297M218.429 185.224C218.72 184.112 218.882 183.027 218.914 181.969" stroke="#656565" stroke-width="0.275099" stroke-linecap="round" stroke-linejoin="round"/>
<path d="M179.605 151.572C179.627 151.895 179.6 152.155 179.524 152.349C179.395 152.673 179.093 152.943 178.618 153.159C178.176 153.385 177.75 153.509 177.34 153.531C176.79 153.499 176.374 153.326 176.094 153.013C175.878 152.775 175.727 152.387 175.641 151.847C175.641 151.782 175.641 151.728 175.641 151.685M196.985 151.005C197.007 151.123 197.045 151.242 197.099 151.361C197.25 151.706 197.471 151.976 197.762 152.171C198.356 152.527 199.051 152.592 199.85 152.365C200.26 152.257 200.589 152.084 200.837 151.847C201.096 151.588 201.274 151.226 201.371 150.762C201.425 150.513 201.457 150.195 201.468 149.806" stroke="#656565" stroke-width="0.275099" stroke-linecap="round" stroke-linejoin="round"/>
<path d="M175.616 146.567C178.26 146.286 180.881 146.388 183.481 146.874C183.891 146.928 184.172 146.966 184.323 146.988C184.7 146.988 185.019 146.95 185.277 146.874C185.558 146.755 185.785 146.55 185.957 146.259C185.677 145.643 185.132 145.222 184.323 144.996C183.837 144.898 183.104 144.834 182.122 144.801C179.662 144.78 177.731 144.855 176.329 145.028C174.354 145.287 172.612 145.724 171.102 146.34C171.587 146.567 172.968 146.653 175.244 146.599C175.309 146.61 175.385 146.61 175.471 146.599C175.525 146.599 175.573 146.588 175.616 146.567Z" stroke="#656565" stroke-width="0.275099" stroke-linecap="round" stroke-linejoin="round"/>
<path d="M203.468 144.121C202.799 143.927 202.049 143.851 201.219 143.894C200.528 143.905 199.773 144.029 198.953 144.267C198.457 144.407 197.734 144.634 196.785 144.947C196.483 145.012 196.272 145.066 196.154 145.109C195.959 145.206 195.787 145.33 195.636 145.482C195.485 145.708 195.42 145.93 195.442 146.146C195.442 146.297 195.458 146.405 195.49 146.469C195.997 146.491 196.51 146.48 197.027 146.437C197.61 146.372 198.398 146.264 199.39 146.113C202.141 145.606 204.132 145.26 205.361 145.077C204.822 144.634 204.191 144.316 203.468 144.121Z" stroke="#656565" stroke-width="0.275099" stroke-linecap="round" stroke-linejoin="round"/>
<g filter="url(#filter1_d_1644_1211)">
<path d="M179.361 30.9889L180.461 43.5884M200.819 33.6448L194.168 45.3698M205.463 60.6415L213.409 60.4148M201.693 52.4469L214.299 46.9083M163.437 56.8681L154.375 54.4389M159.23 40.4952L167.208 48.463" stroke="#F8C718" stroke-width="1.40485" stroke-linecap="round" stroke-linejoin="round" shape-rendering="crispEdges"/>
</g>
<path d="M184.719 90.1969C184.482 90.2293 184.255 90.2563 184.04 90.2779M184.04 90.2779C183.479 91.1092 182.799 91.6922 182.001 92.0269C181.192 92.34 180.059 92.4911 178.602 92.4803C177.157 92.448 175.851 92.1079 174.686 91.4601C173.521 90.8015 172.68 89.981 172.162 88.9985M184.04 90.2779C184.061 90.2563 184.083 90.2293 184.104 90.1969C184.277 90.1645 184.455 90.1267 184.638 90.0835C184.984 90.008 185.302 89.8568 185.593 89.6301C185.895 89.3926 186.111 89.1226 186.24 88.8203C186.348 88.4533 186.402 88.0754 186.402 87.6867C186.402 87.6111 186.397 87.5356 186.386 87.46M184.04 90.2779C180.156 90.7205 177.259 90.6341 175.35 90.0187C173.332 89.3602 172.27 89.0201 172.162 88.9985M172.162 88.9985C171.978 88.9553 171.833 88.8851 171.725 88.788C171.531 88.6476 171.342 88.4209 171.158 88.1078C170.921 87.514 170.856 86.9579 170.964 86.4397C171.018 86.1482 171.099 85.8999 171.207 85.6948M171.207 85.6948C170.937 85.4248 170.765 85.1765 170.689 84.9498C170.624 84.7447 170.592 84.4316 170.592 84.0105C170.592 83.719 170.646 83.4113 170.754 83.0874C170.829 82.947 170.916 82.8175 171.013 82.6987M171.207 85.6948C175.522 88.016 180.113 88.7448 184.978 87.881C185.032 87.8595 185.07 87.8487 185.092 87.8487C185.113 87.8379 185.145 87.8325 185.189 87.8325H185.221C185.34 87.8001 185.464 87.7731 185.593 87.7515C185.863 87.6759 186.127 87.5787 186.386 87.46M171.013 82.6987C170.872 82.6124 170.765 82.5098 170.689 82.391C170.549 82.2075 170.479 81.9862 170.479 81.727C170.436 81.2628 170.543 80.8525 170.802 80.4962C170.921 80.3343 171.05 80.2101 171.191 80.1238M171.013 82.6987C176.094 85.0092 181.272 85.8351 186.548 85.1765C186.721 85.1549 186.904 85.1279 187.098 85.0955C187.131 85.0848 187.168 85.0686 187.211 85.047C187.319 85.0038 187.427 84.966 187.535 84.9336M171.191 80.1238C171.212 79.2816 171.153 78.4287 171.013 77.565M171.191 80.1238C171.417 79.9618 171.682 79.8916 171.984 79.9132M171.013 77.565C170.97 77.2411 170.91 76.9226 170.835 76.6095C170.641 75.8106 170.392 75.044 170.09 74.3098C169.411 73.4461 168.833 72.5554 168.359 71.6377C167.161 69.2949 166.562 66.7091 166.562 63.8804C166.562 59.1516 168.229 55.1137 171.563 51.7668C174.897 48.4306 178.926 46.7626 183.651 46.7626C188.387 46.7626 192.417 48.4306 195.74 51.7668C199.084 55.1137 200.756 59.1516 200.756 63.8804C200.756 68.6093 199.084 72.6364 195.74 75.9617C193.862 77.8619 191.764 79.2223 189.445 80.0428M171.013 77.565C171.757 78.4287 172.787 79.1413 174.104 79.7027C175.333 80.1993 177.157 80.75 179.573 81.3546C181.979 81.9484 183.781 82.2453 184.978 82.2453C186.165 82.2237 187.265 82.0941 188.279 81.8566M189.445 80.0428C189.153 80.3559 188.878 80.7284 188.619 81.1602C188.555 81.2682 188.49 81.3977 188.425 81.5489M189.445 80.0428C188.431 80.3775 187.395 80.6366 186.338 80.8201C186.294 80.8201 186.262 80.8201 186.24 80.8201C185.259 80.0644 184.223 79.4166 183.133 78.8768M188.425 81.5489C188.501 81.6245 188.571 81.7216 188.636 81.8404M188.425 81.5489C188.371 81.6461 188.323 81.7486 188.279 81.8566M188.636 81.8404C188.7 81.9268 188.749 82.0293 188.781 82.1481C188.878 82.3856 188.927 82.6393 188.927 82.9093C188.884 83.2116 188.781 83.4923 188.619 83.7514C188.479 84.0213 188.36 84.2264 188.263 84.3668C188.101 84.5719 187.859 84.7609 187.535 84.9336M188.636 81.8404C188.506 81.8404 188.387 81.8458 188.279 81.8566M187.535 84.9336C187.557 84.9984 187.567 85.0739 187.567 85.1603C187.621 85.2575 187.648 85.4086 187.648 85.6138C187.648 86.1752 187.352 86.715 186.758 87.2333C186.629 87.3196 186.505 87.3952 186.386 87.46M192.018 70.666C191.931 70.6876 191.845 70.7146 191.759 70.747M191.759 70.747L192.196 70.8604M191.759 70.747C190.389 69.5162 189.002 68.4851 187.6 67.6538M191.759 70.747C188.177 71.8374 185.302 74.5474 183.133 78.8768M174.152 65.2246C174.228 65.3218 174.303 65.4189 174.379 65.5161M174.379 65.5161C176.105 65.0626 177.831 64.8899 179.557 64.9979C179.697 65.0518 179.832 65.1058 179.962 65.1598C180.21 65.2894 180.442 65.4351 180.658 65.5971M174.379 65.5161L174.055 65.4027M174.379 65.5161C176.817 68.7334 177.847 72.5986 177.47 77.1115M180.658 65.5971C180.711 65.4351 180.771 65.284 180.836 65.1436C181.008 64.7765 181.202 64.5012 181.418 64.3177C181.709 64.0154 182.06 63.821 182.47 63.7347C182.88 63.6375 183.236 63.6915 183.538 63.8966C183.991 64.2205 184.299 64.8089 184.46 65.6618M180.658 65.5971C180.916 65.8022 181.116 66.0451 181.256 66.3258C181.397 66.6929 181.429 66.9898 181.353 67.2165C181.332 67.3353 181.251 67.4433 181.111 67.5404C180.96 67.6484 180.819 67.6808 180.69 67.6376C180.474 67.5512 180.345 67.3785 180.301 67.1194C180.258 66.8926 180.285 66.6443 180.382 66.3744C180.469 66.0937 180.56 65.8346 180.658 65.5971ZM184.46 65.6618C184.773 65.3056 185.054 65.041 185.302 64.8683C185.539 64.7603 185.771 64.6902 185.998 64.6578C186.278 64.647 186.516 64.7064 186.71 64.8359C186.947 64.9439 187.131 65.1652 187.26 65.4999C187.379 65.759 187.438 66.0505 187.438 66.3744C187.449 66.7523 187.427 67.1356 187.373 67.5242M184.46 65.6618C184.46 65.705 184.46 65.7536 184.46 65.8076C184.482 65.9156 184.498 66.0181 184.509 66.1153M184.46 65.6618C184.385 65.7266 184.32 65.7968 184.266 65.8724C184.223 65.9048 184.185 65.9426 184.153 65.9857M187.373 67.5242C187.438 67.5674 187.514 67.6106 187.6 67.6538M187.373 67.5242C187.362 67.5674 187.357 67.616 187.357 67.67M187.6 67.6538C187.514 67.6538 187.433 67.6592 187.357 67.67M183.133 78.8768C182.152 78.3909 181.132 77.9915 180.075 77.6784C179.223 77.4192 178.354 77.2303 177.47 77.1115M183.133 78.8768C183.036 79.0495 182.95 79.2276 182.875 79.4112M177.47 77.1115C177.437 77.4894 177.394 77.8673 177.34 78.2452M177.47 77.1115C176.013 76.8848 174.546 76.8524 173.068 77.0144M187.357 67.67C187.249 68.1882 187.066 68.7065 186.807 69.2247C186.699 69.3758 186.618 69.4784 186.564 69.5324C186.456 69.6404 186.348 69.6943 186.24 69.6943C186.068 69.6943 185.938 69.6134 185.852 69.4514C185.777 69.2895 185.75 69.1113 185.771 68.917C185.825 68.6039 185.992 68.3286 186.273 68.0911C186.532 67.8643 186.85 67.724 187.228 67.67C187.271 67.67 187.314 67.67 187.357 67.67ZM184.509 66.1153C184.552 66.7631 184.504 67.2705 184.363 67.6376C184.115 68.361 183.705 68.7712 183.133 68.8684C182.875 68.1234 183.214 67.1626 184.153 65.9857M184.509 66.1153C184.379 66.0721 184.261 66.0289 184.153 65.9857" stroke="#656565" stroke-width="0.275099" stroke-linecap="round" stroke-linejoin="round"/>
</g>
</g>
</g>
<defs>

<filter id="filter1_d_1644_1211" x="145.477" y="22.0914" width="81.9325" height="51.6619" filterUnits="userSpaceOnUse" color-interpolation-filters="sRGB">
<feFlood flood-opacity="0" result="BackgroundImageFix"/>
<feColorMatrix in="SourceAlpha" type="matrix" values="0 0 0 0 0 0 0 0 0 0 0 0 0 0 0 0 0 0 127 0" result="hardAlpha"/>
<feOffset dx="2.10727" dy="2.10727"/>
<feGaussianBlur stdDeviation="5.1511"/>
<feComposite in2="hardAlpha" operator="out"/>
<feColorMatrix type="matrix" values="0 0 0 0 1 0 0 0 0 0.739316 0 0 0 0 0.0224357 0 0 0 1 0"/>
<feBlend mode="normal" in2="BackgroundImageFix" result="effect1_dropShadow_1644_1211"/>
<feBlend mode="normal" in="SourceGraphic" in2="effect1_dropShadow_1644_1211" result="shape"/>
</filter>
<clipPath id="clip0_1644_1211">
<rect x="12.1719" y="10.4474" width="324.013" height="301.128" rx="10.2383" fill="white"/>
</clipPath>
<clipPath id="clip1_1644_1211">
<rect width="621.41" height="349.807" fill="white" transform="translate(-125.211 -8.22253)"/>
</clipPath>
</defs>
</svg>
