<svg width="355" height="332" viewBox="0 0 355 332" fill="none" xmlns="http://www.w3.org/2000/svg">
<g>
<g clip-path="url(#clip0_1644_2388)">
<rect x="12.1719" y="10.4474" width="324.013" height="301.128" rx="10.2383" fill="white"/>
<g clip-path="url(#clip1_1644_2388)">
<path d="M163.631 114.95C164.485 115.085 165.204 115.248 165.79 115.438C166.034 115.522 166.254 115.613 166.453 115.704C166.354 116.012 166.197 116.262 165.981 116.459L165.868 116.552L165.861 116.558C165.382 116.964 164.755 117.12 163.954 117.003C163.453 116.886 163.114 116.738 162.913 116.573C162.651 116.327 162.431 115.845 162.286 115.075L162.284 115.075C162.284 115.065 162.282 115.055 162.281 115.046C162.813 114.945 163.261 114.913 163.631 114.95ZM189.697 112.333C189.847 112.349 190.007 112.374 190.174 112.41L190.19 112.413L190.205 112.414C190.81 112.442 191.396 112.529 191.965 112.667C191.924 112.831 191.867 112.981 191.796 113.12C191.608 113.478 191.294 113.751 190.833 113.934L190.823 113.939C190.402 114.137 189.979 114.216 189.553 114.181L189.542 114.18L189.532 114.181C188.828 114.197 188.271 113.981 187.84 113.541C187.627 113.278 187.445 112.982 187.293 112.654C187.981 112.443 188.781 112.334 189.697 112.333Z" fill="#666666" stroke="#8C8C8C" stroke-width="0.391065"/>
<path d="M113.603 169.714C113.719 169.602 113.839 169.505 113.961 169.423C118.458 165.4 123.896 162.136 130.275 159.628M130.275 159.628C130.061 158.836 129.816 157.826 129.542 156.599C129.491 156.26 129.421 155.958 129.334 155.693C128.986 154.163 128.596 152.991 128.165 152.176C128.105 151.932 127.696 151.181 126.939 149.924C126.443 148.998 126.101 148.197 125.913 147.521C125.826 147.255 125.753 146.948 125.693 146.599M130.275 159.628C130.427 160.281 130.561 160.785 130.677 161.14C131.253 162.778 132.123 164.095 133.288 165.089C134.559 166.247 135.928 166.739 137.393 166.565C137.512 166.52 138.047 166.408 138.999 166.23C139.664 166.06 140.227 165.998 140.689 166.045C141.33 166.197 142.112 166.79 143.035 167.827C143.998 168.839 144.796 169.42 145.428 169.57C145.886 169.655 146.442 169.66 147.098 169.584C148.071 169.464 148.639 169.413 148.799 169.429C149.381 169.413 150.072 169.55 150.871 169.841C151.702 170.183 152.346 170.41 152.801 170.524C153.68 170.861 154.666 171.047 155.757 171.083C156.41 171.121 157.435 171.116 158.83 171.069M125.693 146.599C124.741 146.036 123.969 145.528 123.378 145.078C122.936 144.738 122.533 144.354 122.167 143.926C121.9 143.652 121.653 143.365 121.426 143.066C120.847 142.216 120.466 141.331 120.284 140.408C120.11 139.41 120.226 138.504 120.633 137.689C120.89 137.23 121.418 136.58 122.218 135.738C122.921 134.916 123.399 134.199 123.652 133.587C123.858 133.066 123.924 132.416 123.851 131.638M125.693 146.599C125.634 146.06 125.667 145.507 125.791 144.939C125.96 144.128 126.29 143.51 126.781 143.085C126.893 143.011 126.996 142.94 127.088 142.873M123.851 131.638C123.822 131.463 123.783 131.278 123.737 131.083C123.641 130.626 123.553 130.222 123.475 129.872C123.37 129.309 123.283 128.863 123.212 128.532C122.89 126.834 122.902 125.136 123.247 123.44C123.606 121.792 124.285 120.272 125.284 118.88C125.998 117.954 126.536 117.253 126.899 116.776C127.494 115.98 127.862 115.228 128.001 114.519C128.097 113.949 128.116 113.156 128.058 112.141C127.958 110.98 127.939 110.188 128.001 109.766C128.066 108.945 128.354 108.037 128.865 107.042C128.918 106.896 128.993 106.765 129.091 106.652C129.861 105.36 130.431 104.391 130.802 103.743C131.394 102.614 131.728 101.53 131.806 100.492C131.857 99.6214 131.49 98.599 130.705 97.4245C130.624 96.5408 130.677 95.6041 130.864 94.6145C131.167 92.7708 131.863 90.9865 132.954 89.2614C133.683 87.9942 134.84 86.509 136.423 84.8057C138.807 82.1661 140.074 80.7588 140.225 80.584C140.965 79.5938 142.495 77.4759 144.817 74.2305C146.622 71.5697 148.222 69.5255 149.615 68.0978C151.28 66.4315 153.132 65.0364 155.171 63.9126C157.049 62.8675 159.075 62.0422 161.251 61.4367C164.814 60.4972 168.286 60.2954 171.669 60.8315C172.643 60.9882 173.616 61.2066 174.587 61.4867M123.851 131.638C124.297 131.474 124.75 131.32 125.213 131.177M174.587 61.4867C174.929 61.2171 175.3 60.941 175.7 60.6584C176.328 60.2943 176.979 59.9802 177.654 59.7161C178.431 59.472 179.227 59.325 180.041 59.275C180.248 59.2962 180.448 59.2976 180.641 59.2792C181.942 59.3076 183.447 59.6755 185.156 60.383C187.065 61.2634 188.527 61.8695 189.541 62.2015C190.305 62.4604 192.323 63.0188 195.597 63.8768C198.072 64.539 200.014 65.2847 201.425 66.114C203.259 67.1769 204.91 68.7208 206.379 70.7455C206.673 71.1277 206.97 71.5339 207.269 71.9641C207.753 72.7178 208.292 73.6483 208.883 74.7555C209.089 75.0715 209.355 75.3985 209.683 75.7364C211.274 77.4977 213.131 78.9389 215.254 80.0599C217.163 80.8546 218.54 81.4949 219.386 81.981C220.909 82.8218 221.99 83.7983 222.629 84.9103C223.123 85.8553 223.408 87.0263 223.484 88.4234C223.483 89.0799 223.414 90.3623 223.276 92.2704C223.178 93.8875 223.178 95.1389 223.278 96.0246C223.472 97.3004 223.924 98.322 224.636 99.0895C225.305 99.8144 226.349 100.454 227.768 101.008C229.465 101.734 230.548 102.23 231.015 102.496C232.091 103.244 232.889 104.239 233.41 105.482C233.588 105.785 233.722 106.108 233.811 106.45C233.985 107.077 234.081 108.048 234.099 109.363C234.131 110.908 234.054 112.922 233.867 115.406C232.72 115.07 231.377 114.704 229.837 114.309M174.587 61.4867C173.577 62.335 172.801 63.3548 172.261 64.5461M229.837 114.309C229.843 114.338 229.853 114.382 229.866 114.44C229.988 114.928 230.383 115.44 231.052 115.975C231.846 116.589 232.34 117.067 232.533 117.411C232.946 117.757 233.299 118.169 233.593 118.646C233.615 118.706 233.624 118.759 233.619 118.806C234.051 119.516 234.28 120.311 234.304 121.189C234.29 121.33 234.245 121.858 234.171 122.774C234.119 122.911 234.094 123.056 234.098 123.209C234.073 123.634 234.098 123.998 234.172 124.301C234.256 124.595 234.45 124.981 234.753 125.459C235.05 126.004 235.259 126.377 235.381 126.58C235.592 127.22 235.666 128.174 235.603 129.443C235.199 128.641 234.632 127.945 233.902 127.357M229.837 114.309C229.732 113.746 229.851 113.14 230.194 112.49C230.292 112.271 230.46 111.979 230.698 111.613C230.966 111.222 231.126 110.92 231.176 110.706C231.329 110.427 231.443 110.148 231.519 109.87C231.719 109.12 231.746 108.347 231.599 107.552C231.508 106.943 231.345 106.398 231.109 105.917C230.817 105.507 230.493 105.136 230.137 104.805M229.837 114.309C227.785 113.699 225.36 113.061 222.562 112.395M233.902 127.357C234.681 129.149 235.169 131.131 235.366 133.301C235.723 136.697 235.367 140.091 234.296 143.483C234.092 143.995 233.889 144.536 233.688 145.105C232.99 146.899 232.162 148.299 231.202 149.305C230.585 149.936 229.916 150.425 229.195 150.77C228.351 151.112 227.556 151.244 226.812 151.168C226.354 151.084 225.677 150.91 224.78 150.647C223.935 150.341 223.271 150.178 222.787 150.158C221.973 150.112 221.232 150.322 220.566 150.787C220.351 151.022 220.161 151.302 219.994 151.628C219.341 152.798 219.225 153.938 219.645 155.046C219.903 155.691 220.435 156.493 221.242 157.45C222.194 158.471 222.807 159.228 223.081 159.722C223.495 160.516 223.717 161.372 223.747 162.288C223.821 163.238 223.645 164.119 223.22 164.932C222.915 165.672 222.447 166.295 221.814 166.801M233.902 127.357C233.573 126.571 233.179 125.817 232.719 125.095C232.374 124.65 231.941 124.187 231.419 123.706C230.661 122.924 229.708 122.089 228.561 121.201C226.58 119.714 225.144 118.478 224.255 117.492C222.857 115.893 222.02 114.247 221.746 112.554C221.706 112.293 221.673 112.004 221.649 111.688C221.639 111.125 221.672 110.477 221.747 109.742C221.877 108.471 221.965 107.519 222.011 106.886C222.237 104.492 221.763 102.745 220.59 101.645M221.814 166.801C225.471 168.669 229.045 170.733 232.537 172.993C241.899 179.031 247.824 187.026 250.311 196.977C250.329 196.988 250.336 197.013 250.332 197.05C251.324 199.455 251.93 202.1 252.149 204.987C252.331 207.403 252.248 210.126 251.9 213.154C251.728 214.745 251.591 218.138 251.488 223.332C252.041 234.503 251.081 246.838 248.606 260.335C245.83 275.562 241.019 289.934 234.172 303.451M221.814 166.801C221.742 166.86 221.665 166.91 221.585 166.949C220.828 167.557 220.028 167.932 219.185 168.074C218.532 168.217 217.285 168.208 215.445 168.049C213.914 167.93 212.724 168.075 211.872 168.483C210.945 168.987 210.281 169.795 209.882 170.906C209.509 172.038 209.55 173.132 210.004 174.187C210.261 174.746 210.607 175.229 211.041 175.635C211.407 175.967 211.785 176.229 212.175 176.421C213.167 176.97 214.226 177.178 215.354 177.046C215.772 176.956 216.088 176.897 216.3 176.871C216.706 176.808 217.022 176.841 217.247 176.968C217.61 177.053 217.879 177.257 218.056 177.579L218.05 177.636C217.315 178.588 216.388 179.359 215.271 179.949C213.811 180.542 212.356 180.703 210.908 180.431C209.442 180.148 208.19 179.402 207.152 178.192C206.708 177.69 206.334 177.156 206.03 176.592C205.662 175.813 205.445 175.001 205.379 174.157C205.288 172.996 205.65 170.944 206.465 168.001C207.201 165.46 207.361 163.478 206.944 162.055C206.642 161.101 206.009 160.076 205.045 158.978M221.814 166.801C221.75 166.776 221.691 166.751 221.636 166.726M234.172 303.451C234.428 303.182 234.661 302.897 234.873 302.595M234.172 303.451C231.565 306.41 227.826 308.378 222.955 309.356C219.114 310.133 214.192 310.315 208.187 309.901C195.295 309.05 184 307.895 174.303 306.438C162.976 304.719 153.345 302.421 145.412 299.545C143.588 298.569 142.626 297.966 142.526 297.737M199.119 69.9463C200.295 70.923 201.203 71.7295 201.843 72.3658C202.809 73.3495 203.535 74.3039 204.021 75.2291C204.455 76.206 204.804 77.4026 205.068 78.8189C205.219 79.6718 205.445 80.9128 205.745 82.5422M201.243 67.6085C202.13 67.975 202.927 68.5133 203.635 69.2232C204.3 69.8907 204.843 70.6836 205.263 71.6021C205.888 72.9411 206.342 74.8336 206.625 77.2795M171.121 68.7117C171.412 67.9135 171.927 67.2525 172.666 66.7286C173.388 66.1839 174.188 65.8089 175.066 65.6036C175.846 65.4264 176.707 65.3431 177.649 65.3537C178.279 65.3326 179.166 65.3708 180.308 65.4686M171.449 65.2196C170.396 64.2461 168.964 63.8142 167.153 63.9241C166.565 63.9972 165.783 64.0981 164.809 64.2268C163.596 64.4455 162.815 64.5892 162.465 64.6581M169.697 67.2672C169.223 66.8762 168.608 66.5993 167.854 66.4365C167.316 66.2959 166.623 66.2679 165.777 66.3527C164.413 66.375 163.278 66.4398 162.372 66.547C161.152 66.7364 160.065 67.0298 159.111 67.427C157.425 68.1777 155.849 69.482 154.383 71.34C153.499 72.4392 152.32 74.2361 150.846 76.7309M168.769 71.0405C167.855 70.5665 166.879 70.286 165.841 70.1989C164.746 70.1917 163.741 70.3886 162.824 70.7897C161.269 71.373 159.72 72.6468 158.176 74.6111C157.34 75.7151 156.07 77.379 154.367 79.6029C153.255 80.8786 151.97 81.951 150.51 82.8199C148.983 83.6915 147.409 84.3205 145.789 84.7068M169.761 74.4677C169.635 74.0266 169.119 73.7645 168.213 73.6815C166.456 73.54 164.993 73.5998 163.824 73.8609C162.172 74.1868 160.874 74.9106 159.931 76.0322M169.696 76.3595C168.238 76.2771 167.097 76.3508 166.274 76.5807C164.959 76.9602 164.008 77.6004 163.421 78.5015M168.12 79.3387C167.599 79.1331 166.968 79.102 166.23 79.2454C165.594 79.4088 164.976 79.6834 164.375 80.0692C163.687 80.5603 162.772 81.4945 161.631 82.8719C160.577 84.1534 159.586 85.0418 158.659 85.5371M182.448 66.1869C181.369 65.8482 180.288 65.7615 179.204 65.9267C178.047 66.0654 177.039 66.4714 176.18 67.1449C175.487 67.683 174.853 68.4842 174.277 69.5482C174.142 69.7533 174.007 70.0487 173.873 70.4346M173.873 70.4346C174.011 70.287 174.16 70.1357 174.319 69.9807C175.613 68.8758 177.162 68.2967 178.967 68.2434C180.727 68.1663 182.29 68.6211 183.656 69.6076M173.873 70.4346C173.203 71.1179 172.832 71.808 172.761 72.5049C172.74 72.7121 172.74 72.9024 172.76 73.0757M178.01 78.8651C176.592 78.1112 175.265 77.6805 174.029 77.5732M174.029 77.5732C173.711 77.5122 173.394 77.4893 173.079 77.5046C172.542 77.5354 172.029 77.6209 171.538 77.7611C169.754 78.2638 168.046 80.021 166.414 83.0325M174.029 77.5732C176.01 77.4712 177.517 77.4016 178.549 77.3644C180.689 77.2976 182.475 77.385 183.907 77.6266C185.857 77.9305 187.572 78.5721 189.053 79.5514C190.733 80.532 191.959 81.8135 192.731 83.3958C193.369 84.6981 193.751 86.5928 193.878 89.0798C194.015 92.0247 194.234 93.9789 194.536 94.9422C194.96 96.6604 196.197 98.9992 198.246 101.959C199.68 104.047 200.753 105.802 201.465 107.226M166.414 83.0325C166.78 82.6226 167.214 82.1484 167.717 81.6098M166.414 83.0325C165.887 83.6257 165.48 84.1598 165.194 84.6348C165.125 84.7421 164.856 85.1856 164.386 85.9654C164.054 86.5119 163.734 86.9408 163.426 87.2519C163.093 87.6269 162.47 88.0866 161.557 88.6309C160.918 89.0128 160.402 89.355 160.009 89.6574M182.641 76.1839C182.036 75.77 181.075 75.529 179.758 75.4611C177.386 75.2852 175.555 75.7308 174.265 76.798M174.335 75.5491C176.069 74.4227 177.953 73.7398 179.987 73.5004C180.715 73.3655 181.365 73.3891 181.937 73.5712C182.252 73.6511 182.534 73.8274 182.782 74.1002C183.034 74.3447 183.175 74.6399 183.206 74.9856M183.229 71.4053C181.832 71.1958 180.422 71.2421 179.001 71.5441C177.575 71.8931 176.27 72.4638 175.084 73.2562M201.465 107.226C202.452 107.346 203.527 107.494 204.69 107.67C204.96 109.135 205.119 110.693 205.17 112.344C204.954 112.493 204.668 112.635 204.312 112.77C203.872 112.973 203.386 113.166 202.853 113.349M201.465 107.226C199.325 107.008 197.435 106.867 195.794 106.804C194.77 106.766 193.832 106.765 192.981 106.802C188.425 106.936 184.514 107.839 181.248 109.514C180.37 109.995 179.101 110.721 177.44 111.694C177.036 111.919 176.612 112.108 176.168 112.263C175.428 112.33 174.592 112.211 173.662 111.907C173.075 111.78 172.362 111.527 171.525 111.146C170.278 110.59 169.605 110.274 169.508 110.198C166.129 108.786 162.169 108.22 157.627 108.498C155.862 108.622 153.64 108.933 150.961 109.429M202.853 113.349C202.917 113.936 202.97 114.531 203.013 115.135C203.337 119.327 203.471 122.628 203.415 125.04C203.382 126.387 203.306 127.683 203.189 128.928C202.898 132.333 202.322 135.314 201.46 137.872C200.622 140.203 199.802 142.075 199.001 143.487M202.853 113.349C202.658 113.396 202.448 113.441 202.225 113.485C202.201 113.72 202.16 113.93 202.103 114.115C202.058 114.557 202.016 114.967 201.978 115.344C201.868 116.141 201.748 116.8 201.619 117.319C201.311 119.02 200.879 120.503 200.321 121.769L200.283 121.865C199.899 122.729 199.442 123.525 198.91 124.251C198.708 124.554 198.489 124.836 198.252 125.097C198.198 125.168 198.138 125.242 198.072 125.321C197.955 125.443 197.824 125.567 197.677 125.695C197.12 126.304 196.526 126.8 195.897 127.183C195.248 127.478 194.589 127.73 193.92 127.937C191.847 128.563 189.751 128.705 187.634 128.365C186.64 128.216 185.7 127.958 184.814 127.592C184.183 127.337 183.595 127.034 183.05 126.683M199.001 143.487C198.707 145.341 198.554 146.834 198.543 147.965C198.544 150.287 199.042 152.217 200.037 153.756C200.493 154.507 201.74 155.819 203.777 157.692C204.255 158.141 204.677 158.569 205.045 158.978M199.001 143.487C198.586 144.196 197.961 145.093 197.126 146.179C196.284 147.244 193.786 149.51 189.632 152.978C185.479 156.436 181.159 158.225 176.671 158.347M205.045 158.978C205.043 160.491 205.007 161.681 204.937 162.55C204.835 164.852 204.619 166.871 204.289 168.607C203.716 171.517 202.983 173.659 202.09 175.034C201.2 176.38 200.128 177.597 198.874 178.687C197.623 179.749 194.457 180.586 189.376 181.199C186.929 181.472 184.663 181.469 182.578 181.189M186.45 65.611C187.813 66.0644 188.645 66.3493 188.948 66.4659C189.873 66.8174 190.639 67.1955 191.246 67.6C192.075 68.0559 192.749 68.6386 193.267 69.3481C193.799 70.1067 194.138 70.8883 194.284 71.6931M186.482 74.9351C188.782 75.2559 190.781 76.1976 192.478 77.7604C193.293 78.5479 193.982 79.4415 194.547 80.4412C195.025 81.4417 195.38 82.4914 195.61 83.5902M194.289 72.6214C193.76 72.396 193.176 71.9558 192.539 71.3006L191.035 69.6624M195.803 71.9198C197.825 73.6585 199.072 76.4123 199.544 80.1812C199.652 81.1724 199.792 82.6902 199.964 84.7347C200.187 86.556 200.487 88.052 200.862 89.2228C201.422 90.8311 202.241 92.1328 203.32 93.1281C204.477 94.2931 205.787 94.9361 207.251 95.0572C207.914 95.0869 209.046 94.9171 210.645 94.5477C212.066 94.2457 213.206 94.1814 214.064 94.3548C215.091 94.5644 215.964 95.1009 216.685 95.9644C217.425 96.8299 217.865 97.8359 218.005 98.9826C218.142 99.9767 218.05 101.014 217.73 102.095C217.385 103.144 216.875 104.125 216.201 105.036C215.903 105.434 215.42 106.017 214.751 106.786C214.218 107.521 213.877 108.21 213.725 108.851C213.518 109.857 213.764 110.801 214.465 111.681C214.822 112.194 215.237 112.559 215.709 112.779C216.088 112.989 216.515 113.095 216.991 113.096M176.964 62.9714C179.838 62.2375 182.753 62.0882 185.708 62.5235C188.711 62.9542 191.494 63.9095 194.057 65.3894M190.888 71.3746C191.991 72.3247 192.881 73.4434 193.559 74.7307M194.51 78.5676C193.645 77.6133 192.867 76.7534 192.174 75.9879M196.536 84.4556C196.421 87.7268 197.201 90.6661 198.877 93.2735C199.656 94.5996 200.647 95.7572 201.85 96.7461C203.052 97.7539 204.365 98.5067 205.79 99.0045M150.961 109.429C149.424 109.653 147.768 109.974 145.992 110.392C145.944 111.329 145.884 112.517 145.813 113.956C146.269 114.155 146.748 114.409 147.249 114.717C147.592 114.904 147.796 115.096 147.862 115.293C148.028 116.186 148.156 116.936 148.246 117.545C148.55 118.946 148.895 120.185 149.28 121.262C149.587 122.169 149.942 122.985 150.344 123.711C150.501 124.032 150.661 124.329 150.824 124.603M150.961 109.429C151.58 107.932 152.514 106.534 153.761 105.234C154.065 104.96 154.294 104.727 154.447 104.533C154.701 104.283 154.867 104.01 154.945 103.713C155.028 103.36 154.973 102.874 154.779 102.255C154.762 102.148 154.729 102.05 154.681 101.959C154.394 100.95 154.225 99.9951 154.174 99.0954M150.824 124.603C150.865 124.664 150.892 124.729 150.904 124.796C151.106 125.055 151.304 125.313 151.496 125.571C152.121 126.358 152.818 127.038 153.587 127.611C154.912 128.537 156.421 129.138 158.117 129.416C159.8 129.712 161.479 129.636 163.153 129.189C164.75 128.752 166.242 128.039 167.629 127.048C167.926 126.841 168.215 126.628 168.494 126.409M150.824 124.603C150.817 124.669 150.81 124.744 150.801 124.829C150.85 126.585 150.881 127.868 150.893 128.678C151.118 132.069 151.58 135.043 152.281 137.598C152.342 137.842 152.411 138.092 152.49 138.347C152.751 139.145 153.015 139.924 153.28 140.683L153.544 140.896C153.592 141.072 153.651 141.24 153.721 141.399C155.035 144.284 157.043 147.144 159.743 149.98M168.494 126.409C169.271 125.889 169.857 125.373 170.252 124.861C170.669 124.324 171.018 123.746 171.3 123.127C171.548 122.753 171.75 122.317 171.906 121.819C172.006 121.487 172.087 121.162 172.148 120.845C172.273 120.458 172.376 120.054 172.457 119.634C172.575 119.133 172.658 118.651 172.705 118.189C172.81 117.534 172.891 117.071 172.947 116.801C173.08 116.339 173.286 115.955 173.564 115.651C173.959 115.33 174.472 115.158 175.102 115.137C175.809 115.124 176.575 115.264 177.402 115.558C177.617 116.712 177.819 117.718 178.008 118.574C178.082 118.963 178.172 119.343 178.277 119.715C178.349 119.846 178.39 120.003 178.4 120.185C178.456 120.295 178.495 120.423 178.518 120.568C179.141 122.392 179.975 123.876 181.02 125.02C181.569 125.609 182.186 126.143 182.87 126.622C182.955 126.631 183.015 126.651 183.05 126.683M168.494 126.409C167.944 126.943 167.615 127.647 167.507 128.52C167.446 129.304 167.594 130.042 167.952 130.735C167.978 130.757 167.99 130.782 167.987 130.81C168.213 131.3 168.54 131.643 168.967 131.838C169.372 132.07 169.851 132.181 170.405 132.171C170.99 132.126 171.542 132.035 172.061 131.898M183.05 126.683C183.296 127.07 183.485 127.451 183.618 127.826C183.823 128.247 183.945 128.588 183.985 128.849C184.115 129.252 184.097 129.669 183.929 130.099C183.795 130.571 183.564 130.918 183.237 131.142C182.906 131.298 182.501 131.4 182.02 131.446C181.388 131.571 180.692 131.671 179.932 131.746M197.576 96.2236C198.166 97.4353 199.081 98.5423 200.322 99.5445C201.287 100.347 202.532 101.112 204.058 101.839C204.836 102.242 205.371 102.544 205.665 102.746C206.248 103.1 206.668 103.509 206.925 103.974C207.296 104.535 207.486 105.192 207.495 105.944C207.563 106.484 207.531 107.219 207.398 108.147M160.009 89.6574C159.749 90.5253 159.617 91.3968 159.614 92.2719C159.61 92.4904 159.617 92.8432 159.634 93.3302C159.628 93.7579 159.562 94.0841 159.434 94.3089C159.255 94.5666 158.995 94.7874 158.652 94.9713C158.459 95.0942 158.133 95.2513 157.675 95.4424C156.481 96.0435 155.494 96.9371 154.716 98.1231C154.532 98.4373 154.351 98.7614 154.174 99.0954M160.009 89.6574C159.888 89.7306 159.794 89.8067 159.729 89.8857C159.694 89.9487 159.286 90.4923 158.505 91.5163C158.012 92.151 157.505 92.5893 156.985 92.8311M154.174 99.0954C153.803 99.9329 153.583 100.829 153.514 101.783C153.371 102.063 153.225 102.324 153.076 102.566C152.287 103.77 151.23 104.794 149.906 105.639C148.38 106.587 146.695 107.19 144.85 107.449C144.029 107.565 142.784 107.728 141.115 107.938C139.718 108.185 138.655 108.666 137.925 109.382L137.888 109.463M163.42 82.2839C163.338 84.1121 162.1 85.9744 159.706 87.8708C157.507 89.73 154.969 91.2215 152.093 92.3453C148.854 93.5654 147.219 94.1881 147.188 94.2134C145.404 94.9922 144.118 96.0216 143.33 97.3019M162.044 114.887C161.732 114.96 161.405 115.041 161.062 115.13C160.152 115.465 159.094 115.989 157.888 116.703M162.044 114.887C162.075 114.957 162.091 115.03 162.093 115.106C162.241 115.892 162.472 116.43 162.785 116.719C163.023 116.914 163.402 117.072 163.923 117.192C164.767 117.316 165.455 117.153 165.987 116.703C166.338 116.435 166.571 116.064 166.686 115.59M162.044 114.887C162.677 114.752 163.215 114.707 163.658 114.752C164.52 114.888 165.251 115.053 165.85 115.248C166.162 115.356 166.441 115.47 166.686 115.59M157.888 116.703C158.742 117.286 159.704 117.703 160.774 117.955C162.172 118.25 163.576 118.203 164.987 117.815C165.755 117.569 166.174 117.431 166.244 117.401C166.732 117.193 167.152 117.136 167.504 117.23C167.777 117.258 167.97 117.277 168.084 117.289C168.323 117.275 168.517 117.243 168.665 117.191C168.809 117.082 168.926 116.923 169.014 116.713C168.167 116.332 167.411 115.954 166.744 115.582L166.686 115.59M157.888 116.703C157.82 116.716 157.738 116.769 157.643 116.864M150.785 122.187C151.013 122.657 151.255 123.091 151.509 123.488C151.729 123.853 151.959 124.214 152.198 124.572C152.26 124.626 152.34 124.682 152.438 124.739C152.572 124.924 152.724 125.116 152.894 125.314C153.746 126.2 154.669 126.904 155.663 127.424C157.548 128.454 159.635 128.767 161.924 128.364C164.201 127.978 166.098 126.982 167.614 125.377C168.554 124.474 169.282 123.406 169.798 122.174C169.917 121.853 170.054 121.53 170.212 121.203C170.298 120.822 170.403 120.404 170.525 119.951C170.542 119.886 170.565 119.793 170.597 119.672C170.864 118.453 170.942 117.272 170.83 116.128C170.828 115.871 170.777 115.623 170.678 115.384C170.496 114.272 169.967 113.299 169.091 112.467C168.042 111.456 166.787 110.781 165.327 110.441C164.167 110.237 162.937 110.116 161.636 110.078C160.398 110.075 158.846 110.126 156.978 110.23C155.218 110.307 154.013 110.455 153.362 110.674C152.684 110.881 151.963 111.178 151.199 111.566C150.932 111.672 150.693 111.819 150.483 112.007M150.785 122.187C150.797 121.417 150.805 120.599 150.807 119.734C150.797 116.669 150.689 114.093 150.483 112.007M150.785 122.187C150.584 121.823 150.422 121.412 150.297 120.952C149.763 119.47 149.467 118.084 149.408 116.793C149.397 115.602 149.404 114.785 149.43 114.34C149.494 113.909 149.608 113.44 149.774 112.934C149.897 112.575 150.133 112.266 150.483 112.007M168.452 118.297C168.106 118.795 167.624 119.269 167.007 119.719C166.586 120.019 166 120.387 165.251 120.825C164.32 121.367 163.545 121.721 162.929 121.886C161.676 122.215 160.222 122.047 158.566 121.383M169.027 114.902C167.524 113.777 165.741 113.238 163.679 113.284C161.667 113.317 159.8 113.92 158.081 115.096M179.932 131.746C179.652 132.069 179.272 132.34 178.793 132.557C178.071 132.912 177.227 133.111 176.26 133.155C175.323 133.192 174.48 133.106 173.73 132.896C173.052 132.637 172.496 132.304 172.061 131.898M179.932 131.746C180.206 131.403 180.406 131.024 180.534 130.609M172.061 131.898C171.95 131.772 171.849 131.643 171.758 131.51M167.231 131.918C166.685 132.88 166.082 133.661 165.42 134.259C164.614 135.071 164.162 135.53 164.066 135.634C163.871 135.861 163.717 136.069 163.602 136.257C163.352 136.651 163.2 137.02 163.146 137.367M187.024 112.53C186.897 112.565 186.77 112.6 186.642 112.634C186.127 112.829 185.557 113.194 184.931 113.73C184.759 113.921 184.543 114.123 184.283 114.334C183.171 115.439 182.492 116.116 182.247 116.367C182.315 116.545 182.4 116.735 182.503 116.936C182.62 116.91 182.718 116.839 182.796 116.723C182.89 116.647 182.981 116.59 183.071 116.551C183.286 116.316 183.568 116.164 183.918 116.095C184.076 116.131 184.384 116.143 184.842 116.133C186.687 116.064 188.302 115.82 189.688 115.401C191.3 114.909 192.569 114.087 193.496 112.935M187.024 112.53C187.2 112.958 187.423 113.337 187.694 113.669C188.168 114.156 188.782 114.39 189.536 114.372C189.999 114.409 190.455 114.323 190.905 114.112C191.401 113.915 191.756 113.614 191.969 113.207C192.076 112.999 192.152 112.769 192.197 112.517M187.024 112.53C187.785 112.266 188.679 112.133 189.707 112.134C189.868 112.15 190.036 112.177 190.213 112.214C190.896 112.246 191.557 112.347 192.197 112.517M193.496 112.935C193.064 112.786 192.631 112.647 192.197 112.517M193.496 112.935C193.763 113.029 193.978 113.118 194.141 113.201M193.788 111.623C193.155 111.387 192.513 111.193 191.862 111.041C190.73 110.84 189.497 110.885 188.163 111.177C186.183 111.536 184.5 112.358 183.111 113.644M183.431 117.644C183.933 117.952 184.437 118.237 184.943 118.498C185.628 118.787 186.367 119.005 187.162 119.153C188.516 119.415 189.842 119.389 191.141 119.075C191.928 118.917 192.575 118.641 193.082 118.245M189.257 131.914C189.868 132.643 190.295 133.167 190.539 133.487C190.798 133.837 190.998 134.162 191.139 134.462C191.3 134.754 191.42 135.018 191.501 135.255C191.838 136.336 191.817 137.381 191.437 138.389M209.211 83.9813C209.698 85.2776 210.227 86.2928 210.8 87.027C211.526 88.0243 212.45 88.6325 213.57 88.8517M203.664 80.9592C203.772 81.389 203.93 82.3661 204.136 83.8907C204.341 85.1393 204.543 86.0972 204.742 86.7646C205.246 88.0722 206.052 89.1776 207.16 90.0806C208.302 91.0157 209.557 91.596 210.924 91.8214M210.727 96.8256C211.428 96.8592 212.051 97.1465 212.595 97.6874C213.095 98.2048 213.438 98.806 213.625 99.4913C213.931 100.693 213.74 102.044 213.054 103.544C212.812 104.042 212.483 104.656 212.066 105.384C211.521 106.337 211.176 106.963 211.031 107.262C210.767 107.797 210.588 108.197 210.494 108.463C210.365 108.983 210.317 109.449 210.351 109.862C210.441 110.471 210.761 111.027 211.309 111.53C211.753 111.937 212.306 112.26 212.967 112.499M219.748 114.348C220.08 115.486 220.678 116.622 221.542 117.757C222.228 118.598 223.156 119.53 224.328 120.554C225.631 121.687 226.59 122.551 227.205 123.146C227.64 123.552 228.03 123.925 228.376 124.265C228.973 124.859 229.471 125.429 229.873 125.974C230.702 127.087 231.285 128.269 231.624 129.522C232.017 130.894 232.067 132.179 231.773 133.377C231.55 134.067 231.147 134.883 230.566 135.822C230.271 136.373 229.823 137.169 229.222 138.212C228.705 139.167 228.39 140.058 228.277 140.884C228.171 141.92 228.374 142.783 228.884 143.473M215.965 116.431C216.476 117.292 216.715 118.22 216.68 119.216C216.644 120.221 216.361 121.124 215.831 121.927C215.446 122.525 214.688 123.332 213.555 124.349C212.407 125.335 211.67 126.164 211.344 126.835C211.237 127.043 211.12 127.259 210.992 127.484C210.705 128.245 210.599 129.095 210.675 130.035C210.756 131.1 211.065 132.221 211.602 133.399M207.709 115.444C208.096 116.787 207.988 118.265 207.385 119.879C207.065 120.864 206.402 122.181 205.395 123.829M212.201 120.271C210.882 121.906 209.842 123.741 209.082 125.776C208.836 126.502 208.632 127.238 208.47 127.983C208.185 129.286 208.059 130.61 208.093 131.955C208.113 134.089 208.52 136.162 209.314 138.175C210.138 140.172 211.254 141.927 212.661 143.441C214.014 145.017 215.377 145.798 216.749 145.786M206.488 131.449C206.575 132.181 206.615 133.232 206.608 134.601C206.654 136.014 206.686 137.059 206.702 137.737C207.03 140.206 207.838 142.04 209.125 143.237M218.582 131.072C218.387 131.67 218.183 132.087 217.968 132.322C217.758 132.52 217.478 132.643 217.13 132.693C216.781 132.762 216.459 132.739 216.166 132.623C215.643 132.522 215.181 132.337 214.78 132.068C214.32 131.631 214.065 131.195 214.014 130.762M220.473 135.761C220.475 136.123 220.399 136.444 220.247 136.723C220.104 137.004 219.895 137.23 219.62 137.401C219.2 137.787 218.607 138.045 217.841 138.176C216.695 138.401 215.8 138.3 215.158 137.873C214.304 137.377 213.778 136.562 213.58 135.428C213.448 134.672 213.492 133.63 213.714 132.301M223.86 131.84C224.284 132.625 224.434 133.535 224.309 134.569C224.22 135.445 223.947 136.34 223.492 137.255C222.674 138.922 221.602 140.092 220.276 140.766C219.179 141.253 217.909 141.337 216.465 141.018C215.484 140.833 214.277 140.343 212.844 139.549M222.205 122.179C223.228 123.063 224.096 123.98 224.809 124.928C225.125 125.379 225.422 125.824 225.701 126.261C226.754 127.882 227.306 129.518 227.356 131.169C227.483 132.448 227.327 133.831 226.889 135.318C226.651 136.255 226.185 137.597 225.492 139.343M232.013 137.598C231.12 138.41 230.587 139.574 230.413 141.088C230.313 142.068 230.476 143.359 230.903 144.964M225.436 143.948C224.931 145.067 224.144 145.876 223.074 146.376C222.029 146.906 220.923 147.06 219.756 146.836M218.986 160.374C219.586 160.75 219.962 161.535 220.116 162.731C220.213 163.274 220.226 163.751 220.156 164.162C220.002 164.641 219.647 165.086 219.091 165.495C218.688 165.711 218.189 165.888 217.594 166.027M212.682 147.283C213.046 147.73 213.737 148.328 214.756 149.08C215.786 149.804 216.479 150.436 216.833 150.976C217.355 151.648 217.725 152.5 217.943 153.531C218.128 154.235 218.261 155.167 218.343 156.326M204.456 139.591C204.303 141.736 204.589 143.782 205.314 145.731C206.144 147.852 207.383 149.52 209.03 150.735C209.486 151.115 210.99 151.963 213.541 153.28C215.431 154.254 216.718 155.27 217.4 156.33M203.336 145.657C203.44 147.342 203.999 148.951 205.014 150.482C205.921 151.85 207.132 153.096 208.645 154.222C209.88 155.09 210.793 155.75 211.385 156.2C212.457 156.985 213.27 157.749 213.822 158.491C214.588 159.387 215.058 160.42 215.234 161.589C215.432 162.818 215.197 163.86 214.529 164.715M182.578 181.189C182.32 181.477 182.074 181.78 181.842 182.099C181.782 182.312 181.718 182.519 181.65 182.722C181.591 182.925 181.529 183.114 181.463 183.288C181.048 184.464 180.643 185.54 180.247 186.518C180.091 186.93 179.943 187.31 179.802 187.657C179.714 187.867 179.615 188.095 179.504 188.34C178.429 190.943 177.284 193.29 176.07 195.383C175.798 195.907 175.523 196.403 175.247 196.869M182.578 181.189C182.613 181.126 182.662 181.065 182.725 181.005C183.39 180.178 184.101 179.418 184.858 178.725C185.131 178.477 185.399 178.228 185.662 177.979C185.668 178.208 185.713 178.413 185.8 178.593C185.857 178.684 185.943 178.779 186.056 178.876C186.292 179.09 186.562 179.142 186.869 179.03C187.149 178.992 187.4 178.866 187.622 178.65C187.974 176.231 187.98 174.4 187.641 173.157C187.486 172.532 187.242 171.984 186.909 171.512C186.776 171.327 186.619 171.178 186.441 171.065C186.265 170.923 186.071 170.817 185.859 170.748M209.881 158.759C210.545 159.34 210.949 160.186 211.093 161.295C211.195 161.79 211.187 162.194 211.069 162.506C210.941 162.921 210.742 163.286 210.472 163.601C210.206 163.868 209.883 164.092 209.503 164.272M208.416 170.856C208.148 171.618 207.958 172.217 207.847 172.653C207.658 173.29 207.596 173.893 207.662 174.461C207.707 175.046 207.888 175.598 208.207 176.116C208.205 176.134 208.213 176.145 208.232 176.147C208.557 176.694 209.001 177.058 209.563 177.239M220.867 144.352L219.846 144.975M169.81 157.132C167.137 155.707 165.112 154.511 163.735 153.542C162.952 153.005 162.39 152.539 162.05 152.142C161.832 151.949 161.603 151.764 161.364 151.587C160.8 151.044 160.26 150.508 159.743 149.98M169.81 157.132C170.227 156.594 170.634 156.06 171.031 155.53C173.343 152.75 175.283 150.821 176.85 149.744C177.925 149.007 179.73 148.264 182.263 147.514C183.681 147.059 184.87 146.648 185.832 146.28C186.187 147.363 186.175 148.418 185.794 149.445C185.437 150.417 184.773 151.372 183.801 152.31C182.875 153.177 181.656 154.242 180.146 155.505C178.998 156.492 178.086 157.26 177.411 157.809C177.401 157.818 177.139 158 176.627 158.357C176.647 158.349 176.661 158.346 176.671 158.347M169.81 157.132C169.097 158.058 167.914 159.703 166.263 162.065M176.671 158.347C176.774 158.358 176.738 158.43 176.563 158.565C174.76 160.274 173.322 161.992 172.251 163.719M172.251 163.719C172.391 163.562 172.5 163.426 172.578 163.31C174.326 161.861 175.577 160.89 176.333 160.397C177.24 159.719 177.963 159.26 178.502 159.02C179.319 158.57 180.058 158.422 180.718 158.575C181.779 158.722 182.703 159.511 183.49 160.943C183.644 161.396 183.805 162.05 183.975 162.905C184.13 163.625 184.277 164.473 184.415 165.448M172.251 163.719C171.806 164.064 171.472 164.301 171.25 164.43C170.672 164.771 170.19 164.879 169.802 164.753M184.415 165.448C184.508 165.562 184.587 165.722 184.652 165.929C184.684 166.075 184.731 166.227 184.791 166.385C185.099 167.378 185.381 168.477 185.639 169.684C185.703 169.9 185.746 170.128 185.769 170.368C185.794 170.494 185.824 170.621 185.859 170.748M184.415 165.448C184.278 165.11 184.164 164.875 184.073 164.742C183.779 164.455 183.268 164.327 182.541 164.357C181.742 164.447 180.712 164.974 179.451 165.94C179.37 165.988 179.304 166.034 179.252 166.076C178.769 166.417 178.304 166.774 177.857 167.147C176.753 167.976 175.692 168.853 174.674 169.776M185.859 170.748C185.793 170.741 185.717 170.734 185.633 170.725C185.443 170.715 185.227 170.736 184.983 170.787C184.727 170.875 184.468 171.034 184.206 171.264C184.021 171.398 183.824 171.558 183.614 171.746C183.376 171.931 183.129 172.111 182.874 172.284C182.531 172.563 182.196 172.857 181.869 173.167C181.305 173.661 180.755 174.19 180.221 174.754C179.822 175.122 179.448 175.522 179.099 175.952C178.961 176.09 178.811 176.251 178.65 176.434M159.743 149.98C159.616 150.566 159.519 151.094 159.452 151.563C159.419 151.702 159.396 151.838 159.382 151.97C159.219 152.914 159.154 153.507 159.186 153.748M149.186 130.288C149.08 133.189 149.498 135.991 150.441 138.695C150.818 139.751 151.256 140.776 151.755 141.769C152.026 142.282 152.319 142.774 152.632 143.244C154.166 145.665 155.022 147.023 155.201 147.317C156.021 148.895 156.404 150.362 156.351 151.717C156.341 152.001 156.187 152.766 155.888 154.01C155.858 154.122 155.826 154.247 155.793 154.386C155.521 155.557 155.47 156.47 155.641 157.125M159.186 153.748C159.197 153.74 159.221 153.737 159.258 153.741C160.629 153.653 162.011 153.594 163.404 153.565M159.186 153.748C159.224 154.218 159.253 154.773 159.273 155.413C159.197 156.623 159.257 157.528 159.453 158.129C159.585 158.694 159.887 159.282 160.358 159.891C160.527 160.099 160.99 160.603 161.746 161.404M161.746 161.404C162.101 159.984 162.386 158.633 162.603 157.352C162.626 157.316 162.64 157.265 162.647 157.199C162.712 156.844 162.802 156.62 162.916 156.527C163.058 156.351 163.213 156.272 163.383 156.29C163.977 156.16 164.546 156.28 165.089 156.649C165.537 157.019 165.89 157.516 166.15 158.143C166.298 158.557 166.421 159.036 166.518 159.579C166.611 160.064 166.674 160.608 166.708 161.211C165.611 162.717 164.547 164.231 163.515 165.752C162.77 166.808 162.05 167.886 161.357 168.986C161.176 169.262 160.995 169.544 160.813 169.83M161.746 161.404C161.584 161.967 161.418 162.559 161.25 163.18C160.845 164.632 160.384 166.155 159.869 167.749C159.819 167.868 159.768 167.991 159.717 168.119C159.599 168.43 159.486 168.79 159.378 169.198C159.189 169.74 159.007 170.363 158.83 171.069M150.066 145.436C150.423 146.415 150.646 147.913 150.735 149.93C150.779 152.009 150.923 153.541 151.165 154.527C151.163 154.546 151.169 154.575 151.184 154.614C151.271 154.975 151.678 155.935 152.404 157.494C152.948 158.606 153.254 159.57 153.323 160.386M158.83 171.069C158.582 172.004 158.316 173.067 158.033 174.256C158.026 174.322 158.02 174.383 158.014 174.439C157.831 175.106 157.652 175.697 157.476 176.211C157.442 176.912 157.29 177.753 157.018 178.734C156.921 179.124 156.774 179.632 156.576 180.259C156.472 180.629 156.373 180.99 156.28 181.342C156.029 182.306 155.807 183.501 155.613 184.928C155.553 185.331 155.472 185.846 155.37 186.473C155.292 187.046 155.207 187.741 155.114 188.559C155.077 188.727 155.06 188.896 155.062 189.068C154.841 190.206 154.596 191.39 154.327 192.618M157.341 166.206C156.594 166.434 155.791 166.566 154.93 166.602M189.705 199.632C189.68 200.438 189.769 201.342 189.971 202.342C190.04 202.692 190.259 203.58 190.627 205.007C191.077 206.661 191.535 207.907 192.002 208.745M159.344 249.741C160.542 248.921 162.033 248.355 163.817 248.043C164.989 247.849 166.616 247.729 168.696 247.685C173.897 247.579 178.167 247.725 181.506 248.124C186.157 248.647 190.238 249.716 193.748 251.331M202.149 251.033C202.559 250.932 202.956 250.825 203.339 250.712C205.521 250.041 207.648 248.893 209.719 247.268C211.707 245.701 213.713 243.641 215.735 241.088C217.494 238.88 218.843 236.858 219.783 235.022C220.967 232.669 221.648 230.379 221.828 228.151C222.082 226.131 222.357 224.099 222.651 222.055M222.651 222.055C222.579 222.114 222.507 222.164 222.436 222.204C222.535 221.891 222.644 221.569 222.763 221.238M222.651 222.055C222.679 221.782 222.717 221.51 222.763 221.238M222.651 222.055C225.005 220.268 227.624 218.966 230.507 218.147C233.569 217.252 236.619 216.997 239.655 217.384M222.763 221.238C223.937 212.832 225.326 204.272 226.931 195.558M222.763 221.238C224.467 216.027 226.74 211.025 229.582 206.234C232.838 200.743 236.716 195.739 241.215 191.223M214.813 199.8C209.922 203.592 205.174 207.741 200.571 212.247C199.452 213.322 198.742 214.263 198.44 215.07C198.344 215.269 198.327 215.481 198.39 215.707M217.566 246.371C216.887 248.824 216.108 250.994 215.229 252.884C214.531 254.497 214.119 255.501 213.993 255.898C213.598 257.056 213.44 258.096 213.517 259.018M226.583 222.999C225.547 229.031 226.948 235.635 230.785 242.812C231.465 244.081 232.511 245.962 233.922 248.457C235.069 250.649 235.865 252.6 236.309 254.311C236.913 256.504 237.014 258.636 236.612 260.708C236.173 262.956 235.181 264.744 233.636 266.07M212.131 263.073C212.045 263.54 211.943 264.633 211.824 266.353C211.734 267.704 211.571 268.787 211.335 269.6C211.244 269.933 211.087 270.45 210.863 271.15C210.788 271.419 210.737 271.68 210.711 271.934M210.711 271.934C210.974 271.876 211.236 271.831 211.496 271.8C212.409 271.722 213.431 271.784 214.562 271.985C215.188 272.106 216.195 272.366 217.582 272.765C217.75 272.801 217.918 272.833 218.087 272.86C221.253 273.649 225.19 274.87 229.897 276.522M210.711 271.934C209.916 272.072 209.184 272.34 208.515 272.738C207.544 273.295 206.842 274.013 206.409 274.892C203.79 275.176 200.53 275.304 196.629 275.277C192.247 275.19 188.971 275.155 186.798 275.171C181.813 275.213 177.468 275.664 173.762 276.522M138.689 271.552C140.329 271.806 141.949 272.262 143.548 272.92C143.796 273.012 144.033 273.112 144.26 273.221M144.26 273.221C145.727 273.866 147.109 274.649 148.405 275.572M144.26 273.221C143.439 274.736 142.821 276.5 142.405 278.512C142.167 279.725 141.921 281.575 141.667 284.061C141.323 287.423 141.191 289.974 141.27 291.714C141.378 294.009 141.797 296.017 142.526 297.737M148.405 275.572C148.66 275.588 148.934 275.611 149.226 275.641C153.419 275.898 155.816 275.963 156.42 275.834C158.478 275.454 160.76 275.112 163.267 274.807C163.999 274.729 164.632 274.68 165.168 274.659M148.405 275.572C148.84 275.882 149.268 276.212 149.69 276.559C149.751 276.613 149.817 276.663 149.889 276.708C150.852 277.53 151.577 278.075 152.064 278.344C153.001 278.868 153.875 279.028 154.686 278.826M165.168 274.659C165.824 274.573 166.67 274.679 167.706 274.975C168.955 275.331 169.792 275.531 170.216 275.574C170.628 275.645 171.25 275.709 172.082 275.765C172.816 275.85 173.376 276.102 173.762 276.522M165.168 274.659C165.444 274.658 165.69 274.669 165.907 274.691C166.88 274.772 167.675 275.043 168.295 275.506M173.762 276.522C171.634 277.028 169.712 277.664 167.996 278.43M142.526 297.737C139.938 298.548 137.005 298.976 133.724 299.021C131.894 299.044 129.61 298.929 126.875 298.678C126.658 297.628 126.475 296.582 126.324 295.539M157.132 65.9686C156.018 66.0546 154.932 66.3385 153.873 66.8203C152.823 67.3124 151.912 67.9806 151.14 68.8247C150.369 69.6594 149.766 70.6208 149.332 71.7087C148.88 72.7759 148.642 73.8934 148.617 75.0614M159.636 80.1701C158.511 81.1208 157.381 82.347 156.247 83.8488C155.476 84.8644 154.494 86.2723 153.301 88.0725C151.989 90.0985 150.071 91.72 147.547 92.9369C145.373 93.9898 142.873 94.7382 140.047 95.1821M145.49 80.2229C144.953 81.0054 144.226 81.8303 143.309 82.6977C142.78 83.2145 141.938 83.9087 140.782 84.7803C140.343 85.1636 139.966 85.4962 139.652 85.7781M139.652 85.7781C141.559 85.3736 143.43 84.6798 145.264 83.6968C147.479 82.4292 149.359 80.8467 150.905 78.9493M139.652 85.7781C138.988 86.3097 138.534 86.701 138.289 86.952C137.398 87.7553 136.664 88.5463 136.09 89.325C135.444 90.2391 134.983 91.2055 134.708 92.224C134.39 93.3716 134.357 94.4482 134.606 95.4538M139.652 85.7781C139.178 85.8439 138.705 85.9144 138.23 85.9896M153.472 95.4837C152.74 96.8649 151.569 97.9869 149.957 98.8499C148.5 99.5955 146.869 100.09 145.063 100.334C144.023 100.446 142.349 100.523 140.04 100.563C137.837 100.594 136.169 100.709 135.034 100.907M149.481 101.685C149.591 101.82 149.62 101.96 149.567 102.107C149.549 102.277 149.482 102.422 149.365 102.543C149.146 102.73 148.862 102.901 148.513 103.056C147.804 103.278 146.876 103.559 145.727 103.899C145.246 104.04 144.739 104.197 144.207 104.371C142.537 104.971 141.145 105.59 140.032 106.228C139.311 106.669 138.776 107.104 138.428 107.535C137.963 108.172 137.783 108.815 137.888 109.463M137.888 109.463C137.356 110.009 136.997 110.681 136.81 111.48C136.609 112.335 136.675 113.132 137.009 113.87M142.99 89.5878C141.893 90.5415 140.406 91.6788 138.528 92.9999M138.388 112.955C137.617 113.98 136.571 114.705 135.252 115.132C134.106 115.443 132.831 115.57 131.427 115.512C130.567 115.548 130 115.647 129.726 115.809C129.105 116.107 128.716 116.61 128.558 117.317C128.413 117.797 128.331 118.464 128.31 119.318M127.811 120.709C127.184 121.435 126.75 122.285 126.508 123.259C126.274 124.244 126.267 125.195 126.487 126.112C126.576 126.549 126.867 127.383 127.36 128.613C127.428 128.791 127.486 128.964 127.536 129.131C127.861 129.954 128.033 130.647 128.052 131.21C128.133 131.904 128.027 132.573 127.732 133.219C127.446 133.875 127.036 134.442 126.501 134.92C126.316 135.053 126.057 135.265 125.722 135.554C125.372 135.813 125.14 136.075 125.028 136.34C124.635 136.918 124.547 137.784 124.762 138.939C125.01 140.334 125.219 141.364 125.389 142.029M143.819 110.969C143.861 112.601 143.443 114.18 142.563 115.708C141.689 117.179 140.547 118.338 139.137 119.183C137.701 119.997 136.126 120.412 134.41 120.427C132.687 120.422 131.123 119.982 129.718 119.105M138.672 104.162C138.26 104.653 137.899 105.068 137.588 105.408C137.249 105.839 136.989 106.193 136.808 106.47C136.168 107.327 135.755 108.203 135.568 109.098M144.551 118.48C144.611 119.381 144.484 120.253 144.169 121.096C143.826 121.937 143.333 122.657 142.691 123.258C141.908 124.024 140.509 124.766 138.493 125.483C136.466 126.218 135.077 126.952 134.326 127.684C134.272 127.745 134.208 127.805 134.136 127.864C133.227 128.837 132.691 130.029 132.528 131.44C132.376 132.918 132.618 134.332 133.251 135.681M142.048 129.272C140.718 130.079 139.768 130.805 139.197 131.45C138.219 132.445 137.663 133.458 137.529 134.492C137.399 135.116 137.423 135.713 137.603 136.283C137.737 136.935 138.047 137.437 138.535 137.792M144.758 132.247C144.5 132.621 144.139 133.126 143.674 133.764C143.22 134.383 142.868 134.895 142.618 135.297C141.911 136.529 141.597 137.691 141.676 138.784M145.019 136.813C145.119 137.794 145.106 138.758 144.981 139.707C144.921 140.29 144.818 140.875 144.673 141.459C144.528 142.044 144.33 142.623 144.081 143.197C143.734 144.075 143.288 144.905 142.741 145.687C142.547 145.905 142.055 146.535 141.262 147.577C140.607 148.309 140.137 148.946 139.853 149.488C139.078 150.922 138.801 152.464 139.023 154.114C139.149 155.021 139.407 155.851 139.797 156.605C140.131 157.248 140.543 157.833 141.032 158.358M131.593 134.013C130.552 134.516 129.838 135.442 129.452 136.792C129.213 137.643 129.136 138.82 129.22 140.322C129.294 141.186 129.418 141.927 129.593 142.544C129.687 142.83 129.779 143.096 129.868 143.343C130.321 144.313 130.999 145 131.9 145.406M129.42 144.796C129.243 145.13 129.165 145.517 129.187 145.957C129.192 146.091 129.215 146.236 129.257 146.392C129.357 146.898 129.563 147.399 129.874 147.897C130.092 148.281 130.413 148.728 130.837 149.237C131.368 149.91 131.718 150.35 131.888 150.558C132.99 152.07 133.485 153.79 133.374 155.72C133.346 155.993 133.233 156.814 133.036 158.183C133.021 158.334 133.006 158.48 132.992 158.621C132.9 159.421 132.903 160.092 133 160.635C133.167 161.518 133.59 162.313 134.27 163.02C134.992 163.693 135.812 164.105 136.729 164.256M143.424 152.422C143.214 153.638 143.091 154.563 143.055 155.197C143.049 155.434 143.055 155.658 143.072 155.869C143.095 156.661 143.186 157.356 143.344 157.952C143.93 159.763 145.308 161.336 147.476 162.671M137.744 158.379C137.757 160.027 138.027 161.206 138.554 161.916C138.948 162.442 139.481 162.858 140.155 163.165C140.616 163.402 141.265 163.621 142.102 163.82M147.844 159.626C147.846 160.72 148.179 161.749 148.843 162.711C149.473 163.717 150.281 164.433 151.266 164.857M105.555 276.116C104.959 276.265 104.172 276.417 103.195 276.574C101.801 276.793 100.761 277.139 100.075 277.611C98.8749 278.45 98.0631 280.103 97.6394 282.572C97.3332 284.73 97.3001 287.196 97.5403 289.97C97.5791 290.336 97.6215 290.759 97.6676 291.239M97.6676 291.239C98.0634 289.976 98.5183 288.833 99.0323 287.81C99.8552 286.001 100.874 284.602 102.09 283.612C102.797 283.028 103.565 282.636 104.395 282.435C105.314 282.205 106.171 282.207 106.966 282.441M97.6676 291.239C97.8463 292.752 98.1455 294.809 98.5651 297.412C98.7169 298.255 98.8252 298.78 98.8898 298.986C99.0601 299.556 99.2788 300.025 99.5457 300.395C100.237 301.36 101.244 301.944 102.566 302.146M102.566 302.146C102.342 301.457 102.281 300.608 102.384 299.601C102.54 297.609 102.863 295.515 103.354 293.319C103.698 291.727 104.206 290.575 104.879 289.864C105.476 289.24 106.308 288.83 107.375 288.635C108.056 288.495 109.029 288.433 110.294 288.448M102.566 302.146C102.847 302.193 103.154 302.215 103.488 302.211C104.134 302.23 104.861 302.152 105.669 301.977C105.863 301.94 106.145 301.883 106.515 301.807M126.324 295.539C125.587 295.854 124.619 296.054 123.42 296.141C121.842 296.303 120.592 296.375 119.67 296.357C118.295 296.302 117.093 296.046 116.063 295.589C115.395 295.235 114.897 294.98 114.57 294.823C113.978 294.562 113.439 294.431 112.954 294.429C112.184 294.417 111.411 294.709 110.636 295.305C109.603 295.999 108.714 297.012 107.968 298.344C107.469 299.226 106.984 300.38 106.515 301.807M126.324 295.539C125.98 293.134 125.814 290.705 125.826 288.251C125.847 285.351 126.104 282.503 126.599 279.709M106.515 301.807C106.465 301.916 106.418 302.049 106.374 302.207M193.343 108.851C190.139 108.981 187.278 109.44 184.76 110.229C183.003 110.744 181.644 111.414 180.684 112.239C180.119 112.733 179.674 113.316 179.348 113.987C178.952 114.698 178.782 115.423 178.84 116.162C178.855 116.201 178.861 116.24 178.857 116.278C178.957 116.973 179.125 117.656 179.361 118.327C179.449 118.679 179.569 119.043 179.721 119.42C179.825 119.707 179.939 119.995 180.061 120.283C180.366 120.847 180.696 121.437 181.052 122.054C182.185 124.007 183.479 125.367 184.934 126.134C185.981 126.602 186.946 126.901 187.828 127.029C188.204 127.077 188.553 127.113 188.874 127.136C190.049 127.094 191.361 126.929 192.81 126.639C193.636 126.476 194.46 126.146 195.282 125.65C195.893 125.265 196.484 124.793 197.055 124.233C197.298 124 197.529 123.743 197.748 123.461C198.024 123.09 198.307 122.705 198.595 122.306C199.087 121.5 199.457 120.629 199.705 119.693C199.739 119.544 199.781 119.411 199.831 119.292C200.142 118.02 200.358 116.8 200.477 115.633C200.509 115.322 200.539 115.021 200.569 114.729C200.55 114.641 200.556 114.532 200.588 114.402C200.627 112.998 200.365 111.701 199.801 110.511C198.896 109.762 197.69 109.262 196.183 109.013C195.32 108.887 194.373 108.833 193.343 108.851Z" stroke="#8C8C8C" stroke-width="0.391065" stroke-linecap="round" stroke-linejoin="round"/>
<path d="M197.747 99.4369C197.82 99.3777 197.884 99.3081 197.94 99.2282M197.747 99.4369C194.914 98.2718 192.384 98.2892 190.157 99.4889C189.911 99.5684 189.321 99.8841 188.389 100.436C187.727 100.854 187.156 101.085 186.675 101.131C186.437 101.221 186.091 101.348 185.637 101.511C185.289 101.646 185.065 101.837 184.964 102.084C184.758 102.605 184.928 103.041 185.473 103.392C185.654 103.573 186.068 103.624 186.714 103.548C187.388 103.379 188.35 102.863 189.6 102.001C190.895 101.163 191.902 100.676 192.62 100.54C192.967 100.414 193.89 100.375 195.389 100.423C196.456 100.418 197.242 100.089 197.747 99.4369Z" stroke="#8C8C8C" stroke-width="0.391065" stroke-linecap="round" stroke-linejoin="round"/>
<path d="M155.393 108.382C155.28 108.37 155.183 108.337 155.103 108.281M155.393 108.382C157.911 106.098 160.475 105.009 163.083 105.114C163.38 105.097 164.073 105.12 165.161 105.184C165.943 105.264 166.598 105.236 167.127 105.099C167.378 105.058 167.74 105.01 168.213 104.953C168.578 104.924 168.865 105.001 169.075 105.184C169.484 105.559 169.459 106.032 169.001 106.604C168.91 106.842 168.489 107.051 167.737 107.231C167.02 107.358 165.885 107.327 164.333 107.14C162.817 106.966 161.688 106.97 160.946 107.151C160.543 107.186 159.614 107.562 158.16 108.279C157.044 108.669 156.122 108.704 155.393 108.382Z" stroke="#8C8C8C" stroke-width="0.391065" stroke-linecap="round" stroke-linejoin="round"/>
<path d="M191.576 139.857C191.089 139.684 190.764 139.651 190.6 139.758C190.45 139.733 190.357 139.714 190.32 139.7C189.444 140.267 188.766 140.75 188.287 141.148C187.326 141.697 186.418 142.061 185.562 142.24C184.675 142.435 183.589 142.628 182.303 142.82C180.855 143.006 179.612 143.15 178.573 143.253C177.426 143.393 176.613 143.523 176.133 143.646C175.574 143.627 174.899 143.7 174.111 143.867C173.209 143.937 172.153 143.834 170.943 143.558C169.556 143.159 168.526 142.987 167.853 143.042C167.33 143.131 166.904 143.25 166.575 143.397C166.761 143.245 166.973 143.128 167.21 143.048L167.238 143.051L167.27 143.025C170.462 140.773 173.387 139.363 176.043 138.798C177.672 138.793 179.601 138.552 181.831 138.076C185.257 138.16 188.086 138.683 190.319 139.643L190.355 139.647L190.381 139.664C190.411 139.562 190.484 139.593 190.6 139.758M190.319 139.643C190.298 139.635 190.299 139.654 190.32 139.7C187.062 139.529 183.344 139.806 179.166 140.53C175.933 140.856 172.162 141.694 167.853 143.042C167.599 142.941 167.405 142.935 167.27 143.025" stroke="#8C8C8C" stroke-width="0.391065" stroke-linecap="round" stroke-linejoin="round"/>
<path d="M156.038 190.293C155.317 191.856 154.212 194.094 152.724 197.006C152.713 197.024 152.705 197.051 152.701 197.089C153.011 197.502 153.378 197.924 153.8 198.358C154.682 199.323 155.881 200.355 157.397 201.452C157.45 201.495 157.508 201.53 157.572 201.555C159.7 203.095 161.998 204.563 164.464 205.957C164.508 205.999 164.571 206.034 164.654 206.062C165.322 206.415 165.999 206.784 166.683 207.168C166.83 207.221 166.944 207.276 167.024 207.331C167.101 207.13 167.173 206.938 167.24 206.754C167.63 205.823 167.98 204.917 168.289 204.035C168.359 203.909 168.403 203.804 168.421 203.72C169.161 203.092 169.917 202.455 170.687 201.811C171.227 201.371 171.794 200.949 172.388 200.543C174.081 199.26 175.713 197.738 177.283 195.976M170.977 208.478C170.608 208.459 170.192 208.426 169.73 208.379C169.415 208.299 169.09 208.214 168.757 208.122C168.339 207.927 167.761 207.664 167.024 207.331M115.277 170.269C106.296 186.394 101.476 195.593 100.815 197.866C100.893 199.054 100.97 200.442 101.046 202.029C101.234 205.408 101.358 207.504 101.417 208.319C101.547 211.615 101.47 215.214 101.185 219.115C101.013 221.172 100.802 222.815 100.553 224.046C100.242 225.594 99.6174 227.7 98.6786 230.363C98.4291 231.128 98.1999 231.832 97.9912 232.477C97.8215 232.926 97.6801 233.378 97.567 233.832C97.5016 234.006 97.429 234.204 97.3494 234.424C97.0716 235.185 96.8202 235.921 96.5953 236.631C95.4829 240.247 95.0317 243.869 95.2418 247.497C95.3568 248.794 95.3963 249.759 95.36 250.393C95.3269 250.903 95.247 251.452 95.1204 252.038C95.1089 252.151 94.9905 252.61 94.7654 253.415C94.7568 253.5 94.7415 253.603 94.7195 253.724C94.3616 255.363 94.1816 256.705 94.1793 257.751C94.1525 258.853 94.3622 259.735 94.8086 260.399C96.4214 262.601 98.1925 265.07 100.122 267.808C100.154 267.868 100.189 267.943 100.227 268.033C101.056 269.06 101.88 270.172 102.7 271.369C103.143 271.88 103.567 272.438 103.972 273.04C106.094 275.475 108.576 277.465 111.418 279.011C112.364 279.536 113.359 280.004 114.402 280.416C116.85 281.341 119.334 281.819 121.855 281.848C123.881 281.865 125.952 281.596 128.065 281.041C128.525 280.917 128.976 280.792 129.418 280.666C133.356 279.403 136.884 277.394 140.004 274.639C141.196 272.192 142.496 269.494 143.902 266.545C144.135 266.036 144.372 265.537 144.612 265.048L152.286 248.661C154.76 243.461 156.651 239.263 157.959 236.066C157.985 235.992 158.017 235.915 158.054 235.833C158.784 235.118 159.438 234.219 160.015 233.136C160.421 232.33 160.912 231.21 161.487 229.775C162.657 226.897 163.731 224.452 164.708 222.439C164.993 221.888 165.26 221.373 165.509 220.894C167.111 217.698 168.824 214.966 170.646 212.698C171.574 211.536 172.169 210.788 172.432 210.454C172.471 210.353 172.534 210.25 172.621 210.145C172.832 209.757 172.859 209.303 172.703 208.783C172.617 208.603 172.491 208.385 172.327 208.13C172.273 208.001 172.191 207.874 172.08 207.748C171.982 207.596 171.865 207.436 171.729 207.27C170.623 205.977 169.521 204.794 168.421 203.72M153.835 193.679C153.394 193.53 152.927 193.387 152.436 193.251C152.186 193.187 151.928 193.194 151.663 193.272C151.313 193.341 150.939 193.645 150.541 194.185L150.2 194.592C149.893 195.075 149.58 195.576 149.26 196.095C148.23 197.788 147.211 199.468 146.203 201.135C146.123 201.26 146.05 201.372 145.983 201.47C144.407 204.125 142.862 206.755 141.348 209.36C139.688 212.283 138.068 215.182 136.489 218.056C136.359 218.3 136.23 218.539 136.101 218.773M152.701 197.089C152.667 197.048 152.652 197.013 152.655 196.985C152.597 196.893 152.524 196.771 152.435 196.619C151.964 195.82 151.637 194.973 151.452 194.078M150.318 198.601C149.801 199.662 149.272 200.731 148.734 201.808C146.257 206.75 143.488 211.582 140.424 216.303C139.956 217.064 139.573 217.648 139.274 218.055C138.831 218.666 138.386 219.154 137.939 219.517M153.304 201.533C152.97 201.908 152.625 202.306 152.268 202.726C151.957 203.16 151.63 203.607 151.288 204.067C150.901 204.684 150.304 205.637 149.496 206.924C144.621 215.028 141.497 220.247 140.125 222.581M157.668 205.647C156.165 208.434 154.616 211.145 153.023 213.78C150.274 218.323 147.403 222.654 144.411 226.773M169.421 211.131C167.097 214.671 165.049 218.315 163.275 222.064C162.473 223.762 161.723 225.512 161.024 227.315C160.341 229.063 159.85 230.231 159.552 230.819C158.906 232.104 158.219 233.104 157.488 233.82M166.928 208.549C164.383 212.486 161.998 216.671 159.773 221.107C159.505 221.679 159.223 222.25 158.927 222.819C157.642 225.609 156.783 227.396 156.351 228.179C155.3 230.165 154.168 231.739 152.955 232.899M156.83 235.508L153.45 234.62C152.625 234.402 151.997 234.167 151.565 233.914C150.92 233.61 150.464 233.187 150.195 232.646C150.148 232.451 150.03 232.163 149.841 231.782C149.737 231.495 149.599 231.257 149.428 231.069C149.153 230.869 148.655 230.852 147.934 231.016C147.302 231.142 146.855 231.177 146.594 231.122C146.519 231.114 146.459 231.098 146.413 231.075C146.026 230.949 145.643 230.506 145.264 229.744C144.878 228.953 144.509 228.51 144.157 228.417C144.055 228.388 143.748 228.366 143.235 228.352C142.866 228.419 142.618 228.331 142.491 228.09C142.349 227.98 142.249 227.613 142.189 226.989C142.16 226.434 142.05 226.113 141.859 226.027C141.716 225.841 141.479 225.779 141.149 225.84C140.719 225.854 140.486 225.858 140.448 225.854C140.106 225.753 139.799 225.403 139.527 224.804C139.079 223.968 138.825 223.524 138.763 223.47C138.564 223.278 138.265 223.086 137.865 222.893C137.402 222.579 137.092 222.357 136.934 222.226C136.597 221.983 136.395 221.672 136.329 221.294C136.208 220.796 136.273 220.356 136.521 219.972M162.39 208.085C157.669 215.986 153.13 223.168 148.775 229.632M117.488 171.837C122.077 175.846 125.505 181.116 127.77 187.647C129.627 192.861 130.797 199.071 131.279 206.276M136.509 202.485C136.937 201.092 137.653 199.629 138.658 198.095C139.312 197.096 140.295 195.773 141.605 194.128M132.91 205.415C134.167 199.824 134.946 195.56 135.246 192.622C135.754 187.839 135.526 183.596 134.562 179.891M111.939 199.431C110.84 199.1 109.738 199.021 108.635 199.194C107.414 199.402 106.349 199.897 105.441 200.68M116.481 210.887C116.088 210.542 115.52 210.041 114.778 209.385C114.123 208.709 113.566 208.205 113.104 207.872C111.651 206.81 110.212 206.268 108.786 206.246C107.982 206.192 107.177 206.334 106.371 206.67C105.533 207.041 104.818 207.568 104.224 208.249M111.666 214.962C110.647 214.496 109.859 214.192 109.302 214.049C108.433 213.789 107.617 213.625 106.853 213.556C106.135 213.502 105.547 213.566 105.091 213.747C104.376 214.122 103.93 214.623 103.751 215.252M124.226 234.616C120.736 235.687 117.303 237.268 113.928 239.359C112.538 240.197 111.172 241.123 109.831 242.137C107.7 243.699 105.673 245.457 103.749 247.411M136.489 218.056C135.758 218.314 135.022 218.71 134.282 219.243C134.012 219.463 133.754 219.699 133.51 219.95C133.512 220.578 133.524 221.202 133.547 221.823M133.51 219.95C132.774 220.626 132.087 221.388 131.448 222.237C130.833 223.03 130.232 223.973 129.645 225.064C129.547 225.273 129.439 225.49 129.321 225.716C128.815 226.749 128.272 228.007 127.692 229.489C126.713 231.987 125.788 234.657 124.917 237.499C124.324 239.294 123.761 241.168 123.228 243.121C122.33 246.408 121.638 249.596 121.151 252.686M124.917 237.499C124.283 238.014 123.681 238.595 123.11 239.241C122.466 240.051 121.726 241.098 120.89 242.383C120.683 242.723 120.446 243.094 120.176 243.494C118.697 243.895 117.221 244.596 115.747 245.597C115.365 245.796 114.969 245.945 114.559 246.046C112.911 247.353 111.53 248.292 110.414 248.863C108.345 251.963 106.599 253.911 105.175 254.707C104.209 255.208 103.4 255.211 102.746 254.716M134.718 202.816C133.775 208.505 133.372 214.216 133.51 219.95M100.122 267.808C100.021 267.96 99.9096 268.115 99.7886 268.274" stroke="#8C8C8C" stroke-width="0.391065" stroke-linecap="round" stroke-linejoin="round"/>
</g>
</g>
</g>
<defs>

<clipPath id="clip0_1644_2388">
<rect x="12.1719" y="10.4474" width="324.013" height="301.128" rx="10.2383" fill="white"/>
</clipPath>
<clipPath id="clip1_1644_2388">
<rect width="544.507" height="306.072" fill="white" transform="translate(-73.0156 10.4474) rotate(5.83624)"/>
</clipPath>
</defs>
</svg>
