<svg width="1401" height="2171" viewBox="0 0 1401 2171" fill="none" xmlns="http://www.w3.org/2000/svg">
<path d="M1484.97 594.175H858.465V1618.16H1484.97V1291.62H1096.09V1168.31H1348.38V1043.83H1095.9V920.619H1484.87L1484.97 594.175ZM1169.76 -66.1377C859.228 -65.3357 561.687 58.5935 342.397 278.469C123.108 498.345 -0.0268892 796.216 1.81411e-05 1106.75C-0.0489557 1385.29 99.0609 1654.74 279.58 1866.86C460.099 2078.98 710.236 2219.91 985.193 2264.4C991.837 2139.63 1004.34 1998.34 1027.6 1907.57V1906.2C1027.6 1905.71 1027.6 1905.52 1026.62 1905.03C1026.62 1904.54 1025.64 1904.35 1025.45 1904.15C1025.45 1903.96 1024.47 1903.96 1024.08 1903.96H989.297C763.884 1903.96 408.616 1871.42 313.546 1566.86C171.087 1113.3 511.405 949.931 653.962 1081.25C653.962 1081.64 655.134 1082.03 655.818 1082.03C656.665 1082.1 657.317 1081.94 657.773 1081.54C658.684 1081.09 659.173 1080.57 659.238 1079.98V1077.93C627.776 985.595 449.361 406.966 917.188 247.799C1315.84 114.036 1705.69 393.482 1646.19 762.233V763.895C1646.19 764.578 1647.17 765.067 1647.36 765.262C1647.36 765.458 1648.54 765.751 1648.93 765.751C1648.93 765.751 1650.1 765.556 1650.49 765.262C1679.61 741.226 1807.12 649.38 1935.7 750.802C2057.54 846.751 2018.17 1115.25 1776.73 1239.64C1775.88 1239.83 1775.23 1240.29 1774.77 1241V1243.25C1774.77 1244.23 1775.75 1244.62 1776.24 1245.21C1777.15 1245.6 1777.9 1245.63 1778.49 1245.3C1934.43 1221.95 2200.2 1361.87 1984.65 1672.78C1843.27 1877.96 1524.45 1903.86 1381.99 1903.86H1277.34C1277.34 1903.86 1276.36 1903.86 1276.17 1904.05C1276.17 1904.25 1275.19 1904.54 1275 1904.74C1275 1904.93 1275 1905.23 1274.02 1905.62V1906.79C1271.97 1980.17 1306.36 2131.91 1341.73 2267.14C1620.47 2226.48 1875.26 2086.83 2059.48 1873.74C2243.71 1660.64 2345.06 1388.34 2345 1106.66C2345 952.642 2314.67 800.137 2255.73 657.847C2196.79 515.557 2110.4 386.269 2001.5 277.365C1892.59 168.462 1763.31 82.0742 1621.02 23.1359C1478.73 -35.8025 1326.22 -66.1377 1172.21 -66.1377H1169.28H1169.76Z" fill="white" fill-opacity="0.75"/>
</svg>
