<svg width="91" height="91" viewBox="0 0 91 91" fill="none" xmlns="http://www.w3.org/2000/svg">
<rect width="91" height="91" rx="9.22297" fill="#4CA064"/>
<path d="M68.25 15.167H79.625" stroke="white" stroke-width="5.50919" stroke-linecap="round" stroke-linejoin="round"/>
<path d="M37.9167 79.625C38.9223 79.625 39.8867 79.2255 40.5978 78.5145C41.3089 77.8034 41.7083 76.8389 41.7083 75.8333C41.7083 74.8277 41.3089 73.8633 40.5978 73.1522C39.8867 72.4411 38.9223 72.0417 37.9167 72.0417C36.9111 72.0417 35.9466 72.4411 35.2356 73.1522C34.5245 73.8633 34.125 74.8277 34.125 75.8333C34.125 76.8389 34.5245 77.8034 35.2356 78.5145C35.9466 79.2255 36.9111 79.625 37.9167 79.625ZM53.0833 18.9583C54.0889 18.9583 55.0534 18.5589 55.7644 17.8478C56.4755 17.1367 56.875 16.1723 56.875 15.1667C56.875 14.1611 56.4755 13.1966 55.7644 12.4856C55.0534 11.7745 54.0889 11.375 53.0833 11.375C52.0777 11.375 51.1133 11.7745 50.4022 12.4856C49.6911 13.1966 49.2917 14.1611 49.2917 15.1667C49.2917 16.1723 49.6911 17.1367 50.4022 17.8478C51.1133 18.5589 52.0777 18.9583 53.0833 18.9583Z" fill="white" stroke="white" stroke-width="5.50919" stroke-linecap="round" stroke-linejoin="round"/>
<path d="M37.9167 75.8337C37.9167 75.8337 62.5625 66.3545 45.5 45.5003C28.4375 24.6462 53.0833 15.167 53.0833 15.167M11.375 75.8337H22.75" stroke="white" stroke-width="5.50919" stroke-linecap="round" stroke-linejoin="round"/>
</svg>
