<svg width="120" height="120" viewBox="0 0 120 120" fill="none" xmlns="http://www.w3.org/2000/svg">
<path d="M112.436 53.358L66.5966 7.51565C64.8368 5.76617 62.4561 4.78418 59.9745 4.78418C57.493 4.78418 55.1123 5.76617 53.3525 7.51565L7.51284 53.358C5.76328 55.1177 4.78125 57.4983 4.78125 59.9797C4.78125 62.4611 5.76328 64.8417 7.51284 66.6015L53.3572 112.439C56.9981 116.08 62.9509 116.08 66.6013 112.439L112.446 66.5968C114.189 64.8357 115.167 62.4577 115.167 59.9797C115.167 57.5017 114.189 55.1238 112.446 53.3626L112.436 53.358ZM56.2446 29.4634C57.2711 28.3528 58.5877 27.7975 60.1945 27.7975C62.6046 27.7975 63.1147 28.3497 64.1443 29.4494C65.1739 30.5476 65.6887 31.9281 65.6887 33.5909C65.6887 35.0229 65.216 39.8305 64.2707 48.0137C63.3347 56.2032 62.4923 64.1119 61.7903 71.7492H58.4348C57.8077 64.1088 57.0277 56.197 56.0949 48.0137C55.1651 39.8274 54.7003 35.0198 54.7003 33.5909C54.7003 31.9561 55.2151 30.5834 56.2446 29.4728V29.4634ZM64.3409 89.4571C63.1803 90.5802 61.7981 91.1418 60.1945 91.1418C57.789 91.1418 57.2087 90.5802 56.0528 89.4571C54.8984 88.3246 54.3212 86.9566 54.3212 85.353C54.3212 82.9477 54.8968 82.3674 56.0528 81.2115C57.2134 80.0509 58.5955 79.4706 60.1992 79.4706C62.6046 79.4706 63.1849 80.0509 64.3409 81.2115C65.5077 82.3658 66.0896 83.7463 66.0865 85.353C66.0818 87.7631 65.5062 88.3246 64.3456 89.4524L64.3409 89.4571Z" fill="#4CA064"/>
</svg>
