<svg width="121" height="147" viewBox="0 0 121 147" fill="none" xmlns="http://www.w3.org/2000/svg">
<path d="M40.9317 142.972C33.5674 150.562 20.7142 146.244 12.5348 136.039C1.67409 122.491 -2.25761 96.8312 1.24354 73.9488L40.9317 142.972V142.972ZM49.4935 134.222C44.7255 132.001 25.5706 121.159 33.1549 82.6736C21.0048 73.9175 3.56892 67.3323 2.45305 65.9042C2.45305 65.9042 2.49856 68.2193 1.93985 72.7584L43.1733 140.248C44.1977 138.035 46.9138 136.269 49.4935 134.222ZM36.4708 111.402C40.5364 126.079 47.7297 127.814 53.0323 131.444L106.875 5.15947H107.512L57.5232 135.638C62.5927 140.878 69.3554 146.147 79.5052 143.639C121.346 135.446 130.898 61.4393 108.265 0C81.6491 20.0144 61.7306 30.8065 48.7362 51.9944C38.6296 68.4739 30.7892 91.6815 36.4708 111.402Z" fill="#199E3F"/>
</svg>
