<svg width="2249" height="968" viewBox="0 0 2249 968" fill="none" xmlns="http://www.w3.org/2000/svg">
<ellipse cx="271.185" cy="465.006" rx="172.029" ry="167.522" fill="black"/>
<ellipse cx="756.474" cy="458.993" rx="172.029" ry="167.522" fill="black"/>
<ellipse cx="1264.3" cy="218.606" rx="172.029" ry="167.522" fill="black"/>
<ellipse cx="1270.31" cy="727.934" rx="172.029" ry="167.522" fill="black"/>
<path d="M301.773 341.475H236.581C229.274 341.475 223.344 347.392 223.344 354.712V511.564C223.344 518.871 229.261 524.802 236.581 524.802H301.773C309.08 524.802 315.011 518.884 315.011 511.571V354.712C315.011 351.201 313.616 347.834 311.133 345.352C308.651 342.869 305.284 341.475 301.773 341.475ZM262.568 356.037H275.793C276.436 356.037 276.97 356.552 276.97 357.195C276.97 357.838 276.436 358.353 275.786 358.353H262.568C261.925 358.353 261.397 357.838 261.397 357.195C261.397 356.552 261.912 356.037 262.555 356.037H262.568ZM253.338 354.712C253.952 354.712 254.541 354.956 254.975 355.391C255.409 355.825 255.653 356.414 255.653 357.028C255.653 357.642 255.409 358.231 254.975 358.665C254.541 359.1 253.952 359.344 253.338 359.344C252.723 359.344 252.134 359.1 251.7 358.665C251.266 358.231 251.022 357.642 251.022 357.028C251.022 356.414 251.266 355.825 251.7 355.391C252.134 354.956 252.723 354.712 253.338 354.712ZM269.18 518.19C267.964 518.19 266.76 517.95 265.636 517.484C264.512 517.019 263.491 516.337 262.631 515.477C261.771 514.617 261.088 513.595 260.623 512.472C260.157 511.348 259.918 510.143 259.918 508.927C259.918 507.711 260.157 506.506 260.623 505.382C261.088 504.259 261.771 503.238 262.631 502.377C263.491 501.517 264.512 500.835 265.636 500.37C266.76 499.904 267.964 499.664 269.18 499.664C271.637 499.664 273.993 500.64 275.73 502.377C277.467 504.114 278.443 506.47 278.443 508.927C278.443 511.384 277.467 513.74 275.73 515.477C273.993 517.214 271.637 518.19 269.18 518.19ZM310.045 491.701C310.045 492.228 309.837 492.733 309.465 493.107C309.094 493.48 308.59 493.692 308.064 493.695H230.291C229.764 493.692 229.26 493.48 228.889 493.107C228.518 492.733 228.309 492.228 228.309 491.701V373.906C228.309 372.813 229.197 371.912 230.291 371.912H308.057C309.151 371.912 310.051 372.813 310.051 373.906V491.701H310.045Z" fill="white"/>
<path d="M272.125 201.146C270.364 199.386 267.511 199.386 265.75 201.146L237.066 229.83C235.306 231.591 235.306 234.445 237.066 236.205C238.826 237.965 241.68 237.965 243.44 236.205L268.938 210.708L294.435 236.205C296.195 237.965 299.049 237.965 300.809 236.205C302.569 234.445 302.569 231.591 300.809 229.83L272.125 201.146ZM268.938 315.514L273.445 315.514L273.445 204.333L268.938 204.333L264.43 204.333L264.43 315.514L268.938 315.514Z" fill="#056426"/>
<path d="M547.071 462.935C548.831 461.175 548.831 458.321 547.071 456.561L518.386 427.877C516.626 426.116 513.772 426.116 512.012 427.877C510.252 429.637 510.252 432.491 512.012 434.251L537.509 459.748L512.012 485.245C510.252 487.005 510.252 489.859 512.012 491.62C513.772 493.38 516.626 493.38 518.386 491.62L547.071 462.935ZM432.703 459.748V464.255H543.884V459.748V455.241H432.703V459.748Z" fill="#056426"/>
<path d="M1791.19 480.187C1792.95 478.427 1792.95 475.573 1791.19 473.813L1762.5 445.128C1760.74 443.368 1757.89 443.368 1756.13 445.128C1754.37 446.889 1754.37 449.743 1756.13 451.503L1781.63 477L1756.13 502.497C1754.37 504.257 1754.37 507.111 1756.13 508.872C1757.89 510.632 1760.74 510.632 1762.5 508.872L1791.19 480.187ZM1591 477L1591 481.507L1788 481.507L1788 477L1788 472.493L1591 472.493L1591 477Z" fill="#056426"/>
<path d="M1096.75 328.001C1097.01 325.525 1095.21 323.308 1092.74 323.05L1052.39 318.834C1049.92 318.576 1047.7 320.373 1047.44 322.849C1047.18 325.325 1048.98 327.542 1051.46 327.8L1087.32 331.547L1083.57 367.41C1083.31 369.886 1085.11 372.103 1087.59 372.362C1090.06 372.62 1092.28 370.823 1092.54 368.347L1096.75 328.001ZM925.5 462.752L928.339 466.253L1095.11 331.034L1092.27 327.533L1089.43 324.031L922.661 459.251L925.5 462.752Z" fill="#056426"/>
<path d="M1089.27 631.025C1091.76 631.025 1093.77 629.007 1093.77 626.518L1093.77 585.952C1093.77 583.463 1091.76 581.445 1089.27 581.445C1086.78 581.445 1084.76 583.463 1084.76 585.952L1084.76 622.01L1048.7 622.01C1046.21 622.01 1044.19 624.028 1044.19 626.518C1044.19 629.007 1046.21 631.025 1048.7 631.025L1089.27 631.025ZM925.5 462.752L922.313 465.939L1086.08 629.705L1089.27 626.518L1092.45 623.331L928.687 459.565L925.5 462.752Z" fill="#056426"/>
<path d="M268.75 724.356C270.511 726.117 273.364 726.117 275.125 724.356L303.809 695.672C305.569 693.912 305.569 691.058 303.809 689.298C302.049 687.537 299.195 687.537 297.435 689.298L271.937 714.795L246.44 689.298C244.68 687.537 241.826 687.537 240.066 689.298C238.306 691.058 238.306 693.912 240.066 695.672L268.75 724.356ZM271.938 626.516L267.43 626.516L267.43 721.169L271.937 721.169L276.445 721.169L276.445 626.516L271.938 626.516Z" fill="#056426"/>
<path d="M236.969 134.591V167.703H231.261L216.41 143.983V167.703H210.702V134.591H216.41L231.306 158.356V134.591H236.969ZM269.66 150.783V163.428C269.19 164.049 268.455 164.732 267.454 165.474C266.468 166.202 265.157 166.831 263.52 167.362C261.882 167.893 259.843 168.158 257.402 168.158C255.325 168.158 253.422 167.809 251.694 167.112C249.965 166.399 248.472 165.361 247.214 163.996C245.97 162.632 245.008 160.971 244.325 159.016C243.643 157.045 243.302 154.801 243.302 152.284V149.987C243.302 147.486 243.613 145.257 244.234 143.301C244.871 141.33 245.781 139.662 246.963 138.298C248.146 136.933 249.571 135.902 251.239 135.205C252.922 134.492 254.825 134.136 256.947 134.136C259.661 134.136 261.905 134.591 263.679 135.5C265.468 136.395 266.847 137.638 267.818 139.23C268.788 140.822 269.402 142.641 269.66 144.688H264.065C263.883 143.536 263.527 142.505 262.996 141.595C262.481 140.686 261.738 139.973 260.768 139.458C259.813 138.927 258.569 138.662 257.038 138.662C255.719 138.662 254.559 138.912 253.559 139.412C252.558 139.912 251.724 140.648 251.057 141.618C250.405 142.588 249.912 143.771 249.579 145.166C249.245 146.561 249.078 148.153 249.078 149.942V152.284C249.078 154.103 249.268 155.718 249.647 157.128C250.041 158.538 250.602 159.728 251.33 160.699C252.073 161.669 252.975 162.404 254.036 162.905C255.097 163.39 256.295 163.632 257.629 163.632C258.933 163.632 260.002 163.526 260.836 163.314C261.67 163.087 262.329 162.821 262.815 162.518C263.315 162.2 263.701 161.896 263.974 161.608V155.036H257.084V150.783H269.66ZM302.851 150.237V152.057C302.851 154.558 302.525 156.802 301.873 158.788C301.222 160.774 300.289 162.465 299.076 163.86C297.878 165.255 296.438 166.323 294.755 167.066C293.072 167.794 291.207 168.158 289.161 168.158C287.129 168.158 285.272 167.794 283.589 167.066C281.921 166.323 280.473 165.255 279.245 163.86C278.017 162.465 277.062 160.774 276.38 158.788C275.713 156.802 275.379 154.558 275.379 152.057V150.237C275.379 147.736 275.713 145.499 276.38 143.528C277.047 141.542 277.987 139.852 279.2 138.457C280.428 137.047 281.876 135.978 283.543 135.25C285.226 134.507 287.084 134.136 289.115 134.136C291.162 134.136 293.027 134.507 294.71 135.25C296.393 135.978 297.841 137.047 299.053 138.457C300.266 139.852 301.199 141.542 301.851 143.528C302.518 145.499 302.851 147.736 302.851 150.237ZM297.143 152.057V150.192C297.143 148.342 296.961 146.712 296.597 145.302C296.249 143.877 295.726 142.687 295.028 141.732C294.346 140.761 293.504 140.034 292.504 139.549C291.503 139.048 290.374 138.798 289.115 138.798C287.857 138.798 286.735 139.048 285.749 139.549C284.764 140.034 283.922 140.761 283.225 141.732C282.543 142.687 282.02 143.877 281.656 145.302C281.292 146.712 281.11 148.342 281.11 150.192V152.057C281.11 153.906 281.292 155.544 281.656 156.969C282.02 158.394 282.55 159.599 283.248 160.585C283.96 161.555 284.809 162.291 285.795 162.791C286.78 163.276 287.902 163.519 289.161 163.519C290.434 163.519 291.564 163.276 292.549 162.791C293.535 162.291 294.369 161.555 295.051 160.585C295.733 159.599 296.249 158.394 296.597 156.969C296.961 155.544 297.143 153.906 297.143 152.057ZM322.284 161.04C322.284 160.494 322.147 160.001 321.875 159.561C321.602 159.107 321.079 158.697 320.305 158.333C319.547 157.97 318.425 157.636 316.94 157.333C315.636 157.045 314.438 156.704 313.346 156.309C312.27 155.9 311.345 155.407 310.572 154.831C309.799 154.255 309.2 153.573 308.775 152.784C308.351 151.996 308.138 151.086 308.138 150.055C308.138 149.055 308.358 148.107 308.798 147.213C309.238 146.318 309.867 145.53 310.686 144.847C311.504 144.165 312.497 143.627 313.665 143.233C314.847 142.839 316.166 142.641 317.622 142.641C319.684 142.641 321.45 142.99 322.921 143.688C324.407 144.37 325.544 145.302 326.332 146.485C327.12 147.652 327.515 148.971 327.515 150.442H322.034C322.034 149.79 321.867 149.184 321.533 148.623C321.215 148.046 320.73 147.584 320.078 147.235C319.426 146.871 318.607 146.69 317.622 146.69C316.682 146.69 315.901 146.841 315.279 147.144C314.673 147.432 314.218 147.811 313.915 148.281C313.627 148.751 313.483 149.267 313.483 149.828C313.483 150.237 313.559 150.609 313.71 150.942C313.877 151.261 314.15 151.556 314.529 151.829C314.908 152.087 315.423 152.33 316.075 152.557C316.742 152.784 317.576 153.004 318.577 153.216C320.457 153.611 322.072 154.119 323.421 154.74C324.786 155.347 325.832 156.135 326.559 157.105C327.287 158.061 327.651 159.273 327.651 160.744C327.651 161.836 327.416 162.836 326.946 163.746C326.491 164.641 325.824 165.421 324.945 166.088C324.065 166.74 323.012 167.248 321.784 167.612C320.571 167.976 319.206 168.158 317.69 168.158C315.461 168.158 313.574 167.764 312.027 166.975C310.481 166.172 309.306 165.148 308.502 163.905C307.714 162.647 307.32 161.343 307.32 159.994H312.619C312.679 161.009 312.96 161.821 313.46 162.427C313.976 163.018 314.612 163.45 315.37 163.723C316.144 163.981 316.94 164.11 317.758 164.11C318.744 164.11 319.57 163.981 320.237 163.723C320.904 163.45 321.412 163.087 321.761 162.632C322.11 162.162 322.284 161.631 322.284 161.04Z" fill="black"/>
<path d="M38.9629 790.472C38.9629 789.789 38.8567 789.183 38.6445 788.652C38.4474 788.122 38.0911 787.637 37.5756 787.197C37.0601 786.757 36.3324 786.333 35.3924 785.923C34.4675 785.499 33.285 785.067 31.8446 784.627C30.2679 784.142 28.8124 783.604 27.4782 783.012C26.1591 782.406 25.0069 781.709 24.0214 780.92C23.0359 780.117 22.2703 779.199 21.7244 778.168C21.1786 777.122 20.9057 775.917 20.9057 774.552C20.9057 773.203 21.1862 771.975 21.7472 770.868C22.3233 769.761 23.1344 768.806 24.1806 768.003C25.2419 767.184 26.4927 766.555 27.933 766.115C29.3733 765.66 30.9653 765.433 32.7088 765.433C35.165 765.433 37.28 765.888 39.0538 766.797C40.8429 767.707 42.215 768.928 43.1701 770.459C44.1405 771.99 44.6256 773.681 44.6256 775.53H38.9629C38.9629 774.439 38.7279 773.476 38.2579 772.642C37.803 771.793 37.1056 771.126 36.1656 770.641C35.2408 770.156 34.0658 769.913 32.6406 769.913C31.2912 769.913 30.1693 770.118 29.2748 770.527C28.3803 770.936 27.7132 771.49 27.2735 772.187C26.8338 772.885 26.614 773.673 26.614 774.552C26.614 775.174 26.758 775.743 27.0461 776.258C27.3341 776.758 27.7738 777.228 28.3651 777.668C28.9564 778.093 29.6993 778.494 30.5938 778.873C31.4883 779.252 32.542 779.616 33.755 779.965C35.5895 780.511 37.189 781.117 38.5535 781.784C39.918 782.436 41.0551 783.179 41.9648 784.013C42.8745 784.847 43.5567 785.794 44.0116 786.856C44.4664 787.902 44.6938 789.092 44.6938 790.426C44.6938 791.821 44.4134 793.08 43.8524 794.201C43.2914 795.308 42.4879 796.256 41.4417 797.044C40.4108 797.817 39.1675 798.416 37.7121 798.841C36.2717 799.25 34.6646 799.455 32.8908 799.455C31.2988 799.455 29.7296 799.243 28.1832 798.818C26.6519 798.394 25.257 797.749 23.9986 796.885C22.7403 796.006 21.7396 794.914 20.9967 793.61C20.2538 792.291 19.8823 790.752 19.8823 788.994H25.5906C25.5906 790.07 25.7725 790.987 26.1364 791.745C26.5154 792.503 27.0385 793.125 27.7056 793.61C28.3727 794.08 29.1459 794.429 30.0253 794.656C30.9198 794.884 31.875 794.997 32.8908 794.997C34.225 794.997 35.3393 794.808 36.2338 794.429C37.1435 794.05 37.8258 793.519 38.2806 792.837C38.7354 792.155 38.9629 791.366 38.9629 790.472ZM55.1433 779.396V799H49.6625V774.393H54.8249L55.1433 779.396ZM54.2564 785.787L52.3916 785.764C52.3916 784.066 52.6038 782.497 53.0283 781.057C53.4528 779.616 54.0745 778.365 54.8932 777.304C55.7119 776.228 56.7277 775.401 57.9406 774.825C59.1687 774.234 60.5862 773.938 62.1933 773.938C63.3153 773.938 64.3387 774.105 65.2635 774.439C66.2035 774.757 67.0146 775.265 67.6969 775.962C68.3943 776.66 68.925 777.554 69.2888 778.646C69.6679 779.738 69.8574 781.057 69.8574 782.603V799H64.3766V783.081C64.3766 781.883 64.1946 780.943 63.8308 780.261C63.4821 779.578 62.9742 779.093 62.3071 778.805C61.6551 778.502 60.8743 778.35 59.9646 778.35C58.9337 778.35 58.0543 778.547 57.3266 778.942C56.614 779.336 56.0303 779.874 55.5754 780.556C55.1206 781.239 54.787 782.027 54.5748 782.921C54.3625 783.816 54.2564 784.771 54.2564 785.787ZM69.5163 784.331L66.9464 784.9C66.9464 783.414 67.1511 782.012 67.5605 780.693C67.985 779.359 68.599 778.191 69.4026 777.19C70.2213 776.175 71.2295 775.379 72.4272 774.803C73.625 774.226 74.9971 773.938 76.5435 773.938C77.8019 773.938 78.9239 774.113 79.9094 774.461C80.91 774.795 81.759 775.326 82.4565 776.053C83.1539 776.781 83.6845 777.729 84.0484 778.896C84.4123 780.048 84.5942 781.443 84.5942 783.081V799H79.0906V783.058C79.0906 781.815 78.9087 780.852 78.5448 780.17C78.1961 779.487 77.6958 779.017 77.0439 778.76C76.3919 778.487 75.6111 778.35 74.7014 778.35C73.8524 778.35 73.1019 778.509 72.45 778.828C71.8132 779.131 71.275 779.563 70.8353 780.124C70.3956 780.67 70.0621 781.299 69.8347 782.012C69.6224 782.724 69.5163 783.498 69.5163 784.331ZM104.573 794.065V782.33C104.573 781.451 104.413 780.693 104.095 780.056C103.777 779.419 103.291 778.926 102.64 778.578C102.003 778.229 101.199 778.055 100.229 778.055C99.3343 778.055 98.5611 778.206 97.9092 778.509C97.2572 778.813 96.7493 779.222 96.3855 779.738C96.0216 780.253 95.8397 780.837 95.8397 781.489H90.3816C90.3816 780.518 90.6166 779.578 91.0866 778.669C91.5566 777.759 92.2388 776.948 93.1334 776.235C94.0279 775.523 95.0968 774.962 96.34 774.552C97.5832 774.143 98.9781 773.938 100.525 773.938C102.374 773.938 104.012 774.249 105.437 774.871C106.877 775.492 108.007 776.432 108.825 777.691C109.659 778.934 110.076 780.496 110.076 782.376V793.315C110.076 794.436 110.152 795.445 110.304 796.339C110.47 797.219 110.705 797.984 111.009 798.636V799H105.391C105.134 798.409 104.929 797.658 104.777 796.749C104.641 795.824 104.573 794.929 104.573 794.065ZM105.369 784.036L105.414 787.424H101.48C100.464 787.424 99.5693 787.523 98.7961 787.72C98.0229 787.902 97.3785 788.175 96.863 788.539C96.3476 788.903 95.961 789.342 95.7032 789.858C95.4455 790.373 95.3166 790.957 95.3166 791.609C95.3166 792.261 95.4682 792.86 95.7714 793.405C96.0747 793.936 96.5143 794.353 97.0905 794.656C97.6818 794.96 98.3943 795.111 99.2282 795.111C100.35 795.111 101.328 794.884 102.162 794.429C103.011 793.959 103.678 793.39 104.163 792.723C104.648 792.041 104.906 791.397 104.936 790.79L106.71 793.224C106.528 793.845 106.218 794.512 105.778 795.225C105.338 795.937 104.762 796.62 104.05 797.272C103.352 797.908 102.511 798.431 101.525 798.841C100.555 799.25 99.4329 799.455 98.1593 799.455C96.5522 799.455 95.1195 799.136 93.8611 798.5C92.6027 797.848 91.6172 796.976 90.9047 795.884C90.1921 794.778 89.8358 793.527 89.8358 792.132C89.8358 790.828 90.0784 789.676 90.5635 788.675C91.0638 787.659 91.7916 786.81 92.7468 786.128C93.7171 785.446 94.8997 784.93 96.2945 784.582C97.6893 784.218 99.2813 784.036 101.07 784.036H105.369ZM122.14 764.068V799H116.637V764.068H122.14ZM134.477 764.068V799H128.974V764.068H134.477ZM153.034 764.068H158.515V793.747L157.992 799H153.034V764.068ZM174.571 786.469V786.947C174.571 788.766 174.366 790.441 173.957 791.973C173.562 793.489 172.956 794.808 172.137 795.93C171.334 797.052 170.333 797.924 169.135 798.545C167.953 799.152 166.581 799.455 165.019 799.455C163.488 799.455 162.153 799.167 161.016 798.591C159.879 798.015 158.924 797.196 158.151 796.135C157.393 795.073 156.779 793.807 156.309 792.337C155.839 790.866 155.505 789.244 155.308 787.47V785.946C155.505 784.157 155.839 782.535 156.309 781.079C156.779 779.609 157.393 778.343 158.151 777.281C158.924 776.205 159.872 775.379 160.994 774.803C162.131 774.226 163.457 773.938 164.973 773.938C166.55 773.938 167.938 774.242 169.135 774.848C170.348 775.454 171.356 776.319 172.16 777.441C172.963 778.547 173.562 779.866 173.957 781.398C174.366 782.929 174.571 784.619 174.571 786.469ZM169.09 786.947V786.469C169.09 785.362 168.999 784.324 168.817 783.354C168.635 782.368 168.332 781.504 167.907 780.761C167.498 780.018 166.937 779.434 166.224 779.01C165.527 778.57 164.655 778.35 163.609 778.35C162.639 778.35 161.805 778.517 161.107 778.851C160.41 779.184 159.826 779.639 159.356 780.215C158.886 780.791 158.515 781.458 158.242 782.216C157.984 782.974 157.81 783.793 157.719 784.673V788.789C157.855 789.926 158.143 790.972 158.583 791.927C159.038 792.867 159.675 793.625 160.493 794.201C161.312 794.762 162.366 795.043 163.654 795.043C164.67 795.043 165.527 794.838 166.224 794.429C166.922 794.02 167.475 793.451 167.884 792.723C168.309 791.98 168.612 791.116 168.794 790.131C168.991 789.145 169.09 788.084 169.09 786.947ZM194.481 793.201V774.393H199.984V799H194.799L194.481 793.201ZM195.254 788.084L197.096 788.038C197.096 789.691 196.914 791.215 196.55 792.61C196.186 793.989 195.625 795.195 194.867 796.225C194.109 797.241 193.139 798.037 191.956 798.613C190.774 799.174 189.356 799.455 187.704 799.455C186.506 799.455 185.407 799.28 184.406 798.932C183.405 798.583 182.541 798.045 181.813 797.317C181.101 796.589 180.547 795.642 180.153 794.474C179.759 793.307 179.562 791.912 179.562 790.29V774.393H185.043V790.335C185.043 791.23 185.149 791.98 185.361 792.587C185.573 793.178 185.862 793.656 186.225 794.02C186.589 794.383 187.014 794.641 187.499 794.793C187.984 794.944 188.5 795.02 189.045 795.02C190.607 795.02 191.835 794.717 192.73 794.11C193.639 793.489 194.284 792.655 194.663 791.609C195.057 790.563 195.254 789.388 195.254 788.084ZM219.872 792.337C219.872 791.791 219.735 791.298 219.462 790.858C219.189 790.404 218.666 789.994 217.893 789.63C217.135 789.266 216.013 788.933 214.527 788.63C213.223 788.342 212.026 788 210.934 787.606C209.858 787.197 208.933 786.704 208.16 786.128C207.386 785.552 206.787 784.87 206.363 784.081C205.938 783.293 205.726 782.383 205.726 781.352C205.726 780.352 205.946 779.404 206.386 778.509C206.825 777.615 207.455 776.827 208.273 776.144C209.092 775.462 210.085 774.924 211.252 774.53C212.435 774.135 213.754 773.938 215.21 773.938C217.272 773.938 219.038 774.287 220.508 774.984C221.994 775.667 223.131 776.599 223.92 777.782C224.708 778.949 225.102 780.268 225.102 781.739H219.622C219.622 781.087 219.455 780.48 219.121 779.919C218.803 779.343 218.318 778.881 217.666 778.532C217.014 778.168 216.195 777.986 215.21 777.986C214.27 777.986 213.489 778.138 212.867 778.441C212.261 778.729 211.806 779.108 211.503 779.578C211.215 780.048 211.071 780.564 211.071 781.125C211.071 781.534 211.146 781.906 211.298 782.239C211.465 782.558 211.738 782.853 212.117 783.126C212.496 783.384 213.011 783.626 213.663 783.854C214.33 784.081 215.164 784.301 216.165 784.513C218.045 784.908 219.659 785.415 221.009 786.037C222.373 786.644 223.419 787.432 224.147 788.402C224.875 789.357 225.239 790.57 225.239 792.041C225.239 793.133 225.004 794.133 224.534 795.043C224.079 795.937 223.412 796.718 222.533 797.385C221.653 798.037 220.599 798.545 219.371 798.909C218.158 799.273 216.794 799.455 215.278 799.455C213.049 799.455 211.162 799.061 209.615 798.272C208.069 797.469 206.894 796.445 206.09 795.202C205.302 793.944 204.907 792.64 204.907 791.29H210.206C210.267 792.306 210.547 793.117 211.048 793.724C211.563 794.315 212.2 794.747 212.958 795.02C213.731 795.278 214.527 795.407 215.346 795.407C216.332 795.407 217.158 795.278 217.825 795.02C218.492 794.747 219 794.383 219.349 793.929C219.697 793.459 219.872 792.928 219.872 792.337ZM236.371 774.393V799H230.867V774.393H236.371ZM230.503 767.934C230.503 767.101 230.776 766.411 231.322 765.865C231.883 765.304 232.656 765.023 233.642 765.023C234.612 765.023 235.377 765.304 235.938 765.865C236.499 766.411 236.78 767.101 236.78 767.934C236.78 768.753 236.499 769.435 235.938 769.981C235.377 770.527 234.612 770.8 233.642 770.8C232.656 770.8 231.883 770.527 231.322 769.981C230.776 769.435 230.503 768.753 230.503 767.934ZM248.276 779.647V799H242.795V774.393H247.957L248.276 779.647ZM247.298 785.787L245.524 785.764C245.539 784.021 245.781 782.421 246.251 780.966C246.737 779.51 247.404 778.259 248.253 777.213C249.117 776.167 250.148 775.363 251.346 774.803C252.543 774.226 253.878 773.938 255.348 773.938C256.531 773.938 257.6 774.105 258.555 774.439C259.525 774.757 260.352 775.28 261.034 776.008C261.731 776.736 262.262 777.683 262.626 778.851C262.99 780.003 263.172 781.42 263.172 783.103V799H257.668V783.081C257.668 781.898 257.494 780.966 257.145 780.283C256.811 779.586 256.319 779.093 255.667 778.805C255.03 778.502 254.234 778.35 253.279 778.35C252.339 778.35 251.497 778.547 250.754 778.942C250.011 779.336 249.382 779.874 248.867 780.556C248.366 781.239 247.98 782.027 247.707 782.921C247.434 783.816 247.298 784.771 247.298 785.787ZM280.08 799.455C278.26 799.455 276.615 799.159 275.145 798.568C273.689 797.961 272.446 797.12 271.415 796.044C270.399 794.967 269.618 793.701 269.073 792.246C268.527 790.79 268.254 789.221 268.254 787.538V786.628C268.254 784.703 268.534 782.959 269.095 781.398C269.656 779.836 270.437 778.502 271.438 777.395C272.438 776.273 273.621 775.417 274.986 774.825C276.35 774.234 277.828 773.938 279.42 773.938C281.179 773.938 282.718 774.234 284.037 774.825C285.356 775.417 286.447 776.25 287.312 777.327C288.191 778.388 288.843 779.654 289.267 781.125C289.707 782.595 289.927 784.218 289.927 785.992V788.334H270.915V784.4H284.514V783.968C284.484 782.982 284.287 782.057 283.923 781.193C283.574 780.329 283.036 779.631 282.308 779.101C281.581 778.57 280.61 778.305 279.397 778.305C278.488 778.305 277.677 778.502 276.964 778.896C276.267 779.275 275.683 779.829 275.213 780.556C274.743 781.284 274.379 782.163 274.121 783.194C273.879 784.21 273.757 785.355 273.757 786.628V787.538C273.757 788.614 273.901 789.615 274.19 790.54C274.493 791.45 274.932 792.246 275.509 792.928C276.085 793.61 276.782 794.148 277.601 794.543C278.42 794.922 279.352 795.111 280.398 795.111C281.717 795.111 282.892 794.846 283.923 794.315C284.954 793.785 285.849 793.034 286.607 792.064L289.495 794.861C288.964 795.634 288.274 796.377 287.425 797.09C286.576 797.787 285.538 798.356 284.31 798.795C283.097 799.235 281.687 799.455 280.08 799.455ZM308.473 792.337C308.473 791.791 308.336 791.298 308.063 790.858C307.79 790.404 307.267 789.994 306.494 789.63C305.736 789.266 304.614 788.933 303.128 788.63C301.824 788.342 300.627 788 299.535 787.606C298.459 787.197 297.534 786.704 296.761 786.128C295.987 785.552 295.388 784.87 294.964 784.081C294.539 783.293 294.327 782.383 294.327 781.352C294.327 780.352 294.547 779.404 294.987 778.509C295.426 777.615 296.056 776.827 296.874 776.144C297.693 775.462 298.686 774.924 299.853 774.53C301.036 774.135 302.355 773.938 303.811 773.938C305.872 773.938 307.639 774.287 309.109 774.984C310.595 775.667 311.732 776.599 312.521 777.782C313.309 778.949 313.703 780.268 313.703 781.739H308.222C308.222 781.087 308.056 780.48 307.722 779.919C307.404 779.343 306.919 778.881 306.267 778.532C305.615 778.168 304.796 777.986 303.811 777.986C302.871 777.986 302.09 778.138 301.468 778.441C300.862 778.729 300.407 779.108 300.104 779.578C299.816 780.048 299.672 780.564 299.672 781.125C299.672 781.534 299.747 781.906 299.899 782.239C300.066 782.558 300.339 782.853 300.718 783.126C301.097 783.384 301.612 783.626 302.264 783.854C302.931 784.081 303.765 784.301 304.766 784.513C306.646 784.908 308.26 785.415 309.61 786.037C310.974 786.644 312.02 787.432 312.748 788.402C313.476 789.357 313.84 790.57 313.84 792.041C313.84 793.133 313.605 794.133 313.135 795.043C312.68 795.937 312.013 796.718 311.133 797.385C310.254 798.037 309.2 798.545 307.972 798.909C306.759 799.273 305.395 799.455 303.879 799.455C301.65 799.455 299.762 799.061 298.216 798.272C296.67 797.469 295.495 796.445 294.691 795.202C293.903 793.944 293.508 792.64 293.508 791.29H298.807C298.868 792.306 299.148 793.117 299.649 793.724C300.164 794.315 300.801 794.747 301.559 795.02C302.332 795.278 303.128 795.407 303.947 795.407C304.932 795.407 305.759 795.278 306.426 795.02C307.093 794.747 307.601 794.383 307.95 793.929C308.298 793.459 308.473 792.928 308.473 792.337ZM332.908 792.337C332.908 791.791 332.772 791.298 332.499 790.858C332.226 790.404 331.703 789.994 330.93 789.63C330.172 789.266 329.05 788.933 327.564 788.63C326.26 788.342 325.062 788 323.971 787.606C322.894 787.197 321.97 786.704 321.196 786.128C320.423 785.552 319.824 784.87 319.4 784.081C318.975 783.293 318.763 782.383 318.763 781.352C318.763 780.352 318.983 779.404 319.422 778.509C319.862 777.615 320.491 776.827 321.31 776.144C322.129 775.462 323.122 774.924 324.289 774.53C325.472 774.135 326.791 773.938 328.246 773.938C330.308 773.938 332.075 774.287 333.545 774.984C335.031 775.667 336.168 776.599 336.957 777.782C337.745 778.949 338.139 780.268 338.139 781.739H332.658C332.658 781.087 332.492 780.48 332.158 779.919C331.84 779.343 331.354 778.881 330.702 778.532C330.051 778.168 329.232 777.986 328.246 777.986C327.306 777.986 326.526 778.138 325.904 778.441C325.297 778.729 324.843 779.108 324.539 779.578C324.251 780.048 324.107 780.564 324.107 781.125C324.107 781.534 324.183 781.906 324.335 782.239C324.501 782.558 324.774 782.853 325.153 783.126C325.532 783.384 326.048 783.626 326.7 783.854C327.367 784.081 328.201 784.301 329.202 784.513C331.082 784.908 332.696 785.415 334.046 786.037C335.41 786.644 336.456 787.432 337.184 788.402C337.912 789.357 338.276 790.57 338.276 792.041C338.276 793.133 338.041 794.133 337.571 795.043C337.116 795.937 336.449 796.718 335.569 797.385C334.69 798.037 333.636 798.545 332.408 798.909C331.195 799.273 329.831 799.455 328.315 799.455C326.086 799.455 324.198 799.061 322.652 798.272C321.105 797.469 319.93 796.445 319.127 795.202C318.338 793.944 317.944 792.64 317.944 791.29H323.243C323.304 792.306 323.584 793.117 324.085 793.724C324.6 794.315 325.237 794.747 325.995 795.02C326.768 795.278 327.564 795.407 328.383 795.407C329.368 795.407 330.195 795.278 330.862 795.02C331.529 794.747 332.037 794.383 332.385 793.929C332.734 793.459 332.908 792.928 332.908 792.337ZM354.388 799.455C352.568 799.455 350.923 799.159 349.453 798.568C347.997 797.961 346.754 797.12 345.723 796.044C344.707 794.967 343.926 793.701 343.381 792.246C342.835 790.79 342.562 789.221 342.562 787.538V786.628C342.562 784.703 342.842 782.959 343.403 781.398C343.964 779.836 344.745 778.502 345.746 777.395C346.747 776.273 347.929 775.417 349.294 774.825C350.658 774.234 352.136 773.938 353.728 773.938C355.487 773.938 357.026 774.234 358.345 774.825C359.664 775.417 360.756 776.25 361.62 777.327C362.499 778.388 363.151 779.654 363.576 781.125C364.015 782.595 364.235 784.218 364.235 785.992V788.334H345.223V784.4H358.822V783.968C358.792 782.982 358.595 782.057 358.231 781.193C357.882 780.329 357.344 779.631 356.617 779.101C355.889 778.57 354.918 778.305 353.706 778.305C352.796 778.305 351.985 778.502 351.272 778.896C350.575 779.275 349.991 779.829 349.521 780.556C349.051 781.284 348.687 782.163 348.429 783.194C348.187 784.21 348.066 785.355 348.066 786.628V787.538C348.066 788.614 348.21 789.615 348.498 790.54C348.801 791.45 349.241 792.246 349.817 792.928C350.393 793.61 351.09 794.148 351.909 794.543C352.728 794.922 353.66 795.111 354.706 795.111C356.025 795.111 357.2 794.846 358.231 794.315C359.262 793.785 360.157 793.034 360.915 792.064L363.803 794.861C363.272 795.634 362.583 796.377 361.733 797.09C360.884 797.787 359.846 798.356 358.618 798.795C357.405 799.235 355.995 799.455 354.388 799.455ZM382.781 792.337C382.781 791.791 382.644 791.298 382.371 790.858C382.098 790.404 381.575 789.994 380.802 789.63C380.044 789.266 378.922 788.933 377.436 788.63C376.132 788.342 374.935 788 373.843 787.606C372.767 787.197 371.842 786.704 371.069 786.128C370.295 785.552 369.696 784.87 369.272 784.081C368.847 783.293 368.635 782.383 368.635 781.352C368.635 780.352 368.855 779.404 369.295 778.509C369.734 777.615 370.364 776.827 371.182 776.144C372.001 775.462 372.994 774.924 374.161 774.53C375.344 774.135 376.663 773.938 378.119 773.938C380.181 773.938 381.947 774.287 383.417 774.984C384.903 775.667 386.04 776.599 386.829 777.782C387.617 778.949 388.011 780.268 388.011 781.739H382.531C382.531 781.087 382.364 780.48 382.03 779.919C381.712 779.343 381.227 778.881 380.575 778.532C379.923 778.168 379.104 777.986 378.119 777.986C377.179 777.986 376.398 778.138 375.776 778.441C375.17 778.729 374.715 779.108 374.412 779.578C374.124 780.048 373.98 780.564 373.98 781.125C373.98 781.534 374.055 781.906 374.207 782.239C374.374 782.558 374.647 782.853 375.026 783.126C375.405 783.384 375.92 783.626 376.572 783.854C377.239 784.081 378.073 784.301 379.074 784.513C380.954 784.908 382.568 785.415 383.918 786.037C385.282 786.644 386.328 787.432 387.056 788.402C387.784 789.357 388.148 790.57 388.148 792.041C388.148 793.133 387.913 794.133 387.443 795.043C386.988 795.937 386.321 796.718 385.442 797.385C384.562 798.037 383.508 798.545 382.28 798.909C381.067 799.273 379.703 799.455 378.187 799.455C375.958 799.455 374.071 799.061 372.524 798.272C370.978 797.469 369.803 796.445 368.999 795.202C368.211 793.944 367.816 792.64 367.816 791.29H373.115C373.176 792.306 373.456 793.117 373.957 793.724C374.472 794.315 375.109 794.747 375.867 795.02C376.64 795.278 377.436 795.407 378.255 795.407C379.241 795.407 380.067 795.278 380.734 795.02C381.401 794.747 381.909 794.383 382.258 793.929C382.606 793.459 382.781 792.928 382.781 792.337ZM419.281 792.337C419.281 791.791 419.144 791.298 418.871 790.858C418.598 790.404 418.075 789.994 417.302 789.63C416.544 789.266 415.422 788.933 413.936 788.63C412.632 788.342 411.435 788 410.343 787.606C409.267 787.197 408.342 786.704 407.569 786.128C406.795 785.552 406.196 784.87 405.772 784.081C405.347 783.293 405.135 782.383 405.135 781.352C405.135 780.352 405.355 779.404 405.795 778.509C406.234 777.615 406.864 776.827 407.682 776.144C408.501 775.462 409.494 774.924 410.661 774.53C411.844 774.135 413.163 773.938 414.619 773.938C416.681 773.938 418.447 774.287 419.917 774.984C421.403 775.667 422.54 776.599 423.329 777.782C424.117 778.949 424.511 780.268 424.511 781.739H419.031C419.031 781.087 418.864 780.48 418.53 779.919C418.212 779.343 417.727 778.881 417.075 778.532C416.423 778.168 415.604 777.986 414.619 777.986C413.679 777.986 412.898 778.138 412.276 778.441C411.67 778.729 411.215 779.108 410.912 779.578C410.624 780.048 410.48 780.564 410.48 781.125C410.48 781.534 410.555 781.906 410.707 782.239C410.874 782.558 411.147 782.853 411.526 783.126C411.905 783.384 412.42 783.626 413.072 783.854C413.739 784.081 414.573 784.301 415.574 784.513C417.454 784.908 419.068 785.415 420.418 786.037C421.782 786.644 422.828 787.432 423.556 788.402C424.284 789.357 424.648 790.57 424.648 792.041C424.648 793.133 424.413 794.133 423.943 795.043C423.488 795.937 422.821 796.718 421.941 797.385C421.062 798.037 420.008 798.545 418.78 798.909C417.567 799.273 416.203 799.455 414.687 799.455C412.458 799.455 410.57 799.061 409.024 798.272C407.478 797.469 406.303 796.445 405.499 795.202C404.711 793.944 404.316 792.64 404.316 791.29H409.615C409.676 792.306 409.956 793.117 410.457 793.724C410.972 794.315 411.609 794.747 412.367 795.02C413.14 795.278 413.936 795.407 414.755 795.407C415.741 795.407 416.567 795.278 417.234 795.02C417.901 794.747 418.409 794.383 418.758 793.929C419.106 793.459 419.281 792.928 419.281 792.337ZM440.76 799.455C438.941 799.455 437.296 799.159 435.825 798.568C434.37 797.961 433.126 797.12 432.095 796.044C431.08 794.967 430.299 793.701 429.753 792.246C429.207 790.79 428.934 789.221 428.934 787.538V786.628C428.934 784.703 429.215 782.959 429.776 781.398C430.337 779.836 431.117 778.502 432.118 777.395C433.119 776.273 434.301 775.417 435.666 774.825C437.03 774.234 438.509 773.938 440.101 773.938C441.859 773.938 443.398 774.234 444.717 774.825C446.036 775.417 447.128 776.25 447.992 777.327C448.871 778.388 449.523 779.654 449.948 781.125C450.387 782.595 450.607 784.218 450.607 785.992V788.334H431.595V784.4H445.195V783.968C445.164 782.982 444.967 782.057 444.603 781.193C444.255 780.329 443.716 779.631 442.989 779.101C442.261 778.57 441.291 778.305 440.078 778.305C439.168 778.305 438.357 778.502 437.644 778.896C436.947 779.275 436.363 779.829 435.893 780.556C435.423 781.284 435.059 782.163 434.802 783.194C434.559 784.21 434.438 785.355 434.438 786.628V787.538C434.438 788.614 434.582 789.615 434.87 790.54C435.173 791.45 435.613 792.246 436.189 792.928C436.765 793.61 437.462 794.148 438.281 794.543C439.1 794.922 440.032 795.111 441.078 795.111C442.397 795.111 443.572 794.846 444.603 794.315C445.634 793.785 446.529 793.034 447.287 792.064L450.175 794.861C449.645 795.634 448.955 796.377 448.106 797.09C447.257 797.787 446.218 798.356 444.99 798.795C443.777 799.235 442.367 799.455 440.76 799.455ZM461.216 764.068V799H455.712V764.068H461.216ZM473.553 764.068V799H468.05V764.068H473.553ZM485.89 774.393V799H480.387V774.393H485.89ZM480.023 767.934C480.023 767.101 480.296 766.411 480.841 765.865C481.402 765.304 482.176 765.023 483.161 765.023C484.131 765.023 484.897 765.304 485.458 765.865C486.019 766.411 486.299 767.101 486.299 767.934C486.299 768.753 486.019 769.435 485.458 769.981C484.897 770.527 484.131 770.8 483.161 770.8C482.176 770.8 481.402 770.527 480.841 769.981C480.296 769.435 480.023 768.753 480.023 767.934ZM497.795 779.647V799H492.314V774.393H497.477L497.795 779.647ZM496.817 785.787L495.043 785.764C495.058 784.021 495.301 782.421 495.771 780.966C496.256 779.51 496.923 778.259 497.772 777.213C498.637 776.167 499.668 775.363 500.865 774.803C502.063 774.226 503.397 773.938 504.868 773.938C506.05 773.938 507.119 774.105 508.074 774.439C509.045 774.757 509.871 775.28 510.553 776.008C511.251 776.736 511.781 777.683 512.145 778.851C512.509 780.003 512.691 781.42 512.691 783.103V799H507.188V783.081C507.188 781.898 507.013 780.966 506.664 780.283C506.331 779.586 505.838 779.093 505.186 778.805C504.549 778.502 503.754 778.35 502.798 778.35C501.858 778.35 501.017 778.547 500.274 778.942C499.531 779.336 498.902 779.874 498.386 780.556C497.886 781.239 497.499 782.027 497.227 782.921C496.954 783.816 496.817 784.771 496.817 785.787ZM534.512 774.393H539.492V798.318C539.492 800.531 539.022 802.411 538.082 803.958C537.142 805.504 535.831 806.679 534.148 807.483C532.465 808.301 530.517 808.711 528.303 808.711C527.363 808.711 526.317 808.574 525.165 808.301C524.028 808.029 522.921 807.589 521.844 806.982C520.783 806.391 519.896 805.61 519.183 804.64L521.753 801.411C522.633 802.457 523.603 803.222 524.664 803.708C525.726 804.193 526.84 804.435 528.007 804.435C529.266 804.435 530.335 804.2 531.214 803.73C532.108 803.275 532.798 802.601 533.283 801.706C533.769 800.812 534.011 799.72 534.011 798.431V779.965L534.512 774.393ZM517.796 786.969V786.492C517.796 784.627 518.024 782.929 518.478 781.398C518.933 779.851 519.585 778.525 520.434 777.418C521.283 776.296 522.314 775.439 523.527 774.848C524.74 774.242 526.112 773.938 527.643 773.938C529.235 773.938 530.592 774.226 531.714 774.803C532.851 775.379 533.799 776.205 534.557 777.281C535.315 778.343 535.906 779.616 536.331 781.102C536.771 782.573 537.097 784.21 537.309 786.014V787.538C537.112 789.297 536.778 790.904 536.308 792.359C535.838 793.815 535.217 795.073 534.443 796.135C533.67 797.196 532.715 798.015 531.578 798.591C530.456 799.167 529.129 799.455 527.598 799.455C526.097 799.455 524.74 799.144 523.527 798.522C522.329 797.901 521.298 797.029 520.434 795.907C519.585 794.785 518.933 793.466 518.478 791.95C518.024 790.419 517.796 788.759 517.796 786.969ZM523.277 786.492V786.969C523.277 788.091 523.383 789.138 523.595 790.108C523.823 791.078 524.164 791.935 524.619 792.678C525.089 793.405 525.68 793.982 526.393 794.406C527.12 794.815 527.977 795.02 528.963 795.02C530.251 795.02 531.305 794.747 532.124 794.201C532.958 793.656 533.594 792.92 534.034 791.995C534.489 791.055 534.807 790.009 534.989 788.857V784.741C534.898 783.846 534.709 783.012 534.421 782.239C534.148 781.466 533.776 780.791 533.306 780.215C532.836 779.624 532.245 779.169 531.532 778.851C530.82 778.517 529.978 778.35 529.008 778.35C528.023 778.35 527.166 778.563 526.438 778.987C525.71 779.412 525.112 779.995 524.642 780.738C524.187 781.481 523.846 782.345 523.618 783.331C523.391 784.316 523.277 785.37 523.277 786.492ZM108.938 847.337C108.938 846.791 108.802 846.298 108.529 845.858C108.256 845.404 107.733 844.994 106.96 844.63C106.202 844.266 105.08 843.933 103.594 843.63C102.29 843.342 101.092 843 100.001 842.606C98.9241 842.197 97.9992 841.704 97.226 841.128C96.4528 840.552 95.8539 839.87 95.4294 839.081C95.0049 838.293 94.7926 837.383 94.7926 836.352C94.7926 835.352 95.0125 834.404 95.4521 833.509C95.8918 832.615 96.521 831.827 97.3397 831.144C98.1584 830.462 99.1515 829.924 100.319 829.53C101.501 829.135 102.821 828.938 104.276 828.938C106.338 828.938 108.104 829.287 109.575 829.984C111.061 830.667 112.198 831.599 112.986 832.782C113.775 833.949 114.169 835.268 114.169 836.739H108.688C108.688 836.087 108.521 835.48 108.188 834.919C107.869 834.343 107.384 833.881 106.732 833.532C106.08 833.168 105.262 832.986 104.276 832.986C103.336 832.986 102.555 833.138 101.934 833.441C101.327 833.729 100.872 834.108 100.569 834.578C100.281 835.048 100.137 835.564 100.137 836.125C100.137 836.534 100.213 836.906 100.364 837.239C100.531 837.558 100.804 837.853 101.183 838.126C101.562 838.384 102.078 838.626 102.73 838.854C103.397 839.081 104.231 839.301 105.231 839.513C107.111 839.908 108.726 840.415 110.075 841.037C111.44 841.644 112.486 842.432 113.214 843.402C113.941 844.357 114.305 845.57 114.305 847.041C114.305 848.133 114.07 849.133 113.6 850.043C113.145 850.937 112.478 851.718 111.599 852.385C110.72 853.037 109.666 853.545 108.438 853.909C107.225 854.273 105.86 854.455 104.344 854.455C102.116 854.455 100.228 854.061 98.6815 853.272C97.135 852.469 95.96 851.445 95.1565 850.202C94.3681 848.944 93.9739 847.64 93.9739 846.29H99.2728C99.3334 847.306 99.6139 848.117 100.114 848.724C100.63 849.315 101.266 849.747 102.025 850.02C102.798 850.278 103.594 850.407 104.412 850.407C105.398 850.407 106.224 850.278 106.891 850.02C107.558 849.747 108.066 849.383 108.415 848.929C108.764 848.459 108.938 847.928 108.938 847.337ZM134.375 848.201V829.393H139.878V854H134.693L134.375 848.201ZM135.148 843.084L136.99 843.038C136.99 844.691 136.808 846.215 136.444 847.61C136.08 848.989 135.519 850.195 134.761 851.225C134.003 852.241 133.033 853.037 131.85 853.613C130.668 854.174 129.25 854.455 127.597 854.455C126.4 854.455 125.301 854.28 124.3 853.932C123.299 853.583 122.435 853.045 121.707 852.317C120.995 851.589 120.441 850.642 120.047 849.474C119.653 848.307 119.456 846.912 119.456 845.29V829.393H124.937V845.335C124.937 846.23 125.043 846.98 125.255 847.587C125.467 848.178 125.755 848.656 126.119 849.02C126.483 849.383 126.908 849.641 127.393 849.793C127.878 849.944 128.393 850.02 128.939 850.02C130.501 850.02 131.729 849.717 132.623 849.11C133.533 848.489 134.177 847.655 134.557 846.609C134.951 845.563 135.148 844.388 135.148 843.084ZM159.766 847.337C159.766 846.791 159.629 846.298 159.356 845.858C159.083 845.404 158.56 844.994 157.787 844.63C157.029 844.266 155.907 843.933 154.421 843.63C153.117 843.342 151.92 843 150.828 842.606C149.751 842.197 148.827 841.704 148.053 841.128C147.28 840.552 146.681 839.87 146.257 839.081C145.832 838.293 145.62 837.383 145.62 836.352C145.62 835.352 145.84 834.404 146.28 833.509C146.719 832.615 147.348 831.827 148.167 831.144C148.986 830.462 149.979 829.924 151.146 829.53C152.329 829.135 153.648 828.938 155.103 828.938C157.165 828.938 158.932 829.287 160.402 829.984C161.888 830.667 163.025 831.599 163.814 832.782C164.602 833.949 164.996 835.268 164.996 836.739H159.515C159.515 836.087 159.349 835.48 159.015 834.919C158.697 834.343 158.212 833.881 157.56 833.532C156.908 833.168 156.089 832.986 155.103 832.986C154.163 832.986 153.383 833.138 152.761 833.441C152.155 833.729 151.7 834.108 151.396 834.578C151.108 835.048 150.964 835.564 150.964 836.125C150.964 836.534 151.04 836.906 151.192 837.239C151.359 837.558 151.631 837.853 152.011 838.126C152.39 838.384 152.905 838.626 153.557 838.854C154.224 839.081 155.058 839.301 156.059 839.513C157.939 839.908 159.553 840.415 160.903 841.037C162.267 841.644 163.313 842.432 164.041 843.402C164.769 844.357 165.133 845.57 165.133 847.041C165.133 848.133 164.898 849.133 164.428 850.043C163.973 850.937 163.306 851.718 162.426 852.385C161.547 853.037 160.493 853.545 159.265 853.909C158.052 854.273 156.688 854.455 155.172 854.455C152.943 854.455 151.055 854.061 149.509 853.272C147.962 852.469 146.787 851.445 145.984 850.202C145.196 848.944 144.801 847.64 144.801 846.29H150.1C150.161 847.306 150.441 848.117 150.942 848.724C151.457 849.315 152.094 849.747 152.852 850.02C153.625 850.278 154.421 850.407 155.24 850.407C156.225 850.407 157.052 850.278 157.719 850.02C158.386 849.747 158.894 849.383 159.242 848.929C159.591 848.459 159.766 847.928 159.766 847.337ZM181.677 829.393V833.396H167.804V829.393H181.677ZM171.807 823.367H177.288V847.2C177.288 847.958 177.394 848.542 177.606 848.951C177.834 849.345 178.144 849.611 178.539 849.747C178.933 849.884 179.395 849.952 179.926 849.952C180.305 849.952 180.669 849.929 181.017 849.884C181.366 849.838 181.647 849.793 181.859 849.747L181.882 853.932C181.427 854.068 180.896 854.19 180.29 854.296C179.698 854.402 179.016 854.455 178.243 854.455C176.985 854.455 175.87 854.235 174.9 853.795C173.93 853.34 173.171 852.605 172.626 851.589C172.08 850.574 171.807 849.224 171.807 847.541V823.367ZM200.245 849.065V837.33C200.245 836.451 200.086 835.693 199.768 835.056C199.449 834.419 198.964 833.926 198.312 833.578C197.676 833.229 196.872 833.055 195.902 833.055C195.007 833.055 194.234 833.206 193.582 833.509C192.93 833.813 192.422 834.222 192.058 834.738C191.694 835.253 191.512 835.837 191.512 836.489H186.054C186.054 835.518 186.289 834.578 186.759 833.669C187.229 832.759 187.912 831.948 188.806 831.235C189.701 830.523 190.77 829.962 192.013 829.552C193.256 829.143 194.651 828.938 196.197 828.938C198.047 828.938 199.684 829.249 201.11 829.871C202.55 830.492 203.679 831.432 204.498 832.691C205.332 833.934 205.749 835.496 205.749 837.376V848.315C205.749 849.436 205.825 850.445 205.976 851.339C206.143 852.219 206.378 852.984 206.681 853.636V854H201.064C200.806 853.409 200.602 852.658 200.45 851.749C200.314 850.824 200.245 849.929 200.245 849.065ZM201.041 839.036L201.087 842.424H197.152C196.137 842.424 195.242 842.523 194.469 842.72C193.696 842.902 193.051 843.175 192.536 843.539C192.02 843.903 191.634 844.342 191.376 844.858C191.118 845.373 190.989 845.957 190.989 846.609C190.989 847.261 191.141 847.86 191.444 848.405C191.747 848.936 192.187 849.353 192.763 849.656C193.355 849.96 194.067 850.111 194.901 850.111C196.023 850.111 197.001 849.884 197.835 849.429C198.684 848.959 199.351 848.39 199.836 847.723C200.321 847.041 200.579 846.397 200.609 845.79L202.383 848.224C202.201 848.845 201.89 849.512 201.451 850.225C201.011 850.937 200.435 851.62 199.722 852.272C199.025 852.908 198.183 853.431 197.198 853.841C196.228 854.25 195.106 854.455 193.832 854.455C192.225 854.455 190.792 854.136 189.534 853.5C188.276 852.848 187.29 851.976 186.577 850.884C185.865 849.778 185.509 848.527 185.509 847.132C185.509 845.828 185.751 844.676 186.236 843.675C186.737 842.659 187.464 841.81 188.42 841.128C189.39 840.446 190.572 839.93 191.967 839.582C193.362 839.218 194.954 839.036 196.743 839.036H201.041ZM217.813 829.393V854H212.31V829.393H217.813ZM211.946 822.934C211.946 822.101 212.219 821.411 212.764 820.865C213.325 820.304 214.099 820.023 215.084 820.023C216.054 820.023 216.82 820.304 217.381 820.865C217.942 821.411 218.222 822.101 218.222 822.934C218.222 823.753 217.942 824.435 217.381 824.981C216.82 825.527 216.054 825.8 215.084 825.8C214.099 825.8 213.325 825.527 212.764 824.981C212.219 824.435 211.946 823.753 211.946 822.934ZM229.718 834.647V854H224.237V829.393H229.4L229.718 834.647ZM228.74 840.787L226.966 840.764C226.981 839.021 227.224 837.421 227.694 835.966C228.179 834.51 228.846 833.259 229.695 832.213C230.56 831.167 231.59 830.363 232.788 829.803C233.986 829.226 235.32 828.938 236.791 828.938C237.973 828.938 239.042 829.105 239.997 829.439C240.968 829.757 241.794 830.28 242.476 831.008C243.174 831.736 243.704 832.683 244.068 833.851C244.432 835.003 244.614 836.42 244.614 838.103V854H239.111V838.081C239.111 836.898 238.936 835.966 238.587 835.283C238.254 834.586 237.761 834.093 237.109 833.805C236.472 833.502 235.676 833.35 234.721 833.35C233.781 833.35 232.94 833.547 232.197 833.942C231.454 834.336 230.825 834.874 230.309 835.556C229.809 836.239 229.422 837.027 229.15 837.921C228.877 838.816 228.74 839.771 228.74 840.787ZM264.547 849.065V837.33C264.547 836.451 264.388 835.693 264.069 835.056C263.751 834.419 263.266 833.926 262.614 833.578C261.977 833.229 261.174 833.055 260.203 833.055C259.309 833.055 258.535 833.206 257.884 833.509C257.232 833.813 256.724 834.222 256.36 834.738C255.996 835.253 255.814 835.837 255.814 836.489H250.356C250.356 835.518 250.591 834.578 251.061 833.669C251.531 832.759 252.213 831.948 253.108 831.235C254.002 830.523 255.071 829.962 256.314 829.552C257.558 829.143 258.952 828.938 260.499 828.938C262.349 828.938 263.986 829.249 265.411 829.871C266.851 830.492 267.981 831.432 268.8 832.691C269.634 833.934 270.051 835.496 270.051 837.376V848.315C270.051 849.436 270.126 850.445 270.278 851.339C270.445 852.219 270.68 852.984 270.983 853.636V854H265.366C265.108 853.409 264.903 852.658 264.752 851.749C264.615 850.824 264.547 849.929 264.547 849.065ZM265.343 839.036L265.388 842.424H261.454C260.438 842.424 259.544 842.523 258.77 842.72C257.997 842.902 257.353 843.175 256.837 843.539C256.322 843.903 255.935 844.342 255.678 844.858C255.42 845.373 255.291 845.957 255.291 846.609C255.291 847.261 255.443 847.86 255.746 848.405C256.049 848.936 256.489 849.353 257.065 849.656C257.656 849.96 258.369 850.111 259.203 850.111C260.325 850.111 261.302 849.884 262.136 849.429C262.985 848.959 263.652 848.39 264.138 847.723C264.623 847.041 264.881 846.397 264.911 845.79L266.685 848.224C266.503 848.845 266.192 849.512 265.752 850.225C265.313 850.937 264.736 851.62 264.024 852.272C263.326 852.908 262.485 853.431 261.5 853.841C260.529 854.25 259.407 854.455 258.134 854.455C256.527 854.455 255.094 854.136 253.835 853.5C252.577 852.848 251.592 851.976 250.879 850.884C250.166 849.778 249.81 848.527 249.81 847.132C249.81 845.828 250.053 844.676 250.538 843.675C251.038 842.659 251.766 841.81 252.721 841.128C253.691 840.446 254.874 839.93 256.269 839.582C257.664 839.218 259.256 839.036 261.045 839.036H265.343ZM276.27 819.068H281.751V848.747L281.228 854H276.27V819.068ZM297.807 841.469V841.947C297.807 843.766 297.602 845.441 297.193 846.973C296.798 848.489 296.192 849.808 295.373 850.93C294.57 852.052 293.569 852.924 292.371 853.545C291.189 854.152 289.817 854.455 288.255 854.455C286.724 854.455 285.39 854.167 284.252 853.591C283.115 853.015 282.16 852.196 281.387 851.135C280.629 850.073 280.015 848.807 279.545 847.337C279.075 845.866 278.741 844.244 278.544 842.47V840.946C278.741 839.157 279.075 837.535 279.545 836.079C280.015 834.609 280.629 833.343 281.387 832.281C282.16 831.205 283.108 830.379 284.23 829.803C285.367 829.226 286.693 828.938 288.21 828.938C289.786 828.938 291.174 829.242 292.371 829.848C293.584 830.454 294.592 831.319 295.396 832.441C296.2 833.547 296.798 834.866 297.193 836.398C297.602 837.929 297.807 839.619 297.807 841.469ZM292.326 841.947V841.469C292.326 840.362 292.235 839.324 292.053 838.354C291.871 837.368 291.568 836.504 291.143 835.761C290.734 835.018 290.173 834.434 289.46 834.01C288.763 833.57 287.891 833.35 286.845 833.35C285.875 833.35 285.041 833.517 284.343 833.851C283.646 834.184 283.062 834.639 282.592 835.215C282.122 835.791 281.751 836.458 281.478 837.216C281.22 837.974 281.046 838.793 280.955 839.673V843.789C281.091 844.926 281.379 845.972 281.819 846.927C282.274 847.867 282.911 848.625 283.729 849.201C284.548 849.762 285.602 850.043 286.89 850.043C287.906 850.043 288.763 849.838 289.46 849.429C290.158 849.02 290.711 848.451 291.121 847.723C291.545 846.98 291.848 846.116 292.03 845.131C292.227 844.145 292.326 843.084 292.326 841.947ZM308.779 819.068V854H303.276V819.068H308.779ZM326.097 854.455C324.277 854.455 322.632 854.159 321.162 853.568C319.706 852.961 318.463 852.12 317.432 851.044C316.416 849.967 315.635 848.701 315.09 847.246C314.544 845.79 314.271 844.221 314.271 842.538V841.628C314.271 839.703 314.551 837.959 315.112 836.398C315.673 834.836 316.454 833.502 317.455 832.395C318.455 831.273 319.638 830.417 321.003 829.825C322.367 829.234 323.845 828.938 325.437 828.938C327.196 828.938 328.735 829.234 330.054 829.825C331.373 830.417 332.465 831.25 333.329 832.327C334.208 833.388 334.86 834.654 335.285 836.125C335.724 837.595 335.944 839.218 335.944 840.992V843.334H316.932V839.4H330.531V838.968C330.501 837.982 330.304 837.057 329.94 836.193C329.591 835.329 329.053 834.631 328.325 834.101C327.598 833.57 326.627 833.305 325.415 833.305C324.505 833.305 323.694 833.502 322.981 833.896C322.284 834.275 321.7 834.829 321.23 835.556C320.76 836.284 320.396 837.163 320.138 838.194C319.896 839.21 319.774 840.355 319.774 841.628V842.538C319.774 843.614 319.919 844.615 320.207 845.54C320.51 846.45 320.949 847.246 321.526 847.928C322.102 848.61 322.799 849.148 323.618 849.543C324.437 849.922 325.369 850.111 326.415 850.111C327.734 850.111 328.909 849.846 329.94 849.315C330.971 848.785 331.866 848.034 332.624 847.064L335.512 849.861C334.981 850.634 334.291 851.377 333.442 852.09C332.593 852.787 331.555 853.356 330.327 853.795C329.114 854.235 327.704 854.455 326.097 854.455ZM358.617 829.393V854H353.113V829.393H358.617ZM352.749 822.934C352.749 822.101 353.022 821.411 353.568 820.865C354.129 820.304 354.902 820.023 355.888 820.023C356.858 820.023 357.624 820.304 358.185 820.865C358.746 821.411 359.026 822.101 359.026 822.934C359.026 823.753 358.746 824.435 358.185 824.981C357.624 825.527 356.858 825.8 355.888 825.8C354.902 825.8 354.129 825.527 353.568 824.981C353.022 824.435 352.749 823.753 352.749 822.934ZM376.367 829.393V833.396H362.494V829.393H376.367ZM366.497 823.367H371.977V847.2C371.977 847.958 372.083 848.542 372.296 848.951C372.523 849.345 372.834 849.611 373.228 849.747C373.622 849.884 374.085 849.952 374.615 849.952C374.994 849.952 375.358 849.929 375.707 849.884C376.056 849.838 376.336 849.793 376.549 849.747L376.571 853.932C376.116 854.068 375.586 854.19 374.979 854.296C374.388 854.402 373.706 854.455 372.933 854.455C371.674 854.455 370.56 854.235 369.589 853.795C368.619 853.34 367.861 852.605 367.315 851.589C366.769 850.574 366.497 849.224 366.497 847.541V823.367ZM391.91 854.455C390.091 854.455 388.446 854.159 386.975 853.568C385.52 852.961 384.277 852.12 383.246 851.044C382.23 849.967 381.449 848.701 380.903 847.246C380.357 845.79 380.084 844.221 380.084 842.538V841.628C380.084 839.703 380.365 837.959 380.926 836.398C381.487 834.836 382.268 833.502 383.268 832.395C384.269 831.273 385.452 830.417 386.816 829.825C388.181 829.234 389.659 828.938 391.251 828.938C393.009 828.938 394.548 829.234 395.867 829.825C397.186 830.417 398.278 831.25 399.142 832.327C400.022 833.388 400.673 834.654 401.098 836.125C401.538 837.595 401.758 839.218 401.758 840.992V843.334H382.745V839.4H396.345V838.968C396.315 837.982 396.118 837.057 395.754 836.193C395.405 835.329 394.867 834.631 394.139 834.101C393.411 833.57 392.441 833.305 391.228 833.305C390.318 833.305 389.507 833.502 388.795 833.896C388.097 834.275 387.513 834.829 387.043 835.556C386.573 836.284 386.21 837.163 385.952 838.194C385.709 839.21 385.588 840.355 385.588 841.628V842.538C385.588 843.614 385.732 844.615 386.02 845.54C386.323 846.45 386.763 847.246 387.339 847.928C387.915 848.61 388.613 849.148 389.431 849.543C390.25 849.922 391.182 850.111 392.229 850.111C393.548 850.111 394.723 849.846 395.754 849.315C396.785 848.785 397.679 848.034 398.437 847.064L401.325 849.861C400.795 850.634 400.105 851.377 399.256 852.09C398.407 852.787 397.368 853.356 396.14 853.795C394.927 854.235 393.517 854.455 391.91 854.455ZM411.98 834.396V854H406.499V829.393H411.661L411.98 834.396ZM411.093 840.787L409.228 840.764C409.228 839.066 409.44 837.497 409.865 836.057C410.289 834.616 410.911 833.365 411.729 832.304C412.548 831.228 413.564 830.401 414.777 829.825C416.005 829.234 417.423 828.938 419.03 828.938C420.152 828.938 421.175 829.105 422.1 829.439C423.04 829.757 423.851 830.265 424.533 830.962C425.231 831.66 425.761 832.554 426.125 833.646C426.504 834.738 426.694 836.057 426.694 837.603V854H421.213V838.081C421.213 836.883 421.031 835.943 420.667 835.261C420.318 834.578 419.81 834.093 419.143 833.805C418.491 833.502 417.711 833.35 416.801 833.35C415.77 833.35 414.891 833.547 414.163 833.942C413.45 834.336 412.867 834.874 412.412 835.556C411.957 836.239 411.623 837.027 411.411 837.921C411.199 838.816 411.093 839.771 411.093 840.787ZM426.353 839.331L423.783 839.9C423.783 838.414 423.987 837.012 424.397 835.693C424.821 834.359 425.435 833.191 426.239 832.19C427.058 831.175 428.066 830.379 429.264 829.803C430.461 829.226 431.833 828.938 433.38 828.938C434.638 828.938 435.76 829.113 436.746 829.461C437.746 829.795 438.595 830.326 439.293 831.053C439.99 831.781 440.521 832.729 440.885 833.896C441.249 835.048 441.43 836.443 441.43 838.081V854H435.927V838.058C435.927 836.815 435.745 835.852 435.381 835.17C435.032 834.487 434.532 834.017 433.88 833.76C433.228 833.487 432.447 833.35 431.538 833.35C430.689 833.35 429.938 833.509 429.286 833.828C428.649 834.131 428.111 834.563 427.672 835.124C427.232 835.67 426.898 836.299 426.671 837.012C426.459 837.724 426.353 838.498 426.353 839.331ZM461.341 847.337C461.341 846.791 461.204 846.298 460.931 845.858C460.658 845.404 460.135 844.994 459.362 844.63C458.604 844.266 457.482 843.933 455.996 843.63C454.692 843.342 453.495 843 452.403 842.606C451.327 842.197 450.402 841.704 449.629 841.128C448.855 840.552 448.256 839.87 447.832 839.081C447.407 838.293 447.195 837.383 447.195 836.352C447.195 835.352 447.415 834.404 447.855 833.509C448.294 832.615 448.924 831.827 449.742 831.144C450.561 830.462 451.554 829.924 452.721 829.53C453.904 829.135 455.223 828.938 456.679 828.938C458.74 828.938 460.507 829.287 461.977 829.984C463.463 830.667 464.6 831.599 465.389 832.782C466.177 833.949 466.571 835.268 466.571 836.739H461.09C461.09 836.087 460.924 835.48 460.59 834.919C460.272 834.343 459.787 833.881 459.135 833.532C458.483 833.168 457.664 832.986 456.679 832.986C455.739 832.986 454.958 833.138 454.336 833.441C453.73 833.729 453.275 834.108 452.972 834.578C452.684 835.048 452.539 835.564 452.539 836.125C452.539 836.534 452.615 836.906 452.767 837.239C452.934 837.558 453.207 837.853 453.586 838.126C453.965 838.384 454.48 838.626 455.132 838.854C455.799 839.081 456.633 839.301 457.634 839.513C459.514 839.908 461.128 840.415 462.478 841.037C463.842 841.644 464.888 842.432 465.616 843.402C466.344 844.357 466.708 845.57 466.708 847.041C466.708 848.133 466.473 849.133 466.003 850.043C465.548 850.937 464.881 851.718 464.001 852.385C463.122 853.037 462.068 853.545 460.84 853.909C459.627 854.273 458.263 854.455 456.747 854.455C454.518 854.455 452.63 854.061 451.084 853.272C449.538 852.469 448.363 851.445 447.559 850.202C446.771 848.944 446.376 847.64 446.376 846.29H451.675C451.736 847.306 452.016 848.117 452.517 848.724C453.032 849.315 453.669 849.747 454.427 850.02C455.2 850.278 455.996 850.407 456.815 850.407C457.8 850.407 458.627 850.278 459.294 850.02C459.961 849.747 460.469 849.383 460.818 848.929C461.166 848.459 461.341 847.928 461.341 847.337Z" fill="black"/>
<g clip-path="url(#clip0_1662_4561)">
<path d="M726.184 427.584H721.682C715.538 427.362 709.414 428.405 703.689 430.648C697.965 432.892 692.763 436.288 688.406 440.625L687.164 442.074V484.924H708.278V460.601L711.125 457.392L712.418 455.892C719.156 448.97 727.544 443.877 736.793 441.091C732.162 437.567 728.51 432.918 726.184 427.584Z" fill="white"/>
<path d="M826.267 440.469C821.91 436.131 816.707 432.735 810.983 430.492C805.259 428.249 799.135 427.206 792.991 427.428C791.107 427.433 789.224 427.537 787.35 427.738C784.98 432.742 781.428 437.094 777 440.417C786.874 443.149 795.818 448.516 802.875 455.942L804.169 457.391L806.964 460.6V484.974H827.353V441.918L826.267 440.469Z" fill="white"/>
<path d="M721.52 417.494H723.125C722.379 411.094 723.502 404.615 726.358 398.839C729.214 393.062 733.681 388.236 739.219 384.943C737.212 381.876 734.442 379.383 731.181 377.708C727.921 376.033 724.281 375.234 720.619 375.388C716.956 375.542 713.397 376.645 710.289 378.588C707.18 380.532 704.63 383.249 702.888 386.474C701.145 389.699 700.27 393.321 700.349 396.986C700.427 400.651 701.455 404.233 703.333 407.381C705.212 410.528 707.875 413.135 711.063 414.944C714.251 416.753 717.855 417.703 721.52 417.701V417.494Z" fill="white"/>
<path d="M790.506 413.613C790.569 414.803 790.569 415.994 790.506 417.184C791.499 417.341 792.502 417.428 793.507 417.443H794.49C798.14 417.248 801.677 416.112 804.757 414.144C807.837 412.177 810.355 409.446 812.066 406.216C813.777 402.987 814.623 399.37 814.521 395.716C814.419 392.063 813.373 388.498 811.485 385.369C809.596 382.24 806.93 379.654 803.745 377.861C800.56 376.069 796.965 375.131 793.31 375.141C789.656 375.15 786.065 376.105 782.89 377.914C779.714 379.722 777.06 382.322 775.188 385.461C779.871 388.519 783.723 392.692 786.396 397.605C789.07 402.519 790.482 408.019 790.506 413.613Z" fill="white"/>
<path d="M756.554 436.796C769.33 436.796 779.687 426.44 779.687 413.664C779.687 400.888 769.33 390.531 756.554 390.531C743.779 390.531 733.422 400.888 733.422 413.664C733.422 426.44 743.779 436.796 756.554 436.796Z" fill="white"/>
<path d="M757.799 449.113C751.041 448.84 744.297 449.937 737.974 452.338C731.651 454.74 725.878 458.395 721.005 463.085L719.711 464.534V497.293C719.731 498.36 719.961 499.412 720.388 500.39C720.816 501.368 721.431 502.253 722.2 502.993C722.969 503.733 723.876 504.314 724.87 504.704C725.863 505.093 726.924 505.283 727.991 505.262H787.453C788.52 505.283 789.58 505.093 790.574 504.704C791.567 504.314 792.475 503.733 793.244 502.993C794.012 502.253 794.628 501.368 795.055 500.39C795.482 499.412 795.712 498.36 795.733 497.293V464.638L794.491 463.085C789.648 458.381 783.896 454.715 777.587 452.312C771.278 449.91 764.544 448.821 757.799 449.113Z" fill="white"/>
</g>
<path d="M245.086 558.536L235.832 585.385H230.237L241.895 554.409H245.469L245.086 558.536ZM252.83 585.385L243.555 558.536L243.15 554.409H246.746L258.447 585.385H252.83ZM252.384 573.896V578.13H235.534V573.896H252.384ZM266.605 566.791V594.235H261.478V562.365H266.201L266.605 566.791ZM281.604 573.662V574.109C281.604 575.783 281.406 577.336 281.008 578.768C280.626 580.187 280.051 581.428 279.285 582.491C278.533 583.541 277.604 584.356 276.498 584.938C275.392 585.52 274.115 585.81 272.669 585.81C271.236 585.81 269.981 585.548 268.903 585.023C267.839 584.484 266.939 583.725 266.201 582.747C265.464 581.768 264.868 580.619 264.414 579.3C263.974 577.967 263.662 576.506 263.478 574.918V573.194C263.662 571.507 263.974 569.975 264.414 568.599C264.868 567.223 265.464 566.039 266.201 565.046C266.939 564.053 267.839 563.287 268.903 562.748C269.967 562.209 271.208 561.94 272.626 561.94C274.073 561.94 275.356 562.224 276.477 562.791C277.597 563.344 278.541 564.138 279.306 565.174C280.072 566.195 280.647 567.429 281.03 568.876C281.413 570.308 281.604 571.904 281.604 573.662ZM276.477 574.109V573.662C276.477 572.599 276.378 571.613 276.179 570.705C275.981 569.783 275.668 568.975 275.243 568.28C274.817 567.585 274.271 567.046 273.605 566.663C272.952 566.266 272.165 566.067 271.243 566.067C270.336 566.067 269.556 566.223 268.903 566.535C268.251 566.833 267.705 567.252 267.265 567.791C266.825 568.33 266.485 568.961 266.244 569.684C266.003 570.393 265.832 571.166 265.733 572.003V576.13C265.903 577.151 266.194 578.088 266.605 578.939C267.017 579.79 267.598 580.47 268.35 580.981C269.116 581.477 270.095 581.726 271.286 581.726C272.208 581.726 272.995 581.527 273.647 581.13C274.3 580.733 274.832 580.187 275.243 579.492C275.668 578.782 275.981 577.967 276.179 577.045C276.378 576.123 276.477 575.145 276.477 574.109ZM291.55 566.791V594.235H286.422V562.365H291.145L291.55 566.791ZM306.548 573.662V574.109C306.548 575.783 306.35 577.336 305.953 578.768C305.57 580.187 304.995 581.428 304.229 582.491C303.478 583.541 302.549 584.356 301.442 584.938C300.336 585.52 299.06 585.81 297.613 585.81C296.18 585.81 294.925 585.548 293.847 585.023C292.784 584.484 291.883 583.725 291.145 582.747C290.408 581.768 289.812 580.619 289.358 579.3C288.919 577.967 288.607 576.506 288.422 574.918V573.194C288.607 571.507 288.919 569.975 289.358 568.599C289.812 567.223 290.408 566.039 291.145 565.046C291.883 564.053 292.784 563.287 293.847 562.748C294.911 562.209 296.152 561.94 297.57 561.94C299.017 561.94 300.301 562.224 301.421 562.791C302.542 563.344 303.485 564.138 304.251 565.174C305.017 566.195 305.591 567.429 305.974 568.876C306.357 570.308 306.548 571.904 306.548 573.662ZM301.421 574.109V573.662C301.421 572.599 301.322 571.613 301.123 570.705C300.925 569.783 300.613 568.975 300.187 568.28C299.762 567.585 299.216 567.046 298.549 566.663C297.897 566.266 297.109 566.067 296.188 566.067C295.28 566.067 294.5 566.223 293.847 566.535C293.195 566.833 292.649 567.252 292.209 567.791C291.77 568.33 291.429 568.961 291.188 569.684C290.947 570.393 290.777 571.166 290.677 572.003V576.13C290.848 577.151 291.138 578.088 291.55 578.939C291.961 579.79 292.542 580.47 293.294 580.981C294.06 581.477 295.039 581.726 296.23 581.726C297.152 581.726 297.939 581.527 298.592 581.13C299.244 580.733 299.776 580.187 300.187 579.492C300.613 578.782 300.925 577.967 301.123 577.045C301.322 576.123 301.421 575.145 301.421 574.109Z" fill="white"/>
<path d="M720.663 542.389H725.982V563.09C725.982 565.444 725.471 567.415 724.45 569.004C723.429 570.592 722.039 571.791 720.28 572.599C718.535 573.394 716.585 573.791 714.429 573.791C712.203 573.791 710.217 573.394 708.473 572.599C706.728 571.791 705.352 570.592 704.345 569.004C703.352 567.415 702.856 565.444 702.856 563.09V542.389H708.175V563.09C708.175 564.579 708.43 565.806 708.941 566.77C709.451 567.72 710.174 568.422 711.111 568.876C712.047 569.33 713.153 569.557 714.429 569.557C715.706 569.557 716.805 569.33 717.727 568.876C718.663 568.422 719.386 567.72 719.897 566.77C720.408 565.806 720.663 564.579 720.663 563.09V542.389ZM744.629 567.132C744.629 566.621 744.501 566.16 744.246 565.749C743.99 565.323 743.501 564.94 742.778 564.6C742.068 564.26 741.019 563.948 739.629 563.664C738.409 563.394 737.289 563.075 736.268 562.707C735.261 562.324 734.395 561.863 733.672 561.324C732.949 560.785 732.388 560.147 731.991 559.409C731.594 558.671 731.396 557.82 731.396 556.856C731.396 555.92 731.601 555.033 732.013 554.197C732.424 553.36 733.013 552.622 733.778 551.984C734.544 551.346 735.473 550.842 736.565 550.474C737.672 550.105 738.906 549.92 740.267 549.92C742.196 549.92 743.848 550.247 745.224 550.899C746.614 551.537 747.678 552.41 748.415 553.516C749.153 554.608 749.522 555.842 749.522 557.218H744.395C744.395 556.608 744.239 556.04 743.926 555.516C743.629 554.977 743.175 554.544 742.565 554.218C741.955 553.878 741.189 553.707 740.267 553.707C739.388 553.707 738.657 553.849 738.076 554.133C737.509 554.402 737.083 554.757 736.799 555.197C736.53 555.636 736.395 556.118 736.395 556.643C736.395 557.026 736.466 557.374 736.608 557.686C736.764 557.984 737.019 558.26 737.374 558.515C737.728 558.757 738.211 558.983 738.821 559.196C739.445 559.409 740.225 559.615 741.161 559.813C742.919 560.182 744.43 560.657 745.692 561.239C746.969 561.806 747.947 562.543 748.628 563.451C749.309 564.345 749.649 565.479 749.649 566.855C749.649 567.876 749.43 568.812 748.99 569.663C748.564 570.5 747.94 571.231 747.118 571.855C746.295 572.465 745.309 572.94 744.16 573.28C743.026 573.621 741.749 573.791 740.331 573.791C738.246 573.791 736.48 573.422 735.034 572.684C733.587 571.933 732.488 570.975 731.736 569.812C730.999 568.635 730.63 567.415 730.63 566.153H735.587C735.644 567.103 735.906 567.862 736.374 568.429C736.856 568.983 737.452 569.387 738.161 569.642C738.884 569.883 739.629 570.004 740.395 570.004C741.317 570.004 742.09 569.883 742.714 569.642C743.338 569.387 743.813 569.046 744.139 568.621C744.465 568.181 744.629 567.685 744.629 567.132ZM764.722 573.791C763.02 573.791 761.481 573.514 760.105 572.961C758.744 572.394 757.581 571.607 756.616 570.6C755.666 569.593 754.936 568.408 754.425 567.047C753.915 565.685 753.659 564.217 753.659 562.643V561.792C753.659 559.991 753.922 558.359 754.446 556.899C754.971 555.438 755.702 554.19 756.638 553.154C757.574 552.105 758.68 551.303 759.957 550.75C761.233 550.197 762.616 549.92 764.105 549.92C765.75 549.92 767.19 550.197 768.424 550.75C769.658 551.303 770.679 552.083 771.487 553.09C772.31 554.083 772.92 555.268 773.317 556.643C773.728 558.019 773.934 559.537 773.934 561.196V563.387H756.148V559.707H768.871V559.303C768.842 558.381 768.658 557.516 768.318 556.707C767.991 555.899 767.488 555.246 766.807 554.75C766.126 554.253 765.219 554.005 764.084 554.005C763.233 554.005 762.474 554.19 761.807 554.558C761.155 554.913 760.609 555.431 760.169 556.111C759.73 556.792 759.389 557.615 759.148 558.579C758.921 559.53 758.808 560.6 758.808 561.792V562.643C758.808 563.65 758.942 564.586 759.212 565.451C759.496 566.302 759.907 567.047 760.446 567.685C760.985 568.323 761.637 568.827 762.403 569.195C763.169 569.55 764.041 569.727 765.02 569.727C766.254 569.727 767.353 569.479 768.318 568.983C769.282 568.486 770.119 567.784 770.828 566.876L773.53 569.493C773.033 570.217 772.388 570.912 771.594 571.578C770.8 572.231 769.828 572.762 768.679 573.174C767.545 573.585 766.226 573.791 764.722 573.791ZM783.518 554.729V573.365H778.391V550.346H783.284L783.518 554.729ZM790.56 550.197L790.517 554.963C790.205 554.906 789.865 554.863 789.496 554.835C789.142 554.807 788.787 554.792 788.432 554.792C787.553 554.792 786.78 554.92 786.113 555.175C785.447 555.416 784.887 555.771 784.433 556.239C783.993 556.693 783.653 557.246 783.412 557.898C783.17 558.551 783.029 559.281 782.986 560.09L781.816 560.175C781.816 558.728 781.958 557.388 782.241 556.154C782.525 554.92 782.951 553.835 783.518 552.899C784.099 551.963 784.823 551.232 785.688 550.708C786.567 550.183 787.581 549.92 788.73 549.92C789.042 549.92 789.376 549.949 789.73 550.006C790.099 550.062 790.376 550.126 790.56 550.197ZM807.122 567.132C807.122 566.621 806.994 566.16 806.739 565.749C806.484 565.323 805.994 564.94 805.271 564.6C804.562 564.26 803.512 563.948 802.122 563.664C800.903 563.394 799.782 563.075 798.761 562.707C797.754 562.324 796.889 561.863 796.165 561.324C795.442 560.785 794.882 560.147 794.485 559.409C794.088 558.671 793.889 557.82 793.889 556.856C793.889 555.92 794.095 555.033 794.506 554.197C794.917 553.36 795.506 552.622 796.272 551.984C797.038 551.346 797.967 550.842 799.059 550.474C800.165 550.105 801.399 549.92 802.761 549.92C804.689 549.92 806.342 550.247 807.718 550.899C809.108 551.537 810.171 552.41 810.909 553.516C811.646 554.608 812.015 555.842 812.015 557.218H806.888C806.888 556.608 806.732 556.04 806.42 555.516C806.122 554.977 805.668 554.544 805.058 554.218C804.448 553.878 803.682 553.707 802.761 553.707C801.881 553.707 801.151 553.849 800.569 554.133C800.002 554.402 799.576 554.757 799.293 555.197C799.023 555.636 798.889 556.118 798.889 556.643C798.889 557.026 798.959 557.374 799.101 557.686C799.257 557.984 799.513 558.26 799.867 558.515C800.222 558.757 800.704 558.983 801.314 559.196C801.938 559.409 802.718 559.615 803.654 559.813C805.413 560.182 806.923 560.657 808.186 561.239C809.462 561.806 810.441 562.543 811.122 563.451C811.802 564.345 812.143 565.479 812.143 566.855C812.143 567.876 811.923 568.812 811.483 569.663C811.058 570.5 810.434 571.231 809.611 571.855C808.788 572.465 807.803 572.94 806.654 573.28C805.519 573.621 804.243 573.791 802.824 573.791C800.739 573.791 798.974 573.422 797.527 572.684C796.08 571.933 794.981 570.975 794.229 569.812C793.492 568.635 793.123 567.415 793.123 566.153H798.08C798.137 567.103 798.399 567.862 798.867 568.429C799.349 568.983 799.945 569.387 800.654 569.642C801.378 569.883 802.122 570.004 802.888 570.004C803.81 570.004 804.583 569.883 805.207 569.642C805.831 569.387 806.306 569.046 806.633 568.621C806.959 568.181 807.122 567.685 807.122 567.132Z" fill="white"/>
<path d="M1234.91 318.989C1234.91 318.351 1234.81 317.783 1234.62 317.287C1234.43 316.79 1234.1 316.337 1233.62 315.925C1233.13 315.514 1232.45 315.117 1231.57 314.734C1230.71 314.337 1229.6 313.932 1228.25 313.521C1226.78 313.067 1225.42 312.564 1224.17 312.011C1222.94 311.443 1221.86 310.791 1220.94 310.053C1220.01 309.302 1219.3 308.444 1218.79 307.479C1218.28 306.5 1218.02 305.373 1218.02 304.096C1218.02 302.834 1218.28 301.685 1218.81 300.65C1219.35 299.615 1220.11 298.721 1221.09 297.969C1222.08 297.203 1223.25 296.615 1224.6 296.203C1225.94 295.778 1227.43 295.565 1229.06 295.565C1231.36 295.565 1233.34 295.991 1235 296.842C1236.67 297.693 1237.96 298.834 1238.85 300.267C1239.76 301.699 1240.21 303.281 1240.21 305.011H1234.91C1234.91 303.99 1234.69 303.089 1234.25 302.309C1233.83 301.515 1233.18 300.891 1232.3 300.437C1231.43 299.983 1230.33 299.756 1229 299.756C1227.74 299.756 1226.69 299.948 1225.85 300.331C1225.01 300.714 1224.39 301.231 1223.98 301.884C1223.57 302.536 1223.36 303.274 1223.36 304.096C1223.36 304.678 1223.5 305.21 1223.77 305.692C1224.04 306.16 1224.45 306.6 1225 307.011C1225.55 307.408 1226.25 307.784 1227.08 308.139C1227.92 308.493 1228.91 308.834 1230.04 309.16C1231.76 309.67 1233.25 310.238 1234.53 310.862C1235.81 311.472 1236.87 312.167 1237.72 312.947C1238.57 313.727 1239.21 314.613 1239.64 315.606C1240.06 316.585 1240.28 317.698 1240.28 318.946C1240.28 320.251 1240.01 321.428 1239.49 322.478C1238.96 323.513 1238.21 324.4 1237.23 325.137C1236.27 325.861 1235.11 326.421 1233.74 326.818C1232.4 327.201 1230.89 327.392 1229.23 327.392C1227.74 327.392 1226.28 327.194 1224.83 326.797C1223.4 326.399 1222.09 325.797 1220.92 324.988C1219.74 324.166 1218.8 323.144 1218.11 321.925C1217.41 320.691 1217.06 319.251 1217.06 317.606H1222.4C1222.4 318.613 1222.57 319.471 1222.91 320.18C1223.27 320.889 1223.76 321.471 1224.38 321.925C1225.01 322.364 1225.73 322.691 1226.55 322.903C1227.39 323.116 1228.28 323.222 1229.23 323.222C1230.48 323.222 1231.52 323.045 1232.36 322.691C1233.21 322.336 1233.85 321.84 1234.28 321.201C1234.7 320.563 1234.91 319.826 1234.91 318.989ZM1249.99 294.289V326.967H1244.88V294.289H1249.99ZM1249.09 314.606L1247.43 314.585C1247.45 312.996 1247.67 311.528 1248.09 310.181C1248.53 308.834 1249.14 307.664 1249.92 306.671C1250.72 305.664 1251.67 304.891 1252.77 304.352C1253.88 303.799 1255.11 303.522 1256.45 303.522C1257.59 303.522 1258.61 303.678 1259.52 303.99C1260.44 304.302 1261.23 304.806 1261.9 305.501C1262.57 306.181 1263.07 307.075 1263.41 308.181C1263.77 309.273 1263.94 310.607 1263.94 312.181V326.967H1258.79V312.138C1258.79 311.032 1258.63 310.153 1258.31 309.5C1257.99 308.848 1257.53 308.38 1256.92 308.096C1256.31 307.798 1255.57 307.649 1254.69 307.649C1253.77 307.649 1252.95 307.834 1252.24 308.202C1251.55 308.571 1250.97 309.075 1250.5 309.713C1250.03 310.351 1249.67 311.089 1249.43 311.926C1249.21 312.762 1249.09 313.656 1249.09 314.606ZM1268.59 315.712V315.223C1268.59 313.564 1268.83 312.025 1269.31 310.607C1269.8 309.174 1270.49 307.933 1271.4 306.883C1272.32 305.82 1273.44 304.997 1274.76 304.416C1276.09 303.82 1277.6 303.522 1279.27 303.522C1280.96 303.522 1282.46 303.82 1283.78 304.416C1285.11 304.997 1286.24 305.82 1287.16 306.883C1288.09 307.933 1288.79 309.174 1289.27 310.607C1289.75 312.025 1289.99 313.564 1289.99 315.223V315.712C1289.99 317.372 1289.75 318.911 1289.27 320.329C1288.79 321.747 1288.09 322.988 1287.16 324.052C1286.24 325.102 1285.12 325.924 1283.8 326.52C1282.48 327.102 1280.99 327.392 1279.31 327.392C1277.63 327.392 1276.12 327.102 1274.78 326.52C1273.46 325.924 1272.34 325.102 1271.42 324.052C1270.5 322.988 1269.8 321.747 1269.31 320.329C1268.83 318.911 1268.59 317.372 1268.59 315.712ZM1273.72 315.223V315.712C1273.72 316.748 1273.82 317.726 1274.04 318.648C1274.25 319.57 1274.58 320.379 1275.04 321.074C1275.49 321.769 1276.07 322.315 1276.78 322.712C1277.49 323.109 1278.33 323.308 1279.31 323.308C1280.26 323.308 1281.09 323.109 1281.78 322.712C1282.49 322.315 1283.07 321.769 1283.53 321.074C1283.98 320.379 1284.31 319.57 1284.53 318.648C1284.75 317.726 1284.87 316.748 1284.87 315.712V315.223C1284.87 314.202 1284.75 313.237 1284.53 312.33C1284.31 311.408 1283.97 310.592 1283.5 309.883C1283.05 309.174 1282.47 308.621 1281.76 308.224C1281.07 307.812 1280.24 307.607 1279.27 307.607C1278.31 307.607 1277.47 307.812 1276.76 308.224C1276.07 308.621 1275.49 309.174 1275.04 309.883C1274.58 310.592 1274.25 311.408 1274.04 312.33C1273.82 313.237 1273.72 314.202 1273.72 315.223ZM1299.88 308.373V335.817H1294.75V303.948H1299.47L1299.88 308.373ZM1314.87 315.244V315.691C1314.87 317.365 1314.68 318.918 1314.28 320.35C1313.9 321.769 1313.32 323.01 1312.55 324.073C1311.8 325.123 1310.87 325.939 1309.77 326.52C1308.66 327.102 1307.39 327.392 1305.94 327.392C1304.51 327.392 1303.25 327.13 1302.17 326.605C1301.11 326.066 1300.21 325.307 1299.47 324.329C1298.73 323.35 1298.14 322.201 1297.68 320.882C1297.24 319.549 1296.93 318.088 1296.75 316.5V314.776C1296.93 313.089 1297.24 311.557 1297.68 310.181C1298.14 308.805 1298.73 307.621 1299.47 306.628C1300.21 305.635 1301.11 304.869 1302.17 304.33C1303.24 303.791 1304.48 303.522 1305.9 303.522C1307.34 303.522 1308.63 303.806 1309.75 304.373C1310.87 304.926 1311.81 305.72 1312.58 306.756C1313.34 307.777 1313.92 309.011 1314.3 310.458C1314.68 311.89 1314.87 313.486 1314.87 315.244ZM1309.75 315.691V315.244C1309.75 314.181 1309.65 313.195 1309.45 312.287C1309.25 311.365 1308.94 310.557 1308.51 309.862C1308.09 309.167 1307.54 308.628 1306.87 308.245C1306.22 307.848 1305.43 307.649 1304.51 307.649C1303.61 307.649 1302.83 307.805 1302.17 308.117C1301.52 308.415 1300.97 308.834 1300.53 309.373C1300.09 309.912 1299.75 310.543 1299.51 311.266C1299.27 311.975 1299.1 312.748 1299 313.585V317.712C1299.17 318.733 1299.46 319.67 1299.88 320.521C1300.29 321.372 1300.87 322.052 1301.62 322.563C1302.39 323.059 1303.36 323.308 1304.56 323.308C1305.48 323.308 1306.26 323.109 1306.92 322.712C1307.57 322.315 1308.1 321.769 1308.51 321.074C1308.94 320.365 1309.25 319.549 1309.45 318.627C1309.65 317.705 1309.75 316.727 1309.75 315.691Z" fill="white"/>
<path d="M1212.59 834.791H1205.98L1206.02 830.557H1212.59C1214.51 830.557 1216.11 830.139 1217.4 829.302C1218.71 828.465 1219.68 827.267 1220.34 825.707C1221 824.147 1221.34 822.289 1221.34 820.133V818.452C1221.34 816.778 1221.15 815.296 1220.76 814.006C1220.39 812.715 1219.84 811.63 1219.1 810.751C1218.38 809.871 1217.49 809.205 1216.42 808.751C1215.37 808.297 1214.16 808.07 1212.78 808.07H1205.85V803.815H1212.78C1214.84 803.815 1216.72 804.162 1218.42 804.857C1220.12 805.538 1221.59 806.524 1222.83 807.815C1224.07 809.105 1225.03 810.651 1225.7 812.453C1226.37 814.254 1226.7 816.268 1226.7 818.495V820.133C1226.7 822.359 1226.37 824.373 1225.7 826.175C1225.03 827.976 1224.07 829.522 1222.83 830.813C1221.58 832.089 1220.09 833.075 1218.36 833.77C1216.64 834.451 1214.72 834.791 1212.59 834.791ZM1208.93 803.815V834.791H1203.59V803.815H1208.93ZM1231.01 823.537V823.047C1231.01 821.388 1231.25 819.849 1231.73 818.431C1232.21 816.998 1232.91 815.757 1233.81 814.708C1234.74 813.644 1235.86 812.821 1237.18 812.24C1238.51 811.644 1240.01 811.346 1241.69 811.346C1243.37 811.346 1244.88 811.644 1246.2 812.24C1247.53 812.821 1248.66 813.644 1249.58 814.708C1250.5 815.757 1251.2 816.998 1251.69 818.431C1252.17 819.849 1252.41 821.388 1252.41 823.047V823.537C1252.41 825.196 1252.17 826.735 1251.69 828.153C1251.2 829.572 1250.5 830.813 1249.58 831.876C1248.66 832.926 1247.54 833.749 1246.22 834.344C1244.9 834.926 1243.4 835.217 1241.73 835.217C1240.04 835.217 1238.53 834.926 1237.2 834.344C1235.88 833.749 1234.76 832.926 1233.84 831.876C1232.91 830.813 1232.21 829.572 1231.73 828.153C1231.25 826.735 1231.01 825.196 1231.01 823.537ZM1236.13 823.047V823.537C1236.13 824.572 1236.24 825.551 1236.45 826.473C1236.67 827.394 1237 828.203 1237.45 828.898C1237.91 829.593 1238.49 830.139 1239.2 830.536C1239.91 830.933 1240.75 831.132 1241.73 831.132C1242.68 831.132 1243.5 830.933 1244.2 830.536C1244.91 830.139 1245.49 829.593 1245.94 828.898C1246.39 828.203 1246.73 827.394 1246.94 826.473C1247.17 825.551 1247.28 824.572 1247.28 823.537V823.047C1247.28 822.026 1247.17 821.062 1246.94 820.154C1246.73 819.232 1246.39 818.417 1245.92 817.707C1245.47 816.998 1244.88 816.445 1244.18 816.048C1243.48 815.637 1242.65 815.431 1241.69 815.431C1240.72 815.431 1239.88 815.637 1239.18 816.048C1238.48 816.445 1237.91 816.998 1237.45 817.707C1237 818.417 1236.67 819.232 1236.45 820.154C1236.24 821.062 1236.13 822.026 1236.13 823.047ZM1262.23 816.686V834.791H1257.1V811.772H1261.93L1262.23 816.686ZM1261.31 822.43L1259.65 822.409C1259.67 820.778 1259.89 819.282 1260.33 817.92C1260.79 816.559 1261.41 815.388 1262.21 814.41C1263.01 813.431 1263.98 812.679 1265.1 812.155C1266.22 811.616 1267.47 811.346 1268.84 811.346C1269.95 811.346 1270.95 811.502 1271.84 811.814C1272.75 812.112 1273.52 812.601 1274.16 813.282C1274.81 813.963 1275.31 814.849 1275.65 815.942C1275.99 817.02 1276.16 818.346 1276.16 819.92V834.791H1271.01V819.899C1271.01 818.792 1270.85 817.92 1270.52 817.282C1270.21 816.629 1269.75 816.169 1269.14 815.899C1268.54 815.615 1267.8 815.474 1266.91 815.474C1266.03 815.474 1265.24 815.658 1264.55 816.027C1263.85 816.395 1263.26 816.899 1262.78 817.537C1262.31 818.175 1261.95 818.913 1261.69 819.75C1261.44 820.587 1261.31 821.48 1261.31 822.43ZM1294.81 830.174V819.197C1294.81 818.374 1294.66 817.665 1294.36 817.069C1294.06 816.473 1293.61 816.012 1293 815.686C1292.4 815.36 1291.65 815.197 1290.74 815.197C1289.91 815.197 1289.18 815.339 1288.57 815.622C1287.96 815.906 1287.49 816.289 1287.15 816.771C1286.81 817.254 1286.64 817.8 1286.64 818.409H1281.53C1281.53 817.502 1281.75 816.622 1282.19 815.771C1282.63 814.92 1283.27 814.162 1284.11 813.495C1284.94 812.828 1285.94 812.304 1287.11 811.921C1288.27 811.538 1289.57 811.346 1291.02 811.346C1292.75 811.346 1294.28 811.637 1295.62 812.218C1296.96 812.8 1298.02 813.679 1298.79 814.857C1299.57 816.02 1299.96 817.48 1299.96 819.239V829.472C1299.96 830.522 1300.03 831.465 1300.17 832.302C1300.33 833.124 1300.55 833.841 1300.83 834.451V834.791H1295.57C1295.33 834.238 1295.14 833.536 1295 832.685C1294.87 831.82 1294.81 830.983 1294.81 830.174ZM1295.55 820.792L1295.6 823.962H1291.91C1290.96 823.962 1290.13 824.054 1289.4 824.239C1288.68 824.409 1288.08 824.664 1287.6 825.005C1287.11 825.345 1286.75 825.756 1286.51 826.239C1286.27 826.721 1286.15 827.267 1286.15 827.877C1286.15 828.487 1286.29 829.047 1286.57 829.557C1286.86 830.054 1287.27 830.444 1287.81 830.728C1288.36 831.011 1289.03 831.153 1289.81 831.153C1290.86 831.153 1291.77 830.94 1292.55 830.515C1293.35 830.075 1293.97 829.543 1294.43 828.919C1294.88 828.281 1295.12 827.678 1295.15 827.111L1296.81 829.387C1296.64 829.969 1296.35 830.593 1295.94 831.259C1295.52 831.926 1294.99 832.564 1294.32 833.174C1293.67 833.77 1292.88 834.259 1291.96 834.642C1291.05 835.025 1290 835.217 1288.81 835.217C1287.31 835.217 1285.97 834.919 1284.79 834.323C1283.61 833.713 1282.69 832.898 1282.02 831.876C1281.36 830.841 1281.02 829.671 1281.02 828.366C1281.02 827.146 1281.25 826.068 1281.7 825.132C1282.17 824.182 1282.85 823.388 1283.75 822.75C1284.65 822.111 1285.76 821.629 1287.06 821.303C1288.37 820.962 1289.86 820.792 1291.53 820.792H1295.55ZM1316.31 811.772V815.516H1303.33V811.772H1316.31ZM1307.07 806.134H1312.2V828.43C1312.2 829.139 1312.3 829.685 1312.5 830.068C1312.71 830.437 1313 830.685 1313.37 830.813C1313.74 830.94 1314.17 831.004 1314.67 831.004C1315.02 831.004 1315.36 830.983 1315.69 830.94C1316.02 830.898 1316.28 830.855 1316.48 830.813L1316.5 834.727C1316.07 834.855 1315.58 834.968 1315.01 835.068C1314.46 835.167 1313.82 835.217 1313.09 835.217C1311.92 835.217 1310.87 835.011 1309.97 834.6C1309.06 834.174 1308.35 833.486 1307.84 832.536C1307.33 831.586 1307.07 830.323 1307.07 828.749V806.134ZM1330.85 835.217C1329.14 835.217 1327.61 834.94 1326.23 834.387C1324.87 833.819 1323.71 833.032 1322.74 832.025C1321.79 831.018 1321.06 829.834 1320.55 828.472C1320.04 827.111 1319.78 825.643 1319.78 824.069V823.218C1319.78 821.416 1320.05 819.785 1320.57 818.324C1321.1 816.863 1321.83 815.615 1322.76 814.58C1323.7 813.53 1324.8 812.729 1326.08 812.176C1327.36 811.623 1328.74 811.346 1330.23 811.346C1331.88 811.346 1333.31 811.623 1334.55 812.176C1335.78 812.729 1336.8 813.509 1337.61 814.516C1338.43 815.509 1339.04 816.693 1339.44 818.069C1339.85 819.445 1340.06 820.962 1340.06 822.622V824.813H1322.27V821.133H1335V820.728C1334.97 819.806 1334.78 818.941 1334.44 818.133C1334.12 817.324 1333.61 816.672 1332.93 816.176C1332.25 815.679 1331.34 815.431 1330.21 815.431C1329.36 815.431 1328.6 815.615 1327.93 815.984C1327.28 816.339 1326.73 816.856 1326.29 817.537C1325.85 818.218 1325.51 819.041 1325.27 820.005C1325.05 820.955 1324.93 822.026 1324.93 823.218V824.069C1324.93 825.076 1325.07 826.012 1325.34 826.877C1325.62 827.728 1326.03 828.472 1326.57 829.111C1327.11 829.749 1327.76 830.252 1328.53 830.621C1329.29 830.976 1330.17 831.153 1331.14 831.153C1332.38 831.153 1333.48 830.905 1334.44 830.408C1335.41 829.912 1336.24 829.21 1336.95 828.302L1339.65 830.919C1339.16 831.642 1338.51 832.337 1337.72 833.004C1336.92 833.656 1335.95 834.188 1334.8 834.6C1333.67 835.011 1332.35 835.217 1330.85 835.217Z" fill="white"/>
<path d="M1205.95 249.907H1220.73V176.037C1220.73 174.078 1221.51 172.199 1222.89 170.814C1224.28 169.429 1226.16 168.65 1228.11 168.65H1316.76V153.876C1316.76 151.917 1315.98 150.038 1314.59 148.653C1313.21 147.268 1311.33 146.489 1309.37 146.489H1286.83C1284.97 129.913 1271.03 116.941 1253.97 116.941C1236.91 116.941 1222.97 129.913 1221.1 146.489H1198.57C1196.61 146.489 1194.73 147.268 1193.34 148.653C1191.96 150.038 1191.18 151.917 1191.18 153.876V235.133C1191.18 239.051 1192.74 242.809 1195.51 245.58C1198.28 248.351 1202.04 249.907 1205.95 249.907ZM1253.97 131.715C1262.89 131.715 1270.35 138.068 1272.07 146.489H1235.87C1237.58 138.068 1245.05 131.715 1253.97 131.715Z" fill="white"/>
<path d="M1331.53 183.424H1242.89C1240.93 183.424 1239.05 184.202 1237.66 185.587C1236.28 186.973 1235.5 188.852 1235.5 190.811V249.907C1235.5 253.825 1237.06 257.583 1239.83 260.353C1242.6 263.124 1246.36 264.681 1250.27 264.681H1324.14C1328.06 264.681 1331.82 263.124 1334.59 260.353C1337.36 257.583 1338.92 253.825 1338.92 249.907V190.811C1338.92 188.852 1338.14 186.973 1336.75 185.587C1335.37 184.202 1333.49 183.424 1331.53 183.424ZM1287.21 235.133C1266.84 235.133 1250.27 218.564 1250.27 198.198H1265.05C1265.05 210.416 1274.99 220.359 1287.21 220.359C1299.43 220.359 1309.37 210.416 1309.37 198.198H1324.14C1324.14 218.564 1307.57 235.133 1287.21 235.133Z" fill="white"/>
<path d="M1310.49 716.175L1284.83 736.696H1250.4V729.81H1278.39C1279.01 729.81 1279.62 729.64 1280.16 729.32C1280.69 729 1281.13 728.541 1281.42 727.992C1281.72 727.443 1281.86 726.824 1281.83 726.202C1281.8 725.58 1281.6 724.978 1281.26 724.459L1275.14 715.287C1273.89 713.399 1272.18 711.85 1270.19 710.78C1268.19 709.709 1265.96 709.15 1263.69 709.151H1209.08C1207.26 709.151 1205.5 709.877 1204.21 711.168C1202.92 712.46 1202.2 714.211 1202.2 716.038V757.355C1202.2 761.007 1203.65 764.51 1206.23 767.093C1208.81 769.676 1212.32 771.127 1215.97 771.127H1282.34C1285.29 771.128 1288.2 770.499 1290.88 769.283C1293.56 768.066 1295.95 766.291 1297.89 764.075L1339.92 716.038L1329.92 712.705C1326.65 711.614 1323.16 711.361 1319.76 711.967C1316.37 712.573 1313.18 714.02 1310.49 716.175ZM1321.04 677.406C1324.14 674.204 1326.06 669.776 1326.06 664.887C1326.06 659.998 1324.14 655.57 1321.04 652.368C1319.47 650.729 1317.58 649.424 1315.49 648.532C1313.41 647.64 1311.16 647.178 1308.89 647.176C1308.89 647.176 1300.32 647.155 1291.72 656.031C1283.11 647.155 1274.54 647.176 1274.54 647.176C1272.27 647.179 1270.03 647.639 1267.94 648.53C1265.85 649.421 1263.97 650.724 1262.39 652.361C1259.29 655.57 1257.37 659.991 1257.37 664.88C1257.37 669.769 1259.29 674.204 1262.39 677.399L1291.72 709.151L1321.04 677.406Z" fill="white"/>
<ellipse cx="1982.03" cy="457.522" rx="172.029" ry="167.522" fill="black"/>
<path d="M1917.33 554.642H1909.43L1909.39 550.749H1916.28C1917.45 550.749 1918.43 550.578 1919.24 550.238C1920.06 549.883 1920.69 549.38 1921.11 548.727C1921.54 548.061 1921.75 547.259 1921.75 546.323C1921.75 545.288 1921.55 544.444 1921.16 543.792C1920.76 543.139 1920.15 542.664 1919.33 542.366C1918.52 542.068 1917.48 541.92 1916.22 541.92H1911.05V568.641H1905.71V537.665H1916.22C1917.92 537.665 1919.44 537.828 1920.77 538.154C1922.12 538.48 1923.26 538.991 1924.2 539.686C1925.15 540.366 1925.87 541.232 1926.35 542.281C1926.84 543.331 1927.09 544.579 1927.09 546.026C1927.09 547.302 1926.79 548.472 1926.18 549.536C1925.57 550.585 1924.67 551.444 1923.48 552.11C1922.28 552.777 1920.8 553.174 1919.03 553.302L1917.33 554.642ZM1917.09 568.641H1907.75L1910.16 564.407H1917.09C1918.3 564.407 1919.31 564.208 1920.11 563.811C1920.92 563.4 1921.53 562.84 1921.92 562.131C1922.33 561.407 1922.54 560.563 1922.54 559.599C1922.54 558.592 1922.36 557.72 1922.01 556.982C1921.65 556.23 1921.09 555.656 1920.33 555.259C1919.56 554.847 1918.56 554.642 1917.33 554.642H1911.33L1911.37 550.749H1919.18L1920.39 552.217C1922.09 552.273 1923.49 552.649 1924.58 553.344C1925.69 554.039 1926.51 554.94 1927.05 556.046C1927.59 557.152 1927.86 558.344 1927.86 559.62C1927.86 561.592 1927.43 563.244 1926.56 564.577C1925.71 565.91 1924.48 566.924 1922.88 567.619C1921.28 568.3 1919.35 568.641 1917.09 568.641ZM1943.31 569.066C1941.61 569.066 1940.07 568.79 1938.7 568.236C1937.34 567.669 1936.17 566.882 1935.21 565.875C1934.26 564.868 1933.53 563.684 1933.02 562.322C1932.51 560.96 1932.25 559.492 1932.25 557.918V557.067C1932.25 555.266 1932.51 553.635 1933.04 552.174C1933.56 550.713 1934.29 549.465 1935.23 548.43C1936.17 547.38 1937.27 546.579 1938.55 546.026C1939.82 545.472 1941.21 545.196 1942.7 545.196C1944.34 545.196 1945.78 545.472 1947.02 546.026C1948.25 546.579 1949.27 547.359 1950.08 548.366C1950.9 549.359 1951.51 550.543 1951.91 551.919C1952.32 553.294 1952.53 554.812 1952.53 556.471V558.663H1934.74V554.982H1947.46V554.578C1947.43 553.656 1947.25 552.791 1946.91 551.982C1946.58 551.174 1946.08 550.522 1945.4 550.025C1944.72 549.529 1943.81 549.281 1942.68 549.281C1941.82 549.281 1941.07 549.465 1940.4 549.834C1939.75 550.188 1939.2 550.706 1938.76 551.387C1938.32 552.068 1937.98 552.89 1937.74 553.855C1937.51 554.805 1937.4 555.876 1937.4 557.067V557.918C1937.4 558.925 1937.53 559.861 1937.8 560.726C1938.09 561.577 1938.5 562.322 1939.04 562.96C1939.58 563.599 1940.23 564.102 1940.99 564.471C1941.76 564.825 1942.63 565.003 1943.61 565.003C1944.85 565.003 1945.94 564.754 1946.91 564.258C1947.87 563.762 1948.71 563.06 1949.42 562.152L1952.12 564.769C1951.63 565.492 1950.98 566.187 1950.19 566.854C1949.39 567.506 1948.42 568.038 1947.27 568.449C1946.14 568.86 1944.82 569.066 1943.31 569.066ZM1962.05 550.536V568.641H1956.92V545.621H1961.75L1962.05 550.536ZM1961.13 556.28L1959.47 556.259C1959.49 554.628 1959.71 553.131 1960.15 551.77C1960.61 550.408 1961.23 549.238 1962.02 548.259C1962.83 547.281 1963.8 546.529 1964.92 546.004C1966.04 545.465 1967.29 545.196 1968.66 545.196C1969.77 545.196 1970.77 545.352 1971.66 545.664C1972.57 545.962 1973.34 546.451 1973.98 547.132C1974.63 547.813 1975.13 548.699 1975.47 549.791C1975.81 550.869 1975.98 552.195 1975.98 553.77V568.641H1970.83V553.748C1970.83 552.642 1970.67 551.77 1970.34 551.132C1970.03 550.479 1969.57 550.018 1968.96 549.749C1968.36 549.465 1967.62 549.323 1966.73 549.323C1965.85 549.323 1965.06 549.508 1964.36 549.876C1963.67 550.245 1963.08 550.749 1962.6 551.387C1962.13 552.025 1961.77 552.763 1961.51 553.599C1961.26 554.436 1961.13 555.33 1961.13 556.28ZM1991.8 569.066C1990.1 569.066 1988.56 568.79 1987.18 568.236C1985.82 567.669 1984.66 566.882 1983.69 565.875C1982.74 564.868 1982.01 563.684 1981.5 562.322C1980.99 560.96 1980.74 559.492 1980.74 557.918V557.067C1980.74 555.266 1981 553.635 1981.52 552.174C1982.05 550.713 1982.78 549.465 1983.71 548.43C1984.65 547.38 1985.76 546.579 1987.03 546.026C1988.31 545.472 1989.69 545.196 1991.18 545.196C1992.83 545.196 1994.27 545.472 1995.5 546.026C1996.73 546.579 1997.76 547.359 1998.56 548.366C1999.39 549.359 2000 550.543 2000.39 551.919C2000.8 553.294 2001.01 554.812 2001.01 556.471V558.663H1983.22V554.982H1995.95V554.578C1995.92 553.656 1995.73 552.791 1995.39 551.982C1995.07 551.174 1994.56 550.522 1993.88 550.025C1993.2 549.529 1992.29 549.281 1991.16 549.281C1990.31 549.281 1989.55 549.465 1988.88 549.834C1988.23 550.188 1987.69 550.706 1987.25 551.387C1986.81 552.068 1986.47 552.89 1986.22 553.855C1986 554.805 1985.88 555.876 1985.88 557.067V557.918C1985.88 558.925 1986.02 559.861 1986.29 560.726C1986.57 561.577 1986.98 562.322 1987.52 562.96C1988.06 563.599 1988.71 564.102 1989.48 564.471C1990.25 564.825 1991.12 565.003 1992.1 565.003C1993.33 565.003 1994.43 564.754 1995.39 564.258C1996.36 563.762 1997.19 563.06 1997.9 562.152L2000.61 564.769C2000.11 565.492 1999.46 566.187 1998.67 566.854C1997.88 567.506 1996.9 568.038 1995.76 568.449C1994.62 568.86 1993.3 569.066 1991.8 569.066ZM2012.04 568.641H2006.89V544.132C2006.89 542.274 2007.26 540.707 2008 539.43C2008.75 538.154 2009.82 537.182 2011.21 536.516C2012.62 535.849 2014.28 535.516 2016.21 535.516C2017.35 535.516 2018.44 535.636 2019.49 535.877C2020.55 536.119 2021.65 536.424 2022.78 536.792L2022 540.962C2021.27 540.721 2020.47 540.494 2019.59 540.281C2018.71 540.054 2017.7 539.941 2016.55 539.941C2015 539.941 2013.86 540.296 2013.13 541.005C2012.4 541.7 2012.04 542.742 2012.04 544.132V568.641ZM2016.66 545.621V549.366H2003.36V545.621H2016.66ZM2025.21 545.621V568.641H2020.08V545.621H2025.21ZM2041.92 545.621V549.366H2028.94V545.621H2041.92ZM2032.69 539.984H2037.81V562.279C2037.81 562.989 2037.91 563.535 2038.11 563.918C2038.33 564.286 2038.62 564.535 2038.98 564.662C2039.35 564.79 2039.79 564.854 2040.28 564.854C2040.64 564.854 2040.98 564.832 2041.3 564.79C2041.63 564.747 2041.89 564.705 2042.09 564.662L2042.11 568.577C2041.69 568.704 2041.19 568.818 2040.62 568.917C2040.07 569.016 2039.43 569.066 2038.71 569.066C2037.53 569.066 2036.49 568.86 2035.58 568.449C2034.67 568.024 2033.96 567.336 2033.45 566.386C2032.94 565.435 2032.69 564.173 2032.69 562.599V539.984ZM2059.23 562.407C2059.23 561.897 2059.1 561.436 2058.84 561.024C2058.59 560.599 2058.1 560.216 2057.38 559.875C2056.67 559.535 2055.62 559.223 2054.23 558.939C2053.01 558.67 2051.89 558.351 2050.87 557.982C2049.86 557.599 2048.99 557.138 2048.27 556.599C2047.55 556.06 2046.99 555.422 2046.59 554.684C2046.19 553.947 2045.99 553.096 2045.99 552.131C2045.99 551.195 2046.2 550.309 2046.61 549.472C2047.02 548.635 2047.61 547.898 2048.38 547.259C2049.14 546.621 2050.07 546.118 2051.16 545.749C2052.27 545.38 2053.5 545.196 2054.87 545.196C2056.79 545.196 2058.45 545.522 2059.82 546.174C2061.21 546.813 2062.28 547.685 2063.01 548.791C2063.75 549.883 2064.12 551.117 2064.12 552.493H2058.99C2058.99 551.883 2058.84 551.316 2058.53 550.791C2058.23 550.252 2057.77 549.82 2057.16 549.493C2056.55 549.153 2055.79 548.983 2054.87 548.983C2053.99 548.983 2053.26 549.125 2052.67 549.408C2052.11 549.678 2051.68 550.032 2051.4 550.472C2051.13 550.912 2050.99 551.394 2050.99 551.919C2050.99 552.302 2051.06 552.649 2051.21 552.961C2051.36 553.259 2051.62 553.536 2051.97 553.791C2052.33 554.032 2052.81 554.259 2053.42 554.472C2054.04 554.684 2054.82 554.89 2055.76 555.089C2057.52 555.457 2059.03 555.933 2060.29 556.514C2061.57 557.081 2062.55 557.819 2063.23 558.727C2063.91 559.62 2064.25 560.755 2064.25 562.131C2064.25 563.152 2064.03 564.088 2063.59 564.939C2063.16 565.776 2062.54 566.506 2061.72 567.13C2060.89 567.74 2059.91 568.215 2058.76 568.556C2057.62 568.896 2056.35 569.066 2054.93 569.066C2052.84 569.066 2051.08 568.697 2049.63 567.96C2048.19 567.208 2047.09 566.251 2046.33 565.088C2045.6 563.911 2045.23 562.691 2045.23 561.428H2050.19C2050.24 562.379 2050.5 563.138 2050.97 563.705C2051.45 564.258 2052.05 564.662 2052.76 564.918C2053.48 565.159 2054.23 565.279 2054.99 565.279C2055.92 565.279 2056.69 565.159 2057.31 564.918C2057.94 564.662 2058.41 564.322 2058.74 563.896C2059.06 563.457 2059.23 562.96 2059.23 562.407Z" fill="white"/>
<path d="M1990.07 486.278V504.323H1974V487.098C1960.23 486.294 1949.35 482.364 1939.91 472.654L1953.72 458.667C1960.62 465.66 1969.98 467.992 1980.1 467.992C1992.68 467.992 1999.43 463.177 1999.43 454.311C1999.43 450.428 1998.36 447.165 1996.05 444.987C1993.91 442.969 1991.45 441.876 1986.39 441.104L1973.19 439.239C1963.84 437.841 1956.94 434.891 1952.02 430.068C1946.81 424.787 1944.2 417.641 1944.2 408.309C1944.2 390.987 1955.31 378.223 1974 375.353V359.639H1990.07V375.168C2001.18 376.334 2009.89 380.152 2017.52 387.635L2004.03 401.155C1997.12 394.468 1988.84 393.543 1981.62 393.543C1970.27 393.543 1964.75 399.909 1964.75 407.529C1964.75 410.327 1965.68 413.285 1967.98 415.455C1970.12 417.48 1973.65 419.184 1978.1 419.803L1990.98 421.668C2000.96 423.067 2007.24 425.864 2011.85 430.213C2017.68 435.807 2020.29 443.893 2020.29 453.684C2020.29 471.769 2007.69 483.119 1990.07 486.278Z" fill="white"/>
<line x1="1422.43" y1="278.086" x2="1592.43" y2="478.086" stroke="#056426" stroke-width="9"/>
<line x1="1431.51" y1="672.156" x2="1590.51" y2="477.156" stroke="#056426" stroke-width="9"/>
<defs>
<clipPath id="clip0_1662_4561">
<rect width="186.302" height="186.302" fill="white" transform="translate(664.078 344.059)"/>
</clipPath>
</defs>
</svg>
