<svg width="132" height="132" viewBox="0 0 132 132" fill="none" xmlns="http://www.w3.org/2000/svg">
<path d="M73.5222 32.8459L55.0425 57.4829L69.1372 76.2897C71.2044 79.0481 70.6406 82.9975 67.8843 85.0663C67.2281 85.565 66.4795 85.9285 65.6818 86.1356C64.8842 86.3427 64.0534 86.3893 63.2376 86.2726C62.4219 86.156 61.6374 85.8785 60.9296 85.4562C60.2218 85.0339 59.6048 84.4752 59.1143 83.8125C52.5368 75.0359 44.6438 64.5668 39.695 57.859C37.1893 54.5365 32.1779 54.5365 29.6722 57.859L4.61503 91.2725C1.54552 95.4727 4.48974 101.366 9.62646 101.366H122.384C127.52 101.366 130.465 95.4727 127.395 91.3352L83.5451 32.8459C82.9671 32.0593 82.2123 31.4198 81.3418 30.979C80.4712 30.5383 79.5093 30.3086 78.5336 30.3086C77.558 30.3086 76.5961 30.5383 75.7255 30.979C74.8549 31.4198 74.1002 32.0593 73.5222 32.8459Z" fill="#4CA064"/>
</svg>
