<svg width="129" height="129" viewBox="0 0 129 129" fill="none" xmlns="http://www.w3.org/2000/svg">
<g clip-path="url(#clip0_1941_507)">
<path d="M38.5857 62.6849C38.477 64.6113 35.968 65.2836 34.9127 63.6691L28.3807 53.6883C28.2088 53.4259 27.9777 53.2075 27.7061 53.0507C27.4345 52.8939 27.1299 52.803 26.8167 52.7853L14.9071 52.1188C12.9764 52.0112 12.3042 49.5022 13.9229 48.4458L23.9037 41.9137C24.1656 41.7417 24.3835 41.5106 24.5399 41.2391C24.6964 40.9676 24.787 40.6632 24.8045 40.3504L25.4711 28.4407C25.5787 26.5101 28.0876 25.8378 29.144 27.4565L35.6761 37.4373C35.8482 37.6992 36.0792 37.9171 36.3507 38.0736C36.6222 38.23 36.9266 38.3207 37.2395 38.3382L49.1491 39.0047C51.0798 39.1123 51.752 41.6213 50.1333 42.6777L40.1525 49.2097C39.8906 49.3818 39.6727 49.6129 39.5163 49.8844C39.3598 50.1559 39.2692 50.4603 39.2517 50.7731L38.5857 62.6849ZM60.7051 110.741C60.5847 112.885 57.7979 113.632 56.6217 111.835L49.3637 100.745C49.1731 100.454 48.9168 100.212 48.6155 100.038C48.3142 99.8639 47.9763 99.7631 47.6289 99.7436L34.3955 99.0031C32.2517 98.8827 31.5049 96.0959 33.3014 94.9197L44.3916 87.6617C44.6827 87.4711 44.9249 87.2149 45.0989 86.9136C45.2729 86.6123 45.3737 86.2743 45.3932 85.927L46.1336 72.6935C46.254 70.5497 49.0409 69.803 50.2171 71.5994L57.475 82.6896C57.8613 83.281 58.5045 83.6523 59.2098 83.6912L72.4432 84.4317C74.5871 84.5521 75.3338 87.3389 73.5374 88.5151L62.4471 95.7731C62.156 95.9637 61.9138 96.2199 61.7398 96.5212C61.5659 96.8225 61.4651 97.1605 61.4456 97.5078L60.7051 110.741ZM87.9711 76.0207C87.8242 78.6297 84.4354 79.5377 83.0037 77.3518L73.3857 62.6571C73.1538 62.3021 72.8417 62.0067 72.4745 61.7947C72.1073 61.5827 71.6953 61.4601 71.272 61.4368L53.7371 60.4547C51.1282 60.3078 50.2201 56.9189 52.4061 55.4872L67.1007 45.8693C67.4557 45.6374 67.7511 45.3253 67.9631 44.9581C68.1751 44.5909 68.2977 44.1789 68.321 43.7556L69.3031 26.2207C69.4501 23.6117 72.8389 22.7037 74.2706 24.8896L83.8885 39.5843C84.3589 40.3042 85.1436 40.7572 86.0023 40.8046L103.537 41.7867C106.146 41.9336 107.054 45.3225 104.868 46.7542L90.1736 56.3721C89.8186 56.604 89.5231 56.9161 89.3111 57.2833C89.0991 57.6505 88.9765 58.0625 88.9532 58.4858L87.9711 76.0207Z" fill="#FFDD66"/>
<path d="M87.9711 76.0207C87.8242 78.6297 84.4354 79.5377 83.0037 77.3518L73.3857 62.6571C73.1538 62.3021 72.8417 62.0067 72.4745 61.7947C72.1073 61.5827 71.6953 61.4601 71.272 61.4368L53.7371 60.4547C51.1282 60.3078 50.2201 56.9189 52.4061 55.4872L67.1007 45.8693C67.4557 45.6374 67.7511 45.3253 67.9631 44.9581C68.1751 44.5909 68.2977 44.1789 68.321 43.7556L69.3031 26.2207C69.45 23.6117 72.8389 22.7037 74.2706 24.8896L83.8885 39.5843C84.3589 40.3042 85.1436 40.7572 86.0023 40.8046L103.537 41.7867C106.146 41.9336 107.054 45.3224 104.868 46.7542L90.1736 56.3721C89.8186 56.604 89.5231 56.9161 89.3111 57.2833C89.0991 57.6505 88.9765 58.0625 88.9532 58.4858L87.9711 76.0207ZM60.7051 110.741C60.5847 112.885 57.7979 113.632 56.6217 111.835L49.3637 100.745C49.1731 100.454 48.9168 100.212 48.6155 100.038C48.3142 99.8639 47.9763 99.7631 47.6289 99.7436L34.3955 99.0031C32.2517 98.8827 31.5049 96.0959 33.3014 94.9197L44.3916 87.6617C44.6827 87.4711 44.9249 87.2149 45.0989 86.9136C45.2729 86.6123 45.3737 86.2743 45.3932 85.927L46.1336 72.6935C46.254 70.5497 49.0409 69.803 50.2171 71.5994L57.475 82.6896C57.8613 83.281 58.5045 83.6523 59.2098 83.6912L72.4432 84.4317C74.5871 84.5521 75.3338 87.3389 73.5374 88.5151L62.4471 95.7731C62.1561 95.9637 61.9138 96.2199 61.7398 96.5212C61.5659 96.8225 61.4651 97.1605 61.4456 97.5078L60.7051 110.741ZM38.5857 62.6849C38.477 64.6113 35.968 65.2836 34.9127 63.6691L28.3807 53.6883C28.2088 53.4259 27.9777 53.2075 27.7061 53.0507C27.4345 52.8939 27.1299 52.803 26.8167 52.7853L14.9071 52.1188C12.9764 52.0112 12.3042 49.5022 13.9229 48.4458L23.9037 41.9137C24.1656 41.7417 24.3835 41.5106 24.5399 41.2391C24.6964 40.9676 24.787 40.6632 24.8045 40.3504L25.4711 28.4407C25.5787 26.5101 28.0876 25.8378 29.144 27.4565L35.6761 37.4373C35.8482 37.6992 36.0792 37.9171 36.3507 38.0736C36.6222 38.23 36.9266 38.3207 37.2395 38.3382L49.1491 39.0047C51.0798 39.1123 51.752 41.6213 50.1333 42.6777L40.1525 49.2097C39.8906 49.3818 39.6727 49.6129 39.5163 49.8844C39.3598 50.1559 39.2692 50.4603 39.2517 50.7731L38.5857 62.6849Z" stroke="#FFCB14" stroke-width="4.79664" stroke-linecap="round" stroke-linejoin="round"/>
</g>
<defs>
<clipPath id="clip0_1941_507">
<rect width="104.597" height="104.597" fill="white" transform="translate(0 27.0717) rotate(-15)"/>
</clipPath>
</defs>
</svg>
