<svg width="22" height="22" viewBox="0 0 22 22" fill="none" xmlns="http://www.w3.org/2000/svg">
<path d="M17.05 8.25H10.45C10.1611 8.25 9.87501 8.3069 9.6081 8.41746C9.34118 8.52803 9.09865 8.69008 8.89437 8.89437C8.69008 9.09865 8.52803 9.34118 8.41746 9.6081C8.3069 9.87501 8.25 10.1611 8.25 10.45V17.05C8.25 17.6335 8.48179 18.1931 8.89437 18.6056C9.30695 19.0182 9.86652 19.25 10.45 19.25H17.05C17.6335 19.25 18.1931 19.0182 18.6056 18.6056C19.0182 18.1931 19.25 17.6335 19.25 17.05V10.45C19.25 9.86652 19.0182 9.30695 18.6056 8.89437C18.1931 8.48179 17.6335 8.25 17.05 8.25Z" fill="#E6DCFF"/>
<path d="M5.5 13.75H4.95C3.73083 13.75 2.75 12.7692 2.75 11.55V4.95C2.75 3.73083 3.73083 2.75 4.95 2.75H11.55C12.7692 2.75 13.75 3.73083 13.75 4.95V5.5M10.45 8.25H17.05C17.6335 8.25 18.1931 8.48179 18.6056 8.89437C19.0182 9.30695 19.25 9.86652 19.25 10.45V17.05C19.25 17.6335 19.0182 18.1931 18.6056 18.6056C18.1931 19.0182 17.6335 19.25 17.05 19.25H10.45C9.86652 19.25 9.30695 19.0182 8.89437 18.6056C8.48179 18.1931 8.25 17.6335 8.25 17.05V10.45C8.25 10.1611 8.3069 9.87501 8.41746 9.6081C8.52803 9.34118 8.69008 9.09865 8.89437 8.89437C9.09865 8.69008 9.34118 8.52803 9.6081 8.41746C9.87501 8.3069 10.1611 8.25 10.45 8.25Z" stroke="#9A72FF" stroke-width="1.5" stroke-miterlimit="10" stroke-linecap="round" stroke-linejoin="round"/>
</svg>
