<svg width="65" height="41" viewBox="0 0 65 41" fill="none" xmlns="http://www.w3.org/2000/svg">
<path d="M41.6674 25.3593C42.3317 25.8398 43.0397 26.2155 43.7914 26.4863C43.8088 26.4863 44.3551 26.5867 45.4302 26.7877C46.5227 26.9624 47.7376 27.0498 49.0749 27.0498C51.8193 26.9449 54.0437 26.4076 55.7481 25.438C57.4437 24.477 58.7066 23.2714 59.537 21.8213C60.1838 20.7293 60.7563 19.314 61.2545 17.5756C61.7876 15.5838 62.2072 14.0986 62.5131 13.1202C62.8539 12.0806 63.2298 11.2463 63.6406 10.6174C63.9989 10.0757 64.4053 9.64767 64.8598 9.33318C64.8598 7.76943 64.8511 6.18385 64.8336 4.57642C62.5874 4.21825 60.7781 3.95617 59.4059 3.79018C56.4254 3.43201 53.6024 3.29224 50.9366 3.37086C48.262 3.42328 45.6093 3.85133 42.9785 4.65504C40.4351 5.42381 38.2588 6.66869 36.4495 8.38968C35.7328 8.66049 34.9986 8.84832 34.2469 8.95316C32.8485 9.2065 31.6117 9.12351 30.5367 8.70418C29.9074 8.49451 29.3611 8.18439 28.8979 7.7738C28.6094 7.50298 27.7966 6.94824 26.4593 6.10958C22.264 4.76424 18.2128 4.24446 14.3059 4.55022C10.6874 4.82977 5.99389 5.49807 0.225291 6.55512C0.155369 7.06181 0.129135 7.61655 0.146615 8.21934C0.146615 8.7435 0.190317 9.57778 0.27772 10.7222C0.295201 10.862 0.312732 10.9886 0.330213 11.1022C1.14306 11.4779 1.78982 11.9802 2.27053 12.6092C2.524 12.9237 2.74689 13.3342 2.93918 13.8409C3.0091 13.9982 3.17076 14.4525 3.42423 15.2037C4.307 17.7896 5.4083 20.2357 6.72809 22.542C7.15636 23.1535 7.53221 23.6383 7.8556 23.9965C8.77333 25.0536 9.7173 25.8573 10.6875 26.4077C11.4217 26.8008 12.2607 27.1153 13.2046 27.3511C13.9213 27.5259 14.7998 27.6787 15.8399 27.8098C17.8152 28.0369 19.537 28.0369 21.0054 27.8098C22.7796 27.539 24.2917 26.8051 25.5416 25.6083L25.6203 25.5166C25.6552 25.4991 25.6727 25.4816 25.6727 25.4642C25.7863 25.3593 25.9043 25.237 26.0267 25.0973C26.184 24.8963 26.3807 24.6168 26.6167 24.2586C27.5868 22.7211 28.5002 20.8953 29.3567 18.7811C29.7501 17.8289 30.2176 16.5578 30.7595 14.9679C30.8644 14.6796 30.9606 14.3826 31.048 14.0768C31.5112 13.7361 31.8783 13.5308 32.1492 13.4609C32.4552 13.391 32.8222 13.3561 33.2505 13.3561C33.7225 13.3386 34.0809 13.3386 34.3256 13.3561C34.649 13.3736 35.1428 13.5352 35.807 13.8409C35.9644 14.8456 36.1436 15.7498 36.3446 16.5535C36.7029 18.0735 37.1793 19.4232 37.7736 20.6026C38.4291 21.9829 39.2508 23.1666 40.2384 24.1538C40.7017 24.6168 41.178 25.0186 41.6674 25.3593ZM41.6674 25.3593C41.7548 25.6826 41.7636 25.9446 41.6937 26.1456C41.5626 26.5037 41.3178 26.7789 40.9595 26.9711C40.9245 27.0061 40.8895 27.0323 40.8546 27.0498C40.234 26.9274 39.6091 26.9187 38.9798 27.0235C38.2806 27.0934 37.6163 27.2987 36.987 27.6394C36.8122 27.7355 36.4801 27.9321 35.9906 28.2291C35.5624 28.4825 35.2215 28.6703 34.968 28.7926C34.4698 29.011 33.9628 29.1464 33.4472 29.1988C33.3161 29.1988 33.1893 29.1813 33.067 29.1464C32.5426 29.0241 31.9439 28.7926 31.2709 28.4519C29.9598 27.7705 28.9722 27.3948 28.3079 27.3249C27.967 27.29 27.7092 27.2463 27.5344 27.1939C27.2285 27.1327 26.9838 27.0323 26.8002 26.8925C26.6429 26.7877 26.5292 26.6261 26.4593 26.4077C26.3632 26.2155 26.3151 26.0189 26.3151 25.818C26.3151 25.4423 26.6298 24.9662 27.2591 24.3896M40.1335 12.0981C40.3083 12.0806 40.505 12.0326 40.7235 11.954C40.7759 11.9365 40.8284 11.919 40.8808 11.9016C41.2916 11.7443 41.7679 11.6744 42.3098 11.6919C42.6857 11.6919 43.2756 11.7618 44.0798 11.9016C44.2808 11.9365 44.4687 11.9627 44.6435 11.9802C45.6487 12.1811 46.5707 12.299 47.4098 12.334C48.38 12.3689 49.2846 12.3078 50.1237 12.1505C50.4296 12.0981 50.7267 12.0238 51.0152 11.9278C51.6095 11.753 52.182 11.5215 52.7327 11.2333C52.9686 11.1109 53.1915 10.9755 53.4013 10.827C53.9432 10.4688 54.437 10.0408 54.8828 9.54284M40.8808 11.9016C41.2567 11.9016 41.6718 12.0195 42.1263 12.2554C42.4235 12.4126 42.878 12.6703 43.4898 13.0285C44.189 13.3867 45.1461 13.64 46.361 13.7885C47.1913 13.8584 47.9167 13.8846 48.5373 13.8671C49.3152 13.8322 50.0232 13.7055 50.6612 13.4871C51.3605 13.2425 51.9635 12.8581 52.4704 12.334C52.9162 11.8884 53.2265 11.3861 53.4013 10.827M44.0798 11.9016C44.1147 11.9976 44.1497 12.0806 44.1847 12.1505C44.3158 12.3777 44.4687 12.583 44.6435 12.7664C45.0019 13.1071 45.4608 13.3648 46.0201 13.5396C46.5883 13.7405 47.152 13.8409 47.7114 13.8409C48.3407 13.8409 48.9044 13.723 49.4026 13.4871C49.962 13.2425 50.399 12.8756 50.7137 12.3864C50.8448 12.2466 50.9453 12.0937 51.0152 11.9278M42.9261 14.1554C44.3245 15.0378 45.8934 15.5052 47.6327 15.5576C49.3545 15.5925 50.9322 15.1994 52.3656 14.3782M22.0542 35.5411C22.2115 35.5237 22.3601 35.4974 22.4999 35.4625H22.5262C23.9596 35.1393 25.1439 34.8685 26.0791 34.6501C27.2416 34.388 28.2336 34.2264 29.0552 34.1652C29.868 34.0953 30.4886 34.1696 30.9169 34.388C31.3277 34.5802 31.9613 34.7767 32.8179 34.9777C33.7007 35.1699 34.5965 35.0869 35.5055 34.7287C36.4233 34.353 37.3191 34.2133 38.1932 34.3094C39.0934 34.4142 40.3957 34.6981 42.1001 35.1611C43.28 35.4844 44.2371 35.7202 44.9713 35.8687C45.0587 35.8862 45.1373 35.9037 45.2073 35.9211C45.4433 35.9561 45.6399 35.9823 45.7972 35.9998M45.3777 29.094C46.5052 30.6315 47.1651 32.37 47.3574 34.3094C47.5759 36.275 47.3093 38.1182 46.5576 39.8392M12.7196 11.6395C13.209 11.8317 13.7029 12.0107 14.201 12.1767C14.7954 12.334 15.3941 12.4781 15.9972 12.6092C16.4867 12.6965 16.9805 12.7664 17.4787 12.8188C19.1481 12.9936 20.7956 12.9499 22.4213 12.6878C22.4563 12.6878 22.4912 12.6878 22.5262 12.6878C23.0156 12.6179 23.7149 12.5 24.6239 12.334C25.4891 12.2291 26.2321 12.2466 26.8526 12.3864C27.0012 12.334 27.1542 12.2728 27.3115 12.2029M15.9972 12.6092C16.1458 12.9062 16.3337 13.1814 16.5609 13.4347C16.8843 13.7579 17.2733 14.0069 17.7277 14.1816C18.1385 14.3302 18.5843 14.4131 19.065 14.4306C19.5108 14.4306 19.9697 14.3607 20.4416 14.221C21.0797 14.0026 21.6346 13.6619 22.1066 13.1988C22.264 13.0154 22.4038 12.845 22.5262 12.6878M15.2236 15.4265C15.5295 15.7672 15.9491 16.0424 16.4823 16.2521C16.8756 16.4006 17.3781 16.5098 17.99 16.5797C19.3709 16.702 20.6427 16.6102 21.8051 16.3045C23.1162 15.9638 24.1825 15.3741 25.004 14.5354M14.201 12.1767C14.6468 13.0154 15.3548 13.6487 16.325 14.0768C17.199 14.4874 18.156 14.684 19.1961 14.6665C20.0614 14.649 21.0141 14.4874 22.0542 14.1816C22.7097 13.9895 23.6318 13.6619 24.8205 13.1988C25.3012 12.9979 25.9786 12.7271 26.8526 12.3864M21.8575 29.0678C20.9485 30.1947 20.2493 31.4658 19.7599 32.881C19.2792 34.2963 19.0563 35.729 19.0912 37.1791M22.5262 35.4625C22.6398 35.5324 22.7403 35.611 22.8277 35.6984C27.8446 36.6157 31.3102 37.083 33.2243 37.1005C35.2346 37.1354 39.1503 36.7249 44.9713 35.8687M22.8277 35.6984C24.7418 37.4194 26.8002 38.7734 29.0027 39.7606C31.2053 40.7216 33.3729 40.988 35.5055 40.56C37.6382 40.1144 39.5566 39.4243 41.261 38.4895C42.2312 37.9566 43.5466 37.1005 45.2073 35.9211M12.6933 6.8041C15.8136 6.63812 18.8684 6.80847 21.8575 7.31516C22.6616 7.45493 23.3172 7.59907 23.8241 7.74758C24.5233 7.93977 25.1395 8.18876 25.6727 8.49452C26.267 8.85269 26.7696 9.29822 27.1804 9.83112C27.5912 10.3727 27.8883 10.8052 28.0719 11.1284C28.2642 11.4691 28.4347 11.8186 28.5832 12.1767C28.7406 12.5524 28.793 13.177 28.7405 14.0506C28.6881 14.9155 28.5177 15.9463 28.2292 17.1431C28.0457 17.8944 27.7135 18.9515 27.2328 20.3143C26.9619 21.0656 26.7128 21.664 26.4856 22.1096C25.428 23.4549 24.1563 24.5207 22.6704 25.3069C20.5203 26.4339 18.1823 26.8357 15.6563 26.5125C13.1129 26.1543 11.0065 25.1366 9.33706 23.4593C8.42807 22.507 7.63274 21.332 6.95099 19.9343C6.42657 18.8423 5.93271 17.51 5.46947 15.9376C5.216 15.0203 5.04558 14.2384 4.95818 13.592C4.83581 12.7533 4.81835 11.9758 4.90575 11.2595C4.99315 10.4557 5.23351 9.71318 5.62682 9.03178C5.77541 8.79591 5.92836 8.58187 6.08569 8.38968C7.37925 7.4724 9.5818 6.94388 12.6933 6.8041ZM17.9113 0.972828C20.5421 0.81558 23.0331 1.22618 25.3842 2.20461C25.629 2.31817 25.7819 2.42737 25.8431 2.53221C25.8955 2.65451 25.8955 2.78991 25.8431 2.93843C25.7994 3.06073 25.7164 3.15682 25.594 3.22671C25.4192 3.35775 25.1614 3.43201 24.8205 3.44948C23.8154 3.53684 22.6048 3.5281 21.1889 3.42327C19.5719 3.25728 18.3527 3.14808 17.5311 3.09567C16.1152 2.97336 14.8959 2.96463 13.8733 3.06947C12.5535 3.1743 11.3823 3.44949 10.3597 3.89502C10.6307 3.29224 11.2381 2.77681 12.1821 2.34875C13.9738 1.55377 15.8835 1.09513 17.9113 0.972828ZM40.5924 1.51009C41.0906 1.15191 41.9515 0.837424 43.1751 0.566608C44.3726 0.304528 45.3646 0.164743 46.1512 0.147271C46.9204 0.121063 47.79 0.164743 48.7602 0.278311C49.7304 0.365671 50.4471 0.470506 50.9103 0.59281C51.3736 0.723849 52.099 0.968454 53.0867 1.32663C54.319 1.89447 54.791 2.36622 54.5026 2.74187C53.0779 2.54967 52.0422 2.42736 51.3954 2.37495C50.2242 2.27885 49.1929 2.27885 48.3013 2.37495C47.4098 2.44484 46.2167 2.56715 44.7222 2.74187C43.2538 2.90785 42.0826 3.08693 41.2086 3.27913C40.3258 3.49753 39.6965 3.42764 39.3207 3.06947C39.6616 2.37059 40.0854 1.85079 40.5924 1.51009ZM53.5455 5.45438C50.5651 5.45438 47.6239 5.76889 44.7222 6.39788C43.9705 6.58134 43.3543 6.76042 42.8736 6.93514C42.2094 7.17101 41.6281 7.45057 41.1299 7.7738C40.5356 8.16692 40.0505 8.62992 39.6746 9.16282C39.2813 9.72192 38.9842 10.1718 38.7831 10.5125C38.6083 10.8707 38.451 11.2289 38.3112 11.5871C38.1626 11.9802 38.1145 12.5961 38.1669 13.4347C38.2194 14.317 38.3199 15.195 38.4685 16.0686C38.5734 16.9247 38.8312 17.8988 39.242 18.9908C39.6353 20.0653 39.9937 20.8821 40.3171 21.4412C41.3397 22.7254 42.7206 23.8087 44.4599 24.691C46.2167 25.5646 48.3844 25.8311 50.9627 25.4904C53.5761 25.1671 55.5383 24.3372 56.8493 23.0006C58.1691 21.6553 59.1087 20.1702 59.6681 18.5453C60.2449 16.9116 60.5771 15.5663 60.6645 14.5092C60.7694 13.4347 60.8742 12.5218 60.9791 11.7705C61.0927 11.0192 61.1015 10.2941 61.0054 9.59525C60.918 8.79154 60.6864 8.05771 60.3105 7.39378C60.1707 7.15791 60.0177 6.94387 59.8517 6.75168C58.6368 5.88682 56.5347 5.45438 53.5455 5.45438Z" stroke="black" stroke-width="0.278211" stroke-linecap="round" stroke-linejoin="round"/>
<path d="M13.8388 8.87469C15.2547 7.99235 17.064 7.60797 19.2666 7.72153C21.4954 7.86131 23.4838 8.52087 25.2318 9.70023M41.2266 9.16297C42.3017 7.9312 44.0672 7.17116 46.5232 6.88287C49.2415 6.54217 51.361 6.91782 52.8818 8.00981" stroke="black" stroke-width="0.278211" stroke-linecap="round" stroke-linejoin="round"/>
</svg>
