<svg width="46" height="46" viewBox="0 0 46 46" fill="none" xmlns="http://www.w3.org/2000/svg">
<path d="M0 23C0 27.549 1.34893 31.9958 3.8762 35.7781C6.40347 39.5604 9.99558 42.5084 14.1983 44.2492C18.401 45.99 23.0255 46.4455 27.4871 45.5581C31.9486 44.6706 36.0468 42.4801 39.2635 39.2635C42.4801 36.0468 44.6706 31.9486 45.5581 27.4871C46.4455 23.0255 45.99 18.401 44.2492 14.1983C42.5084 9.99558 39.5604 6.40347 35.7781 3.8762C31.9958 1.34893 27.549 0 23 0C16.9 0 11.0499 2.42321 6.73654 6.73654C2.42321 11.0499 0 16.9 0 23ZM9.85714 21.3571H29.8179L20.6507 12.1456L23 9.85714L36.1429 23L23 36.1429L20.6507 33.7985L29.8179 24.6429H9.85714V21.3571Z" fill="#333333"/>
</svg>
