<svg width="34" height="34" viewBox="0 0 34 34" fill="none" xmlns="http://www.w3.org/2000/svg">
<path d="M16.9974 14.6979C16.9974 13.0541 16.3444 11.4777 15.1821 10.3153C14.0197 9.15299 12.4433 8.5 10.7995 8.5C9.15569 8.5 7.57923 9.15299 6.41689 10.3153C5.25456 11.4777 4.60156 13.0541 4.60156 14.6979C4.60156 16.2945 4.82681 18.6419 7.08073 20.8958L16.9974 28.3333C16.9974 28.3333 24.6601 23.1498 26.9141 20.8958C29.168 18.6419 29.3932 16.2945 29.3932 14.6979C29.3932 13.0541 28.7402 11.4777 27.5779 10.3153C26.4156 9.15299 24.8391 8.5 23.1953 8.5C21.5515 8.5 19.9751 9.15299 18.8127 10.3153C17.6504 11.4777 16.9974 13.0541 16.9974 14.6979Z" fill="#666666"/>
</svg>
