<svg width="40" height="40" viewBox="0 0 40 40" fill="none" xmlns="http://www.w3.org/2000/svg">
<path d="M33.4444 4C34.3874 4 35.2918 4.3746 35.9586 5.0414C36.6254 5.70819 37 6.61256 37 7.55556V32.4444C37 33.3874 36.6254 34.2918 35.9586 34.9586C35.2918 35.6254 34.3874 36 33.4444 36H8.55556C7.61256 36 6.70819 35.6254 6.0414 34.9586C5.3746 34.2918 5 33.3874 5 32.4444V7.55556C5 6.61256 5.3746 5.70819 6.0414 5.0414C6.70819 4.3746 7.61256 4 8.55556 4H33.4444ZM32.5556 31.5556V22.1333C32.5556 20.5963 31.945 19.1221 30.8581 18.0353C29.7712 16.9484 28.2971 16.3378 26.76 16.3378C25.2489 16.3378 23.4889 17.2622 22.6356 18.6489V16.6756H17.6756V31.5556H22.6356V22.7911C22.6356 21.4222 23.7378 20.3022 25.1067 20.3022C25.7668 20.3022 26.3998 20.5644 26.8666 21.0312C27.3333 21.498 27.5956 22.131 27.5956 22.7911V31.5556H32.5556ZM11.8978 13.8844C12.6899 13.8844 13.4496 13.5698 14.0097 13.0097C14.5698 12.4496 14.8844 11.6899 14.8844 10.8978C14.8844 9.24444 13.5511 7.89333 11.8978 7.89333C11.1009 7.89333 10.3368 8.20987 9.77331 8.77331C9.20987 9.33676 8.89333 10.1009 8.89333 10.8978C8.89333 12.5511 10.2444 13.8844 11.8978 13.8844ZM14.3689 31.5556V16.6756H9.44444V31.5556H14.3689Z" fill="#814FFF"/>
</svg>
