<svg width="101" height="101" viewBox="0 0 101 101" fill="none" xmlns="http://www.w3.org/2000/svg">
<path d="M91.2254 51.465C91.2254 51.465 90.8965 51.1953 90.2798 50.7602C89.9079 50.4932 89.5293 50.2359 89.1442 49.9884C88.64 49.6531 88.1277 49.3301 87.6077 49.0199C86.6297 48.4321 85.4722 47.7873 84.1634 47.1243C85.0909 45.9875 85.8874 44.9284 86.5429 43.9945C86.8924 43.5 87.2297 42.997 87.5544 42.4859C87.806 42.1035 88.0478 41.7147 88.2794 41.3198C88.6666 40.6719 88.8577 40.2921 88.8577 40.2921C88.9689 40.0677 89.0708 39.8103 89.1399 39.5597C89.7258 37.436 88.479 35.2396 86.3553 34.6535C86.3553 34.6535 85.9452 34.5405 85.2051 34.3928C84.7569 34.2995 84.3063 34.2179 83.8538 34.1481C83.257 34.046 82.6578 33.9587 82.0566 33.8862C81.3111 33.7937 80.4822 33.7104 79.5865 33.6427C79.8256 32.8505 80.0459 32.0527 80.2472 31.25C80.3956 30.663 80.5295 30.0724 80.6488 29.4788C80.7461 29.0314 80.832 28.5816 80.9062 28.1299C81.0345 27.3862 81.0765 26.9629 81.0765 26.9629C81.0997 26.7135 81.102 26.4367 81.0765 26.1781C80.8597 23.9857 78.9068 22.3842 76.7144 22.601C76.7144 22.601 76.2911 22.6428 75.5474 22.7713C75.0956 22.8454 74.6459 22.9313 74.1985 23.0288C73.6724 23.1347 73.0769 23.2659 72.4273 23.4303C71.32 23.7062 70.0457 24.0688 68.6513 24.5256C68.5031 23.066 68.3176 21.7539 68.1206 20.6301C68.0074 19.9697 67.8859 19.3721 67.7693 18.8483C67.6769 18.4 67.5729 17.9541 67.4574 17.5112C67.2731 16.7793 67.1396 16.3756 67.1396 16.3756C67.0558 16.1272 66.9493 15.8871 66.8213 15.6583C65.7338 13.7425 63.2991 13.0707 61.3832 14.1582C61.3832 14.1582 61.0133 14.3682 60.3857 14.7872C60.0028 15.0382 59.6265 15.2991 59.2571 15.5696C58.763 15.9195 58.2775 16.2815 57.8011 16.6552C57.1491 17.1647 56.5093 17.6897 55.8822 18.2297C55.4911 17.5003 55.0828 16.7804 54.6574 16.0705C54.3473 15.5505 54.0243 15.0382 53.6889 14.5341C53.4415 14.1489 53.1841 13.7702 52.9171 13.3985C52.482 12.7817 52.2123 12.4528 52.2123 12.4528C52.0449 12.2511 51.8591 12.0653 51.6574 11.8979C49.9539 10.5008 47.4406 10.7493 46.0436 12.4528C46.0436 12.4528 45.7739 12.7817 45.3388 13.3985C45.0718 13.7702 44.8144 14.1489 44.567 14.5341C44.2317 15.0382 43.9087 15.5505 43.5985 16.0705C43.01 17.0492 42.3647 18.2079 41.7013 19.5181C40.5642 18.5899 39.5051 17.7927 38.571 17.1368C38.0767 16.7872 37.574 16.4498 37.0633 16.1248C36.6811 15.8731 36.2924 15.6312 35.8977 15.3995C35.2503 15.0121 34.8707 14.821 34.8707 14.821C34.6346 14.7038 34.3882 14.6089 34.1345 14.5374C32.0115 13.9529 29.8165 15.2001 29.2321 17.3232C29.2321 17.3232 29.1193 17.733 28.9721 18.4729C28.8971 18.8436 28.8069 19.2997 28.7281 19.8237C28.6263 20.4204 28.5392 21.0196 28.4669 21.6206C28.3662 22.4434 28.2852 23.2684 28.2239 24.095C27.4304 23.855 26.6313 23.6341 25.8272 23.4322C25.2403 23.2836 24.6499 23.1494 24.0564 23.0299C23.6093 22.9324 23.1598 22.8464 22.7082 22.772C21.9648 22.6432 21.5417 22.6012 21.5417 22.6012C21.2794 22.5768 21.0153 22.5768 20.753 22.6012C18.5618 22.819 16.9618 24.7719 17.1798 26.9631C17.1798 26.9631 17.2218 27.3862 17.3507 28.1296C17.4139 28.5024 17.4936 28.9604 17.6086 29.4778C17.7147 30.004 17.8461 30.5993 18.0108 31.2486C18.2874 32.357 18.651 33.633 19.1089 35.0293C17.647 35.177 16.3333 35.3625 15.2081 35.5593C14.5477 35.6723 13.9502 35.7936 13.4264 35.9099C12.9069 36.0149 12.456 36.1277 12.0896 36.2211C11.3579 36.4049 10.9542 36.5382 10.9542 36.5382C10.7045 36.6222 10.4631 36.7294 10.2332 36.8581C8.31873 37.9461 7.64865 40.3801 8.73659 42.2948C8.73659 42.2948 8.94658 42.6645 9.36585 43.2916C9.61692 43.6743 9.87788 44.0503 10.1485 44.4194C10.4985 44.9133 10.8605 45.3986 11.2343 45.8747C11.697 46.4681 12.2253 47.1139 12.812 47.7963C12.0813 48.1877 11.36 48.5965 10.6487 49.0222C10.1287 49.3322 9.61644 49.6549 9.11221 49.9898C8.72712 50.2371 8.34847 50.4942 7.97661 50.7609C7.35986 51.1955 7.03095 51.465 7.03095 51.465C6.82813 51.6332 6.6414 51.8199 6.47318 52.0227C5.07781 53.7262 5.32743 56.2383 7.03095 57.6337C7.03095 57.6337 7.35986 57.9032 7.97661 58.3378C8.28499 58.5567 8.66533 58.8241 9.11221 59.1088C9.61638 59.4439 10.1287 59.7665 10.6487 60.0764C11.6281 60.6647 12.7875 61.31 14.0987 61.9734C13.1695 63.1116 12.3713 64.1717 11.7149 65.1065C11.3653 65.6008 11.0279 66.1036 10.7029 66.6144C10.4512 66.9967 10.2094 67.3853 9.97765 67.78C9.59023 68.4274 9.39912 68.8071 9.39912 68.8071C9.28195 69.0431 9.18701 69.2896 9.11551 69.5432C8.53108 71.6662 9.77828 73.8612 11.9015 74.4457C11.9015 74.4457 12.3114 74.5584 13.0513 74.7057C13.422 74.7807 13.878 74.8708 14.4021 74.9499C14.9311 75.04 15.5339 75.1313 16.199 75.2111C17.0217 75.3118 17.8468 75.3928 18.6734 75.4541C18.4334 76.2475 18.2124 77.0464 18.0106 77.8503C17.862 78.4372 17.7278 79.0276 17.6083 79.6211C17.5108 80.0682 17.4248 80.5177 17.3504 80.9693C17.2218 81.7127 17.1796 82.1358 17.1796 82.1358C17.1551 82.3981 17.1551 82.6622 17.1796 82.9246C17.3974 85.1158 19.3503 86.7157 21.5417 86.4979C21.5417 86.4979 21.9648 86.4559 22.7082 86.3271C23.081 86.2639 23.539 86.1841 24.0564 86.0692C24.5826 85.963 25.1779 85.8316 25.8272 85.6669C26.9357 85.3904 28.2116 85.0268 29.608 84.5688C29.7557 86.0308 29.9411 87.3447 30.1379 88.4702C30.2402 89.0668 30.3571 89.6609 30.4885 90.2518C30.5935 90.7713 30.7063 91.2222 30.7997 91.5886C30.9835 92.3203 31.1168 92.724 31.1168 92.724C31.2009 92.9738 31.308 93.2151 31.4368 93.4451C32.5247 95.3595 34.9587 96.0296 36.8734 94.9417C36.8734 94.9417 37.2431 94.7317 37.8702 94.3124C38.2528 94.0612 38.6289 93.8003 38.9981 93.5298C39.492 93.1798 39.9773 92.8176 40.4534 92.4437C41.1063 91.933 41.7471 91.4068 42.3751 90.8657C42.7665 91.5964 43.1752 92.3176 43.6008 93.0288C43.9109 93.5488 44.2335 94.0611 44.5685 94.5653C44.8156 94.9505 45.0727 95.3291 45.3395 95.7009C45.7741 96.3177 46.0436 96.6463 46.0436 96.6463C46.2118 96.8492 46.3985 97.0359 46.6013 97.2041C48.3049 98.5995 50.817 98.3499 52.2123 96.6463C52.2123 96.6463 52.4818 96.3174 52.9164 95.7009C53.1831 95.3291 53.4402 94.9504 53.6875 94.5653C54.0225 94.0611 54.3451 93.5488 54.6551 93.0288C55.2428 92.0504 55.8874 90.8919 56.5502 89.5822C57.6881 90.5106 58.7482 91.3079 59.683 91.964C60.1775 92.3136 60.6805 92.6508 61.1917 92.9755C61.574 93.2272 61.9628 93.4689 62.3577 93.7006C63.0054 94.0878 63.3855 94.2789 63.3855 94.2789C63.6101 94.39 63.8673 94.4919 64.1178 94.5611C66.2416 95.1469 68.4382 93.9002 69.024 91.7765C69.024 91.7765 69.1371 91.3664 69.2845 90.6262C69.3598 90.2556 69.4499 89.7995 69.5292 89.275C69.6196 88.7458 69.7111 88.1429 69.7911 87.4778C69.8836 86.7322 69.9669 85.9033 70.0346 85.0077C70.8266 85.2469 71.6243 85.4671 72.4268 85.6683C73.0764 85.8328 73.6719 85.964 74.1981 86.0699C74.7157 86.1843 75.1737 86.2643 75.547 86.3271C76.2906 86.4555 76.7139 86.4975 76.7139 86.4975C76.9633 86.5203 77.2403 86.5229 77.4987 86.4975C79.6911 86.2806 81.2927 84.3277 81.0758 82.1353C81.0758 82.1353 81.0341 81.712 80.9055 80.9683C80.8314 80.5165 80.7455 80.0668 80.6481 79.6194C80.5288 79.0258 80.3949 78.4352 80.2465 77.8482C79.9707 76.7409 79.608 75.4666 79.1512 74.0724C80.611 73.9242 81.9231 73.7388 83.0471 73.5418C83.7075 73.4285 84.3052 73.307 84.8292 73.1902C85.349 73.085 85.7999 72.972 86.1663 72.8783C86.8982 72.694 87.3019 72.5605 87.3019 72.5605C87.5503 72.4767 87.7904 72.3702 88.0192 72.2422C89.9351 71.1547 90.6068 68.72 89.5193 66.8041C89.5193 66.8041 89.3093 66.4342 88.8903 65.8066C88.6393 65.4237 88.3784 65.0474 88.1079 64.6781C87.758 64.1839 87.396 63.6984 87.0223 63.222C86.5128 62.57 85.9878 61.9302 85.4479 61.3031C86.1771 60.912 86.8969 60.5037 87.6068 60.0786C88.1268 59.7684 88.6391 59.4455 89.1432 59.11C89.5284 58.8626 89.907 58.6053 90.2788 58.3382C90.8956 57.9032 91.2245 57.6335 91.2245 57.6335C91.4262 57.466 91.612 57.2803 91.7794 57.0785C93.1774 55.3753 92.9289 52.8617 91.2254 51.465Z" fill="#FFB636"/>
<path d="M50.4826 71.5968C60.7981 71.5968 69.1605 63.2344 69.1605 52.9189C69.1605 42.6033 60.7981 34.241 50.4826 34.241C40.1671 34.241 31.8047 42.6033 31.8047 52.9189C31.8047 63.2344 40.1671 71.5968 50.4826 71.5968Z" fill="#68442A"/>
<circle cx="48.2263" cy="39.9496" r="1.39032" fill="black"/>
<circle cx="44.0466" cy="42.7315" r="1.39032" fill="black"/>
<circle cx="49.6091" cy="49.6837" r="1.39032" fill="black"/>
<circle cx="41.2731" cy="48.2923" r="1.39032" fill="black"/>
<circle cx="39.8669" cy="58.0296" r="1.39032" fill="black"/>
<circle cx="46.82" cy="56.6362" r="1.39032" fill="black"/>
<circle cx="53.7809" cy="59.4138" r="1.39032" fill="black"/>
<circle cx="60.7263" cy="60.8068" r="1.39032" fill="black"/>
<circle cx="49.6247" cy="63.5849" r="1.39032" fill="black"/>
<circle cx="55.1794" cy="52.4628" r="1.39032" fill="black"/>
<circle cx="62.1169" cy="53.8545" r="1.39032" fill="black"/>
<circle cx="52.3903" cy="42.7315" r="1.39032" fill="black"/>
<circle cx="57.945" cy="48.2964" r="1.39032" fill="black"/>
<line x1="46.2655" y1="16.9482" x2="46.2655" y2="29.4611" stroke="#DB8D03" stroke-width="1.39032"/>
<line x1="58.5136" y1="18.329" x2="55.1696" y2="30.3867" stroke="#DB8D03" stroke-width="1.39032"/>
<line x1="70.6054" y1="25.7382" x2="61.381" y2="36.8607" stroke="#DB8D03" stroke-width="1.39032"/>
<line x1="82.8907" y1="38.321" x2="69.3464" y2="43.3562" stroke="#DB8D03" stroke-width="1.39032"/>
<line x1="85.7677" y1="54.4082" x2="71.3305" y2="53.8018" stroke="#DB8D03" stroke-width="1.39032"/>
<line x1="82.118" y1="68.4949" x2="69.0437" y2="62.3417" stroke="#DB8D03" stroke-width="1.39032"/>
<line x1="73.2178" y1="80.768" x2="63.5491" y2="70.0294" stroke="#DB8D03" stroke-width="1.39032"/>
<line x1="61.4138" y1="86.9921" x2="56.6615" y2="73.3459" stroke="#DB8D03" stroke-width="1.39032"/>
<line x1="48.8218" y1="87.9351" x2="49.7085" y2="73.5124" stroke="#DB8D03" stroke-width="1.39032"/>
<line x1="34.2613" y1="84.3292" x2="40.3992" y2="71.2477" stroke="#DB8D03" stroke-width="1.39032"/>
<line x1="21.4378" y1="77.7883" x2="31.9635" y2="67.8883" stroke="#DB8D03" stroke-width="1.39032"/>
<line x1="14.7125" y1="66.1206" x2="28.1452" y2="60.7949" stroke="#DB8D03" stroke-width="1.39032"/>
<line x1="9.42956" y1="52.4023" x2="26.1134" y2="52.3993" stroke="#DB8D03" stroke-width="1.39032"/>
<line x1="13.744" y1="38.5216" x2="27.4411" y2="41.8866" stroke="#DB8D03" stroke-width="1.39032"/>
<line x1="21.8329" y1="27.4806" x2="32.4446" y2="36.7719" stroke="#DB8D03" stroke-width="1.39032"/>
<line x1="32.2957" y1="18.0882" x2="37.4407" y2="31.2207" stroke="#DB8D03" stroke-width="1.39032"/>
</svg>
