<svg width="38" height="38" viewBox="0 0 38 38" fill="none" xmlns="http://www.w3.org/2000/svg">
<path d="M10.1913 16.1254C9.97203 16.7912 9.02837 16.7912 8.80987 16.1254L7.45612 12.0087C7.42047 11.9005 7.35992 11.8022 7.27935 11.7216C7.19878 11.641 7.10043 11.5805 6.9922 11.5448L2.87553 10.1911C2.20816 9.97179 2.20816 9.02812 2.87553 8.80962L6.9922 7.45587C7.10028 7.42012 7.19847 7.35953 7.2789 7.27896C7.35933 7.19839 7.41975 7.1001 7.45532 6.99195L8.80907 2.87529C9.02837 2.20791 9.97203 2.20791 10.1905 2.87529L11.5443 6.99195C11.58 7.10004 11.6406 7.19823 11.7212 7.27866C11.8018 7.35909 11.9001 7.41951 12.0082 7.45508L16.1249 8.80883C16.7922 9.02812 16.7922 9.97179 16.1249 10.1903L12.0082 11.544C11.9001 11.5798 11.8019 11.6404 11.7215 11.721C11.6411 11.8015 11.5806 11.8998 11.5451 12.008L10.1913 16.1254ZM13.4348 35.0692C13.191 35.8102 12.1428 35.8102 11.8989 35.0692L10.3948 30.495C10.3553 30.3749 10.2881 30.2658 10.1987 30.1764C10.1094 30.087 10.0003 30.0199 9.8802 29.9804L5.30595 28.4762C4.56495 28.2324 4.56495 27.1842 5.30595 26.9404L9.8802 25.4362C10.0003 25.3967 10.1094 25.3295 10.1987 25.2402C10.2881 25.1508 10.3553 25.0417 10.3948 24.9216L11.8989 20.3474C12.1428 19.6064 13.191 19.6064 13.4348 20.3474L14.939 24.9216C15.0189 25.1655 15.2097 25.3563 15.4535 25.4362L20.0278 26.9404C20.7688 27.1842 20.7688 28.2324 20.0278 28.4762L15.4535 29.9804C15.3335 30.0199 15.2244 30.087 15.135 30.1764C15.0456 30.2658 14.9785 30.3749 14.939 30.495L13.4348 35.0692ZM26.2677 25.4489C25.9708 26.3506 24.6962 26.3506 24.3994 25.4489L22.406 19.3879C22.358 19.2415 22.2762 19.1085 22.1673 18.9995C22.0584 18.8906 21.9253 18.8089 21.779 18.7609L15.718 16.7675C14.8162 16.4706 14.8162 15.196 15.718 14.8991L21.779 12.9057C21.9253 12.8577 22.0584 12.776 22.1673 12.667C22.2762 12.5581 22.358 12.4251 22.406 12.2787L24.3994 6.21771C24.6962 5.316 25.9708 5.316 26.2677 6.21771L28.2611 12.2787C28.3585 12.5756 28.5912 12.8083 28.8881 12.9057L34.9491 14.8991C35.8508 15.196 35.8508 16.4706 34.9491 16.7675L28.8881 18.7609C28.7417 18.8089 28.6087 18.8906 28.4998 18.9995C28.3909 19.1085 28.3091 19.2415 28.2611 19.3879L26.2677 25.4489Z" fill="#FFE37F"/>
<path d="M26.2677 25.4489C25.9708 26.3506 24.6962 26.3506 24.3994 25.4489L22.406 19.3879C22.358 19.2415 22.2762 19.1085 22.1673 18.9995C22.0584 18.8906 21.9253 18.8089 21.779 18.7609L15.718 16.7675C14.8162 16.4706 14.8162 15.196 15.718 14.8991L21.779 12.9057C21.9253 12.8577 22.0584 12.776 22.1673 12.667C22.2762 12.5581 22.358 12.4251 22.406 12.2787L24.3994 6.2177C24.6962 5.316 25.9708 5.316 26.2677 6.2177L28.2611 12.2787C28.3585 12.5756 28.5912 12.8083 28.8881 12.9057L34.9491 14.8991C35.8508 15.196 35.8508 16.4706 34.9491 16.7675L28.8881 18.7609C28.7417 18.8089 28.6087 18.8906 28.4998 18.9995C28.3909 19.1085 28.3091 19.2415 28.2611 19.3879L26.2677 25.4489ZM13.4348 35.0692C13.1909 35.8102 12.1428 35.8102 11.8989 35.0692L10.3948 30.495C10.3553 30.3749 10.2881 30.2658 10.1987 30.1764C10.1094 30.087 10.0003 30.0199 9.8802 29.9804L5.30595 28.4762C4.56495 28.2324 4.56495 27.1842 5.30595 26.9404L9.8802 25.4362C10.0003 25.3967 10.1094 25.3295 10.1987 25.2402C10.2881 25.1508 10.3553 25.0417 10.3948 24.9216L11.8989 20.3474C12.1428 19.6064 13.1909 19.6064 13.4348 20.3474L14.939 24.9216C15.0189 25.1655 15.2097 25.3563 15.4535 25.4362L20.0278 26.9404C20.7688 27.1842 20.7688 28.2324 20.0278 28.4762L15.4535 29.9804C15.3335 30.0199 15.2244 30.087 15.135 30.1764C15.0456 30.2658 14.9785 30.3749 14.939 30.495L13.4348 35.0692ZM10.1913 16.1254C9.97203 16.7912 9.02837 16.7912 8.80987 16.1254L7.45612 12.0087C7.42047 11.9005 7.35992 11.8022 7.27935 11.7216C7.19878 11.641 7.10043 11.5805 6.9922 11.5448L2.87553 10.1911C2.20816 9.97179 2.20816 9.02812 2.87553 8.80962L6.9922 7.45587C7.10028 7.42012 7.19847 7.35953 7.2789 7.27896C7.35933 7.19839 7.41976 7.1001 7.45532 6.99195L8.80907 2.87529C9.02837 2.20791 9.97203 2.20791 10.1905 2.87529L11.5443 6.99195C11.58 7.10004 11.6406 7.19823 11.7212 7.27866C11.8018 7.35909 11.9001 7.41951 12.0082 7.45508L16.1249 8.80883C16.7922 9.02812 16.7922 9.97179 16.1249 10.1903L12.0082 11.544C11.9001 11.5798 11.8019 11.6404 11.7215 11.721C11.6411 11.8015 11.5806 11.8998 11.5451 12.008L10.1913 16.1254Z" stroke="#FFD029" stroke-width="1.88462" stroke-linecap="round" stroke-linejoin="round"/>
</svg>
