<svg width="151" height="34" viewBox="0 0 151 34" fill="none" xmlns="http://www.w3.org/2000/svg">
<path d="M30.7094 17.3249C30.7094 17.3249 30.5987 17.2341 30.3911 17.0876C30.2659 16.9977 30.1384 16.9111 30.0088 16.8278C29.8391 16.7149 29.6666 16.6062 29.4915 16.5018C29.1623 16.3039 28.7727 16.0868 28.3321 15.8636C28.6443 15.481 28.9124 15.1244 29.1331 14.81C29.2508 14.6436 29.3643 14.4743 29.4736 14.3022C29.5583 14.1735 29.6397 14.0426 29.7177 13.9097C29.848 13.6916 29.9123 13.5637 29.9123 13.5637C29.9498 13.4881 29.9841 13.4015 30.0073 13.3171C30.2046 12.6022 29.7849 11.8628 29.07 11.6655C29.07 11.6655 28.9319 11.6275 28.6827 11.5778C28.5319 11.5464 28.3802 11.5189 28.2279 11.4954C28.027 11.4611 27.8252 11.4317 27.6229 11.4072C27.3719 11.3761 27.0929 11.3481 26.7914 11.3253C26.8718 11.0586 26.946 10.79 27.0138 10.5198C27.0637 10.3222 27.1088 10.1234 27.1489 9.92356C27.1817 9.77296 27.2106 9.62155 27.2356 9.46947C27.2788 9.21912 27.2929 9.07663 27.2929 9.07663C27.3007 8.99268 27.3015 8.89951 27.2929 8.81246C27.2199 8.07442 26.5625 7.53527 25.8245 7.60827C25.8245 7.60827 25.682 7.62233 25.4317 7.66561C25.2796 7.69056 25.1282 7.71946 24.9776 7.75227C24.8004 7.78793 24.6 7.83209 24.3813 7.88745C24.0086 7.9803 23.5796 8.10238 23.1102 8.25615C23.0603 7.76482 22.9979 7.32313 22.9315 6.94482C22.8934 6.7225 22.8525 6.52131 22.8133 6.34499C22.7822 6.19407 22.7472 6.04398 22.7083 5.89488C22.6462 5.64849 22.6013 5.51259 22.6013 5.51259C22.5731 5.42897 22.5372 5.34814 22.4941 5.27114C22.1281 4.62619 21.3085 4.40007 20.6635 4.76614C20.6635 4.76614 20.539 4.83683 20.3277 4.97789C20.1988 5.06238 20.0721 5.1502 19.9478 5.24127C19.7815 5.35906 19.618 5.48091 19.4577 5.60672C19.2382 5.77824 19.0228 5.95496 18.8117 6.13673C18.68 5.89121 18.5426 5.64887 18.3994 5.4099C18.295 5.23483 18.1862 5.06237 18.0733 4.89267C17.9901 4.76301 17.9034 4.63554 17.8135 4.51039C17.6671 4.30277 17.5763 4.19205 17.5763 4.19205C17.5199 4.12414 17.4574 4.06161 17.3895 4.00523C16.816 3.53495 15.9699 3.61859 15.4997 4.19205C15.4997 4.19205 15.4089 4.30277 15.2624 4.51039C15.1725 4.63554 15.0859 4.76301 15.0026 4.89267C14.8897 5.06239 14.781 5.23485 14.6766 5.4099C14.4785 5.73936 14.2612 6.12942 14.0379 6.57048C13.6551 6.25801 13.2986 5.98963 12.9841 5.76883C12.8178 5.65117 12.6485 5.53758 12.4766 5.42816C12.3479 5.34342 12.2171 5.26201 12.0842 5.18401C11.8663 5.05359 11.7385 4.98925 11.7385 4.98925C11.659 4.94981 11.5761 4.91785 11.4907 4.89378C10.776 4.69704 10.0371 5.11689 9.84035 5.83157C9.84035 5.83157 9.80239 5.96954 9.75283 6.21862C9.72757 6.3434 9.69723 6.49693 9.6707 6.67334C9.63642 6.87422 9.6071 7.07592 9.58277 7.27825C9.54886 7.55521 9.52158 7.83293 9.50096 8.1112C9.23384 8.03042 8.96482 7.95603 8.69415 7.88809C8.49659 7.83805 8.29783 7.7929 8.09805 7.75267C7.94754 7.71984 7.79621 7.69089 7.64421 7.66585C7.39393 7.62249 7.25152 7.60835 7.25152 7.60835C7.1632 7.60011 7.07431 7.60011 6.986 7.60835C6.24836 7.68166 5.70977 8.33907 5.78316 9.07671C5.78316 9.07671 5.7973 9.21912 5.84066 9.46939C5.86195 9.59489 5.8888 9.74906 5.92748 9.92324C5.96322 10.1004 6.00746 10.3008 6.0629 10.5193C6.15599 10.8925 6.27838 11.322 6.43255 11.7921C5.94042 11.8418 5.49818 11.9042 5.11939 11.9705C4.89707 12.0085 4.69597 12.0493 4.51964 12.0885C4.34474 12.1238 4.19296 12.1618 4.06961 12.1933C3.82331 12.2551 3.68741 12.3 3.68741 12.3C3.60333 12.3283 3.52207 12.3644 3.44468 12.4077C2.80021 12.7739 2.57464 13.5933 2.94088 14.2379C2.94088 14.2379 3.01156 14.3623 3.15271 14.5734C3.23722 14.7022 3.32507 14.8288 3.41616 14.9531C3.53398 15.1194 3.65586 15.2827 3.78169 15.443C3.93744 15.6428 4.11528 15.8601 4.31281 16.0898C4.06683 16.2216 3.824 16.3592 3.58455 16.5025C3.40952 16.6069 3.23706 16.7155 3.06732 16.8283C2.93769 16.9115 2.81022 16.9981 2.68504 17.0878C2.47742 17.2341 2.3667 17.3249 2.3667 17.3249C2.29842 17.3815 2.23556 17.4443 2.17894 17.5126C1.70921 18.0861 1.79324 18.9317 2.3667 19.4015C2.3667 19.4015 2.47742 19.4922 2.68504 19.6385C2.78885 19.7122 2.91689 19.8022 3.06732 19.898C3.23704 20.0108 3.4095 20.1194 3.58455 20.2238C3.91425 20.4218 4.30455 20.639 4.74593 20.8624C4.43314 21.2455 4.16444 21.6024 3.94348 21.9171C3.82579 22.0835 3.71221 22.2527 3.60282 22.4247C3.51808 22.5534 3.43666 22.6842 3.35866 22.817C3.22824 23.035 3.16391 23.1628 3.16391 23.1628C3.12446 23.2423 3.0925 23.3252 3.06843 23.4106C2.87169 24.1253 3.29154 24.8642 4.0063 25.0609C4.0063 25.0609 4.14427 25.0989 4.39335 25.1485C4.51813 25.1737 4.67166 25.2041 4.84807 25.2307C5.02614 25.261 5.22908 25.2917 5.45298 25.3186C5.72994 25.3525 6.00767 25.3798 6.28593 25.4004C6.20516 25.6675 6.13077 25.9364 6.06282 26.2071C6.01278 26.4046 5.96763 26.6034 5.9274 26.8032C5.89457 26.9537 5.86562 27.105 5.84058 27.257C5.7973 27.5073 5.78308 27.6497 5.78308 27.6497C5.77484 27.738 5.77484 27.8269 5.78308 27.9152C5.85639 28.6528 6.5138 29.1914 7.25152 29.1181C7.25152 29.1181 7.39393 29.104 7.64421 29.0606C7.7697 29.0393 7.92387 29.0125 8.09805 28.9738C8.27517 28.9381 8.47556 28.8938 8.69415 28.8384C9.06729 28.7453 9.49683 28.6229 9.96688 28.4687C10.0166 28.9609 10.079 29.4032 10.1453 29.7821C10.1797 29.9829 10.2191 30.1829 10.2633 30.3818C10.2986 30.5567 10.3366 30.7085 10.3681 30.8318C10.4299 31.0781 10.4748 31.214 10.4748 31.214C10.5031 31.2981 10.5392 31.3794 10.5825 31.4568C10.9488 32.1012 11.7681 32.3268 12.4127 31.9606C12.4127 31.9606 12.5371 31.8899 12.7482 31.7487C12.877 31.6642 13.0036 31.5763 13.1279 31.4853C13.2942 31.3675 13.4575 31.2456 13.6178 31.1197C13.8376 30.9478 14.0533 30.7706 14.2647 30.5885C14.3965 30.8344 14.5341 31.0772 14.6774 31.3167C14.7817 31.4917 14.8903 31.6641 15.0031 31.8339C15.0863 31.9635 15.1728 32.091 15.2627 32.2162C15.409 32.4238 15.4997 32.5344 15.4997 32.5344C15.5563 32.6027 15.6192 32.6656 15.6874 32.7222C16.2609 33.1919 17.1065 33.1079 17.5763 32.5344C17.5763 32.5344 17.667 32.4237 17.8133 32.2162C17.9031 32.091 17.9896 31.9635 18.0728 31.8339C18.1856 31.6642 18.2942 31.4917 18.3986 31.3167C18.5964 30.9873 18.8134 30.5973 19.0365 30.1564C19.4196 30.4689 19.7765 30.7373 20.0912 30.9582C20.2576 31.0759 20.427 31.1894 20.599 31.2987C20.7277 31.3834 20.8586 31.4648 20.9915 31.5428C21.2096 31.6731 21.3375 31.7375 21.3375 31.7375C21.4131 31.7749 21.4997 31.8092 21.5841 31.8325C22.299 32.0297 23.0384 31.61 23.2357 30.8951C23.2357 30.8951 23.2737 30.757 23.3234 30.5079C23.3487 30.3831 23.379 30.2295 23.4057 30.053C23.4361 29.8748 23.467 29.6719 23.4939 29.448C23.525 29.197 23.5531 28.918 23.5758 28.6165C23.8425 28.697 24.111 28.7711 24.3812 28.8389C24.5998 28.8942 24.8003 28.9384 24.9774 28.974C25.1517 29.0126 25.3058 29.0395 25.4315 29.0606C25.6818 29.1038 25.8243 29.118 25.8243 29.118C25.9083 29.1257 26.0015 29.1265 26.0885 29.118C26.8265 29.045 27.3657 28.3876 27.2927 27.6495C27.2927 27.6495 27.2786 27.507 27.2354 27.2567C27.2104 27.1046 27.1815 26.9532 27.1487 26.8026C27.1085 26.6028 27.0635 26.404 27.0135 26.2063C26.9207 25.8336 26.7986 25.4046 26.6448 24.9353C27.1362 24.8854 27.5779 24.823 27.9563 24.7566C28.1786 24.7185 28.3798 24.6776 28.5562 24.6383C28.7312 24.6029 28.883 24.5648 29.0063 24.5333C29.2527 24.4713 29.3886 24.4263 29.3886 24.4263C29.4722 24.3981 29.5531 24.3623 29.6301 24.3192C30.275 23.9531 30.5011 23.1335 30.1351 22.4885C30.1351 22.4885 30.0644 22.364 29.9233 22.1527C29.8388 22.0238 29.751 21.8972 29.6599 21.7728C29.5421 21.6065 29.4203 21.4431 29.2945 21.2827C29.123 21.0632 28.9462 20.8478 28.7645 20.6367C29.0099 20.5051 29.2523 20.3676 29.4912 20.2245C29.6663 20.1201 29.8388 20.0114 30.0085 19.8984C30.1381 19.8152 30.2656 19.7285 30.3907 19.6386C30.5984 19.4922 30.7091 19.4014 30.7091 19.4014C30.777 19.345 30.8395 19.2825 30.8959 19.2146C31.3665 18.6412 31.2829 17.7951 30.7094 17.3249Z" fill="#FFB636"/>
<path d="M16.9985 24.1019C20.4711 24.1019 23.2862 21.2868 23.2862 17.8143C23.2862 14.3417 20.4711 11.5267 16.9985 11.5267C13.526 11.5267 10.7109 14.3417 10.7109 17.8143C10.7109 21.2868 13.526 24.1019 16.9985 24.1019Z" fill="#68442A"/>
<circle cx="16.2337" cy="13.4484" r="0.468028" fill="black"/>
<circle cx="14.8274" cy="14.3848" r="0.468028" fill="black"/>
<circle cx="16.7024" cy="16.7252" r="0.468028" fill="black"/>
<circle cx="13.8977" cy="16.2568" r="0.468028" fill="black"/>
<circle cx="13.4212" cy="19.5347" r="0.468028" fill="black"/>
<circle cx="15.7649" cy="19.0657" r="0.468028" fill="black"/>
<circle cx="18.1008" cy="20.0007" r="0.468028" fill="black"/>
<circle cx="20.4446" cy="20.4696" r="0.468028" fill="black"/>
<circle cx="16.7024" cy="21.4048" r="0.468028" fill="black"/>
<circle cx="18.5774" cy="17.6608" r="0.468028" fill="black"/>
<circle cx="20.9133" cy="18.1293" r="0.468028" fill="black"/>
<circle cx="17.6321" cy="14.3848" r="0.468028" fill="black"/>
<circle cx="19.5071" cy="16.2582" r="0.468028" fill="black"/>
<line x1="15.5778" y1="5.70538" x2="15.5778" y2="9.91763" stroke="#DB8D03" stroke-width="0.468028"/>
<line x1="19.7021" y1="6.17015" x2="18.5763" y2="10.2292" stroke="#DB8D03" stroke-width="0.468028"/>
<line x1="23.7661" y1="8.66434" x2="20.6608" y2="12.4086" stroke="#DB8D03" stroke-width="0.468028"/>
<line x1="27.9019" y1="12.9001" x2="23.3424" y2="14.5951" stroke="#DB8D03" stroke-width="0.468028"/>
<line x1="28.873" y1="18.3156" x2="24.0129" y2="18.1115" stroke="#DB8D03" stroke-width="0.468028"/>
<line x1="27.6425" y1="23.0577" x2="23.2413" y2="20.9864" stroke="#DB8D03" stroke-width="0.468028"/>
<line x1="24.6464" y1="27.1892" x2="21.3916" y2="23.5743" stroke="#DB8D03" stroke-width="0.468028"/>
<line x1="20.6774" y1="29.2844" x2="19.0777" y2="24.6907" stroke="#DB8D03" stroke-width="0.468028"/>
<line x1="16.4383" y1="29.6019" x2="16.7368" y2="24.7467" stroke="#DB8D03" stroke-width="0.468028"/>
<line x1="11.5381" y1="28.388" x2="13.6044" y2="23.9843" stroke="#DB8D03" stroke-width="0.468028"/>
<line x1="7.21467" y1="26.1862" x2="10.758" y2="22.8535" stroke="#DB8D03" stroke-width="0.468028"/>
<line x1="4.95281" y1="22.2584" x2="9.47471" y2="20.4656" stroke="#DB8D03" stroke-width="0.468028"/>
<line x1="3.17183" y1="17.6404" x2="8.78817" y2="17.6394" stroke="#DB8D03" stroke-width="0.468028"/>
<line x1="4.62614" y1="12.9676" x2="9.23705" y2="14.1004" stroke="#DB8D03" stroke-width="0.468028"/>
<line x1="7.34947" y1="9.25088" x2="10.9217" y2="12.3786" stroke="#DB8D03" stroke-width="0.468028"/>
<line x1="10.8741" y1="6.08908" x2="12.6061" y2="10.5099" stroke="#DB8D03" stroke-width="0.468028"/>
<path d="M41.762 10.936V23.5H39.242V10.936H41.762ZM48.0678 23.662C47.2518 23.662 46.5198 23.518 45.8718 23.23C45.2238 22.93 44.7078 22.528 44.3238 22.024C43.9518 21.52 43.7478 20.962 43.7118 20.35H46.2498C46.2978 20.734 46.4838 21.052 46.8078 21.304C47.1438 21.556 47.5578 21.682 48.0498 21.682C48.5298 21.682 48.9018 21.586 49.1658 21.394C49.4418 21.202 49.5798 20.956 49.5798 20.656C49.5798 20.332 49.4118 20.092 49.0758 19.936C48.7518 19.768 48.2298 19.588 47.5098 19.396C46.7658 19.216 46.1538 19.03 45.6738 18.838C45.2058 18.646 44.7978 18.352 44.4498 17.956C44.1138 17.56 43.9458 17.026 43.9458 16.354C43.9458 15.802 44.1018 15.298 44.4138 14.842C44.7378 14.386 45.1938 14.026 45.7818 13.762C46.3818 13.498 47.0838 13.366 47.8878 13.366C49.0758 13.366 50.0238 13.666 50.7318 14.266C51.4398 14.854 51.8298 15.652 51.9018 16.66H49.4898C49.4538 16.264 49.2858 15.952 48.9858 15.724C48.6978 15.484 48.3078 15.364 47.8158 15.364C47.3598 15.364 47.0058 15.448 46.7538 15.616C46.5138 15.784 46.3938 16.018 46.3938 16.318C46.3938 16.654 46.5618 16.912 46.8978 17.092C47.2338 17.26 47.7558 17.434 48.4638 17.614C49.1838 17.794 49.7778 17.98 50.2458 18.172C50.7138 18.364 51.1158 18.664 51.4518 19.072C51.7998 19.468 51.9798 19.996 51.9918 20.656C51.9918 21.232 51.8298 21.748 51.5058 22.204C51.1938 22.66 50.7378 23.02 50.1378 23.284C49.5498 23.536 48.8598 23.662 48.0678 23.662ZM59.6764 13.384C60.4324 13.384 61.1044 13.552 61.6924 13.888C62.2804 14.212 62.7364 14.698 63.0604 15.346C63.3964 15.982 63.5644 16.75 63.5644 17.65V23.5H61.0444V17.992C61.0444 17.2 60.8464 16.594 60.4504 16.174C60.0544 15.742 59.5144 15.526 58.8304 15.526C58.1344 15.526 57.5824 15.742 57.1744 16.174C56.7784 16.594 56.5804 17.2 56.5804 17.992V23.5H54.0604V10.18H56.5804V14.77C56.9044 14.338 57.3364 14.002 57.8764 13.762C58.4164 13.51 59.0164 13.384 59.6764 13.384ZM67.2388 12.34C66.7948 12.34 66.4228 12.202 66.1228 11.926C65.8348 11.638 65.6908 11.284 65.6908 10.864C65.6908 10.444 65.8348 10.096 66.1228 9.82C66.4228 9.532 66.7948 9.388 67.2388 9.388C67.6828 9.388 68.0488 9.532 68.3368 9.82C68.6368 10.096 68.7868 10.444 68.7868 10.864C68.7868 11.284 68.6368 11.638 68.3368 11.926C68.0488 12.202 67.6828 12.34 67.2388 12.34ZM68.4808 13.528V23.5H65.9608V13.528H68.4808ZM73.9045 15.598V20.422C73.9045 20.758 73.9825 21.004 74.1385 21.16C74.3065 21.304 74.5825 21.376 74.9665 21.376H76.1365V23.5H74.5525C72.4285 23.5 71.3665 22.468 71.3665 20.404V15.598H70.1785V13.528H71.3665V11.062H73.9045V13.528H76.1365V15.598H73.9045ZM77.301 18.478C77.301 17.47 77.499 16.576 77.895 15.796C78.303 15.016 78.849 14.416 79.533 13.996C80.229 13.576 81.003 13.366 81.855 13.366C82.599 13.366 83.247 13.516 83.799 13.816C84.363 14.116 84.813 14.494 85.149 14.95V13.528H87.687V23.5H85.149V22.042C84.825 22.51 84.375 22.9 83.799 23.212C83.235 23.512 82.581 23.662 81.837 23.662C80.997 23.662 80.229 23.446 79.533 23.014C78.849 22.582 78.303 21.976 77.895 21.196C77.499 20.404 77.301 19.498 77.301 18.478ZM85.149 18.514C85.149 17.902 85.029 17.38 84.789 16.948C84.549 16.504 84.225 16.168 83.817 15.94C83.409 15.7 82.971 15.58 82.503 15.58C82.035 15.58 81.603 15.694 81.207 15.922C80.811 16.15 80.487 16.486 80.235 16.93C79.995 17.362 79.875 17.878 79.875 18.478C79.875 19.078 79.995 19.606 80.235 20.062C80.487 20.506 80.811 20.848 81.207 21.088C81.615 21.328 82.047 21.448 82.503 21.448C82.971 21.448 83.409 21.334 83.817 21.106C84.225 20.866 84.549 20.53 84.789 20.098C85.029 19.654 85.149 19.126 85.149 18.514ZM103.185 14.716C102.897 14.188 102.501 13.786 101.997 13.51C101.493 13.234 100.905 13.096 100.233 13.096C99.4893 13.096 98.8293 13.264 98.2533 13.6C97.6773 13.936 97.2273 14.416 96.9033 15.04C96.5793 15.664 96.4173 16.384 96.4173 17.2C96.4173 18.04 96.5793 18.772 96.9033 19.396C97.2393 20.02 97.7013 20.5 98.2893 20.836C98.8773 21.172 99.5613 21.34 100.341 21.34C101.301 21.34 102.087 21.088 102.699 20.584C103.311 20.068 103.713 19.354 103.905 18.442H99.5853V16.516H106.389V18.712C106.221 19.588 105.861 20.398 105.309 21.142C104.757 21.886 104.043 22.486 103.167 22.942C102.303 23.386 101.331 23.608 100.251 23.608C99.0393 23.608 97.9413 23.338 96.9573 22.798C95.9853 22.246 95.2173 21.484 94.6533 20.512C94.1013 19.54 93.8253 18.436 93.8253 17.2C93.8253 15.964 94.1013 14.86 94.6533 13.888C95.2173 12.904 95.9853 12.142 96.9573 11.602C97.9413 11.05 99.0333 10.774 100.233 10.774C101.649 10.774 102.879 11.122 103.923 11.818C104.967 12.502 105.687 13.468 106.083 14.716H103.185ZM117.668 13.528V23.5H115.13V22.24C114.806 22.672 114.38 23.014 113.852 23.266C113.336 23.506 112.772 23.626 112.16 23.626C111.38 23.626 110.69 23.464 110.09 23.14C109.49 22.804 109.016 22.318 108.668 21.682C108.332 21.034 108.164 20.266 108.164 19.378V13.528H110.684V19.018C110.684 19.81 110.882 20.422 111.278 20.854C111.674 21.274 112.214 21.484 112.898 21.484C113.594 21.484 114.14 21.274 114.536 20.854C114.932 20.422 115.13 19.81 115.13 19.018V13.528H117.668ZM122.674 14.968C122.998 14.512 123.442 14.134 124.006 13.834C124.582 13.522 125.236 13.366 125.968 13.366C126.82 13.366 127.588 13.576 128.272 13.996C128.968 14.416 129.514 15.016 129.91 15.796C130.318 16.564 130.522 17.458 130.522 18.478C130.522 19.498 130.318 20.404 129.91 21.196C129.514 21.976 128.968 22.582 128.272 23.014C127.588 23.446 126.82 23.662 125.968 23.662C125.236 23.662 124.588 23.512 124.024 23.212C123.472 22.912 123.022 22.534 122.674 22.078V28.252H120.154V13.528H122.674V14.968ZM127.948 18.478C127.948 17.878 127.822 17.362 127.57 16.93C127.33 16.486 127.006 16.15 126.598 15.922C126.202 15.694 125.77 15.58 125.302 15.58C124.846 15.58 124.414 15.7 124.006 15.94C123.61 16.168 123.286 16.504 123.034 16.948C122.794 17.392 122.674 17.914 122.674 18.514C122.674 19.114 122.794 19.636 123.034 20.08C123.286 20.524 123.61 20.866 124.006 21.106C124.414 21.334 124.846 21.448 125.302 21.448C125.77 21.448 126.202 21.328 126.598 21.088C127.006 20.848 127.33 20.506 127.57 20.062C127.822 19.618 127.948 19.09 127.948 18.478ZM135.287 15.598V20.422C135.287 20.758 135.365 21.004 135.521 21.16C135.689 21.304 135.965 21.376 136.349 21.376H137.519V23.5H135.935C133.811 23.5 132.749 22.468 132.749 20.404V15.598H131.561V13.528H132.749V11.062H135.287V13.528H137.519V15.598H135.287ZM138.684 18.478C138.684 17.47 138.882 16.576 139.278 15.796C139.686 15.016 140.232 14.416 140.916 13.996C141.612 13.576 142.386 13.366 143.238 13.366C143.982 13.366 144.63 13.516 145.182 13.816C145.746 14.116 146.196 14.494 146.532 14.95V13.528H149.07V23.5H146.532V22.042C146.208 22.51 145.758 22.9 145.182 23.212C144.618 23.512 143.964 23.662 143.22 23.662C142.38 23.662 141.612 23.446 140.916 23.014C140.232 22.582 139.686 21.976 139.278 21.196C138.882 20.404 138.684 19.498 138.684 18.478ZM146.532 18.514C146.532 17.902 146.412 17.38 146.172 16.948C145.932 16.504 145.608 16.168 145.2 15.94C144.792 15.7 144.354 15.58 143.886 15.58C143.418 15.58 142.986 15.694 142.59 15.922C142.194 16.15 141.87 16.486 141.618 16.93C141.378 17.362 141.258 17.878 141.258 18.478C141.258 19.078 141.378 19.606 141.618 20.062C141.87 20.506 142.194 20.848 142.59 21.088C142.998 21.328 143.43 21.448 143.886 21.448C144.354 21.448 144.792 21.334 145.2 21.106C145.608 20.866 145.932 20.53 146.172 20.098C146.412 19.654 146.532 19.126 146.532 18.514Z" fill="#6D3CE6"/>
</svg>
