<svg width="196" height="239" viewBox="0 0 196 239" fill="none" xmlns="http://www.w3.org/2000/svg">
<path d="M151.126 105.091C152.339 105.885 154.071 107.057 156.322 108.61C157.596 109.482 159.027 110.48 160.615 111.605C161.836 112.451 163.071 113.489 164.318 114.718C166.753 117.099 169.248 120.182 171.804 123.967C173.715 126.792 175.665 130.01 177.654 133.62C179.766 137.466 181.912 141.739 184.093 146.439C185.114 148.637 186.152 150.944 187.208 153.359C187.828 154.807 188.46 156.289 189.106 157.807C189.734 159.307 190.371 160.85 191.016 162.437C191.706 163.44 192.526 164.879 193.477 166.754C194.637 169.047 195.335 171.184 195.571 173.164C195.806 175.169 195.567 177.022 194.851 178.723C194.083 180.598 193.342 182.168 192.626 183.432C192.068 184.452 191.531 185.276 191.016 185.904C189.83 187.317 188.717 188.73 187.679 190.142C186.667 191.555 185.616 192.937 184.525 194.289C184.22 194.647 183.914 195.013 183.609 195.388C181.768 197.612 179.818 199.757 177.759 201.824C175.796 203.829 174.007 205.342 172.393 206.363C170.622 207.505 168.886 208.203 167.185 208.456C167.062 208.543 166.923 208.621 166.766 208.691C164.846 209.799 163.298 210.605 162.12 211.111C161.169 211.486 160.274 211.787 159.437 212.014C159.385 212.014 159.341 212.022 159.306 212.04C158.861 212.24 158.42 212.41 157.984 212.55C157.147 212.803 156.558 213.025 156.217 213.217C155.807 213.452 155.506 213.714 155.314 214.002C155.044 215.214 154.289 216.339 153.05 217.377C152.998 217.429 152.928 217.49 152.841 217.56C153.303 219.461 153.796 221.279 154.32 223.015H145.512C145.285 223.206 145.071 223.385 144.871 223.551C143.85 224.405 143.331 224.833 143.313 224.833C140.434 227.135 136.957 229.415 132.883 231.674C132.351 231.953 131.906 232.158 131.548 232.289C131.042 232.463 130.584 232.533 130.174 232.498C129.694 232.463 129.284 232.25 128.944 231.857C128.673 231.587 128.538 231.299 128.538 230.994C128.023 231.447 127.7 231.718 127.569 231.805C127.09 232.267 126.61 232.598 126.13 232.799C125.571 233.043 125.148 233.113 124.86 233.008C124.607 232.904 124.402 232.76 124.245 232.577C124.106 232.437 123.953 232.162 123.787 231.753C123.63 231.325 123.621 230.833 123.761 230.274C123.892 229.795 124.114 229.285 124.428 228.744C124.681 228.369 125.03 227.907 125.475 227.357C126.583 226.032 127.962 224.584 129.611 223.015H127.465C126.496 224.026 125.611 225.025 124.808 226.01C124.433 226.437 124.127 226.76 123.892 226.978C123.517 227.301 123.15 227.514 122.793 227.619C122.077 227.785 121.401 227.554 120.764 226.926C120.494 226.673 120.24 226.376 120.005 226.036C120.005 225.862 120.014 225.683 120.031 225.5C120.066 224.698 120.271 223.895 120.646 223.093C120.664 223.076 120.685 223.049 120.712 223.015H111.289H75.8877C75.8267 223.224 75.7525 223.42 75.6652 223.603C75.4733 223.996 75.2159 224.314 74.8931 224.558C74.5528 224.811 74.1776 224.946 73.7676 224.964C73.2964 224.964 72.8296 224.794 72.3672 224.453C72.0444 224.227 71.6605 223.869 71.2156 223.381C71.1109 223.259 71.0018 223.137 70.8884 223.015H68.5589C69.1522 223.669 69.7498 224.327 70.3518 224.99C71.1021 225.836 71.6474 226.455 71.9877 226.847C72.5461 227.58 72.9779 228.277 73.2833 228.94C73.6585 229.725 73.8723 230.51 73.9246 231.295C73.9421 231.487 73.9508 231.674 73.9508 231.857C73.6978 232.197 73.4491 232.494 73.2048 232.747C72.5592 233.383 71.8699 233.614 71.137 233.44C70.7793 233.335 70.4129 233.122 70.0377 232.799C69.8196 232.598 69.523 232.267 69.1478 231.805C67.4901 229.782 65.444 227.68 63.0098 225.5C62.242 224.802 61.3041 223.974 60.196 223.015H57.9582C58.1588 223.206 58.3682 223.403 58.5863 223.603C60.8897 225.635 62.5954 227.179 63.7035 228.234C65.6142 230.056 67.2065 231.709 68.4803 233.191C68.9078 233.732 69.2481 234.19 69.5011 234.565C69.8414 235.079 70.0726 235.59 70.1948 236.095C70.3344 236.662 70.3256 237.155 70.1686 237.573C70.0115 237.983 69.8588 238.267 69.7105 238.424C69.5535 238.589 69.3397 238.725 69.0693 238.829C68.7988 238.934 68.38 238.86 67.8129 238.607C67.3417 238.415 66.8662 238.097 66.3864 237.652C66.2642 237.539 65.9414 237.26 65.4179 236.815C65.4005 237.12 65.2652 237.417 65.0122 237.704C64.6807 238.079 64.2706 238.284 63.782 238.319C63.3719 238.371 62.9095 238.31 62.3947 238.136C62.037 237.988 61.5877 237.77 61.0467 237.482C56.9897 235.232 53.5215 232.956 50.6423 230.654C50.6249 230.654 50.0971 230.222 49.0588 229.359C48.6488 229.001 48.1645 228.591 47.6061 228.129C46.3934 227.126 45.3464 226.333 44.4652 225.748C44.0726 225.478 43.4662 225.064 42.6461 224.506C41.9306 224.026 41.3417 223.599 40.8793 223.224C40.8095 223.154 40.7353 223.084 40.6568 223.015H31.5219C31.5219 222.744 31.5306 222.465 31.548 222.177C31.6004 220.73 31.8229 219.025 32.2155 217.063C32.0846 217.002 31.9581 216.945 31.836 216.893C30.6406 216.413 29.0964 215.628 27.2031 214.538C27.0373 214.451 26.8933 214.359 26.7712 214.263C25.0698 214.019 23.3336 213.326 21.5624 212.184C19.9396 211.163 18.1423 209.659 16.1705 207.671C14.9752 206.441 13.8147 205.198 12.6892 203.943C11.1886 202.268 9.74895 200.546 8.37043 198.776C7.65499 197.843 6.957 196.914 6.27646 195.99C5.88384 195.431 5.52616 194.921 5.20334 194.459C5.18589 194.424 5.16846 194.398 5.15101 194.381C4.36577 193.517 3.72884 192.567 3.24025 191.529C2.69059 190.299 2.35028 188.987 2.21941 187.592C2.13216 186.589 2.14966 185.525 2.27181 184.4C2.55973 182.133 2.10598 179.883 0.910679 177.65C0.387188 176.7 0.125442 175.697 0.125442 174.642C0.151617 173.194 0.644609 171.637 1.60434 169.972C2.6077 168.315 3.29694 166.322 3.67211 163.994C3.96003 162.337 4.09528 160.514 4.07783 158.526C4.04293 155.971 4.82816 152.727 6.43354 148.794C6.38119 148.881 6.32881 148.964 6.27646 149.043C6.43351 148.668 6.6037 148.301 6.78692 147.944C6.94396 147.586 7.11409 147.22 7.29731 146.845C7.84697 145.572 8.47078 144.255 9.16876 142.895C10.7043 139.624 12.1265 136.607 13.4352 133.843C13.5748 133.555 13.7188 133.276 13.8671 133.005C16.9557 126.465 19.3943 121.316 21.1829 117.557C23.2943 113.11 24.5027 110.611 24.8081 110.062C24.8953 109.861 24.9957 109.669 25.1091 109.486C27.6655 104.882 30.7235 103.016 34.2832 103.888C34.3007 103.853 34.3269 103.827 34.3618 103.809C34.894 103.199 35.5527 102.627 36.338 102.096C36.9487 101.668 37.7121 101.21 38.6282 100.722C40.2511 99.8325 41.7867 99.1262 43.235 98.6029C43.2524 98.1582 43.2001 97.7221 43.0779 97.2948C42.9121 96.8152 42.6155 96.2527 42.188 95.6074C41.6907 94.9098 41.3329 94.3909 41.1148 94.0508C40.347 92.8125 39.9718 91.5 39.9893 90.1135C40.0067 88.6048 40.4997 87.4145 41.4682 86.5424C41.8434 86.2198 42.345 85.9145 42.9732 85.6268C42.9732 85.4349 42.9819 85.23 42.9994 85.012C42.9994 84.4277 42.9427 83.8739 42.8293 83.3507C42.742 83.0455 42.6111 82.5833 42.4366 81.9641C42.236 81.3886 42.1007 80.9395 42.0309 80.6168C41.7954 79.5791 41.7517 78.5326 41.9001 77.4774C41.7343 77.303 41.5816 77.1242 41.442 76.9411C40.9185 76.2435 40.6044 75.4324 40.4997 74.5081C40.3775 73.2872 40.6306 72.232 41.2588 71.3425C41.5031 70.985 41.9044 70.5533 42.4628 70.0475C43.0822 69.4807 43.5011 69.0708 43.7192 68.8179C43.8239 68.7133 43.9155 68.5999 43.994 68.4778C43.0256 67.7976 42.3101 67.2395 41.8477 66.8035C41.2021 66.2541 40.7004 65.6393 40.3427 64.9591C39.9501 64.2266 39.745 63.4592 39.7276 62.6569C39.7101 61.7761 39.9152 61.0087 40.3427 60.3546C40.8225 59.5959 41.7605 58.8329 43.1564 58.0655C44.0115 57.6033 44.5655 57.3024 44.8185 57.1629C45.4118 56.7879 45.896 56.3911 46.2712 55.9726C46.8209 55.3534 47.2135 54.5773 47.449 53.6442C47.6235 52.9465 47.7326 52.0527 47.7762 50.9626C47.7762 49.7156 47.785 48.7694 47.8024 48.1241C47.8199 47.0166 47.9246 46.0965 48.1165 45.364C48.387 44.3263 48.8538 43.367 49.5169 42.4862C49.6739 42.2944 49.844 42.0982 50.0273 41.8976C49.4514 41.8976 48.8799 41.854 48.3128 41.7668C46.9517 41.5924 45.9048 41.1651 45.1719 40.4849C44.6658 40.014 44.2994 39.4123 44.0726 38.6797C43.8544 38.0431 43.7366 37.328 43.7192 36.5345C43.7192 36.0548 43.7628 35.3398 43.85 34.3892C43.8675 34.0753 43.8849 33.7831 43.9024 33.5128C44.7836 34.5505 45.8393 35.3005 47.0695 35.7627C48.5964 36.3383 49.9575 36.3034 51.1528 35.6581C51.6676 35.3703 52.1387 34.9691 52.5662 34.4546C52.7843 34.1843 52.985 33.8791 53.1682 33.539C53.5957 32.8239 53.9796 31.8603 54.3199 30.6481C54.9568 28.2848 55.4672 26.3968 55.8511 24.9841V24.9579C55.9384 24.6527 56.0082 24.365 56.0605 24.0946C56.7585 21.4872 57.4914 19.3724 58.2591 17.7504C58.6692 16.8348 59.136 15.9845 59.6595 15.1997C59.834 14.9293 60.0128 14.6808 60.196 14.4541C60.196 14.4105 60.2048 14.3887 60.2222 14.3887C60.2397 14.3712 60.2571 14.345 60.2746 14.3102C60.8242 13.5428 61.4481 12.8277 62.1461 12.1649C63.6293 10.7348 65.239 9.7624 66.9753 9.24789C67.0974 9.06476 67.2239 8.88599 67.3548 8.71158C68.4803 7.08084 69.8457 5.72043 71.4511 4.63036C72.184 4.15073 72.9562 3.73215 73.7676 3.3746C74.23 3.15659 74.6924 2.96911 75.1548 2.81214C75.1723 2.81214 75.1985 2.81214 75.2334 2.81214C75.2944 2.7947 75.3424 2.77725 75.3773 2.75981C75.8397 2.62028 76.3021 2.48512 76.7645 2.35431C78.684 1.927 80.6079 1.84851 82.536 2.11885C83.7139 2.27582 84.7609 2.56795 85.677 2.99526C86.5495 3.38768 87.531 4.1115 88.6216 5.16669C89.4243 4.31207 90.3099 3.5621 91.2783 2.91678C91.3132 2.88189 91.3482 2.85574 91.3831 2.83829C91.4354 2.82085 91.4834 2.7947 91.527 2.75981C92.129 2.36739 92.7703 2.00984 93.4508 1.68718C93.9918 1.43428 94.5284 1.22064 95.0606 1.04623C96.6136 0.470674 98.2233 0.165455 99.8898 0.130573C101.801 0.0782494 103.698 0.383468 105.583 1.04623C105.844 1.11599 106.111 1.21191 106.381 1.334C106.599 1.42993 106.822 1.52149 107.048 1.6087C107.083 1.62614 107.11 1.64358 107.127 1.66102C108.916 2.49819 110.49 3.61442 111.852 5.00971C112.672 5.84688 113.54 6.94568 114.456 8.30608C114.936 9.00372 115.599 10.0153 116.445 11.3408C116.637 11.4455 116.833 11.5501 117.034 11.6548C117.034 11.6722 117.043 11.6809 117.06 11.6809C117.078 11.6809 117.086 11.6897 117.086 11.7071C118.744 12.7274 120.118 14.0006 121.209 15.5267C121.226 15.5267 121.235 15.5354 121.235 15.5528C121.261 15.5877 121.283 15.6139 121.301 15.6313C122.191 16.8784 122.906 18.2998 123.447 19.8957C126.309 20.6282 128.115 22.4508 128.865 25.3634C128.507 25.3809 128.132 25.2893 127.739 25.0888C128.647 26.0393 129.415 26.5669 130.043 26.6715C130.401 26.7239 130.955 26.8154 131.705 26.9462C132.49 27.1555 133.206 27.5741 133.851 28.202C134.436 28.795 134.916 29.5101 135.291 30.3473C135.474 30.6874 135.566 31.0013 135.566 31.2891C135.566 31.4635 135.531 31.6248 135.461 31.773C135.461 31.8079 135.452 31.8515 135.435 31.9039C135.382 32.1131 135.317 32.523 135.239 33.1335C135.692 33.4561 136.08 33.8485 136.403 34.3107C136.831 34.9037 137.114 35.5578 137.254 36.2729C137.359 36.8048 137.376 37.3411 137.306 37.8818C137.42 38.1696 137.52 38.4661 137.607 38.7713C137.948 39.8788 138.035 40.9863 137.869 42.0938C137.799 42.4862 137.686 43.0662 137.529 43.8336C137.45 44.4963 137.503 45.0588 137.686 45.521C137.756 45.7565 137.891 45.9788 138.092 46.1881C138.109 46.2056 138.126 46.223 138.144 46.2404C138.318 46.4585 138.532 46.6852 138.785 46.9206C139.361 47.3828 139.762 47.7229 139.989 47.9409C140.094 48.0456 140.168 48.1154 140.212 48.1502C140.657 48.6473 140.993 49.2708 141.219 50.0208C141.219 50.0818 141.233 50.1298 141.259 50.1647C141.259 50.1821 141.267 50.1996 141.285 50.217C141.337 50.4437 141.381 50.6835 141.416 50.9364C141.433 51.0585 141.451 51.2024 141.468 51.3681C141.468 51.4553 141.477 51.5425 141.494 51.6297C141.494 51.7082 141.494 51.7911 141.494 51.8783C141.494 51.9306 141.503 51.9916 141.52 52.0614C141.52 52.0963 141.52 52.1312 141.52 52.166C141.52 52.2009 141.52 52.2402 141.52 52.2838C141.52 52.3187 141.52 52.3448 141.52 52.3623C141.52 52.3797 141.52 52.3971 141.52 52.4146C141.52 52.432 141.52 52.4495 141.52 52.4669V52.5977C141.59 52.746 141.66 52.8811 141.73 53.0032C142.506 54.4159 142.999 55.9333 143.209 57.5553C143.392 58.7588 143.409 59.9491 143.261 61.1264C143.261 61.1438 143.261 61.17 143.261 61.2049V61.2311C143.244 61.2659 143.235 61.2921 143.235 61.3095C143.2 61.6496 143.148 61.981 143.078 62.3037C143.078 62.3211 143.078 62.356 143.078 62.4083C143.148 63.2193 143.209 63.8995 143.261 64.4489C143.296 64.9896 143.396 65.7221 143.562 66.6465C143.632 67.1087 143.702 67.4837 143.771 67.7715C143.876 68.1639 144.029 68.4953 144.229 68.7656C144.57 69.2452 145.063 69.5504 145.708 69.6812C146.275 69.7859 146.428 70.7408 146.166 72.5459C146.411 72.6506 146.59 72.777 146.703 72.9253C146.965 73.1956 147.078 73.6491 147.043 74.2857C146.991 75.0182 146.249 76.2783 144.818 78.066C144.766 78.162 144.801 78.2884 144.923 78.4454C145.037 78.5849 145.045 79.0209 144.949 79.7535C144.862 80.4686 144.683 81.0354 144.413 81.454C144.151 81.8464 144.064 82.2039 144.151 82.5266C144.256 82.8231 144.308 83.1676 144.308 83.56C144.273 83.9611 144.391 84.2751 144.661 84.5018C144.932 84.7198 144.67 85.9887 143.876 88.3083C143.911 88.3432 143.968 88.3781 144.046 88.413C144.509 88.7705 145.054 88.9798 145.682 89.0409C146.249 89.0757 145.73 90.4231 144.125 93.0828C144.247 93.1875 144.4 93.3139 144.583 93.4622C144.941 93.7674 145.224 94.0508 145.434 94.3124C145.669 94.67 145.822 95.0449 145.892 95.4374C145.944 95.8908 145.865 96.2702 145.656 96.5754C145.577 96.68 145.433 96.837 145.224 97.0463C144.989 97.2294 144.827 97.382 144.74 97.5041C144.618 97.7221 144.548 97.975 144.531 98.2628C144.513 98.5244 144.548 98.7904 144.635 99.0608C144.705 99.2962 144.84 99.5666 145.041 99.8718C145.093 99.8892 145.154 99.9154 145.224 99.9503C145.617 100.177 146.018 100.299 146.428 100.317C146.498 100.317 146.559 100.317 146.611 100.317C147.152 100.299 147.68 100.142 148.195 99.8456C148.326 99.7671 148.452 99.6756 148.574 99.5709C149.054 99.2134 149.573 98.6945 150.132 98.0143C150.367 97.6916 150.581 97.5695 150.773 97.648C150.878 97.7004 150.987 97.8137 151.1 97.9881C151.362 98.4765 151.532 98.8166 151.611 99.0084C151.768 99.4183 151.864 99.7846 151.899 100.107C151.951 100.517 151.899 100.901 151.742 101.258C151.637 101.564 151.432 102.841 151.126 105.091ZM151.126 105.091C151.092 105.361 151.057 105.658 151.022 105.981C151.362 106.321 151.353 106.338 150.996 106.033C150.865 105.928 150.738 105.819 150.616 105.706C149.988 105.191 149.351 104.72 148.705 104.293C147.85 103.735 146.995 103.251 146.14 102.841C146.114 102.841 146.092 102.841 146.075 102.841C145.49 102.946 144.901 102.893 144.308 102.684C143.776 102.501 143.331 102.196 142.973 101.768C142.938 101.734 142.912 101.699 142.895 101.664C142.764 101.542 142.655 101.398 142.567 101.232C142.637 102.287 142.755 102.907 142.921 103.09C143.06 103.247 143.209 103.386 143.366 103.508C143.409 103.526 143.457 103.556 143.51 103.6C143.702 103.739 143.898 103.835 144.099 103.888C144.308 103.975 144.574 104.027 144.897 104.045C144.993 104.045 145.263 104.053 145.708 104.071C146.459 104.071 147.074 104.162 147.554 104.345C147.842 104.467 148.095 104.638 148.313 104.856C148.557 105.091 148.727 105.34 148.823 105.601C148.858 105.767 148.875 105.928 148.875 106.085C148.858 106.233 148.819 106.386 148.758 106.543C148.688 106.683 148.618 106.809 148.548 106.922C148.391 106.242 148.095 105.767 147.658 105.497C147.362 105.34 146.925 105.287 146.35 105.34C145.599 105.409 145.124 105.435 144.923 105.418C144.583 105.366 144.19 105.222 143.745 104.986C143.388 104.751 143.091 104.572 142.855 104.45C142.768 104.415 142.698 104.372 142.646 104.319C142.594 104.302 142.532 104.284 142.463 104.267C141.869 104.014 141.241 103.914 140.578 103.966C139.915 104.018 139.326 104.215 138.811 104.555C138.933 104.555 139.069 104.555 139.217 104.555C139.627 104.572 140.251 104.572 141.089 104.555C141.56 104.651 142 104.821 142.41 105.065C142.751 105.3 143.069 105.597 143.366 105.954C143.959 106.687 144.317 107.537 144.439 108.505C144.5 108.915 144.509 109.325 144.465 109.735M74.7491 5.75532C75.1854 5.54603 75.626 5.36725 76.0709 5.219C77.4146 4.79169 78.8367 4.63472 80.3374 4.74809C82.318 4.90506 84.0978 5.52859 85.677 6.61865C86.4971 7.21165 87.1559 7.8744 87.6532 8.60693C87.8888 8.98191 88.0676 9.34818 88.1898 9.70572C88.373 10.2028 88.4559 10.7042 88.4384 11.21M90.3361 7.48198C90.3535 6.68841 90.8116 5.92537 91.7102 5.19284C91.9807 4.96611 92.2555 4.75245 92.5347 4.55188C93.381 3.98504 94.3146 3.54902 95.3354 3.2438C96.6703 2.83393 98.027 2.72492 99.4055 2.91678M103.371 3.13916C104.252 3.13916 105.138 3.34409 106.028 3.75395C106.839 4.11149 107.611 4.62164 108.344 5.2844C108.911 5.79891 109.535 6.47475 110.216 7.31193C110.608 7.78284 111.188 8.49792 111.956 9.45718C112.174 9.6752 112.379 9.89321 112.571 10.1112C113.06 10.6432 113.518 11.0879 113.946 11.4455C114.713 12.0908 115.499 12.5661 116.301 12.8713M67.8652 13.2114C67.3592 13.8218 66.9579 14.3669 66.6612 14.8465C66.635 14.8465 66.6219 14.8552 66.6219 14.8726V14.8988C66.3602 15.3348 66.1377 15.7578 65.9544 16.1676C65.9021 16.3421 65.841 16.5121 65.7712 16.6778C65.7189 16.922 65.6186 17.4321 65.4703 18.2082C65.4179 18.5222 65.3568 18.8056 65.287 19.0585C65.2696 19.1283 65.2521 19.1893 65.2346 19.2416C65.1997 19.4248 65.1561 19.5774 65.1038 19.6995C64.8333 20.3971 64.3578 21.0686 63.6773 21.7139C63.2149 22.1761 62.5605 22.6862 61.7142 23.2444M79.7746 11.7987C78.3612 11.7376 77.1179 11.7899 76.0447 11.9556H76.0186C75.9663 11.9731 75.9226 11.9818 75.8877 11.9818C74.6139 12.1824 73.484 12.5486 72.4981 13.0806C71.7826 13.473 71.0323 14.0267 70.2471 14.7418C69.9766 14.9598 69.7105 15.2084 69.4488 15.4874C69.0736 15.8275 68.7334 16.1676 68.428 16.5077C68.2797 16.6734 68.1444 16.826 68.0223 16.9656C67.9176 17.1138 67.8172 17.2664 67.7212 17.4234C67.4246 17.8333 67.176 18.2518 66.9753 18.6792C66.888 18.9146 66.8095 19.1675 66.7397 19.4378C66.7222 19.4902 66.7135 19.5425 66.7135 19.5948C66.6961 19.6297 66.6873 19.6559 66.6873 19.6733C66.6699 19.7867 66.6481 19.887 66.6219 19.9742C66.6045 20.0439 66.587 20.1137 66.5696 20.1834C66.4823 20.7764 66.4561 21.4218 66.491 22.1194C66.5085 22.7211 66.5739 23.5496 66.6873 24.6048C66.7048 24.7879 66.731 24.9754 66.7659 25.1672C66.7833 25.3329 66.8008 25.503 66.8182 25.6774M66.9753 9.24789C66.0243 10.7129 65.3437 12.2783 64.9337 13.9439M69.4226 17.2403C68.5588 17.9205 67.9132 18.8143 67.4857 19.9218C67.4333 20.0788 67.3897 20.2489 67.3548 20.432C67.2676 20.6413 67.2021 20.8724 67.1585 21.1253C66.9317 22.2153 66.888 23.3664 67.0276 24.5786C67.0625 24.9885 67.128 25.4027 67.2239 25.8213C67.2763 26.1614 67.381 26.5974 67.538 27.1294C67.7561 27.9491 68.0703 29.013 68.4803 30.3211C68.7682 31.228 69.0082 32.0608 69.2001 32.8195C69.2001 32.837 69.2001 32.8544 69.2001 32.8718C69.3833 33.6218 69.5186 34.2802 69.6058 34.847C69.8065 36.5127 69.6451 38.0693 69.1216 39.5169C68.5283 41.1389 67.5816 42.2813 66.2816 42.9441C65.4179 43.3016 64.781 43.5894 64.3709 43.8074C63.6729 44.1824 63.2628 44.6359 63.1407 45.1678C62.9662 45.7957 63.1451 46.4323 63.6773 47.0776V47.1038C63.9477 47.409 64.3927 47.8014 65.0122 48.281C65.1431 48.4119 65.2783 48.5296 65.4179 48.6342C66.2468 49.2447 66.9796 49.9597 67.6166 50.7795C68.2796 51.5818 68.8249 52.4495 69.2525 53.3826C69.5578 54.0366 69.728 54.6252 69.7629 55.1485C69.7978 55.6455 69.7105 56.0816 69.5011 56.4566C69.1957 56.9972 68.6504 57.4027 67.8652 57.6731C67.1323 57.8649 66.539 58.0219 66.0853 58.144C65.9632 58.1876 65.841 58.2268 65.7189 58.2617C64.9686 58.4535 64.3884 58.8896 63.9783 59.5698C63.638 60.093 63.5551 60.5596 63.7296 60.9694C64.035 60.5334 64.4363 60.1846 64.9337 59.923C65.2739 59.7573 65.6884 59.6221 66.177 59.5175C66.2293 59.5175 66.2904 59.5087 66.3602 59.4913C66.3951 59.4739 66.43 59.4651 66.4649 59.4651C66.8052 59.3954 67.333 59.2951 68.0484 59.1643C69.4095 58.8591 70.3213 58.3402 70.7837 57.6077C71.1065 57.128 71.2853 56.5394 71.3202 55.8417C71.3202 55.615 71.3115 55.3665 71.2941 55.0961C71.2766 55.0613 71.2679 55.0177 71.2679 54.9653C71.233 54.6427 71.1894 54.2851 71.137 53.8927C70.9538 52.7765 70.7575 51.9262 70.5481 51.342C70.2427 50.4263 69.7934 49.7112 69.2001 49.1967C69.0605 49.0746 68.8032 48.8784 68.428 48.6081C68.0877 48.3726 67.826 48.1677 67.6428 47.9933C67.4683 47.7752 67.3374 47.5572 67.2501 47.3392C67.2152 47.2695 67.1847 47.1997 67.1585 47.1299C67.0712 46.7724 67.1105 46.4585 67.2763 46.1881C67.381 46.0311 67.5293 45.8785 67.7212 45.7303C67.8521 45.6605 68.0702 45.5559 68.3756 45.4163C68.7682 45.1983 69.1347 44.9672 69.475 44.7231L69.5011 44.6969C70.2863 44.3568 70.9756 43.8554 71.5689 43.1926C72.6246 42.0328 73.3095 40.4936 73.6236 38.5751C73.9813 36.4298 73.8504 34.3238 73.231 32.257C73.1961 32.1437 72.8209 31.1147 72.1055 29.17C71.6343 27.9491 71.3726 26.9026 71.3202 26.0306C71.1806 24.365 71.6212 22.7211 72.6421 21.0991C73.5669 19.6166 74.8276 18.4001 76.4243 17.4496C77.7592 16.6473 79.3776 16.015 81.2797 15.5528C82.3528 15.2999 84.5166 15.4482 87.771 15.9976C88.5038 16.1284 89.2978 16.2723 90.1529 16.4293C90.8683 15.9845 91.5052 15.627 92.0636 15.3566C92.8837 14.9468 93.5162 14.7244 93.9612 14.6895C94.8337 14.6197 95.5928 14.7985 96.2385 15.2258C96.666 15.4787 97.1153 15.906 97.5864 16.5077C98.3542 17.4932 98.7468 17.9946 98.7643 18.012C99.2616 18.5527 99.868 18.9844 100.583 19.307C100.714 19.3768 100.919 19.4727 101.199 19.5948C101.417 19.682 101.604 19.791 101.761 19.9218C102.032 20.166 102.276 20.5759 102.494 21.1514C102.512 21.1863 102.529 21.2212 102.546 21.2561C102.546 21.291 102.555 21.3171 102.573 21.3346C102.642 21.5351 102.712 21.7139 102.782 21.8709C103.018 22.0889 103.306 22.3243 103.646 22.5772C104.431 23.1266 104.924 23.4842 105.125 23.6499C105.657 24.1469 106.128 24.8053 106.538 25.6251C106.809 26.2181 107.105 27.0073 107.428 27.9927C107.856 29.3444 108.205 30.3167 108.475 30.9097C108.903 31.8428 109.396 32.6102 109.954 33.2119C110.024 33.2817 110.094 33.3471 110.163 33.4081M62.7088 15.2258C62.482 15.3653 62.2769 15.5441 62.0937 15.7621C61.9017 15.9627 61.7316 16.2025 61.5833 16.4816C61.3739 16.9351 61.1864 17.4888 61.0206 18.1428C60.9333 18.5004 60.7981 19.1631 60.6149 20.1311C60.4753 20.9683 60.3444 21.6223 60.2222 22.0932C60.1612 22.32 60.0957 22.5336 60.0259 22.7342C59.6333 23.9464 59.088 24.9187 58.39 25.6512M62.8135 25.8213C62.6913 26.3009 62.5867 26.7369 62.4994 27.1294C62.482 27.1294 62.4733 27.1381 62.4733 27.1555C62.3424 27.6352 62.2246 28.0276 62.1199 28.3328C61.832 29.2833 61.5266 30.1074 61.2038 30.8051C60.2964 32.6277 59.1622 33.9401 57.8011 34.7424C57.1206 35.1523 56.0038 35.5709 54.4507 35.9982C53.3078 36.3208 52.3873 36.6435 51.6893 36.9661C51.4537 37.0795 51.2574 37.1885 51.1004 37.2932M64.9337 25.3896C64.9511 25.6164 64.9685 25.83 64.986 26.0306C65.0296 26.5451 65.0602 26.9724 65.0776 27.3125C65.0951 27.5131 65.1125 27.6744 65.13 27.7965C65.1649 28.6947 65.1387 29.4926 65.0514 30.1903C64.9904 30.7571 64.8987 31.2934 64.7766 31.7992C64.4887 32.9067 64.0132 33.8442 63.3501 34.6116C62.9924 35.0389 62.4776 35.5142 61.8058 36.0374C60.785 36.8397 60.2266 37.2757 60.1306 37.3455C59.546 37.86 59.0837 38.405 58.7434 38.9806C58.6213 39.216 58.5209 39.4471 58.4424 39.6739C58.2679 40.1012 58.1981 40.5416 58.2329 40.995M51.9249 40.4064C51.2095 40.7988 50.5769 41.2959 50.0273 41.8976M56.0605 38.6274C55.2229 39.4384 54.5249 40.4151 53.9665 41.5575C53.9316 41.6098 53.8967 41.6621 53.8618 41.7145C53.3558 42.7871 52.9806 44.0036 52.7363 45.364C52.5182 46.4018 52.3655 47.6532 52.2782 49.1182C52.2433 49.9554 52.1823 51.2242 52.095 52.9247C52.0776 53.4218 52.0383 53.884 51.9773 54.3113C51.9249 54.7822 51.8725 55.1964 51.8202 55.554C51.6457 56.4784 51.3796 57.3068 51.0219 58.0393C50.5857 58.8678 50.0316 59.5393 49.3598 60.0538C48.5833 60.6293 47.7762 60.9258 46.9387 60.9433M67.4333 32.571C67.5031 32.789 67.573 33.0026 67.6428 33.2119C67.7911 33.8747 67.8172 34.5723 67.7212 35.3049C67.5991 36.2554 67.2981 37.1493 66.8182 37.9864C65.9981 39.3817 64.7461 40.5721 63.0622 41.5575C62.9575 41.6447 62.8397 41.7145 62.7088 41.7668C61.7665 42.229 61.0686 42.5952 60.6149 42.8656C59.8471 43.3278 59.2669 43.8205 58.8743 44.3437C58.3595 45.0414 58.0628 45.9439 57.9843 47.0514C57.9145 47.7665 57.9538 48.7563 58.1021 50.0208M62.6565 47.7709C62.7263 48.0238 62.7525 48.2767 62.735 48.5296C62.7176 48.7912 62.6564 49.0659 62.5518 49.3537C62.3511 49.8943 62.0283 50.3173 61.5833 50.6225C61.243 50.8318 60.8155 51.0062 60.3008 51.1457C59.6551 51.294 59.1709 51.403 58.8481 51.4728C58.7783 51.4902 58.6998 51.5076 58.6125 51.5251C58.1763 51.6733 57.7269 51.8521 57.2645 52.0614C56.9417 52.2097 56.4226 52.4625 55.7071 52.8201C55.4803 52.9247 55.3102 53.0207 55.1967 53.1079C55.0048 53.23 54.8652 53.3651 54.7779 53.5134C54.6296 53.7488 54.5467 54.0976 54.5293 54.5598C54.4071 56.0074 54.6471 57.4202 55.2491 58.798M65.0122 48.281C65.5357 51.9611 65.8934 55.2488 66.0853 58.144M112.846 12.8713C113.597 13.7433 114.22 14.7244 114.718 15.8145C115.206 16.8871 115.529 18.0033 115.686 19.1632C115.738 19.4858 115.813 20.0963 115.909 20.9945C115.944 21.7619 116.013 22.3592 116.118 22.7865C116.301 23.6237 116.615 24.5001 117.06 25.4158C117.418 26.1483 117.889 26.9506 118.474 27.8226M107.611 15.4874C108.684 16.281 109.553 17.3536 110.216 18.7053C110.809 19.9436 111.167 21.304 111.289 22.7865C111.341 23.2313 111.385 23.894 111.42 24.7748C111.42 24.7923 111.42 24.8184 111.42 24.8533V24.8795C111.498 25.6992 111.616 26.3794 111.773 26.9201C112.166 28.1671 112.96 29.3182 114.155 30.3734C115.071 31.1583 116.297 31.9344 117.832 32.7018M89.9173 8.84239C90.1965 8.66798 90.4888 8.50664 90.7941 8.35839C90.829 8.32351 90.8727 8.29735 90.925 8.27991C90.9425 8.27991 90.9643 8.27991 90.9904 8.27991C91.7233 7.90493 92.4911 7.59971 93.2938 7.36425C93.3287 7.36425 93.3548 7.35554 93.3723 7.3381C93.3897 7.3381 93.4072 7.3381 93.4247 7.3381C93.477 7.32066 93.5381 7.30321 93.6079 7.28577C94.9341 6.94567 96.269 6.82358 97.6126 6.9195C98.9475 7.00671 100.243 7.29886 101.499 7.79593C102.765 8.30172 103.916 8.9732 104.955 9.81037M94.3931 12.3611C95.1609 12.2478 95.9462 12.4004 96.7488 12.819C97.0368 12.9759 97.3159 13.1634 97.5864 13.3814L97.6388 13.4076C97.6737 13.425 97.7086 13.4512 97.7435 13.4861C98.0663 13.7564 98.3891 14.0703 98.7119 14.4279C99.0871 14.8901 99.5582 15.5572 100.125 16.4293C100.736 17.4496 101.185 18.1472 101.473 18.5222C101.691 18.8449 101.94 19.1588 102.219 19.464V19.4902C102.507 19.7954 102.813 20.1006 103.135 20.4058C103.781 21.0076 104.514 21.5875 105.334 22.1456C106.337 22.8432 107.886 23.7458 109.98 24.8533M91.8149 10.1897C92.8008 10.024 93.5424 9.90629 94.0398 9.83653C94.2404 9.81909 94.4019 9.80164 94.524 9.7842C95.5274 9.71444 96.4129 9.77549 97.1807 9.96734C98.0968 10.2202 99.026 10.7304 99.9683 11.4978C100.527 11.96 101.286 12.7274 102.245 13.8M102.416 21.5046C102.52 21.6267 102.642 21.7488 102.782 21.8709M83.9233 12.0603C84.3421 11.9905 84.7652 11.9818 85.1927 12.0341C85.6203 12.1039 86.0216 12.239 86.3968 12.4396C86.6673 12.5791 86.9072 12.7492 87.1166 12.9498C87.2126 13.0021 87.2954 13.0719 87.3652 13.1591C87.6706 13.4817 87.9019 13.8305 88.0589 14.2055M89.3807 14.0747C89.4505 14.1096 89.5813 14.2448 89.7733 14.4802C89.9391 14.6372 90.0917 14.7418 90.2313 14.7942C90.2837 14.7942 90.3666 14.7942 90.4801 14.7942C90.5324 14.8116 90.6196 14.8116 90.7418 14.7942C91.0123 14.7767 91.1736 14.768 91.226 14.768C91.4005 14.7331 91.5532 14.6982 91.684 14.6634M83.0988 9.81037C80.682 9.16505 78.2303 9.21737 75.7438 9.96734C75.6391 10.0022 75.5431 10.0371 75.4558 10.072C75.4209 10.072 75.386 10.0851 75.3511 10.1112C73.0391 10.8786 71.0978 12.1388 69.5273 13.8916M108.501 34.3631C108.754 34.834 108.985 35.4008 109.195 36.0636C109.308 36.456 109.47 37.0446 109.679 37.8295C110.176 39.6172 110.822 41.1084 111.616 42.3031C112.576 43.7507 113.692 44.8059 114.966 45.4687C115.036 45.4861 115.411 46.1402 116.092 47.4308C116.231 47.6924 116.384 47.9758 116.55 48.281C117.387 48.6386 117.889 48.8522 118.055 48.922C118.753 49.2621 119.316 49.6196 119.743 49.9946C120.459 50.6574 121.021 51.56 121.431 52.7024C121.719 53.5482 121.933 54.6209 122.073 55.9202M112.153 33.7221C112.973 35.1697 113.64 36.2336 114.155 36.9138C115.019 38.0213 115.93 38.8629 116.89 39.4384C117.265 39.6303 117.85 39.8962 118.644 40.2363C119.324 40.5764 119.835 40.934 120.175 41.309C120.672 41.8671 121.017 42.5909 121.209 43.4804C121.322 44.0908 121.379 44.9411 121.379 46.0311M112.977 45.7303C113.282 46.2884 113.749 46.7724 114.377 47.1823C114.665 47.4003 115.006 47.6052 115.398 47.797C115.643 47.9104 115.9 48.0281 116.17 48.1502C116.292 48.2026 116.419 48.2462 116.55 48.281M66.177 59.5175C66.3165 62.4127 66.2686 64.8893 66.033 66.9474C65.6229 70.6972 65.7494 74.3511 66.4125 77.9091C66.6132 79.0166 66.8619 80.1154 67.1585 81.2054C67.9699 83.9786 69.7759 87.2749 72.5766 91.0945C73.7632 92.7253 75.1243 94.4432 76.6599 96.2484C77.323 96.9809 78.0122 97.7483 78.7276 98.5506C78.9196 98.7163 79.1246 98.8776 79.3428 99.0346C80.0757 99.5927 80.9525 100.255 81.9733 101.023C83.2733 102.043 84.8002 102.784 86.5539 103.247C88.2901 103.726 90.0176 103.835 91.7364 103.574C93.4552 103.321 95.4576 102.736 97.7435 101.821C99.6542 101.036 102.464 98.8558 106.172 95.2804C106.843 94.6351 107.537 93.9549 108.253 93.2398C108.296 93.2049 108.327 93.1787 108.344 93.1613L108.37 93.1352C110.368 91.0771 112.057 88.5481 113.435 85.5483C114.665 82.906 115.638 79.9017 116.354 76.5356C116.755 74.1985 117.034 71.8788 117.191 69.5766C117.348 66.9604 117.339 64.3748 117.165 61.8197C116.929 58.0699 116.384 53.6224 115.529 48.4773C115.477 48.2592 115.433 48.0325 115.398 47.797M72.5766 91.0945C72.437 91.4346 72.3323 91.8227 72.2625 92.2587C72.1753 93.2005 72.3542 94.0639 72.7991 94.8487C72.8864 94.997 73.0739 95.2673 73.3619 95.6597C73.58 95.9824 73.7414 96.2571 73.8461 96.4838C73.9334 96.667 74.0032 96.8545 74.0555 97.0463C74.2213 97.587 74.2125 98.1713 74.0293 98.7991C73.7763 99.6189 73.3313 100.234 72.6944 100.644V100.67C72.6944 100.687 72.7031 100.696 72.7206 100.696C73.0085 101.237 73.1132 101.978 73.0347 102.92C72.9474 104.193 72.7424 105.462 72.4196 106.726C72.1491 107.659 71.9965 108.278 71.9616 108.584C71.9441 108.723 71.9441 108.867 71.9616 109.015C71.9616 109.05 71.9702 109.094 71.9877 109.146C72.1535 109.713 72.6726 110.363 73.5451 111.095M76.6599 96.2484C76.782 96.8937 77.0306 97.4823 77.4058 98.0143C77.5541 98.2323 77.8595 98.5899 78.3219 99.0869C78.7145 99.5317 79.0025 99.9067 79.1857 100.212C79.5783 100.892 79.7092 101.642 79.5783 102.462C79.4562 103.308 79.1072 103.997 78.5313 104.529L77.7592 105.261C77.6196 105.435 77.5105 105.614 77.432 105.797C77.432 105.815 77.4233 105.824 77.4058 105.824C78.1823 107.446 79.5522 108.741 81.5153 109.709C83.0683 110.476 85.0096 111.056 87.3391 111.448C92.2512 112.268 96.6136 112.351 100.426 111.697C102.695 111.296 104.789 110.633 106.708 109.709C107.24 109.438 107.746 109.159 108.226 108.871C107.197 108.444 106.316 107.677 105.583 106.569C104.736 105.244 104.313 103.796 104.313 102.226C104.313 100.883 104.592 99.4183 105.151 97.8312C105.36 97.1684 105.701 96.3181 106.172 95.2804M76.4243 102.226C76.4766 102.706 76.5028 103.098 76.5028 103.404C76.5203 103.831 76.5028 104.215 76.4505 104.555C76.4156 104.842 76.3501 105.113 76.2542 105.366C76.0622 105.88 75.7787 106.29 75.4035 106.595C75.2377 106.744 74.9672 106.948 74.592 107.21C74.3216 107.428 74.1776 107.672 74.1602 107.943C74.1602 108.1 74.1994 108.257 74.278 108.414C74.3129 108.492 74.3827 108.627 74.4874 108.819C74.7578 109.264 74.9803 109.713 75.1548 110.166C75.3381 110.646 75.3817 111.03 75.2857 111.317C75.2508 111.37 75.2334 111.413 75.2334 111.448C76.3065 112.268 77.4538 112.992 78.6753 113.62C80.9612 114.814 83.5089 115.656 86.3183 116.144C87.1733 116.284 88.0589 116.388 88.975 116.458C89.2629 116.493 89.5377 116.524 89.7995 116.55C90.9075 116.62 92.0069 116.654 93.0975 116.654C94.5458 116.654 95.9854 116.58 97.4163 116.432C98.3673 116.327 99.3183 116.197 100.269 116.04C101.569 115.804 102.856 115.516 104.13 115.176C104.287 115.141 104.44 115.107 104.588 115.072C105.609 114.766 106.556 114.444 107.428 114.104C110.883 112.761 113.37 111.034 114.888 108.924C114.513 108.906 114.111 108.915 113.684 108.95C113.518 108.976 113.365 108.998 113.226 109.015H113.2C112.406 109.12 111.795 109.19 111.367 109.225C110.46 109.312 109.692 109.286 109.064 109.146C108.776 109.076 108.497 108.985 108.226 108.871M77.4058 105.824C77.3884 105.946 77.3797 106.059 77.3797 106.164C77.3797 106.329 77.4364 106.499 77.5498 106.674C77.7068 106.979 77.7854 107.14 77.7854 107.158C77.9075 107.533 77.8639 107.908 77.6545 108.283C77.4364 108.675 77.131 108.911 76.7384 108.989M118.644 69.6812C118.679 72.8817 118.622 75.3016 118.474 76.9411C118.212 79.627 117.658 81.9598 116.812 83.9393C116.567 84.5323 116.157 85.4 115.581 86.5424C115.102 87.5627 114.779 88.4478 114.613 89.1978C114.273 90.9332 114.517 92.8256 115.346 94.8749C115.878 96.2179 116.842 97.9794 118.238 100.16M110.085 94.7703C110.015 95.0406 109.888 95.4156 109.705 95.8952C109.566 96.2353 109.404 96.6277 109.221 97.0725C108.828 98.0579 108.571 98.8384 108.449 99.4139C108.266 100.234 108.231 101.071 108.344 101.925C108.466 102.789 108.732 103.587 109.142 104.319C109.553 105.087 110.107 105.728 110.805 106.242C110.97 106.39 111.14 106.526 111.315 106.648C111.856 106.988 112.427 107.232 113.029 107.38M112.31 96.8893C112.292 98.5026 112.803 99.9764 113.841 101.311C114.862 102.671 116.131 103.556 117.649 103.966C118.077 104.079 118.862 104.197 120.005 104.319C121.008 104.441 121.789 104.603 122.348 104.803C123.15 105.091 123.783 105.584 124.245 106.281C124.28 106.351 124.324 106.421 124.376 106.491C124.524 106.508 124.677 106.517 124.834 106.517C124.852 106.517 124.878 106.526 124.913 106.543C124.948 106.543 124.996 106.543 125.057 106.543C125.196 106.543 125.336 106.543 125.475 106.543C126.069 106.526 126.653 106.417 127.229 106.216C127.657 106.076 128.324 105.819 129.231 105.444C130.017 105.174 130.689 105.122 131.247 105.287C131.945 105.497 132.543 106.059 133.04 106.975C133.345 107.472 133.751 108.283 134.257 109.408C134.65 110.105 135.103 110.554 135.618 110.755C136.08 110.929 136.678 110.921 137.411 110.729C138.598 110.389 139.217 110.21 139.269 110.193C140.36 110.027 141.342 110.384 142.214 111.265C142.999 112.085 143.348 112.979 143.261 113.947C143.767 112.892 144.099 111.998 144.256 111.265C144.378 110.742 144.448 110.232 144.465 109.735M56.4138 62.4083C56.0561 62.8444 55.633 63.2019 55.1444 63.4809C54.6471 63.7687 54.1192 63.9737 53.5608 64.0958C53.3165 64.1394 52.8977 64.196 52.3044 64.2658C51.7897 64.3181 51.3796 64.3792 51.0742 64.4489C50.3065 64.6669 49.6347 65.0855 49.0588 65.7047C48.483 66.3151 48.134 67.0215 48.0118 67.8238M58.2591 64.2396C57.9712 65.0943 58.041 66.2454 58.4686 67.693C58.5994 68.068 58.7783 68.6479 59.0052 69.4327C59.2233 70.1304 59.3585 70.7321 59.4108 71.2379C59.4632 72.0925 59.328 73.0125 59.0052 73.9979C58.7958 74.6956 58.4031 75.572 57.8273 76.6272C57.0421 78.162 56.5971 79.034 56.4924 79.2433C56.0212 80.2462 55.7071 81.1618 55.5501 81.9903C55.4628 82.5048 55.4279 83.028 55.4454 83.56C55.4628 84.0832 55.5326 84.6021 55.6548 85.1166C55.8904 86.1544 56.3222 87.0962 56.9504 87.9421C57.4303 88.5961 58.3028 89.4507 59.5679 90.5059C60.8417 91.5611 61.7273 92.4113 62.2246 93.0567C63.0185 94.1293 63.5115 95.3458 63.7035 96.7062C65.1867 94.6482 66.0199 92.9564 66.2032 91.6309C66.4125 90.1484 66.2773 88.7313 65.7974 87.3796C65.6753 87.0221 65.4354 86.4378 65.0776 85.6268C64.7374 84.8768 64.4931 84.2882 64.3447 83.8609C64.0568 82.9714 63.9434 82.0339 64.0045 81.0485C64.0394 80.0979 64.2357 79.1779 64.5934 78.2884M52.7625 83.2984C52.7799 83.4205 52.7974 83.5556 52.8148 83.7039C52.8846 84.419 52.8148 85.1428 52.6054 85.8753C52.3175 86.7125 51.8682 87.4363 51.2575 88.0467C51.2575 88.0642 51.2487 88.0816 51.2313 88.099C50.9084 88.4217 50.4722 88.7618 49.9225 89.1193C49.6172 89.3112 49.1504 89.612 48.5222 90.0219C47.3618 90.8504 46.6725 91.7093 46.4544 92.5988C46.3497 93.1744 46.4326 93.7281 46.7031 94.2601C46.9998 94.8182 47.4185 95.1409 47.9594 95.2281C48.0118 95.2281 48.2343 95.2368 48.6269 95.2542C48.8799 95.2542 49.085 95.2978 49.242 95.385C49.5299 95.5507 49.6739 95.8385 49.6739 96.2484C49.6739 96.5536 49.6041 96.8283 49.4645 97.0725C49.7088 97.0376 49.9749 97.0027 50.2628 96.9678C51.6762 96.6277 53.5085 95.8865 55.7595 94.7441C55.7246 94.7092 55.6897 94.6656 55.6548 94.6133C55.6024 94.561 55.3538 94.2993 54.9088 93.8284C54.4377 93.3314 54.045 92.7689 53.7309 92.141C53.4256 91.5218 53.2162 90.8722 53.1028 90.192M44.1249 65.5739C44.4826 66.0012 44.6091 66.5462 44.5044 67.209C44.4259 67.6537 44.2558 68.0767 43.994 68.4778M54.8041 68.3862C54.4813 70.2699 53.3776 72.123 51.493 73.9456C50.9433 74.4775 50.1145 75.2013 49.0064 76.117C47.846 77.0763 47.0128 77.7913 46.5068 78.2623C46.1142 78.6198 45.7913 78.9468 45.5383 79.2433C45.2242 79.6445 44.9843 80.0412 44.8185 80.4337C44.5829 80.9831 44.4477 81.6327 44.4128 82.3827C44.4128 82.6705 44.4303 83.3333 44.4652 84.371C44.4652 84.5716 44.4782 84.7765 44.5044 84.9858V85.0381H44.5306C44.583 85.0032 44.644 84.9771 44.7138 84.9596C45.6997 84.6195 46.2625 84.4146 46.4021 84.3448C47.5974 83.7693 48.6007 82.9103 49.4121 81.7679C50.1974 80.6604 50.6686 79.4439 50.8256 78.1184M44.0987 72.7029C43.1302 73.7581 42.4672 74.9921 42.1095 76.4048C42.0048 76.7623 41.935 77.1199 41.9001 77.4774M44.5044 85.0381C44.2863 85.1253 44.0682 85.2082 43.85 85.2867C43.5272 85.3913 43.235 85.5047 42.9732 85.6268M43.235 98.6029C43.2175 98.9779 43.1564 99.3616 43.0517 99.754C42.8685 100.295 42.6155 100.753 42.2927 101.128C46.3061 99.3747 48.4349 98.3544 48.6792 98.0666C49.037 97.6742 49.2638 97.4082 49.3598 97.2687C49.3947 97.2164 49.4296 97.151 49.4645 97.0725M50.6423 101.873C50.7645 101.289 50.9957 100.718 51.336 100.16C51.842 99.3747 52.4876 98.7686 53.2729 98.3413C53.3601 98.2715 53.6829 98.1102 54.2413 97.8573C54.6165 97.6742 54.9176 97.5041 55.1444 97.3472C55.4498 97.1292 55.694 96.8719 55.8772 96.5754C56.0692 96.2353 56.1477 95.9039 56.1128 95.5813C56.0779 95.3109 55.9601 95.0319 55.7595 94.7441M50.6423 101.873C50.5725 102.143 50.5289 102.423 50.5115 102.71C50.4329 103.6 50.5944 104.467 50.9957 105.313C51.3709 106.168 51.9074 106.874 52.6054 107.432C52.7974 107.572 53.0809 107.786 53.4561 108.073C53.6917 108.265 53.8705 108.47 53.9927 108.688C54.0276 108.741 54.0625 108.802 54.0974 108.871C54.2981 109.429 54.2021 110.014 53.8095 110.624C53.7746 110.694 53.7266 110.755 53.6655 110.807C54.0232 110.624 54.2763 110.48 54.4246 110.376C54.887 110.053 55.2621 109.687 55.5501 109.277C55.8729 108.815 56.0169 108.339 55.982 107.851C55.982 107.677 55.947 107.489 55.8772 107.289C55.7464 106.896 55.5108 106.443 55.1705 105.928C54.6034 105.108 54.2937 104.472 54.2413 104.018C54.1454 103.417 54.2762 102.828 54.6339 102.252C54.9568 101.721 55.4061 101.284 55.982 100.944C56.4269 100.674 57.0071 100.412 57.7226 100.16C57.9756 100.072 58.3333 99.959 58.7957 99.8194C59.0662 99.2788 59.2538 98.8558 59.3585 98.5506C59.6289 97.8704 59.738 97.212 59.6857 96.5754C59.6246 95.8429 59.3716 95.2586 58.9266 94.8226M70.8622 96.1961C70.7226 96.6582 70.6877 97.1422 70.7575 97.648C70.8273 98.1451 71.0062 98.5986 71.2941 99.0084C71.3988 99.1741 71.6387 99.4532 72.0139 99.8456C72.3193 100.142 72.5461 100.408 72.6944 100.644M63.7035 96.7062C63.7209 96.8457 63.7384 96.9983 63.7558 97.164C63.8867 98.6988 63.6206 100.138 62.9575 101.481M58.7957 99.8194C58.7259 99.9764 58.6343 100.142 58.5209 100.317C58.1108 101.11 57.836 101.721 57.6964 102.148C57.4609 102.828 57.4085 103.491 57.5393 104.136C57.644 104.869 57.945 105.414 58.4424 105.771C58.5732 105.876 58.7521 105.972 58.979 106.059C59.232 106.181 59.5722 106.308 59.9997 106.438C60.6977 106.63 61.182 106.879 61.4524 107.184C61.7927 107.541 62.0152 108.13 62.1199 108.95C62.2682 109.918 62.4297 110.563 62.6042 110.886C62.6216 110.921 62.6477 110.964 62.6826 111.017C62.8658 111.304 63.1363 111.592 63.4941 111.88C63.7209 112.072 64.0787 112.338 64.5672 112.678C65.3699 113.306 65.8062 113.925 65.876 114.535C65.8934 114.657 65.8934 114.78 65.876 114.902C65.8585 114.945 65.8236 115.115 65.7712 115.412C65.7189 115.612 65.7014 115.782 65.7189 115.922C65.7363 116.088 65.8236 116.232 65.9806 116.354C66.129 116.441 66.2642 116.467 66.3864 116.432C66.4038 116.415 66.4212 116.397 66.4387 116.38C66.4212 115.9 66.4823 115.429 66.6219 114.967C66.6655 114.801 66.7135 114.649 66.7659 114.509C66.2947 114.169 66.1682 113.506 66.3864 112.521C66.526 111.972 66.635 111.544 66.7135 111.239C66.8357 110.733 66.9055 110.302 66.923 109.944C66.9579 109.447 66.9229 108.959 66.8182 108.479C66.7135 107.973 66.5346 107.515 66.2816 107.105M69.1739 101.638C68.9994 102.353 68.9558 103.077 69.0431 103.809C69.1478 104.559 69.379 105.257 69.7367 105.902C69.8676 106.155 70.1206 106.539 70.4958 107.053C70.836 107.533 71.076 107.925 71.2156 108.23C71.3726 108.518 71.4904 108.815 71.5689 109.12C71.5864 109.155 71.5951 109.19 71.5951 109.225C71.6125 109.329 71.63 109.438 71.6474 109.552C71.6823 110.031 71.5907 110.459 71.3726 110.833C71.2505 111.051 71.0192 111.309 70.679 111.605C70.3212 111.928 70.0813 112.181 69.9592 112.364V112.39C69.9766 112.477 69.994 112.573 70.0115 112.678C70.186 113.646 70.5089 114.453 70.98 115.098C71.329 115.612 71.7739 116.031 72.3149 116.354C72.4545 116.441 72.6072 116.524 72.7729 116.602C73.7152 113.777 74.3216 112.255 74.592 112.037V112.011C74.8974 111.871 75.1112 111.684 75.2334 111.448M68.428 115.307C68.4454 115.325 68.4629 115.351 68.4803 115.386C68.5676 115.464 68.6723 115.599 68.7944 115.791C69.0649 116.096 69.3354 116.258 69.6058 116.275C69.5709 115.813 69.536 115.403 69.5011 115.046C69.4837 114.435 69.4924 113.96 69.5273 113.62C69.5971 113.123 69.741 112.713 69.9592 112.39M68.428 115.307C68.2971 115.185 68.1793 115.08 68.0746 114.993C67.9699 114.932 67.7562 114.849 67.4333 114.745C67.1629 114.692 66.9578 114.623 66.8182 114.535L66.7921 114.509H66.7659M35.1601 154.288C35.038 153.948 34.9595 153.664 34.9246 153.438M45.3813 122.279C45.5994 122.785 45.8219 123.313 46.0487 123.862C46.389 124.699 46.6246 125.353 46.7554 125.824C46.7729 125.859 46.7816 125.885 46.7816 125.903C46.8863 125.92 46.991 125.946 47.0957 125.981M47.8024 173.752C44.8883 169.749 42.4716 166.318 40.5521 163.458M45.3813 122.279C44.6658 120.579 44.0245 119.14 43.4574 117.963C43.1172 117.317 42.8118 116.746 42.5413 116.249C41.2675 113.999 39.8628 112.142 38.3273 110.677C38.0219 110.389 37.7165 110.118 37.4111 109.866M35.8276 127.616C35.9235 127.546 36.0413 127.477 36.1809 127.407M35.1601 154.288C35.3782 154.864 35.7272 155.596 36.2071 156.486C37.1406 158.221 38.589 160.545 40.5521 163.458M6.78692 147.944C6.65604 148.223 6.53823 148.506 6.43354 148.794M25.4755 175.126C25.5279 175.178 25.5759 175.23 25.6195 175.283C26.1517 176.033 26.7755 177.07 27.491 178.396C27.6916 178.753 27.8967 179.146 28.1061 179.573C28.6994 180.663 29.3363 181.736 30.0168 182.791C30.4967 183.541 31.0158 184.291 31.5742 185.041C31.7313 185.259 31.9014 185.486 32.0846 185.721M32.2417 184.805C32.2242 185.093 32.2417 185.385 32.294 185.682M25.4755 175.126C25.2312 174.803 24.891 174.402 24.4547 173.922C23.5823 172.954 22.3433 171.703 20.7379 170.168M20.2275 170.194C20.1664 170.159 20.1184 170.124 20.0835 170.09C19.0889 169.017 17.9024 168.293 16.5238 167.918M2.49425 186.166C2.4419 186.619 2.43322 187.068 2.46812 187.513C2.46812 187.749 2.48555 187.98 2.52045 188.207C2.69495 189.515 3.15738 190.875 3.90772 192.288C4.23054 192.907 4.64497 193.605 5.15101 194.381M75.8877 223.015C75.9401 222.831 75.9924 222.644 76.0447 222.452C76.0622 222.321 76.0709 222.177 76.0709 222.02C75.9052 221 75.4646 219.936 74.7491 218.829C74.0948 217.721 72.7032 216.104 70.5743 213.976C68.4454 211.83 66.0287 209.166 63.324 205.983C62.4864 205.076 61.7098 204.2 60.9944 203.354C60.2615 202.517 59.5635 201.784 58.9004 201.157C58.2373 200.546 57.4172 200.053 56.44 199.678C55.0266 199.181 53.5696 199.138 52.0689 199.548C51.24 199.8 50.5027 200.167 49.8571 200.646C49.5604 200.864 49.2769 201.126 49.0064 201.431C47.6453 201.013 46.1796 200.28 44.6091 199.234C44.5568 199.19 44.3125 199.003 43.8762 198.671C43.4836 198.401 42.9383 198.004 42.2403 197.481C41.743 197.106 41.1628 196.679 40.4997 196.199C39.0165 195.091 37.6511 194.241 36.4034 193.648C36.29 193.596 36.1897 193.552 36.1024 193.517C34.5668 192.855 33.1185 192.541 31.7574 192.575C31.5218 192.575 31.2819 192.584 31.0376 192.602C30.802 192.602 30.5665 192.619 30.3309 192.654C29.4759 192.785 28.647 193.029 27.8443 193.387C26.1255 194.136 24.4242 195.466 22.7403 197.376C22.5483 197.612 22.352 197.834 22.1514 198.043C22.0816 198.157 22.0205 198.257 21.9682 198.344C21.1306 199.399 20.4849 200.463 20.0312 201.536C19.3332 203.193 19.1457 204.776 19.4685 206.284C19.8087 207.993 20.7685 209.602 22.3477 211.111C23.3947 212.088 24.8691 213.139 26.7712 214.263M36.4034 190.43C35.6705 189.75 34.9725 189.044 34.3094 188.311C33.6463 187.579 33.0094 186.837 32.3987 186.087C32.294 185.965 32.1893 185.843 32.0846 185.721M32.294 185.682C32.3115 185.813 32.3463 185.948 32.3987 186.087M42.2403 197.481C42.3538 196.286 41.2806 194.734 39.0209 192.824C38.1135 192.057 37.241 191.259 36.4034 190.43M50.4591 201.771C50.2759 202.347 49.7917 202.805 49.0064 203.145C48.5964 203.302 47.942 203.515 47.0433 203.786C47.0084 203.803 46.9736 203.812 46.9387 203.812C46.1011 204.187 45.4293 204.802 44.9232 205.656C44.7313 205.979 44.6004 206.302 44.5306 206.624C44.3648 207.165 44.2994 207.719 44.3343 208.286C44.3866 208.756 44.4215 209.105 44.439 209.332C44.439 209.742 44.3605 210.056 44.2034 210.274C44.1162 210.448 43.9373 210.601 43.6668 210.732C43.5098 210.819 43.2786 210.932 42.9732 211.072C42.3276 211.412 41.8695 211.939 41.5991 212.655C41.2763 213.352 41.2064 214.059 41.3897 214.774C41.5118 215.114 41.5903 215.375 41.6252 215.558C41.6776 215.846 41.6776 216.095 41.6252 216.304C41.5729 216.574 41.3504 216.853 40.9577 217.141C40.5128 217.499 40.2249 217.756 40.094 217.913M67.0276 211.294C66.2773 212.044 65.5881 212.777 64.9599 213.492M66.3602 211.216C65.6796 211.817 65.1081 212.515 64.6457 213.309M34.3094 188.311C34.5537 188.442 34.8024 188.534 35.0554 188.586M61.4786 191.961C56.0954 184.958 51.5367 178.889 47.8024 173.752M62.5256 219.09C62.3424 219.448 61.9323 219.871 61.2954 220.359M48.0642 212.393C48.9628 213.553 49.8746 214.516 50.7994 215.284C53.1115 217.185 54.9437 218.689 56.2961 219.797C57.7618 220.991 59.0618 222.064 60.196 223.015M57.9582 223.015C56.2132 221.401 54.7823 219.997 53.6655 218.803C52.6011 217.625 51.6457 216.452 50.7994 215.284M65.4179 236.815C65.2434 236.675 65.0384 236.505 64.8028 236.305C64.8726 236.697 64.8377 237.002 64.6981 237.22C64.5498 237.43 64.3273 237.6 64.0307 237.73C63.5072 237.887 63.0229 237.822 62.578 237.534C62.4558 237.447 62.3642 237.351 62.3031 237.246C62.2857 237.177 62.2988 237.059 62.3424 236.893C62.4646 236.536 62.6609 236.178 62.9313 235.821C63.0186 235.664 63.18 235.433 63.4155 235.127C63.2672 235.023 63.1145 234.896 62.9575 234.748C60.9333 233.074 59.0182 231.412 57.2122 229.764C55.3887 228.125 53.888 226.908 52.7102 226.115C51.5236 225.347 50.5857 224.689 49.8964 224.139C49.4078 223.765 48.9584 223.39 48.5484 223.015C47.2396 221.829 46.2363 220.603 45.5383 219.339M54.4769 228.822C54.3548 229.006 54.1497 229.21 53.8618 229.437C53.5215 229.708 53.2904 229.908 53.1682 230.039M54.7387 229.333C54.2588 229.655 53.8488 230.039 53.5085 230.484M64.8028 236.305C64.4102 235.965 63.9477 235.572 63.4155 235.127M63.036 219.496C62.2857 219.888 61.6837 220.477 61.23 221.262M58.8743 226.494L57.8796 227.488M58.4424 226.062C58.137 226.49 57.8272 226.882 57.5131 227.24M40.6568 223.015C39.5487 222.029 38.8813 220.965 38.6544 219.823C38.4538 219.535 38.1484 219.273 37.7383 219.038C37.3981 218.846 36.8091 218.624 35.9715 218.371C35.5266 218.231 35.0772 218.061 34.6235 217.861C34.5886 217.843 34.5537 217.835 34.5188 217.835C33.786 217.634 33.0182 217.377 32.2155 217.063M68.5589 223.015C63.1931 217.093 58.2766 211.673 53.8095 206.755C59.9605 211.909 65.6535 217.329 70.8884 223.015M119.416 15.2781C119.756 15.5659 120.062 15.8799 120.332 16.22C120.585 16.5775 120.808 16.9612 121 17.3711C121.375 18.1908 121.58 19.0411 121.615 19.9218M118.801 18.6007C119.333 19.4814 119.752 20.1965 120.057 20.7459L120.083 20.7721C120.162 20.9029 120.236 21.0381 120.306 21.1776C120.699 21.9799 121.021 22.7386 121.274 23.4537C121.309 23.6193 121.353 23.772 121.405 23.9115C121.405 23.9289 121.558 24.6179 121.863 25.9783C122.055 26.7805 122.278 27.4346 122.531 27.9404C122.854 28.6119 123.299 29.1438 123.866 29.5362C124.494 29.9723 125.14 30.1336 125.803 30.0202M123.578 22.6557C123.953 23.3708 124.472 24.0597 125.135 24.7225C125.135 24.7399 125.144 24.7574 125.161 24.7748C125.179 24.7923 125.196 24.8097 125.214 24.8271C125.318 24.9318 125.432 25.0364 125.554 25.1411V25.1672C125.58 25.1672 125.602 25.176 125.619 25.1934C126.221 25.7515 127.094 26.4317 128.237 27.234C128.577 27.4695 128.891 27.6831 129.179 27.875C130.095 28.5029 130.715 28.9432 131.038 29.1961C132.015 29.981 132.8 30.7658 133.393 31.5507C133.646 31.8733 133.869 32.2222 134.061 32.5971C134.148 32.7628 134.231 32.9329 134.309 33.1073C134.589 33.648 134.82 34.2279 135.003 34.847C135.326 35.9894 135.496 37.2147 135.513 38.5228C135.531 39.0809 135.522 39.6608 135.487 40.2625C135.47 40.8904 135.404 41.5444 135.291 42.2246C135.256 42.5647 135.204 42.9659 135.134 43.4281C135.029 44.1083 134.885 44.9236 134.702 45.8742M125.371 22.381C125.388 22.9217 125.619 23.4319 126.064 23.9115C126.16 24.0161 126.269 24.1251 126.392 24.2385C126.679 24.4827 127.028 24.7225 127.439 24.9579H127.465C127.5 24.9754 127.526 25.0015 127.543 25.0364C127.596 25.0539 127.661 25.0713 127.739 25.0888M123.447 19.8957C123.656 20.5497 123.835 21.2343 123.983 21.9494M129.258 32.8457C130.086 33.8573 130.688 35.1959 131.064 36.8615C131.203 37.5068 131.317 38.2393 131.404 39.0591C131.456 39.5823 131.513 40.3323 131.574 41.309M129.074 41.1782C129.179 41.4311 129.279 41.7014 129.375 41.9892C129.689 43.0182 129.886 44.1344 129.964 45.3379C130.052 46.7157 129.96 48.1459 129.689 49.6284C129.515 50.7359 129.41 51.4422 129.375 51.7475C129.314 52.5323 129.41 53.1907 129.663 53.7227C129.969 54.3854 130.584 55.022 131.509 55.6325C131.779 55.8069 132.185 56.0554 132.726 56.3781C133.188 56.6833 133.563 56.9536 133.851 57.1891C134.706 57.939 135.321 58.9114 135.697 60.1061C136.037 61.2136 136.155 62.3865 136.05 63.6248C135.945 64.6713 135.675 65.8224 135.239 67.0782C134.959 67.8456 134.514 68.9356 133.904 70.3484M124.088 34.7162C125.065 36.1813 125.763 37.7205 126.182 39.3338C126.357 40.0489 126.479 40.7552 126.549 41.4529C126.566 41.6273 126.575 41.806 126.575 41.9892C126.61 42.7915 126.566 43.585 126.444 44.3699C126.322 45.0501 126.091 45.9265 125.75 46.9991C125.305 48.3159 125.035 49.1749 124.939 49.576C124.354 51.7387 124.437 53.5047 125.187 54.8738M122.963 55.8417C122.963 56.3301 123.067 56.8141 123.277 57.2937C123.495 57.7908 123.835 58.3097 124.298 58.8503C124.568 59.1556 124.969 59.548 125.502 60.0276C126.112 60.5596 126.535 60.9433 126.771 61.1787C127.626 62.0769 128.241 63.0624 128.616 64.135C128.922 65.0245 129.022 65.8878 128.917 66.725C128.882 66.9779 128.817 67.2482 128.721 67.536M134.519 49.092C134.876 49.1618 135.217 49.2839 135.54 49.4583C135.845 49.624 136.142 49.842 136.429 50.1124C136.979 50.6094 137.542 51.2504 138.118 52.0352C138.423 52.4451 138.742 52.9029 139.073 53.4087C139.073 53.4262 139.086 53.4436 139.112 53.461C139.2 53.6006 139.296 53.7532 139.4 53.9189C139.601 54.2328 139.806 54.5685 140.015 54.9261C140.504 55.7371 140.888 56.9885 141.167 58.6803C141.184 58.7239 141.193 58.7631 141.193 58.798C141.193 58.8155 141.193 58.8416 141.193 58.8765C141.193 58.8939 141.202 58.9114 141.219 58.9288C141.333 59.5742 141.424 60.2805 141.494 61.0479M134.702 46.7506C135.313 47.0035 135.897 47.2825 136.456 47.5878C136.491 47.6052 136.525 47.6226 136.56 47.6401C136.56 47.6575 136.569 47.6662 136.586 47.6662C136.621 47.6837 136.648 47.7011 136.665 47.7186C137.398 48.1633 138.096 48.6735 138.759 49.249C139.152 49.5891 139.518 49.9554 139.858 50.3478C139.876 50.3652 139.902 50.3914 139.937 50.4263C139.954 50.4437 139.972 50.4699 139.989 50.5048C140.094 50.6182 140.186 50.7272 140.264 50.8318C140.439 51.0237 140.609 51.2286 140.774 51.4466C140.827 51.5164 140.888 51.5949 140.958 51.6821C140.993 51.7605 141.036 51.8347 141.089 51.9044C141.106 51.9219 141.123 51.948 141.141 51.9829C141.158 52.0003 141.176 52.0265 141.193 52.0614C141.211 52.0963 141.241 52.1399 141.285 52.1922C141.302 52.2097 141.32 52.2402 141.337 52.2838C141.355 52.3187 141.372 52.3448 141.39 52.3623C141.39 52.3797 141.398 52.3971 141.416 52.4146C141.416 52.432 141.424 52.4495 141.442 52.4669L141.468 52.4931V52.5192L141.494 52.5454V52.5715C141.494 52.589 141.503 52.5977 141.52 52.5977M137.306 37.8818C137.271 38.0562 137.237 38.2263 137.202 38.392C137.045 39.107 136.739 39.748 136.286 40.3148M134.82 32.8718C134.977 32.959 135.116 33.0462 135.239 33.1335M133.877 51.0934C135.221 52.0265 136.364 53.1994 137.306 54.6122C138.24 55.9726 138.929 57.4551 139.374 59.0596C139.392 59.0945 139.4 59.1207 139.4 59.1381C139.418 59.173 139.426 59.1992 139.426 59.2166C139.592 59.9142 139.727 60.6032 139.832 61.2834C139.937 62.1816 139.963 63.0754 139.911 63.9649C139.893 64.4882 139.841 64.9983 139.754 65.4954C139.605 66.2628 139.409 67.0215 139.165 67.7715V67.7976C139.034 68.1028 138.899 68.4168 138.759 68.7394C138.384 69.5592 137.764 70.6405 136.901 71.9835C135.941 73.5183 135.3 74.5996 134.977 75.2275C134.122 76.8408 133.781 78.2361 133.956 79.4134C134.008 79.7884 134.126 80.1459 134.309 80.486C134.414 80.6953 134.654 81.0528 135.029 81.5586C135.352 82.0034 135.574 82.3784 135.697 82.6836C135.932 83.3812 135.854 84.0789 135.461 84.7765C135.374 84.9509 135.273 85.1122 135.16 85.2605C134.802 85.7052 134.357 85.9887 133.825 86.1107M143.078 62.4083C142.991 62.6961 142.785 63.4504 142.463 64.6713C142.332 65.1335 142.231 65.5695 142.162 65.9794C142.092 66.3718 142.048 66.7206 142.031 67.0258C141.978 67.8979 142.114 68.7002 142.437 69.4327C142.794 70.2612 143.331 70.8236 144.046 71.1201M140.748 68.3862C140.975 68.9967 141.163 69.4981 141.311 69.8905L141.337 69.9167V69.9429C141.39 70.0737 141.442 70.1914 141.494 70.296C141.817 70.9937 142.183 71.5649 142.594 72.0096C142.733 72.1492 142.947 72.3715 143.235 72.6768C143.305 72.7552 143.37 72.8381 143.431 72.9253C143.571 73.0997 143.684 73.2785 143.771 73.4616C143.937 73.8191 143.99 74.2464 143.928 74.7435C143.911 74.9266 143.876 75.149 143.824 75.4107V75.463C143.771 75.6287 143.71 75.8292 143.641 76.0647C143.44 76.7187 143.278 77.1984 143.156 77.5036C142.938 78.0268 142.69 78.4585 142.41 78.7986C142.192 79.0253 141.691 79.4177 140.905 79.9758C140.853 80.0107 140.801 80.0543 140.748 80.1067H140.722C140.181 80.534 139.81 80.9264 139.61 81.2839M144.387 69.6028C144.483 70.2219 144.557 70.7016 144.609 71.0417C144.626 71.155 144.644 71.2466 144.661 71.3164C144.696 71.4908 144.749 71.6434 144.818 71.7742C144.906 71.9137 145.015 72.0271 145.146 72.1143C145.268 72.2102 145.534 72.3279 145.944 72.4675C146.014 72.5024 146.088 72.5285 146.166 72.5459M144.229 75.5545C144.622 76.1911 144.853 76.6446 144.923 76.9149C144.958 77.1504 144.958 77.4033 144.923 77.6736C144.888 77.7957 144.853 77.9265 144.818 78.066M141.442 81.0223C140.918 81.4147 140.604 82.0034 140.5 82.7882C140.465 83.1109 140.456 83.4597 140.473 83.8347C140.491 84.0701 140.526 84.419 140.578 84.8811C140.63 85.2561 140.705 85.5526 140.801 85.7706C140.905 86.0846 141.067 86.3244 141.285 86.4901C141.39 86.5599 141.529 86.6296 141.704 86.6994C141.922 86.7953 142.074 86.8607 142.162 86.8956C142.327 87.0177 142.445 87.1659 142.515 87.3403C142.602 87.5235 142.646 87.7328 142.646 87.9682C142.646 88.0031 142.646 88.0467 142.646 88.099C142.611 88.474 142.458 88.8141 142.188 89.1193C141.961 89.3461 141.791 89.5248 141.677 89.6556C141.485 89.8649 141.372 90.0786 141.337 90.2966C141.259 90.6541 141.472 91.1381 141.978 91.7486C142.423 92.2631 143.121 92.6904 144.072 93.0305C144.072 93.0479 144.09 93.0654 144.125 93.0828M142.751 82.7359C142.576 82.9888 142.471 83.2853 142.437 83.6254C142.402 84.262 142.41 84.8506 142.463 85.3913C142.532 86.0192 142.694 86.5817 142.947 87.0787C143.209 87.5758 143.518 87.9857 143.876 88.3083M129.48 58.7719C130.859 60.4462 131.574 62.4912 131.626 64.9068C131.644 65.587 131.605 66.2497 131.509 66.895C131.491 66.9474 131.482 66.991 131.482 67.0258V67.052L131.456 67.1043C131.456 67.1392 131.456 67.1654 131.456 67.1828C131.456 67.2177 131.448 67.2439 131.43 67.2613C131.378 67.6014 131.308 67.9328 131.221 68.2554C130.915 69.3106 130.457 70.3135 129.847 71.264C129.707 71.5256 129.245 72.1753 128.459 73.2131C128.171 73.6055 127.918 73.9718 127.7 74.3119C127.491 74.652 127.325 74.9659 127.203 75.2537C126.915 75.8467 126.714 76.444 126.601 77.0458C126.479 77.6736 126.435 78.3189 126.47 78.9817C126.54 80.3247 126.906 81.5412 127.569 82.6313M121.353 58.0655C121.187 58.8939 121.17 59.7268 121.301 60.5639C121.44 61.4011 121.715 62.1772 122.125 62.8923C122.378 63.3371 122.836 63.9475 123.499 64.7236C124.154 65.491 124.599 66.0884 124.834 66.5157C125.41 67.4662 125.741 68.504 125.829 69.6289C125.864 70.501 125.763 71.3382 125.528 72.1404C125.51 72.2189 125.493 72.2843 125.475 72.3367C125.458 72.4064 125.441 72.4675 125.423 72.5198C125.371 72.6419 125.327 72.7596 125.292 72.873M124.886 71.264C124.886 71.4559 124.895 71.6521 124.913 71.8527V71.8788C124.913 71.9137 124.921 71.9486 124.939 71.9835C124.939 72.0358 124.939 72.0881 124.939 72.1404C124.939 72.2189 124.939 72.2843 124.939 72.3367C124.939 72.5111 124.939 72.6898 124.939 72.873C124.886 74.0328 124.747 75.1839 124.52 76.3263C124.494 76.3961 124.481 76.4658 124.481 76.5356C124.132 78.1489 123.578 79.6881 122.819 81.1531C122.592 81.6153 122.234 82.3042 121.746 83.2199C121.335 84.0222 121.078 84.746 120.973 85.3913C120.816 86.3767 120.917 87.397 121.274 88.4522C121.588 89.4289 122.112 90.3184 122.845 91.1207M131.626 78.0137C131.731 78.5195 131.801 79.0297 131.836 79.5442C131.888 80.0587 131.897 80.5776 131.862 81.1008C131.81 82.156 131.613 83.185 131.273 84.1879C131.186 84.4844 130.863 85.3215 130.305 86.6994C129.877 87.7197 129.602 88.5787 129.48 89.2763C129.332 90.2269 129.428 91.1294 129.768 91.984C130.143 92.9346 130.723 93.5625 131.509 93.8677C131.814 93.9723 132.202 94.0421 132.673 94.077C132.918 94.1118 133.302 94.1467 133.825 94.1816C134.75 94.2863 135.374 94.5915 135.697 95.0973C135.827 95.2717 135.919 95.4941 135.971 95.7644C135.971 95.7993 135.98 95.8341 135.998 95.869C136.015 96.0696 136.024 96.3051 136.024 96.5754C135.971 97.5521 135.954 98.0971 135.971 98.2105C136.059 98.7773 136.299 99.2831 136.691 99.7279C137.101 100.181 137.585 100.469 138.144 100.591M120.921 66.3849C121.706 68.2075 122.199 70.0737 122.4 71.9835M118.644 92.0364C119.124 93.5712 119.612 94.7703 120.11 95.6336C120.86 96.8632 121.772 97.6829 122.845 98.0928C123.848 98.4678 125.235 98.4678 127.007 98.0928C128.42 97.7963 129.144 97.648 129.179 97.648C129.999 97.4823 130.715 97.4257 131.325 97.478C132.582 97.5652 133.716 98.0405 134.728 98.9038C135.234 99.3137 135.649 99.7671 135.971 100.264C136.329 100.787 136.587 101.363 136.744 101.991C136.813 102.235 136.914 102.61 137.045 103.116C137.167 103.526 137.346 103.835 137.581 104.045C137.869 104.332 138.279 104.502 138.811 104.555M114.888 108.924C116.284 108.967 117.331 109.373 118.029 110.14C118.613 110.794 118.949 111.849 119.036 113.306C119.08 113.698 119.111 114.296 119.128 115.098C119.18 115.795 119.285 116.375 119.442 116.838C119.713 117.622 120.123 118.115 120.672 118.316C120.908 118.385 121.205 118.403 121.562 118.368C121.746 118.351 122.042 118.324 122.452 118.29C123.072 118.272 123.626 118.46 124.114 118.852C124.699 118.634 125.288 118.429 125.881 118.237C126.047 118.176 126.2 118.12 126.339 118.067C126.575 117.771 126.762 117.487 126.902 117.217C127.059 116.947 127.185 116.685 127.281 116.432C127.587 115.647 127.596 114.95 127.308 114.339C127.107 113.982 126.784 113.646 126.339 113.332C126.287 113.288 125.877 113.027 125.109 112.547C124.62 112.259 124.245 111.937 123.983 111.579C123.661 111.152 123.534 110.716 123.604 110.271C123.639 110.018 123.783 109.713 124.036 109.355C124.332 108.893 124.511 108.592 124.572 108.453C124.834 107.807 124.769 107.153 124.376 106.491M136.992 86.7256C137.777 87.2837 138.284 88.1165 138.51 89.224C138.606 89.599 138.663 89.974 138.68 90.3489C138.698 90.9943 138.624 91.6657 138.458 92.3634C138.388 92.7209 138.266 93.2572 138.092 93.9723C137.961 94.5915 137.934 95.1365 138.013 95.6074C138.083 96.1742 138.331 96.6626 138.759 97.0725C139.204 97.5259 139.688 97.696 140.212 97.5826C140.369 97.5477 140.617 97.4867 140.958 97.3995C141.246 97.3297 141.477 97.3559 141.651 97.478C141.8 97.5652 141.891 97.7265 141.926 97.962C141.944 98.0317 141.952 98.132 141.952 98.2628C141.952 98.35 141.952 98.446 141.952 98.5506C141.935 99.6058 142.14 100.5 142.567 101.232M146.14 102.841C146.69 102.736 147.196 102.479 147.658 102.069C148.147 101.677 148.478 101.193 148.653 100.617M151.022 105.981C151.004 105.998 150.996 106.015 150.996 106.033M143.261 113.947C143.261 114.051 143.252 114.156 143.235 114.261M153.836 142.607C153.923 142.729 154.01 142.851 154.097 142.973M154.477 148.637C154.547 148.384 154.625 148.144 154.712 147.918L154.503 148.637M154.477 148.637C154.407 148.855 154.346 149.077 154.294 149.304L154.503 148.637M151.153 159.115L150.538 161.103C149.822 163.501 149.447 164.87 149.412 165.21C148.976 175.483 149.019 184.84 149.543 193.282C149.648 193.168 149.826 193.025 150.079 192.85C150.472 192.562 151.009 192.161 151.689 191.647C151.602 190.443 152.675 188.904 154.909 187.029C156.627 185.599 158.237 184.06 159.738 182.412M151.153 159.115L153.351 152.208L154.294 149.304M167.512 170.731C167.8 170.242 168.07 169.819 168.323 169.462C169.021 168.502 170.657 166.789 173.231 164.321M164.423 176.198C164.929 175.396 165.396 174.572 165.823 173.726C166.452 172.549 167.014 171.55 167.512 170.731M161.937 179.822C162.094 179.604 162.246 179.394 162.395 179.194C163.128 178.217 163.804 177.219 164.423 176.198M151.689 191.647C152.187 191.289 152.767 190.858 153.43 190.352C155.044 189.157 156.518 188.272 157.853 187.696C159.389 187.016 160.828 186.715 162.172 186.794C162.408 186.768 162.661 186.768 162.931 186.794C164.022 186.846 165.073 187.103 166.085 187.566C167.804 188.316 169.514 189.645 171.215 191.555C172.428 192.95 173.322 194.337 173.898 195.715C174.596 197.381 174.793 198.972 174.487 200.489C174.147 202.19 173.192 203.79 171.621 205.29C170.565 206.249 169.087 207.304 167.185 208.456M159.738 182.412C160.488 181.575 161.221 180.711 161.937 179.822M155.092 168.023C155.214 167.875 155.341 167.731 155.471 167.591M150.538 161.103L149.438 164.426C149.421 164.609 149.412 164.796 149.412 164.988C149.412 165.058 149.412 165.132 149.412 165.21M109.064 216.042C112.249 212.109 114.831 209.206 116.812 207.331C119.944 204.374 123.111 202.281 126.313 201.052C126.976 200.799 128.023 200.45 129.454 200.005C130.169 199.77 130.793 199.565 131.325 199.391C131.901 198.763 132.447 198.144 132.961 197.533C133.677 196.696 134.375 195.963 135.055 195.336C135.718 194.734 136.534 194.245 137.503 193.871C138.933 193.347 140.399 193.299 141.9 193.727C142.72 193.979 143.444 194.337 144.072 194.799C144.395 195.035 144.679 195.296 144.923 195.584C146.284 195.192 147.75 194.468 149.32 193.413C149.364 193.395 149.438 193.352 149.543 193.282M111.289 223.015C112.903 221.759 114.604 220.586 116.393 219.496C117.126 219.051 117.85 218.624 118.565 218.214C118.469 218.083 118.378 217.939 118.291 217.782C118.133 217.46 118.007 217.076 117.911 216.631C117.893 216.483 117.876 216.33 117.859 216.173C118.042 215.153 118.482 214.098 119.18 213.008C119.844 211.9 121.235 210.283 123.355 208.155C125.484 206.009 127.901 203.354 130.606 200.189C130.859 199.927 131.099 199.661 131.325 199.391M127.596 205.395C128.276 206.005 128.839 206.694 129.284 207.461M126.928 205.473C127.678 206.223 128.359 206.956 128.97 207.671M143.51 195.95C143.667 196.526 144.138 196.975 144.923 197.298C145.359 197.455 146.022 197.677 146.912 197.965C146.93 197.982 146.965 197.991 147.017 197.991C147.863 198.349 148.526 198.959 149.006 199.822C149.216 200.145 149.36 200.472 149.438 200.803C149.595 201.327 149.656 201.885 149.621 202.478C149.552 202.94 149.517 203.284 149.517 203.511C149.517 203.93 149.587 204.252 149.726 204.479C149.831 204.645 150.018 204.789 150.289 204.911C150.376 204.963 150.485 205.015 150.616 205.068C150.721 205.146 150.847 205.212 150.996 205.264C151.615 205.604 152.069 206.123 152.357 206.82C152.679 207.536 152.741 208.251 152.54 208.966C152.435 209.306 152.365 209.554 152.33 209.711C152.278 210.017 152.269 210.265 152.304 210.457C152.374 210.745 152.605 211.033 152.998 211.32C153.425 211.678 153.705 211.935 153.836 212.092M127.465 223.015C128.52 221.924 129.672 220.804 130.92 219.653C132.447 218.301 134.684 216.409 137.633 213.976C139.012 212.868 140.853 211.368 143.156 209.476C144.09 208.7 144.993 207.723 145.865 206.546M129.611 223.015C129.829 222.814 130.043 222.613 130.252 222.413C131.36 221.366 133.07 219.823 135.382 217.782C137.398 215.907 139.025 214.307 140.264 212.982C141.355 211.804 142.319 210.636 143.156 209.476M118.565 218.214C118.705 218.423 118.871 218.593 119.063 218.724C119.403 218.986 119.782 219.116 120.201 219.116C120.646 219.116 121.1 218.955 121.562 218.632C121.885 218.423 122.269 218.066 122.714 217.56C123.482 216.723 124.263 215.894 125.057 215.074C129.716 210.156 134.746 205.447 140.146 200.947C136.56 204.898 132.682 209.166 128.512 213.753C126.898 215.506 125.253 217.311 123.578 219.169C122.827 219.997 122.291 220.616 121.968 221.026C121.427 221.741 121.008 222.404 120.712 223.015M145.512 223.015C145.765 222.797 146.044 222.561 146.35 222.308C147.562 221.305 148.601 220.503 149.464 219.901C149.857 219.648 150.472 219.247 151.31 218.698C151.903 218.279 152.413 217.9 152.841 217.56M139.479 223.015C139.592 223.189 139.797 223.394 140.094 223.629C140.417 223.891 140.644 224.087 140.774 224.218M139.217 223.525C139.679 223.839 140.09 224.222 140.447 224.676M128.538 230.994C128.712 230.854 128.917 230.684 129.153 230.484C129.528 230.144 129.995 229.751 130.553 229.306C130.693 229.184 130.837 229.071 130.985 228.966C133.001 227.248 134.92 225.565 136.744 223.917C137.101 223.612 137.45 223.311 137.791 223.015C139.152 221.846 140.295 220.943 141.219 220.307C142.406 219.531 143.348 218.868 144.046 218.319C146.044 216.784 147.501 215.192 148.417 213.544M135.513 220.241C135.801 220.677 136.115 221.065 136.456 221.406M135.081 220.647L136.076 221.667M129.153 230.484C129.083 230.859 129.118 231.164 129.258 231.399C129.388 231.617 129.607 231.787 129.912 231.909C130.444 232.093 130.933 232.032 131.378 231.726C131.509 231.63 131.6 231.53 131.653 231.426C131.653 231.338 131.635 231.212 131.6 231.046C131.469 230.715 131.282 230.37 131.038 230.013C130.942 229.847 130.78 229.612 130.553 229.306M125.057 215.074C126.2 214.595 127.351 214.154 128.512 213.753M131.404 213.282C131.605 213.64 132.019 214.067 132.647 214.564M130.92 213.675C131.67 214.05 132.272 214.643 132.726 215.454M188.805 160.75C189.276 160.41 190.013 160.972 191.016 162.437M95.0344 207.134C95.0173 207.169 95.0086 207.212 95.0082 207.265C95.0077 207.229 94.999 207.185 94.9821 207.134C94.9995 207.134 95.0169 207.134 95.0344 207.134ZM75.3249 222.334C75.3249 222.465 75.2944 222.583 75.2334 222.688C75.2159 222.757 75.1635 222.866 75.0763 223.015C75.0589 223.032 75.0414 223.058 75.024 223.093C74.8844 223.267 74.7055 223.464 74.4874 223.682C74.2518 223.935 74.0293 224.07 73.8199 224.087C73.5145 224.139 73.1743 224.03 72.7991 223.76C72.4938 223.525 72.2146 223.276 71.9616 223.015C71.9267 222.997 71.9005 222.958 71.883 222.897C71.8481 222.879 71.8132 222.827 71.7783 222.74C71.7783 222.688 71.8045 222.644 71.8568 222.609C72.232 222.121 72.9387 221.371 73.977 220.359C74.0293 220.324 74.0642 220.316 74.0817 220.333C74.0991 220.333 74.1645 220.359 74.278 220.411C74.3652 220.464 74.4786 220.577 74.6182 220.752C74.7491 220.935 74.8582 221.105 74.9454 221.262C75.0501 221.427 75.1374 221.606 75.2072 221.798L75.2595 222.125C75.277 222.125 75.2988 222.195 75.3249 222.334ZM73.2048 231.046C72.8471 231.639 72.4239 232.045 71.9354 232.263C71.63 232.402 71.3377 232.455 71.0585 232.42C70.8404 232.402 70.6441 232.35 70.4696 232.263C70.0682 231.617 69.789 231.168 69.632 230.915C69.5098 230.741 69.4095 230.562 69.331 230.379C69.427 230.24 69.5883 230.087 69.8152 229.921C69.9112 229.851 70.1075 229.721 70.4041 229.529L71.0061 229.202C71.4162 228.949 71.7521 228.718 72.0139 228.508C72.3891 228.953 72.6682 229.346 72.8515 229.686C73.0696 230.165 73.1874 230.619 73.2048 231.046ZM69.5796 237.168C69.3964 237.491 69.1827 237.722 68.9384 237.861C68.6679 238.044 68.441 238.145 68.2578 238.162C67.9263 238.197 67.5511 238.036 67.1323 237.678C66.5652 237.19 66.1377 236.815 65.8498 236.553C66.5478 235.69 67.3417 234.84 68.2317 234.002C68.5894 234.325 68.9471 234.735 69.3048 235.232C69.5578 235.59 69.7193 235.904 69.7891 236.174C69.8676 236.514 69.7978 236.845 69.5796 237.168ZM118.644 216.526C118.644 216.649 118.661 216.762 118.696 216.867C118.714 216.936 118.783 217.071 118.906 217.272C119.036 217.412 119.189 217.582 119.364 217.782C119.399 217.817 119.433 217.843 119.468 217.861C119.704 218.096 119.926 218.231 120.136 218.266C120.424 218.319 120.755 218.21 121.13 217.939C121.471 217.686 121.785 217.403 122.073 217.089C122.09 217.071 122.125 217.015 122.177 216.919C122.16 216.867 122.134 216.823 122.099 216.788C122.029 216.701 121.951 216.605 121.863 216.5C121.445 216.029 120.816 215.375 119.979 214.538C119.926 214.503 119.891 214.486 119.874 214.486C119.839 214.486 119.778 214.521 119.691 214.59C119.577 214.643 119.46 214.761 119.337 214.944C119.215 215.101 119.098 215.262 118.984 215.428C118.897 215.602 118.818 215.79 118.749 215.99L118.67 216.304L118.644 216.526ZM120.738 225.238C121.113 225.823 121.541 226.232 122.02 226.468C122.326 226.573 122.614 226.616 122.884 226.599C123.111 226.581 123.307 226.529 123.473 226.442C123.866 225.796 124.141 225.347 124.298 225.094C124.446 224.92 124.555 224.741 124.625 224.558C124.529 224.419 124.359 224.27 124.114 224.113C124.045 224.035 123.848 223.908 123.525 223.734L122.963 223.355C122.745 223.233 122.557 223.119 122.4 223.015C122.217 222.901 122.055 222.783 121.916 222.661C121.82 222.783 121.728 222.901 121.641 223.015C121.414 223.328 121.226 223.612 121.078 223.865C120.886 224.344 120.773 224.802 120.738 225.238ZM124.35 231.321C124.551 231.644 124.764 231.883 124.991 232.04C125.279 232.206 125.515 232.298 125.698 232.315C126.038 232.35 126.405 232.189 126.797 231.831C127.382 231.369 127.809 231.003 128.08 230.732C127.399 229.869 126.614 229.019 125.724 228.181C125.349 228.487 124.982 228.905 124.625 229.437C124.389 229.777 124.228 230.083 124.14 230.353C124.088 230.676 124.158 230.998 124.35 231.321Z" stroke="black" stroke-width="0.248863" stroke-linecap="round" stroke-linejoin="round"/>
<path d="M144.465 109.735C145.617 110.092 146.371 110.341 146.729 110.48C148.439 111.16 150.093 112.281 151.689 113.842C151.794 113.947 151.899 114.051 152.003 114.156C153.277 112.159 154.717 110.31 156.322 108.61M38.3272 110.676C38.493 110.493 38.6544 110.323 38.8114 110.166C39.3698 109.626 40.1856 108.928 41.2588 108.073C43.7803 105.998 45.7826 104.507 47.2658 103.6C48.3913 102.885 49.5168 102.309 50.6423 101.873M43.4574 117.962C43.5621 117.84 43.6756 117.714 43.7977 117.583C44.2078 117.156 44.8796 116.532 45.8131 115.712C48.0118 113.838 50.4722 111.718 53.1943 109.355C53.4735 109.111 53.7397 108.889 53.9927 108.688M55.8772 107.288C56.9242 106.634 57.9581 106.225 58.9789 106.059M68.9907 114.457C68.8249 114.736 68.6374 115.019 68.428 115.307C67.5642 116.432 66.3994 117.487 64.9337 118.473C64.2793 118.917 62.5736 119.903 59.8165 121.429C55.3668 123.871 51.2444 126.818 47.449 130.271C45.6255 131.954 43.9198 133.716 42.3319 135.556C41.7212 136.236 41.1279 136.943 40.5521 137.675C39.5749 139.384 38.7984 140.671 38.2225 141.534C37.7426 142.249 37.3238 142.955 36.9661 143.653C36.3205 144.935 35.8799 146.204 35.6444 147.46C35.2517 149.387 35.0118 151.379 34.9246 153.438M35.1601 154.288C35.5178 154.366 35.893 154.44 36.2856 154.51M62.6826 111.016L56.5186 115.438C55.2098 116.371 54.3155 117.007 53.8357 117.348C52.8323 118.028 51.9118 118.599 51.0742 119.061C49.495 119.811 48.3303 120.4 47.5799 120.827C46.8645 121.246 46.1316 121.73 45.3813 122.279M78.6753 113.62C77.1572 115.442 75.3424 117.247 73.231 119.035C71.4075 120.57 68.8468 122.467 65.5488 124.725C61.4743 127.542 58.8568 129.391 57.6964 130.271C54.8172 132.434 52.4309 134.536 50.5377 136.576C46.7772 140.649 44.042 145.419 42.3319 150.887C41.0057 155.055 40.4125 159.245 40.5521 163.457M47.8024 173.752C47.689 173.168 47.6148 172.553 47.5799 171.908C47.4229 169.475 47.5843 167.151 48.0642 164.936C48.544 162.703 49.0195 160.737 49.4907 159.036C49.9531 157.336 51.2836 154.763 53.4823 151.318C57.1293 144.682 61.0555 139.925 65.2608 137.047C69.4662 134.169 72.8078 131.527 75.2857 129.12C77.2575 127.167 78.8149 125.584 79.9578 124.372C82.6276 121.529 84.7478 118.786 86.3182 116.144M25.1091 109.486C25.2487 110.314 25.4537 111.173 25.7242 112.063C26.1866 113.676 27.0242 115.874 28.2369 118.656C28.9698 120.408 29.5893 121.786 30.0953 122.789C30.8282 124.289 31.5786 125.593 32.3463 126.7C33.6027 128.488 35.2735 130.319 37.3587 132.194C38.4668 133.197 39.4615 133.978 40.3427 134.536C40.84 134.858 41.3417 135.124 41.8477 135.334C42.9209 133.354 44.1903 130.969 45.6561 128.178M41.8477 135.334C42.0048 135.412 42.1661 135.486 42.3319 135.556M34.9246 153.438C34.9246 153.682 34.9246 153.939 34.9246 154.209C34.9944 154.244 35.0729 154.27 35.1601 154.288M34.9246 154.209C34.9246 154.358 34.9246 154.51 34.9246 154.667C34.942 156.638 34.8678 158.247 34.702 159.494C35.2953 158.439 35.797 157.436 36.2071 156.485M34.5974 160.135C34.6323 159.943 34.6671 159.729 34.702 159.494C34.5276 159.764 34.3487 160.043 34.1655 160.331C33.4936 161.308 32.8698 162.21 32.294 163.039C34.0651 163.623 35.7534 164.05 37.3587 164.321M41.8477 135.334C41.3766 136.18 40.9447 136.96 40.5521 137.675M107.428 114.104C107.603 115.316 108.004 116.55 108.632 117.805C109.496 119.593 110.757 121.355 112.414 123.09C112.842 123.552 114.39 125.043 117.06 127.564C118.954 129.369 120.393 130.952 121.379 132.312C125.235 137.675 126.675 145.066 125.698 154.484M104.13 115.176C104.383 116.781 105.007 118.459 106.001 120.212C106.394 120.892 107.799 122.951 110.216 126.386C113.636 131.139 116.14 136.171 117.728 141.482C119.429 147.141 119.939 152.679 119.259 158.094M89.7995 116.55C89.625 117.282 89.3327 118.041 88.9226 118.826C88.4951 119.663 87.7971 120.753 86.8286 122.096C83.9494 126.317 81.873 129.434 80.5991 131.449C78.383 134.972 76.5857 138.233 75.2072 141.233C71.6736 148.96 70.1904 156.198 70.7575 162.947M93.0975 116.654C92.7834 119.297 91.9982 122.244 90.7418 125.497C89.8693 127.764 88.4297 131.152 86.423 135.661C84.4773 140.631 83.0726 145.768 82.2089 151.07C81.3538 156.398 81.0877 161.726 81.4105 167.055M100.269 116.039C103.593 130.891 105.051 145.842 104.64 160.894M21.1829 117.557C21.8635 119.048 22.6181 120.783 23.447 122.763C25.1047 126.783 26.3349 129.617 27.1376 131.266C29.9645 136.908 33.2406 141.037 36.9661 143.653M13.4352 133.842C14.4211 137.252 15.7081 140.27 17.296 142.894C19.6081 146.705 22.4524 149.505 25.8289 151.292C27.2598 152.06 28.9567 152.722 30.9198 153.281C31.8708 153.542 33.2058 153.852 34.9246 154.209M7.29731 146.845C8.67583 148.946 10.5429 150.939 12.8986 152.823C15.2631 154.663 18.5916 156.682 22.8843 158.879C25.7635 160.327 28.1148 161.417 29.9383 162.149C30.741 162.472 31.5262 162.768 32.294 163.039C31.1336 164.713 30.2305 166.06 29.5849 167.081C28.154 169.313 26.9369 171.62 25.9336 174.001C25.7765 174.376 25.6238 174.751 25.4755 175.125M32.0846 185.721C32.1544 185.695 32.2242 185.682 32.294 185.682M24.4547 173.922C21.4185 173.687 18.6134 173.159 16.0396 172.339C15.4986 172.156 14.9708 171.969 14.456 171.777C12.0392 170.844 9.84933 169.618 7.88623 168.101C6.23724 166.872 4.83251 165.502 3.67211 163.994M24.4547 173.922C24.6729 173.94 24.8822 173.948 25.0829 173.948C25.3621 173.966 25.6457 173.983 25.9336 174.001M0.125442 174.642C0.753632 175.156 1.49093 175.623 2.33724 176.041C3.42785 176.573 4.74089 177.027 6.27646 177.402C6.52948 177.454 6.78692 177.519 7.04866 177.598C7.28423 177.633 7.51979 177.676 7.75536 177.729C12.1003 178.548 16.4802 178.915 20.895 178.827C23.1285 178.792 25.3272 178.649 27.4909 178.396M2.46812 187.513C6.79564 185.542 11.8299 184.199 17.5708 183.484C20.6769 183.109 24.8255 182.878 30.0168 182.791M2.21941 187.592C2.29793 187.557 2.38087 187.53 2.46812 187.513M12.6892 203.943C16.0483 197.672 19.7477 193.77 23.7873 192.235C27.8094 190.674 32.0148 190.073 36.4034 190.43M32.0846 185.721C27.8967 186.052 23.7349 186.837 19.5993 188.076C14.4691 189.593 9.67047 191.721 5.20334 194.459M97.4163 116.432C98.3499 132.321 98.1186 148.096 96.7226 163.758M124.834 106.517C124.852 106.552 124.869 106.595 124.886 106.647C124.939 106.7 124.996 106.765 125.057 106.844C125.214 107.053 125.371 107.267 125.528 107.485C126.618 108.819 128.041 110.022 129.794 111.095C131.871 112.351 134.562 113.489 137.869 114.509C139.771 115.093 141.372 115.603 142.672 116.039C142.672 116.057 142.681 116.066 142.698 116.066C144.295 116.58 145.451 116.99 146.166 117.295C147.344 117.792 148.426 118.337 149.412 118.93C149.726 118.198 150.084 117.474 150.485 116.759C150.965 115.861 151.471 114.993 152.003 114.156M145.276 124.424C145.809 125.052 146.337 125.724 146.86 126.439C147.427 123.866 148.278 121.363 149.412 118.93M164.318 114.718C161.012 116.332 158.037 118.529 155.393 121.311C152.837 124.032 150.852 127.027 149.438 130.298C150.154 131.44 151.039 132.957 152.095 134.85C152.13 134.928 152.165 135.002 152.2 135.072C152.627 135.857 152.937 136.446 153.129 136.838C153.329 137.265 153.5 137.666 153.639 138.041C156.309 134.326 159.603 131.109 163.52 128.388C166.164 126.565 168.925 125.091 171.804 123.966M146.86 126.439C147.575 127.407 148.291 128.453 149.006 129.578C149.146 129.787 149.29 130.027 149.438 130.298M110.831 112.678C112.139 114.361 114.142 115.865 116.838 117.191C118.4 117.941 120.773 118.996 123.957 120.356C127.168 121.961 130.082 124.115 132.7 126.818C135.204 129.443 137.267 132.425 138.89 135.765C140.521 139.105 141.595 142.572 142.109 146.165C142.633 149.888 142.515 153.507 141.756 157.022M125.881 118.237C127.774 119.449 130.047 120.879 132.7 122.528C136.739 125.17 140.002 127.668 142.489 130.023C145.691 133.084 148.129 136.428 149.805 140.056C151.672 144.111 152.352 148.079 151.846 151.959M153.639 138.041C153.718 138.277 153.783 138.504 153.835 138.722C154.045 139.576 154.132 140.993 154.097 142.973C154.097 143.173 154.097 143.383 154.097 143.601C159.271 139.703 164.262 136.956 169.069 135.36C171.948 134.418 174.81 133.838 177.654 133.62M154.097 143.601C154.097 143.758 154.089 143.928 154.071 144.111C154.019 145.986 154.154 147.494 154.477 148.637M154.739 149.382C154.634 149.156 154.555 148.907 154.503 148.637H154.477M157.592 182.582C158.342 182.512 159.057 182.455 159.738 182.412M149.216 155.334L151.153 159.115M153.351 152.208C156.23 151.004 158.839 150.019 161.177 149.252C164.563 148.144 167.765 147.32 170.784 146.779C174.239 146.195 177.558 145.973 180.743 146.112C181.886 146.165 183.003 146.274 184.093 146.439M187.208 153.359C181.214 153.019 175.294 154.026 169.449 156.381C163.708 158.727 158.835 162.045 154.83 166.335C155.04 166.763 155.253 167.181 155.471 167.591C156.667 169.928 157.674 171.886 158.495 173.464C161.147 170.499 163.311 168.245 164.986 166.701C168.013 163.937 171.01 161.875 173.977 160.514C177.039 159.102 180.42 158.234 184.119 157.911C185.742 157.772 187.404 157.737 189.106 157.807M167.512 170.73C168.14 170.425 168.916 170.146 169.841 169.893C174.78 168.576 179.831 168.389 184.996 169.331C188.809 170.063 192.334 171.341 195.571 173.163M164.423 176.198C167.25 175.701 170.212 175.601 173.309 175.897C177.174 176.29 181.035 177.31 184.892 178.958C187.937 180.249 190.515 181.74 192.626 183.432M165.182 172.653C165.627 171.938 166.308 171.341 167.224 170.861C167.329 170.809 167.424 170.765 167.512 170.73M158.495 173.464C159.358 175.121 160.004 176.355 160.432 177.166C160.99 178.239 161.457 179.067 161.832 179.651C161.849 179.704 161.884 179.76 161.937 179.822M161.479 176.891C162.447 176.604 163.429 176.373 164.423 176.198M159.738 182.412C161.378 182.289 162.818 182.237 164.057 182.255C166.395 182.307 168.519 182.577 170.43 183.066C174.723 184.156 178.4 186.44 181.463 189.92C182.675 191.315 183.696 192.772 184.525 194.289M151.153 159.115L153.482 163.706C153.945 164.613 154.394 165.489 154.83 166.335C154.132 167.085 153.452 167.87 152.789 168.69M150.668 163.732C150.974 163.462 151.305 163.174 151.663 162.869C151.75 162.782 151.82 162.729 151.872 162.712C151.907 162.694 151.973 162.677 152.069 162.659M157.317 174.746C157.727 174.301 158.119 173.874 158.495 173.464" stroke="black" stroke-width="0.248863" stroke-linecap="round" stroke-linejoin="round"/>
</svg>
