<svg width="30" height="40" viewBox="0 0 30 40" fill="none" xmlns="http://www.w3.org/2000/svg">
<path d="M26.858 8.33297V6.20547L28.4022 5H11.692L1.60156 13.7714H8.29344C8.28158 13.9332 8.27587 14.0955 8.27633 14.2577C8.27633 15.8862 8.84039 17.2333 9.96945 18.3094C11.0986 19.3873 12.4891 19.9225 14.1356 19.9225C14.5202 19.9225 14.8973 19.8937 15.2636 19.8425C15.0365 20.3503 14.9219 20.8209 14.9219 21.2598C14.9219 22.0313 15.2734 22.8559 15.974 23.7319C12.9088 23.9405 10.6567 24.4922 9.22109 25.3852C8.39836 25.893 7.73672 26.534 7.2375 27.3017C6.7382 28.0752 6.48922 28.9045 6.48922 29.7988C6.48922 30.5525 6.65031 31.2312 6.97508 31.8348C7.29977 32.4384 7.72336 32.9341 8.24945 33.318C8.7743 33.7061 9.37984 34.029 10.0634 34.2921C10.7458 34.5534 11.4233 34.7388 12.0995 34.8438C12.7639 34.9476 13.4353 34.9998 14.1077 35C15.16 35 16.2134 34.8645 17.2755 34.5948C18.335 34.3225 19.3286 33.9196 20.2576 33.3844C21.1841 32.8527 21.9384 32.1277 22.5171 31.2189C23.0945 30.3064 23.3838 29.281 23.3838 28.1458C23.3838 27.2852 23.208 26.5021 22.8565 25.7911C22.5074 25.0823 22.0801 24.4988 21.5712 24.0454C21.0633 23.5913 20.5555 23.1739 20.0465 22.7979C19.5387 22.4194 19.109 22.0362 18.7599 21.6406C18.4095 21.2464 18.2337 20.8552 18.2337 20.47C18.2337 20.0855 18.3692 19.7144 18.6413 19.3555C18.9112 18.9954 19.2408 18.6487 19.6264 18.316C20.0121 17.984 20.3979 17.6154 20.7823 17.2119C21.1669 16.8098 21.4965 16.2879 21.7675 15.6488C22.0398 15.0097 22.174 14.2859 22.174 13.4802C22.174 12.4292 21.975 11.5693 21.5844 10.8776C21.538 10.7977 21.4892 10.7367 21.4379 10.6415L25.8837 6.99523V8.33266C25.3062 8.40531 25.3662 8.75023 25.3662 9.16352V19.2156C25.3662 19.6811 25.7471 20.062 26.2127 20.062H26.5243C26.9898 20.062 27.3706 19.6812 27.3706 19.2156V9.16352C27.3706 8.75125 27.4314 8.40656 26.858 8.33297ZM18.4705 25.7143C18.5596 25.7729 18.7599 25.9315 19.0735 26.186C19.3899 26.4394 19.6045 26.6309 19.7193 26.7652C19.8875 26.9599 20.0536 27.1565 20.2174 27.3548C20.4372 27.6185 20.586 27.8473 20.6641 28.0372C20.7423 28.2308 20.8216 28.4637 20.9022 28.7361C20.9792 29.0044 21.0182 29.2821 21.0182 29.5613C21.0182 30.8931 20.5054 31.88 19.4826 32.519C18.4572 33.158 17.2352 33.4779 15.8155 33.4779C15.0978 33.4779 14.3934 33.3925 13.7013 33.2282C13.0104 33.0629 12.3488 32.8113 11.7177 32.4781C11.0866 32.1455 10.5788 31.6809 10.1942 31.0877C9.80844 30.4909 9.61555 29.8053 9.61555 29.037C9.61555 28.2307 9.83406 27.5299 10.2735 26.9349C10.7105 26.3392 11.2843 25.8888 11.9948 25.5822C12.7028 25.2739 13.4205 25.0555 14.148 24.9261C14.8811 24.7926 15.6247 24.7258 16.3698 24.7265C16.719 24.7265 16.9898 24.746 17.1827 24.7809C17.2182 24.798 17.4195 24.9426 17.787 25.2155C18.1545 25.4859 18.3827 25.6526 18.4705 25.7142V25.7143ZM18.2081 17.8566C17.6295 18.5487 16.8227 18.8947 15.7899 18.8947C14.8634 18.8947 14.0479 18.5225 13.3473 17.7766C12.6441 17.0326 12.1424 16.1884 11.836 15.243C11.5284 14.297 11.3746 13.3692 11.3746 12.458C11.3747 11.3882 11.6555 10.4773 12.2169 9.72547C12.7784 8.97156 13.5841 8.59383 14.6339 8.59383C15.5616 8.59383 16.3819 8.98742 17.0899 9.77797C17.8004 10.5659 18.3095 11.4509 18.6147 12.4317C18.9211 13.4114 19.0735 14.3481 19.0735 15.243C19.0735 16.2934 18.7843 17.1656 18.2082 17.8566H18.2081Z" fill="#814FFF"/>
</svg>
