<svg width="45" height="45" viewBox="0 0 45 45" fill="none" xmlns="http://www.w3.org/2000/svg">
<path d="M16.7805 10.4285C17.4173 10.775 17.946 11.261 18.342 11.8415C18.9037 11.4563 19.5689 11.25 20.25 11.2498H24.75C25.4587 11.2498 26.1157 11.468 26.658 11.8415C27.054 11.2633 27.5828 10.775 28.2195 10.4285L33.8445 7.35952C36.8438 5.72377 40.5 7.89502 40.5 11.3105V22.439C40.5 25.8545 36.8438 28.0258 33.8445 26.39L28.2195 23.321C27.5946 22.9802 27.0594 22.4959 26.658 21.908C26.0963 22.2933 25.4311 22.4996 24.75 22.4998H20.25C19.5689 22.4996 18.9037 22.2933 18.342 21.908C17.9406 22.4959 17.4054 22.9802 16.7805 23.321L11.1555 26.39C8.15625 28.0258 4.5 25.8545 4.5 22.439V11.3105C4.5 7.89502 8.15625 5.72377 11.1555 7.35727L16.7805 10.4285ZM12.375 16.8748C12.375 17.1731 12.4935 17.4593 12.7045 17.6703C12.9155 17.8812 13.2016 17.9998 13.5 17.9998H18V15.7498H13.5C13.2016 15.7498 12.9155 15.8683 12.7045 16.0793C12.4935 16.2903 12.375 16.5764 12.375 16.8748ZM31.5 15.7498H27V17.9998H31.5C31.7984 17.9998 32.0845 17.8812 32.2955 17.6703C32.5065 17.4593 32.625 17.1731 32.625 16.8748C32.625 16.5764 32.5065 16.2903 32.2955 16.0793C32.0845 15.8683 31.7984 15.7498 31.5 15.7498ZM18.6863 24.8623C18.396 25.0108 18.162 25.1323 17.8582 25.2965L12.4695 28.2373L10.314 33.6238C10.1097 34.1358 10.0338 34.6901 10.0932 35.2382C10.1526 35.7862 10.3453 36.3114 10.6545 36.7678C10.9637 37.2242 11.38 37.5979 11.8671 37.8563C12.3541 38.1146 12.897 38.2497 13.4483 38.2498H16.875C17.7701 38.2498 18.6286 37.8942 19.2615 37.2613C19.8944 36.6283 20.25 35.7699 20.25 34.8748V24.7498H18.9L18.6863 24.8623ZM24.75 34.8748V24.7498H26.0865L26.5072 24.9658C26.7143 25.0715 26.9122 25.1728 27.1418 25.2965L32.5305 28.235L34.686 33.6215C34.8908 34.1337 34.967 34.6882 34.9079 35.2366C34.8487 35.785 34.6561 36.3105 34.3468 36.7672C34.0375 37.2239 33.621 37.5979 33.1338 37.8563C32.6465 38.1148 32.1033 38.2499 31.5518 38.2498H28.125C27.2299 38.2498 26.3714 37.8942 25.7385 37.2613C25.1056 36.6283 24.75 35.7699 24.75 34.8748Z" fill="#F465A1"/>
</svg>
