<svg width="42" height="42" viewBox="0 0 42 42" fill="none" xmlns="http://www.w3.org/2000/svg">
<path d="M13.125 19.25C14.0533 19.25 14.9435 18.8813 15.5999 18.2249C16.2563 17.5685 16.625 16.6783 16.625 15.75C16.625 14.8217 16.2563 13.9315 15.5999 13.2751C14.9435 12.6187 14.0533 12.25 13.125 12.25H5.25V19.25H13.125ZM14.875 22.75H5.25V29.75H14.875C15.8033 29.75 16.6935 29.3813 17.3499 28.7249C18.0063 28.0685 18.375 27.1783 18.375 26.25C18.375 25.3217 18.0063 24.4315 17.3499 23.7751C16.6935 23.1187 15.8033 22.75 14.875 22.75ZM18.4852 20.251C19.7969 21.0397 20.814 22.2366 21.3806 23.6584C21.9473 25.0802 22.0323 26.6485 21.6227 28.1232C21.2132 29.598 20.3315 30.8978 19.1128 31.8237C17.8941 32.7497 16.4055 33.2507 14.875 33.25H1.75V8.75H13.125C14.4579 8.74988 15.7631 9.13031 16.8872 9.84656C18.0113 10.5628 18.9076 11.5851 19.4706 12.7933C20.0336 14.0015 20.2399 15.3452 20.0654 16.6667C19.8908 17.9881 19.3426 19.2322 18.4852 20.2528M27.125 10.5H36.75V13.125H27.125V10.5ZM40.25 25.375H27.125V25.8125C27.1246 26.8935 27.4882 27.9432 28.1572 28.7924C28.8262 29.6416 29.7616 30.2408 30.8127 30.4935C31.8638 30.7461 32.9693 30.6375 33.9512 30.1852C34.9331 29.7329 35.734 28.9631 36.225 28H39.9595C39.4263 29.9395 38.2082 31.62 36.5309 32.7302C34.8536 33.8404 32.8308 34.305 30.8372 34.038C28.8435 33.7711 27.0142 32.7905 25.6881 31.2781C24.3621 29.7657 23.6291 27.8239 23.625 25.8125V23.1875C23.625 20.9829 24.5008 18.8686 26.0597 17.3097C27.6186 15.7508 29.7329 14.875 31.9375 14.875C34.1421 14.875 36.2564 15.7508 37.8153 17.3097C39.3742 18.8686 40.25 20.9829 40.25 23.1875V25.375ZM36.568 21.875C36.2815 20.8679 35.6744 19.9816 34.8388 19.3506C34.0032 18.7195 32.9846 18.3781 31.9375 18.3781C30.8904 18.3781 29.8718 18.7195 29.0362 19.3506C28.2006 19.9816 27.5935 20.8679 27.307 21.875H36.568Z" fill="#814FFF"/>
</svg>
