<svg width="58" height="51" viewBox="0 0 58 51" fill="none" xmlns="http://www.w3.org/2000/svg">
<path d="M5.00027 11.6492L26.4482 30.5107C27.0827 31.0691 27.9302 31.4005 28.8266 31.4409C29.7231 31.4814 30.6047 31.2279 31.3009 30.7296L31.5764 30.5107L53.0098 11.662C53.079 11.8957 53.1258 12.1345 53.1499 12.3781L53.1693 12.75V38.25C53.1697 39.3222 52.7091 40.3549 51.88 41.1412C51.0508 41.9274 49.9144 42.409 48.6984 42.4894L48.3359 42.5H9.66927C8.44988 42.5003 7.2754 42.0954 6.38128 41.3663C5.48716 40.6372 4.93948 39.6379 4.84802 38.5687L4.83594 38.25V12.75C4.83594 12.495 4.8601 12.2471 4.90844 12.0062L5.00027 11.6492ZM48.3359 8.5C48.6292 8.5 48.9151 8.52196 49.1939 8.56588L49.6047 8.64875L29.0147 26.7537L8.41744 8.6445C8.68488 8.58075 8.95877 8.53825 9.2391 8.517L9.66927 8.5H48.3359Z" fill="#814FFF"/>
</svg>
