<svg width="121" height="121" viewBox="0 0 121 121" fill="none" xmlns="http://www.w3.org/2000/svg">
<rect x="8.58594" y="8.58301" width="103" height="103" rx="51.5" fill="#DACBFF"/>
<rect x="8.58594" y="8.58301" width="103" height="103" rx="51.5" stroke="#EDE6FF" stroke-width="17.1667"/>
<path fill-rule="evenodd" clip-rule="evenodd" d="M60.0815 89.4569C44.2462 89.4569 31.375 76.5857 31.375 60.7504C31.375 44.9151 44.2462 32.0439 60.0815 32.0439C75.9168 32.0439 88.788 44.9151 88.788 60.7504C88.788 76.5857 75.9168 89.4569 60.0815 89.4569ZM60.0815 36.0495C46.4626 36.0495 35.3806 47.1315 35.3806 60.7504C35.3806 74.3693 46.4626 85.4514 60.0815 85.4514C73.7004 85.4514 84.7824 74.3693 84.7824 60.7504C84.7824 47.1315 73.7004 36.0495 60.0815 36.0495ZM47.5307 77.4402C46.3558 77.4402 45.3944 77.0931 44.5666 76.2653C42.2541 73.9527 43.5412 70.8177 46.1101 64.5664L46.1421 64.4889L49.133 57.1988L49.2531 56.9104C50.1878 54.6673 50.7005 53.4443 51.7499 52.4189C52.8181 51.3507 54.0892 50.8167 56.335 49.874L56.5032 49.8019L63.7933 46.8111C69.8817 44.2742 73.2197 42.9124 75.5429 45.2089C77.8581 47.5241 76.5684 50.6564 73.9995 56.9078L73.9674 56.9852L70.9766 64.2753L70.8564 64.5637C69.9218 66.8068 69.4118 68.0299 68.3596 69.0553C67.2915 70.1234 66.0204 70.6575 63.7773 71.6001L63.6064 71.6722L56.3163 74.6631C52.4175 76.292 49.6403 77.4402 47.5307 77.4402ZM72.5254 48.0128C71.4573 48.0128 68.2528 49.3479 65.3688 50.5496L58.0787 53.5404C55.9958 54.3949 55.1413 54.7688 54.6339 55.2762C54.1266 55.7568 53.7394 56.6995 53.0584 58.3524L52.9516 58.6141L49.9074 66.0378L49.7819 66.3422C48.5321 69.3864 47.1676 72.7137 47.4773 73.4881C48.1983 73.7551 51.7499 72.2864 54.8476 71.0047L62.1644 68.0138C64.2473 67.1593 65.1018 66.7855 65.6091 66.2781C66.1165 65.7974 66.5037 64.8548 67.1847 63.2018L67.2915 62.9401L70.3357 55.5165L70.4612 55.2121C71.7109 52.1679 73.0782 48.8406 72.7657 48.0662L72.6803 48.0555C72.6393 48.0466 72.5966 48.0412 72.5521 48.0395L72.5254 48.0128ZM57.4111 60.7771C57.4111 62.2458 58.6128 63.4475 60.0815 63.4475V63.4742C61.5502 63.4742 62.7519 62.2725 62.7519 60.7771C62.7519 59.2817 61.5502 58.1068 60.0815 58.1068C58.6128 58.1068 57.4111 59.3084 57.4111 60.7771Z" fill="#673FCC"/>
</svg>
