<svg width="121" height="121" viewBox="0 0 121 121" fill="none" xmlns="http://www.w3.org/2000/svg">
<rect x="8.58594" y="8.58301" width="103" height="103" rx="51.5" fill="#DACBFF"/>
<rect x="8.58594" y="8.58301" width="103" height="103" rx="51.5" stroke="#EDE6FF" stroke-width="17.1667"/>
<path d="M70.1914 42.3915C71.5872 42.3915 72.7187 41.26 72.7187 39.8642C72.7187 38.4684 71.5872 37.3369 70.1914 37.3369C68.7956 37.3369 67.6641 38.4684 67.6641 39.8642C67.6641 41.26 68.7956 42.3915 70.1914 42.3915Z" stroke="#673FCC" stroke-width="4.29167" stroke-linecap="round" stroke-linejoin="round"/>
<path d="M75.2497 77.773L77.777 60.0818L62.6132 62.6091M42.3946 49.9726L49.9766 42.3906L63.8768 49.9726L57.9123 58.8182M40.4739 66.4001C39.7608 68.733 39.7381 71.2224 40.4087 73.5678C41.0793 75.9133 42.4144 78.0145 44.2529 79.6179C46.0914 81.2212 48.3547 82.2581 50.7695 82.6035C53.1844 82.9488 55.6476 82.5878 57.8618 81.564" stroke="#673FCC" stroke-width="4.29167" stroke-linecap="round" stroke-linejoin="round"/>
<path d="M64.5364 73.9839C65.2495 71.6511 65.2721 69.1617 64.6015 66.8162C63.931 64.4708 62.5958 62.3695 60.7573 60.7662C58.9188 59.1629 56.6555 58.1259 54.2407 57.7806C51.8258 57.4353 49.3626 57.7963 47.1484 58.82" stroke="#673FCC" stroke-width="4.29167" stroke-linecap="round" stroke-linejoin="round"/>
</svg>
