<svg width="121" height="121" viewBox="0 0 121 121" fill="none" xmlns="http://www.w3.org/2000/svg">
<rect x="8.58594" y="8.58301" width="103" height="103" rx="51.5" fill="#DACBFF"/>
<rect x="8.58594" y="8.58301" width="103" height="103" rx="51.5" stroke="#EDE6FF" stroke-width="17.1667"/>
<path d="M46.8153 54.6924C46.8153 55.4465 47.1148 56.1697 47.648 56.7029C48.1812 57.2361 48.9044 57.5356 49.6585 57.5356C50.4126 57.5356 51.1358 57.2361 51.669 56.7029C52.2022 56.1697 52.5017 55.4465 52.5017 54.6924C52.5017 53.9383 52.2022 53.2152 51.669 52.6819C51.1358 52.1487 50.4126 51.8492 49.6585 51.8492C48.9044 51.8492 48.1812 52.1487 47.648 52.6819C47.1148 53.2152 46.8153 53.9383 46.8153 54.6924ZM67.6656 54.6924C67.6656 55.4465 67.9652 56.1697 68.4984 56.7029C69.0316 57.2361 69.7548 57.5356 70.5089 57.5356C71.2629 57.5356 71.9861 57.2361 72.5193 56.7029C73.0525 56.1697 73.3521 55.4465 73.3521 54.6924C73.3521 53.9383 73.0525 53.2152 72.5193 52.6819C71.9861 52.1487 71.2629 51.8492 70.5089 51.8492C69.7548 51.8492 69.0316 52.1487 68.4984 52.6819C67.9652 53.2152 67.6656 53.9383 67.6656 54.6924ZM60.0837 33.5459C45.4292 33.5459 33.5469 45.4282 33.5469 60.0827C33.5469 74.7372 45.4292 86.6195 60.0837 86.6195C74.7382 86.6195 86.6205 74.7372 86.6205 60.0827C86.6205 45.4282 74.7382 33.5459 60.0837 33.5459ZM75.6622 75.6612C73.6364 77.687 71.2789 79.2745 68.6548 80.3881C65.9478 81.5372 63.0632 82.1177 60.0837 82.1177C57.1042 82.1177 54.2195 81.5372 51.5066 80.3881C48.8865 79.2816 46.5066 77.6762 44.4992 75.6612C42.4734 73.6354 40.886 71.2779 39.7724 68.6539C38.6291 65.9469 38.0487 63.0622 38.0487 60.0827C38.0487 57.1032 38.6291 54.2185 39.7783 51.5056C40.8848 48.8855 42.4902 46.5056 44.5052 44.4983C46.531 42.4725 48.8885 40.885 51.5125 39.7714C54.2195 38.6282 57.1042 38.0477 60.0837 38.0477C63.0632 38.0477 65.9478 38.6282 68.6608 39.7773C71.2808 40.8838 73.6608 42.4893 75.6681 44.5042C77.6939 46.53 79.2814 48.8875 80.395 51.5116C81.5382 54.2185 82.1187 57.1032 82.1187 60.0827C82.1187 63.0622 81.5382 65.9469 80.3891 68.6598C79.2839 71.2788 77.6783 73.6571 75.6622 75.6612ZM69.0872 61.3266H66.2381C65.9893 61.3266 65.7761 61.5162 65.7583 61.765C65.5332 64.697 63.075 67.0131 60.0837 67.0131C57.0924 67.0131 54.6282 64.697 54.4091 61.765C54.3913 61.5162 54.1781 61.3266 53.9293 61.3266H51.0801C51.0158 61.3265 50.9522 61.3395 50.8931 61.3648C50.834 61.3901 50.7807 61.4271 50.7364 61.4737C50.6921 61.5202 50.6577 61.5753 50.6353 61.6356C50.6129 61.6958 50.603 61.76 50.6063 61.8242C50.8669 66.8176 55.0192 70.8041 60.0837 70.8041C65.1482 70.8041 69.3005 66.8176 69.5611 61.8242C69.5643 61.76 69.5545 61.6958 69.5321 61.6356C69.5097 61.5753 69.4753 61.5202 69.431 61.4737C69.3867 61.4271 69.3333 61.3901 69.2742 61.3648C69.2151 61.3395 69.1515 61.3265 69.0872 61.3266Z" fill="#7146DC"/>
</svg>
